# This file uses centimeters as units for non-parametric coordinates.

mtllib Ceiling.mtl
g default
v -7.987708 12.560835 47.594030
v -7.987708 12.770873 47.594030
v -7.987708 12.770873 -26.973859
v 12.377075 12.770873 -26.973859
v -7.987708 12.560835 -26.973859
v 12.377075 12.560835 -26.973859
v -7.987708 12.770873 -2.846417
v 12.377075 12.770873 -2.846417
v 12.377075 12.560835 -2.846417
v -7.987708 12.560835 -2.846417
v -7.987708 12.770873 21.912179
v -7.987708 12.560835 21.912179
v 16.356279 12.770857 21.912179
v 16.356279 12.560820 21.912179
v 16.356279 12.560820 -2.846417
v 16.356279 12.770857 -2.846417
v 16.356279 12.560835 47.594030
v 16.356279 12.770873 47.594030
v 24.449119 12.770811 21.912179
v 24.449119 12.560774 21.912179
v 24.449119 12.560774 -2.846417
v 24.449119 12.770811 -2.846417
v -32.400555 12.560835 -2.846417
v -32.400555 12.770873 -2.846417
v -32.400555 12.560835 21.912179
v -32.400555 12.770873 21.912179
v -32.267724 12.550383 -2.782784
v -7.820865 12.550383 -2.782784
v -32.267724 12.760420 -2.782784
v -7.820865 12.760420 -2.782784
v -32.267724 12.760420 -27.229636
v -7.820865 12.760420 -27.229636
v -32.267724 12.550383 -27.229636
v -7.820865 12.550383 -27.229636
v -7.987708 12.560835 33.075738
v -7.987708 12.770873 33.075738
v -20.620085 12.560835 33.075738
v -20.620085 12.770873 33.075738
v -7.987708 12.560835 60.743448
v -7.987708 12.770873 60.743448
v -20.620085 12.770873 60.743448
v -20.620085 12.560835 60.743448
v -20.592091 12.770873 21.912179
v -20.592091 12.560835 21.912179
v -7.987708 12.560835 47.234937
v -7.987708 12.770873 47.234937
v -20.620085 12.770873 47.234937
v -20.620085 12.560835 47.234937
v -27.519639 12.770873 47.234937
v -27.519639 12.560835 47.234937
v -27.519639 12.560835 60.743448
v -27.519639 12.770873 60.743448
vt 0.375000 0.000000
vt 0.375000 0.250000
vt 0.375000 0.500000
vt 0.625000 0.500000
vt 0.375000 0.750000
vt 0.625000 0.750000
vt 0.375000 1.000000
vt 0.875000 0.000000
vt 0.875000 0.250000
vt 0.125000 0.000000
vt 0.125000 0.250000
vt 0.216357 0.250000
vt 0.375000 0.408643
vt 0.625000 0.408643
vt 0.783643 0.250000
vt 0.625000 0.841357
vt 0.783643 0.000000
vt 0.216357 0.000000
vt 0.375000 0.841357
vt 0.310104 0.250000
vt 0.375000 0.314896
vt 0.310104 0.000000
vt 0.375000 0.935104
vt 0.689896 0.000000
vt 0.783643 0.000000
vt 0.783643 0.250000
vt 0.689896 0.250000
vt 0.625000 0.000000
vt 0.625000 0.250000
vt 0.689896 0.250000
vt 0.689896 0.000000
vt 0.783643 0.000000
vt 0.783643 0.250000
vt 0.216357 0.250000
vt 0.216357 0.000000
vt 0.310104 0.000000
vt 0.310104 0.250000
vt 0.375000 0.000000
vt 0.625000 0.000000
vt 0.625000 0.250000
vt 0.375000 0.250000
vt 0.625000 0.500000
vt 0.375000 0.500000
vt 0.625000 0.750000
vt 0.375000 0.750000
vt 0.625000 1.000000
vt 0.375000 1.000000
vt 0.875000 0.000000
vt 0.875000 0.250000
vt 0.125000 0.000000
vt 0.125000 0.250000
vt 0.310104 0.000000
vt 0.310104 0.250000
vt 0.310104 0.000000
vt 0.310104 0.250000
vt 0.310104 0.000000
vt 0.310104 0.250000
vt 0.310104 0.250000
vt 0.310104 0.000000
vt 0.310104 0.250000
vt 0.310104 0.000000
vt 0.310104 0.000000
vt 0.310104 0.250000
vt 0.310104 0.250000
vt 0.310104 0.000000
vt 0.310104 0.250000
vt 0.310104 0.000000
vt 0.310104 0.000000
vt 0.310104 0.250000
vn 0.000000 0.000000 1.000000
vn 0.000000 0.000000 1.000000
vn 0.000000 0.000000 1.000000
vn 0.000000 0.000000 1.000000
vn 0.000000 1.000000 0.000000
vn 0.000000 1.000000 0.000000
vn 0.000000 1.000000 0.000000
vn 0.000000 1.000000 0.000000
vn 0.000000 0.000000 -1.000000
vn 0.000000 0.000000 -1.000000
vn 0.000000 0.000000 -1.000000
vn 0.000000 0.000000 -1.000000
vn 0.000000 -1.000000 0.000000
vn 0.000000 -1.000000 0.000000
vn -0.000000 -1.000000 -0.000000
vn -0.000000 -1.000000 -0.000000
vn 1.000000 0.000000 0.000000
vn 1.000000 0.000000 0.000000
vn 1.000000 0.000000 0.000000
vn 1.000000 0.000000 0.000000
vn -1.000000 0.000000 0.000000
vn -1.000000 0.000000 0.000000
vn -1.000000 0.000000 0.000000
vn -1.000000 0.000000 0.000000
vn 0.000000 1.000000 -0.000000
vn 0.000001 1.000000 -0.000000
vn 0.000002 1.000000 0.000000
vn 1.000000 0.000000 0.000000
vn 1.000000 0.000000 0.000000
vn 1.000000 0.000000 0.000000
vn 1.000000 0.000000 0.000000
vn -0.000000 -1.000000 0.000000
vn -0.000002 -1.000000 -0.000000
vn -0.000001 -1.000000 0.000000
vn -1.000000 0.000000 0.000000
vn -1.000000 0.000000 0.000000
vn -1.000000 0.000000 0.000000
vn -1.000000 0.000000 0.000000
vn 0.000000 1.000000 -0.000000
vn 0.000000 1.000000 -0.000000
vn 1.000000 0.000000 0.000000
vn 1.000000 0.000000 0.000000
vn 1.000000 0.000000 0.000000
vn 1.000000 0.000000 0.000000
vn -0.000000 -1.000000 0.000000
vn -0.000000 -1.000000 0.000000
vn -1.000000 0.000000 0.000000
vn -1.000000 0.000000 0.000000
vn -1.000000 0.000000 0.000000
vn -1.000000 0.000000 0.000000
vn 0.000000 0.000000 -1.000000
vn 0.000000 0.000000 -1.000000
vn 0.000000 0.000000 -1.000000
vn 0.000000 0.000000 -1.000000
vn 0.000000 0.000000 1.000000
vn 0.000000 0.000000 1.000000
vn 0.000000 0.000000 1.000000
vn 0.000000 0.000000 1.000000
vn -0.000006 -1.000000 0.000000
vn -0.000006 -1.000000 0.000000
vn -0.000000 0.000000 -1.000000
vn -0.000000 0.000000 -1.000000
vn 0.000006 1.000000 0.000000
vn 0.000006 1.000000 0.000000
vn 0.000000 0.000000 -1.000000
vn 0.000000 0.000000 -1.000000
vn 0.000000 0.000000 -1.000000
vn 0.000000 0.000000 -1.000000
vn 0.000000 -1.000000 0.000000
vn 0.000000 -1.000000 0.000000
vn 0.000000 -1.000000 0.000000
vn 0.000000 1.000000 0.000000
vn 0.000000 1.000000 0.000000
vn 0.000000 1.000000 0.000000
vn 0.000000 0.000000 1.000000
vn 0.000000 0.000000 1.000000
vn 0.000000 0.000000 1.000000
vn 0.000000 0.000000 1.000000
vn 0.000000 1.000000 0.000000
vn 0.000000 1.000000 0.000000
vn 0.000000 1.000000 0.000000
vn 0.000000 1.000000 0.000000
vn 0.000000 0.000000 -1.000000
vn 0.000000 0.000000 -1.000000
vn 0.000000 0.000000 -1.000000
vn 0.000000 0.000000 -1.000000
vn 0.000000 -1.000000 0.000000
vn 0.000000 -1.000000 0.000000
vn 0.000000 -1.000000 0.000000
vn 0.000000 -1.000000 0.000000
vn 1.000000 0.000000 0.000000
vn 1.000000 0.000000 0.000000
vn 1.000000 0.000000 0.000000
vn 1.000000 0.000000 0.000000
vn -1.000000 0.000000 0.000000
vn -1.000000 0.000000 0.000000
vn -1.000000 0.000000 0.000000
vn -1.000000 0.000000 0.000000
vn 1.000000 0.000000 0.000000
vn 1.000000 0.000000 0.000000
vn 1.000000 0.000000 0.000000
vn 1.000000 0.000000 0.000000
vn 0.000000 1.000000 0.000000
vn 0.000000 1.000000 0.000000
vn 0.000000 -1.000000 0.000000
vn 0.000000 -1.000000 0.000000
vn 0.000000 0.000000 1.000000
vn 0.000000 0.000000 1.000000
vn 0.000000 0.000000 1.000000
vn 0.000000 0.000000 1.000000
vn 1.000000 0.000000 0.000000
vn 1.000000 0.000000 0.000000
vn 1.000000 0.000000 0.000000
vn 1.000000 0.000000 0.000000
vn 0.000000 1.000000 0.000000
vn 0.000000 1.000000 0.000000
vn 0.000000 1.000000 0.000000
vn 0.000000 1.000000 0.000000
vn -1.000000 0.000000 0.000000
vn -1.000000 0.000000 0.000000
vn -1.000000 0.000000 0.000000
vn -1.000000 0.000000 0.000000
vn 0.000000 -1.000000 0.000000
vn 0.000000 -1.000000 0.000000
vn 0.000000 -1.000000 0.000000
vn 0.000000 -1.000000 0.000000
vn 0.000000 0.000000 1.000000
vn 0.000000 0.000000 1.000000
vn -0.687845 0.000000 0.725858
vn -0.687845 0.000000 0.725858
vn -0.999997 0.000000 -0.002508
vn -0.999997 0.000000 -0.002508
vn -1.000000 0.000000 0.000000
vn -1.000000 0.000000 0.000000
vn -1.000000 0.000000 0.000000
vn -1.000000 0.000000 0.000000
vn 0.000000 0.000000 -1.000000
vn 0.000000 0.000000 -1.000000
vn 0.000000 0.000000 -1.000000
vn 0.000000 0.000000 -1.000000
vn 0.000000 -1.000000 0.000000
vn 0.000000 -1.000000 0.000000
vn 0.000000 0.000000 1.000000
vn 0.000000 0.000000 1.000000
vn 0.000000 1.000000 0.000000
vn 0.000000 1.000000 0.000000
s off
g pCube695
usemtl initialShadingGroup
f 2/2/1 1/1/2 17/28/3 18/29/4
s 1
f 7/13/5 8/14/6 4/4/7 3/3/8
s off
f 3/3/9 4/4/10 6/6/11 5/5/12
s 2
f 5/5/13 6/6/14 9/16/15 10/19/16
s off
f 8/15/17 9/17/18 6/8/19 4/9/20
f 5/10/21 10/18/22 7/12/23 3/11/24
s 1
f 8/14/6 7/13/5 11/21/25 13/27/26 16/26/27
s off
f 19/30/28 20/31/29 21/32/30 22/33/31
s 2
f 12/23/32 10/19/16 9/17/15 15/25/33 14/24/34
s off
f 24/34/35 23/35/36 25/36/37 26/37/38
s 1
f 11/21/25 2/2/39 18/29/40 13/27/26
s off
f 17/28/41 14/24/42 13/27/43 18/29/44
s 2
f 1/7/45 12/23/32 14/24/34 17/28/46
s off
f 11/20/47 12/22/48 1/1/49 2/2/50
s 3
f 9/17/51 8/15/52 16/26/53 15/25/54
s off
f 13/27/55 14/24/56 20/31/57 19/30/58
s 2
f 14/24/34 15/25/33 21/32/59 20/31/60
s 3
f 15/25/54 16/26/53 22/33/61 21/32/62
s 1
f 16/26/27 13/27/26 19/30/63 22/33/64
s off
f 10/18/65 23/35/66 24/34/67 7/12/68
s 2
f 25/36/69 23/35/70 10/18/16 12/22/32 44/61/71
s 1
f 24/34/72 26/37/73 43/60/74 11/20/25 7/12/5
s off
f 27/38/75 28/39/76 30/40/77 29/41/78
f 29/41/79 30/40/80 32/42/81 31/43/82
f 31/43/83 32/42/84 34/44/85 33/45/86
f 33/45/87 34/44/88 28/46/89 27/47/90
f 28/39/91 34/48/92 32/49/93 30/40/94
f 33/50/95 27/38/96 29/41/97 31/51/98
s 4
f 12/22/99 11/20/100 36/53/101 35/52/102
s 1
f 43/60/74 38/55/103 36/53/104 11/20/25
s 2
f 37/54/105 44/61/71 12/22/32 35/52/106
s 5
f 39/56/107 40/57/108 41/58/109 42/59/110
s 4
f 45/62/111 46/63/112 40/57/113 39/56/114
s 1
f 46/63/115 47/64/116 41/58/117 40/57/118
s off
f 49/66/119 50/67/120 51/68/121 52/69/122
s 2
f 48/65/123 45/62/124 39/56/125 42/59/126
s 6
f 26/37/127 25/36/128 44/61/129 43/60/130
f 43/60/130 44/61/129 37/54/131 38/55/132
s 4
f 35/52/102 36/53/101 46/63/112 45/62/111
s 1
f 36/53/104 38/55/103 47/64/116 46/63/115
s off
f 38/55/133 37/54/134 48/65/135 47/64/136
s 2
f 37/54/105 35/52/106 45/62/124 48/65/123
s off
f 47/64/137 48/65/138 50/67/139 49/66/140
s 2
f 48/65/123 42/59/126 51/68/141 50/67/142
s 5
f 42/59/110 41/58/109 52/69/143 51/68/144
s 1
f 41/58/117 47/64/116 49/66/145 52/69/146
