# This file uses centimeters as units for non-parametric coordinates.

mtllib Wall.mtl
g default
v 3.114884 3.095050 0.500000
v 4.999999 2.738020 0.500000
v 2.499999 5.000000 0.500000
v 4.999999 5.000000 0.500000
v 2.499999 5.000000 -0.500000
v 4.999999 5.000000 -0.500000
v 3.114884 3.095050 -0.500000
v 4.999999 2.738020 -0.500000
v -0.350537 1.024644 0.500000
v 2.995875 0.218185 0.500000
v 0.943752 3.524644 0.500000
v 4.999999 -0.535545 0.500000
v 0.892574 5.000000 0.500000
v 0.892574 5.000000 -0.500000
v 0.943752 3.524644 -0.500000
v 2.995875 0.218185 -0.500000
v -0.350537 1.024644 -0.500000
v 4.999999 -0.535545 -0.500000
vt 0.500000 0.125000
vt 0.562500 0.125000
vt 0.562500 0.187500
vt 0.500000 0.187500
vt 0.625000 0.125000
vt 0.625000 0.187500
vt 0.562500 0.250000
vt 0.500000 0.250000
vt 0.625000 0.250000
vt 0.562500 0.500000
vt 0.500000 0.500000
vt 0.625000 0.500000
vt 0.562500 0.562500
vt 0.500000 0.562500
vt 0.625000 0.562500
vt 0.562500 0.625000
vt 0.500000 0.625000
vt 0.750000 0.375000
vt 0.875000 0.187500
vt 0.875000 0.250000
vn 0.000000 0.000000 1.000000
vn -0.000000 0.000000 1.000000
vn -0.000000 0.000000 1.000000
vn 0.000000 0.000000 1.000000
vn -0.000000 0.000000 1.000000
vn -0.000000 0.000000 1.000000
vn 0.000000 0.000000 1.000000
vn 0.000000 0.000000 1.000000
vn 0.000000 0.000000 1.000000
vn 0.000000 1.000000 0.000000
vn 0.000000 1.000000 0.000000
vn 0.000000 1.000000 0.000000
vn 0.000000 1.000000 0.000000
vn 0.000000 1.000000 0.000000
vn 0.000000 1.000000 0.000000
vn 0.000000 0.000000 -1.000000
vn 0.000000 0.000000 -1.000000
vn -0.000000 0.000000 -1.000000
vn 0.000000 0.000000 -1.000000
vn 0.000000 0.000000 -1.000000
vn -0.000000 0.000000 -1.000000
vn -0.000000 0.000000 -1.000000
vn 0.000000 0.000000 -1.000000
vn -0.000000 0.000000 -1.000000
vn 1.000000 0.000000 0.000000
vn 1.000000 0.000000 0.000000
vn 1.000000 0.000000 0.000000
vn 1.000000 0.000000 0.000000
vn 1.000000 0.000000 0.000000
vn 1.000000 0.000000 0.000000
vn -0.352017 -0.935993 0.000000
vn -0.279937 -0.960019 0.000000
vn -0.279937 -0.960019 0.000000
vn -0.352017 -0.935993 0.000000
vn -0.234285 -0.972168 0.000000
vn -0.234285 -0.972168 0.000000
vn -0.888046 0.459755 0.000000
vn -0.954424 0.298453 0.000000
vn -0.954424 0.298453 0.000000
vn -0.888046 0.459755 0.000000
vn -0.999399 -0.034667 0.000000
vn -0.999399 -0.034667 0.000000
s 1
g polySurface6 pCube2
usemtl initialShadingGroup
f 9/1/1 10/2/2 1/3/3 11/4/4
f 10/2/2 12/5/5 2/6/6 1/3/3
f 11/4/4 1/3/3 3/7/7 13/8/8
f 1/3/3 2/6/6 4/9/9 3/7/7
s 2
f 13/8/10 3/7/11 5/10/12 14/11/13
f 3/7/11 4/9/14 6/12/15 5/10/12
s 3
f 14/11/16 5/10/17 7/13/18 15/14/19
f 5/10/17 6/12/20 8/15/21 7/13/18
f 15/14/19 7/13/18 16/16/22 17/17/23
f 7/13/18 8/15/21 18/18/24 16/16/22
s 4
f 12/5/25 18/18/26 8/19/27 2/6/28
f 2/6/28 8/19/27 6/20/29 4/9/30
s 5
f 12/5/31 10/2/32 16/16/33 18/18/34
f 10/2/32 9/1/35 17/17/36 16/16/33
s 6
f 9/1/37 11/4/38 15/14/39 17/17/40
f 11/4/38 13/8/41 14/11/42 15/14/39
g default
v -5.000000 2.500000 0.500000
v -2.095535 3.120179 0.500000
v 0.943752 3.524644 0.500000
v -5.000000 5.000000 0.500000
v -2.500000 5.000000 0.500000
v 0.892575 5.000000 0.500000
v -5.000000 5.000000 -0.500000
v -2.500000 5.000000 -0.500000
v 0.892575 5.000000 -0.500000
v -5.000000 2.500000 -0.500000
v -2.095535 3.120179 -0.500000
v 0.943752 3.524644 -0.500000
v -5.000000 0.000000 0.500000
v -3.372740 0.357030 0.500000
v -0.350536 1.024644 0.500000
v -3.372740 0.357030 -0.500000
v -5.000000 0.000000 -0.500000
v -0.350536 1.024644 -0.500000
vt 0.375000 0.125000
vt 0.437500 0.125000
vt 0.437500 0.187500
vt 0.375000 0.187500
vt 0.500000 0.125000
vt 0.500000 0.187500
vt 0.437500 0.250000
vt 0.375000 0.250000
vt 0.500000 0.250000
vt 0.437500 0.500000
vt 0.375000 0.500000
vt 0.500000 0.500000
vt 0.437500 0.562500
vt 0.375000 0.562500
vt 0.500000 0.562500
vt 0.437500 0.625000
vt 0.250000 0.375000
vt 0.500000 0.625000
vt 0.125000 0.187500
vt 0.125000 0.250000
vn 0.000000 0.000000 1.000000
vn 0.000000 0.000000 1.000000
vn 0.000000 0.000000 1.000000
vn 0.000000 0.000000 1.000000
vn 0.000000 0.000000 1.000000
vn 0.000000 0.000000 1.000000
vn 0.000000 0.000000 1.000000
vn 0.000000 0.000000 1.000000
vn 0.000000 0.000000 1.000000
vn 0.000000 1.000000 0.000000
vn 0.000000 1.000000 0.000000
vn 0.000000 1.000000 0.000000
vn 0.000000 1.000000 0.000000
vn 0.000000 1.000000 0.000000
vn 0.000000 1.000000 0.000000
vn 0.000000 0.000000 -1.000000
vn 0.000000 0.000000 -1.000000
vn 0.000000 0.000000 -1.000000
vn 0.000000 0.000000 -1.000000
vn 0.000000 0.000000 -1.000000
vn 0.000000 0.000000 -1.000000
vn 0.000000 0.000000 -1.000000
vn 0.000000 0.000000 -1.000000
vn 0.000000 0.000000 -1.000000
vn -1.000000 0.000000 0.000000
vn -1.000000 0.000000 0.000000
vn -1.000000 0.000000 0.000000
vn -1.000000 0.000000 0.000000
vn -1.000000 0.000000 0.000000
vn -1.000000 0.000000 0.000000
vn 0.999399 0.034667 0.000000
vn 0.954424 -0.298453 0.000000
vn 0.954424 -0.298453 0.000000
vn 0.999399 0.034667 0.000000
vn 0.888046 -0.459755 0.000000
vn 0.888046 -0.459755 0.000000
vn 0.215703 -0.976459 0.000000
vn 0.215215 -0.976567 0.000000
vn 0.215215 -0.976567 0.000000
vn 0.215703 -0.976459 0.000000
vn 0.214308 -0.976766 0.000000
vn 0.214308 -0.976766 0.000000
s 1
g pCube2 polySurface8 polySurface5
usemtl initialShadingGroup
f 31/21/43 32/22/44 20/23/45 19/24/46
f 32/22/44 33/25/47 21/26/48 20/23/45
f 19/24/46 20/23/45 23/27/49 22/28/50
f 20/23/45 21/26/48 24/29/51 23/27/49
s 2
f 22/28/52 23/27/53 26/30/54 25/31/55
f 23/27/53 24/29/56 27/32/57 26/30/54
s 3
f 25/31/58 26/30/59 29/33/60 28/34/61
f 26/30/59 27/32/62 30/35/63 29/33/60
f 28/34/61 29/33/60 34/36/64 35/37/65
f 29/33/60 30/35/63 36/38/66 34/36/64
s 4
f 35/37/67 31/21/68 19/24/69 28/39/70
f 28/39/70 19/24/69 22/28/71 25/40/72
s 5
f 24/29/73 21/26/74 30/35/75 27/32/76
f 21/26/74 33/25/77 36/38/78 30/35/75
s 6
f 33/25/79 32/22/80 34/36/81 36/38/82
f 32/22/80 31/21/83 35/37/84 34/36/81
g default
v -5.000000 -5.000000 0.500000
v -2.500000 -5.000000 0.500000
v -5.000000 -2.500000 0.500000
v -2.817360 -2.043795 0.500000
v -5.000000 0.000000 0.500000
v -3.372741 0.357030 0.500000
v -5.000000 0.000000 -0.500000
v -3.372741 0.357030 -0.500000
v -5.000000 -2.500000 -0.500000
v -2.817360 -2.043795 -0.500000
v -5.000000 -5.000000 -0.500000
v -2.500000 -5.000000 -0.500000
v 0.555380 -5.000000 0.500000
v -0.357030 -3.114885 0.500000
v -0.350536 1.024644 0.500000
v -0.350536 1.024644 -0.500000
v -0.357030 -3.114885 -0.500000
v 0.555380 -5.000000 -0.500000
vt 0.375000 0.000000
vt 0.437500 0.000000
vt 0.437500 0.062500
vt 0.375000 0.062500
vt 0.500000 0.500000
vt 0.500000 0.062500
vt 0.437500 0.125000
vt 0.375000 0.125000
vt 0.500000 0.125000
vt 0.250000 0.375000
vt 0.437500 0.625000
vt 0.437500 0.687500
vt 0.375000 0.687500
vt 0.500000 0.625000
vt 0.500000 0.687500
vt 0.437500 0.750000
vt 0.375000 0.750000
vt 0.500000 0.750000
vt 0.437500 1.000000
vt 0.375000 1.000000
vt 0.125000 0.000000
vt 0.125000 0.062500
vn 0.000000 0.000000 1.000000
vn 0.000000 0.000000 1.000000
vn 0.000000 0.000000 1.000000
vn 0.000000 0.000000 1.000000
vn 0.000000 0.000000 1.000000
vn 0.000000 0.000000 1.000000
vn 0.000000 0.000000 1.000000
vn 0.000000 0.000000 1.000000
vn 0.000000 0.000000 1.000000
vn 0.000000 0.000000 -1.000000
vn 0.000000 0.000000 -1.000000
vn 0.000000 0.000000 -1.000000
vn 0.000000 0.000000 -1.000000
vn 0.000000 0.000000 -1.000000
vn 0.000000 0.000000 -1.000000
vn 0.000000 0.000000 -1.000000
vn 0.000000 0.000000 -1.000000
vn 0.000000 0.000000 -1.000000
vn 0.000000 -1.000000 0.000000
vn 0.000000 -1.000000 0.000000
vn 0.000000 -1.000000 0.000000
vn 0.000000 -1.000000 0.000000
vn 0.000000 -1.000000 0.000000
vn 0.000000 -1.000000 0.000000
vn -1.000000 0.000000 0.000000
vn -1.000000 0.000000 0.000000
vn -1.000000 0.000000 0.000000
vn -1.000000 0.000000 0.000000
vn -1.000000 0.000000 0.000000
vn -1.000000 0.000000 0.000000
vn -0.214308 0.976766 0.000000
vn -0.215215 0.976567 0.000000
vn -0.215215 0.976567 0.000000
vn -0.214308 0.976766 0.000000
vn -0.215703 0.976459 0.000000
vn -0.215703 0.976459 0.000000
vn 0.999999 -0.001569 0.000000
vn 0.988883 0.148697 0.000000
vn 0.988883 0.148697 0.000000
vn 0.999999 -0.001569 0.000000
vn 0.900111 0.435661 0.000000
vn 0.900111 0.435661 0.000000
s 1
g pCube2 polySurface5 polySurface9 polySurface7
usemtl initialShadingGroup
f 37/41/85 38/42/86 40/43/87 39/44/88
f 38/42/86 49/45/89 50/46/90 40/43/87
f 39/44/88 40/43/87 42/47/91 41/48/92
f 40/43/87 50/46/90 51/49/93 42/47/91
s 2
f 43/50/94 44/51/95 46/52/96 45/53/97
f 44/51/95 52/54/98 53/55/99 46/52/96
f 45/53/97 46/52/96 48/56/100 47/57/101
f 46/52/96 53/55/99 54/58/102 48/56/100
s 3
f 47/57/103 48/56/104 38/59/105 37/60/106
f 48/56/104 54/58/107 49/45/108 38/59/105
s 4
f 47/61/109 37/41/110 39/44/111 45/62/112
f 45/62/112 39/44/111 41/48/113 43/50/114
s 5
f 41/48/115 42/47/116 44/51/117 43/50/118
f 42/47/116 51/49/119 52/54/120 44/51/117
s 6
f 51/49/121 50/46/122 53/55/123 52/54/124
f 50/46/122 49/45/125 54/58/126 53/55/123
g default
v 0.555380 -5.000000 0.500000
v 2.500000 -5.000000 0.500000
v 5.000000 -5.000000 0.500000
v -0.357030 -3.114885 0.500000
v 1.666930 -1.825610 0.500000
v 5.000000 -2.500000 0.500000
v -0.350536 1.024644 0.500000
v 2.995875 0.218185 0.500000
v 5.000000 -0.535545 0.500000
v -0.350536 1.024644 -0.500000
v 2.995875 0.218185 -0.500000
v 5.000000 -0.535545 -0.500000
v -0.357030 -3.114885 -0.500000
v 1.666930 -1.825610 -0.500000
v 5.000000 -2.500000 -0.500000
v 0.555380 -5.000000 -0.500000
v 2.500000 -5.000000 -0.500000
v 5.000000 -5.000000 -0.500000
vt 0.500000 0.500000
vt 0.562500 0.000000
vt 0.562500 0.062500
vt 0.500000 0.062500
vt 0.625000 0.000000
vt 0.625000 0.062500
vt 0.562500 0.125000
vt 0.500000 0.125000
vt 0.625000 0.125000
vt 0.500000 0.625000
vt 0.562500 0.625000
vt 0.562500 0.687500
vt 0.500000 0.687500
vt 0.750000 0.375000
vt 0.625000 0.687500
vt 0.562500 0.750000
vt 0.500000 0.750000
vt 0.625000 0.750000
vt 0.562500 1.000000
vt 0.625000 1.000000
vt 0.875000 0.000000
vt 0.875000 0.062500
vn 0.000000 0.000000 1.000000
vn 0.000000 0.000000 1.000000
vn -0.000000 0.000000 1.000000
vn 0.000000 0.000000 1.000000
vn 0.000000 0.000000 1.000000
vn -0.000000 0.000000 1.000000
vn -0.000000 0.000000 1.000000
vn 0.000000 0.000000 1.000000
vn -0.000000 0.000000 1.000000
vn 0.000000 0.000000 -1.000000
vn -0.000000 0.000000 -1.000000
vn -0.000000 0.000000 -1.000000
vn 0.000000 0.000000 -1.000000
vn -0.000000 0.000000 -1.000000
vn -0.000000 0.000000 -1.000000
vn 0.000000 0.000000 -1.000000
vn 0.000000 0.000000 -1.000000
vn 0.000000 0.000000 -1.000000
vn 0.000000 -1.000000 0.000000
vn 0.000000 -1.000000 0.000000
vn 0.000000 -1.000000 0.000000
vn 0.000000 -1.000000 0.000000
vn 0.000000 -1.000000 0.000000
vn 0.000000 -1.000000 0.000000
vn 1.000000 0.000000 0.000000
vn 1.000000 0.000000 0.000000
vn 1.000000 0.000000 0.000000
vn 1.000000 0.000000 0.000000
vn 1.000000 0.000000 0.000000
vn 1.000000 0.000000 0.000000
vn -0.900111 -0.435661 0.000000
vn -0.988883 -0.148697 0.000000
vn -0.988883 -0.148697 0.000000
vn -0.900111 -0.435661 0.000000
vn -0.999999 0.001569 0.000000
vn -0.999999 0.001569 0.000000
vn 0.234285 0.972168 0.000000
vn 0.279937 0.960019 0.000000
vn 0.279937 0.960019 0.000000
vn 0.234285 0.972168 0.000000
vn 0.352017 0.935993 0.000000
vn 0.352017 0.935993 0.000000
s 1
g pCube2 polySurface5 polySurface7 polySurface10
usemtl initialShadingGroup
f 55/63/127 56/64/128 59/65/129 58/66/130
f 56/64/128 57/67/131 60/68/132 59/65/129
f 58/66/130 59/65/129 62/69/133 61/70/134
f 59/65/129 60/68/132 63/71/135 62/69/133
s 2
f 64/72/136 65/73/137 68/74/138 67/75/139
f 65/73/137 66/76/140 69/77/141 68/74/138
f 67/75/139 68/74/138 71/78/142 70/79/143
f 68/74/138 69/77/141 72/80/144 71/78/142
s 3
f 70/79/145 71/78/146 56/81/147 55/63/148
f 71/78/146 72/80/149 57/82/150 56/81/147
s 4
f 57/67/151 72/83/152 69/84/153 60/68/154
f 60/68/154 69/84/153 66/76/155 63/71/156
s 5
f 55/63/157 58/66/158 67/75/159 70/79/160
f 58/66/158 61/70/161 64/72/162 67/75/159
s 6
f 61/70/163 62/69/164 65/73/165 64/72/166
f 62/69/164 63/71/167 66/76/168 65/73/165
