# This file uses centimeters as units for non-parametric coordinates.

mtllib con_pipe.mtl
g default
v 10.946690 2.290784 -1.406055
v 10.806917 2.149737 -2.252434
v 10.666630 1.751487 -3.012390
v 10.539558 1.135018 -3.611530
v 10.438141 0.360672 -3.991207
v 10.372305 -0.495750 -4.114258
v 10.348494 -1.350418 -3.968636
v 10.369041 -2.119669 -3.568596
v 10.431932 -2.728203 -2.953293
v 10.531015 -3.116455 -2.182964
v 10.656588 -3.246419 -1.333012
v 10.796360 -3.105372 -0.486633
v 10.936647 -2.707121 0.273323
v 11.063719 -2.090652 0.872463
v 11.165136 -1.316306 1.252140
v 11.230974 -0.459883 1.375191
v 11.254784 0.394784 1.229568
v 11.234238 1.164035 0.829529
v 11.171345 1.772571 0.214230
v 11.072262 2.160822 -0.556103
v -10.656590 3.246418 1.333008
v -10.796360 3.105372 0.486629
v -10.936649 2.707122 -0.273323
v -11.063721 2.090652 -0.872463
v -11.165138 1.316306 -1.252144
v -11.230976 0.459884 -1.375195
v -11.254784 -0.394783 -1.229572
v -11.234238 -1.164034 -0.829529
v -11.171345 -1.772569 -0.214230
v -11.072266 -2.160821 0.556099
v -10.946690 -2.290784 1.406052
v -10.806919 -2.149738 2.252430
v -10.666634 -1.751487 3.012386
v -10.539558 -1.135018 3.611526
v -10.438141 -0.360672 3.991203
v -10.372307 0.495751 4.114254
v -10.348495 1.350418 3.968632
v -10.369041 2.119669 3.568592
v -10.431934 2.728205 2.953293
v -10.531017 3.116456 2.182964
v -10.642990 3.505975 1.329586
v -10.795864 3.351705 0.403858
v -10.949306 2.916119 -0.427341
v -11.088291 2.241856 -1.082653
v -11.199219 1.394915 -1.497925
v -11.271225 0.458203 -1.632511
v -11.297268 -0.476590 -1.473236
v -11.274796 -1.317958 -1.035694
v -11.206005 -1.983544 -0.362709
v -11.097633 -2.408194 0.479839
v -10.960289 -2.550340 1.409477
v -10.807415 -2.396071 2.335205
v -10.653976 -1.960485 3.166405
v -10.514992 -1.286221 3.821712
v -10.404064 -0.439281 4.236988
v -10.332054 0.497432 4.371574
v -10.306011 1.432225 4.212299
v -10.328487 2.273593 3.774754
v -10.397274 2.939179 3.101768
v -10.505646 3.363829 2.259220
v 10.960289 2.550340 -1.409481
v 10.807413 2.396071 -2.335205
v 10.653973 1.960485 -3.166405
v 10.514988 1.286221 -3.821716
v 10.404062 0.439281 -4.236988
v 10.332052 -0.497432 -4.371574
v 10.306011 -1.432224 -4.212299
v 10.328484 -2.273592 -3.774757
v 10.397274 -2.939178 -3.101772
v 10.505644 -3.363827 -2.259224
v 10.642988 -3.505975 -1.329586
v 10.795864 -3.351706 -0.403858
v 10.949305 -2.916120 0.427341
v 11.088289 -2.241855 1.082649
v 11.199217 -1.394915 1.497925
v 11.271225 -0.458202 1.632511
v 11.297268 0.476590 1.473236
v 11.274794 1.317959 1.035690
v 11.206003 1.983545 0.362705
v 11.097631 2.408195 -0.479843
vt 0.050000 1.000000
vt 0.000000 1.000000
vt 0.000000 0.750000
vt 0.050000 0.750000
vt 0.100000 1.000000
vt 0.100000 0.750000
vt 0.150000 1.000000
vt 0.150000 0.750000
vt 0.200000 1.000000
vt 0.200000 0.750000
vt 0.250000 1.000000
vt 0.250000 0.750000
vt 0.300000 1.000000
vt 0.300000 0.750000
vt 0.350000 1.000000
vt 0.350000 0.750000
vt 0.400000 1.000000
vt 0.400000 0.750000
vt 0.450000 1.000000
vt 0.450000 0.750000
vt 0.500000 1.000000
vt 0.500000 0.750000
vt 0.550000 1.000000
vt 0.550000 0.750000
vt 0.600000 1.000000
vt 0.600000 0.750000
vt 0.650000 1.000000
vt 0.650000 0.750000
vt 0.700000 1.000000
vt 0.700000 0.750000
vt 0.750000 1.000000
vt 0.750000 0.750000
vt 0.800000 1.000000
vt 0.800000 0.750000
vt 0.850000 1.000000
vt 0.850000 0.750000
vt 0.900000 1.000000
vt 0.900000 0.750000
vt 0.950000 1.000000
vt 0.950000 0.750000
vt 1.000000 1.000000
vt 1.000000 0.750000
vt 0.000000 0.500000
vt 0.050000 0.500000
vt 0.100000 0.500000
vt 0.150000 0.500000
vt 0.200000 0.500000
vt 0.250000 0.500000
vt 0.300000 0.500000
vt 0.350000 0.500000
vt 0.400000 0.500000
vt 0.450000 0.500000
vt 0.500000 0.500000
vt 0.550000 0.500000
vt 0.600000 0.500000
vt 0.650000 0.500000
vt 0.700000 0.500000
vt 0.750000 0.500000
vt 0.800000 0.500000
vt 0.850000 0.500000
vt 0.900000 0.500000
vt 0.950000 0.500000
vt 1.000000 0.500000
vt 0.000000 0.250000
vt 0.050000 0.250000
vt 0.100000 0.250000
vt 0.150000 0.250000
vt 0.200000 0.250000
vt 0.250000 0.250000
vt 0.300000 0.250000
vt 0.350000 0.250000
vt 0.400000 0.250000
vt 0.450000 0.250000
vt 0.500000 0.250000
vt 0.550000 0.250000
vt 0.600000 0.250000
vt 0.650000 0.250000
vt 0.700000 0.250000
vt 0.750000 0.250000
vt 0.800000 0.250000
vt 0.850000 0.250000
vt 0.900000 0.250000
vt 0.950000 0.250000
vt 1.000000 0.250000
vt 0.000000 0.000000
vt 0.050000 0.000000
vt 0.100000 0.000000
vt 0.150000 0.000000
vt 0.200000 0.000000
vt 0.250000 0.000000
vt 0.300000 0.000000
vt 0.350000 0.000000
vt 0.400000 0.000000
vt 0.450000 0.000000
vt 0.500000 0.000000
vt 0.550000 0.000000
vt 0.600000 0.000000
vt 0.650000 0.000000
vt 0.700000 0.000000
vt 0.750000 0.000000
vt 0.800000 0.000000
vt 0.850000 0.000000
vt 0.900000 0.000000
vt 0.950000 0.000000
vt 1.000000 0.000000
vn -0.022306 -0.985548 0.167923
vn -0.022306 -0.985548 0.167923
vn -0.022306 -0.985548 0.167923
vn -0.022306 -0.985548 0.167923
vn 0.039202 -0.806130 0.590439
vn -0.001958 -0.948885 0.315616
vn -0.001137 -0.946939 0.321412
vn 0.039950 -0.802638 0.595127
vn 0.076590 -0.584284 0.807927
vn 0.039202 -0.806130 0.590439
vn 0.039950 -0.802638 0.595127
vn 0.077138 -0.580190 0.810820
vn 0.106528 -0.304646 0.946490
vn 0.076590 -0.584284 0.807927
vn 0.077138 -0.580190 0.810820
vn 0.106823 -0.301125 0.947583
vn 0.126019 0.005492 0.992013
vn 0.106528 -0.304646 0.946490
vn 0.106823 -0.301125 0.947583
vn 0.126104 0.007476 0.991989
vn 0.133081 0.315408 0.939578
vn 0.126019 0.005492 0.992013
vn 0.126104 0.007476 0.991989
vn 0.133081 0.315477 0.939555
vn 0.126987 0.594157 0.794262
vn 0.133081 0.315408 0.939578
vn 0.133081 0.315477 0.939555
vn 0.127060 0.592671 0.795359
vn 0.108364 0.813988 0.570685
vn 0.126987 0.594157 0.794262
vn 0.127060 0.592671 0.795359
vn 0.108640 0.811908 0.573588
vn 0.079108 0.953349 0.291321
vn 0.108364 0.813988 0.570685
vn 0.108640 0.811908 0.573588
vn 0.079638 0.951856 0.296020
vn 0.042152 0.998982 -0.016076
vn 0.079108 0.953349 0.291321
vn 0.079638 0.951856 0.296020
vn 0.042890 0.999027 -0.010275
vn 0.001137 0.946939 -0.321412
vn 0.042152 0.998982 -0.016076
vn 0.042890 0.999027 -0.010275
vn 0.001958 0.948885 -0.315616
vn -0.039950 0.802638 -0.595127
vn 0.001137 0.946939 -0.321412
vn 0.001958 0.948885 -0.315616
vn -0.039202 0.806130 -0.590439
vn -0.077138 0.580190 -0.810820
vn -0.039950 0.802638 -0.595127
vn -0.039202 0.806130 -0.590439
vn -0.076590 0.584284 -0.807927
vn -0.106823 0.301125 -0.947583
vn -0.077138 0.580190 -0.810820
vn -0.076590 0.584284 -0.807927
vn -0.106528 0.304646 -0.946490
vn -0.126104 -0.007476 -0.991989
vn -0.106823 0.301125 -0.947583
vn -0.106528 0.304646 -0.946490
vn -0.126019 -0.005492 -0.992013
vn -0.133081 -0.315477 -0.939555
vn -0.126104 -0.007476 -0.991989
vn -0.126019 -0.005492 -0.992013
vn -0.133081 -0.315408 -0.939578
vn -0.127060 -0.592671 -0.795359
vn -0.133081 -0.315477 -0.939555
vn -0.133081 -0.315408 -0.939578
vn -0.126987 -0.594157 -0.794262
vn -0.108640 -0.811908 -0.573588
vn -0.127060 -0.592671 -0.795359
vn -0.126987 -0.594157 -0.794262
vn -0.108364 -0.813988 -0.570684
vn -0.079638 -0.951856 -0.296019
vn -0.108640 -0.811908 -0.573588
vn -0.108364 -0.813988 -0.570684
vn -0.079108 -0.953349 -0.291320
vn -0.042890 -0.999027 0.010275
vn -0.079638 -0.951856 -0.296019
vn -0.079108 -0.953349 -0.291320
vn -0.042152 -0.998982 0.016077
vn -0.986613 0.053720 0.153978
vn -0.986613 0.053721 0.153978
vn -0.986613 0.053721 0.153978
vn -0.986613 0.053720 0.153978
vn -0.986613 0.053721 0.153978
vn -0.986613 0.053720 0.153978
vn -0.986613 0.053720 0.153978
vn -0.986613 0.053721 0.153978
vn -0.986612 0.053721 0.153980
vn -0.986613 0.053721 0.153978
vn -0.986613 0.053721 0.153978
vn -0.986612 0.053721 0.153980
vn -0.986613 0.053721 0.153979
vn -0.986612 0.053721 0.153980
vn -0.986612 0.053721 0.153980
vn -0.986613 0.053721 0.153979
vn -0.986613 0.053721 0.153978
vn -0.986613 0.053721 0.153979
vn -0.986613 0.053721 0.153979
vn -0.986613 0.053721 0.153978
vn -0.986613 0.053722 0.153979
vn -0.986613 0.053721 0.153978
vn -0.986613 0.053721 0.153978
vn -0.986613 0.053722 0.153979
vn -0.986613 0.053721 0.153977
vn -0.986613 0.053722 0.153979
vn -0.986613 0.053722 0.153979
vn -0.986613 0.053721 0.153977
vn -0.986613 0.053720 0.153975
vn -0.986613 0.053721 0.153977
vn -0.986613 0.053721 0.153977
vn -0.986613 0.053720 0.153975
vn -0.986613 0.053720 0.153976
vn -0.986613 0.053720 0.153975
vn -0.986613 0.053720 0.153975
vn -0.986613 0.053720 0.153976
vn -0.986613 0.053721 0.153977
vn -0.986613 0.053720 0.153976
vn -0.986613 0.053720 0.153976
vn -0.986613 0.053721 0.153977
vn -0.986613 0.053721 0.153976
vn -0.986613 0.053721 0.153977
vn -0.986613 0.053721 0.153977
vn -0.986613 0.053721 0.153976
vn -0.986613 0.053721 0.153976
vn -0.986613 0.053721 0.153976
vn -0.986613 0.053721 0.153976
vn -0.986613 0.053721 0.153976
vn -0.986613 0.053721 0.153978
vn -0.986613 0.053721 0.153976
vn -0.986613 0.053721 0.153976
vn -0.986613 0.053721 0.153978
vn -0.986613 0.053721 0.153978
vn -0.986613 0.053721 0.153978
vn -0.986613 0.053721 0.153978
vn -0.986613 0.053721 0.153978
vn -0.986613 0.053721 0.153979
vn -0.986613 0.053721 0.153978
vn -0.986613 0.053721 0.153978
vn -0.986613 0.053721 0.153979
vn -0.986613 0.053721 0.153978
vn -0.986613 0.053721 0.153979
vn -0.986613 0.053721 0.153979
vn -0.986613 0.053721 0.153978
vn -0.986613 0.053721 0.153977
vn -0.986613 0.053721 0.153978
vn -0.986613 0.053721 0.153978
vn -0.986613 0.053721 0.153977
vn -0.986613 0.053722 0.153977
vn -0.986613 0.053721 0.153977
vn -0.986613 0.053721 0.153977
vn -0.986613 0.053722 0.153977
vn -0.986613 0.053721 0.153978
vn -0.986613 0.053722 0.153977
vn -0.986613 0.053722 0.153977
vn -0.986613 0.053721 0.153978
vn -0.986613 0.053721 0.153978
vn -0.986613 0.053721 0.153978
vn -0.986613 0.053721 0.153978
vn -0.986613 0.053721 0.153978
vn 0.001137 0.946939 -0.321412
vn 0.042152 0.998982 -0.016077
vn 0.042890 0.999027 -0.010276
vn 0.001958 0.948885 -0.315616
vn -0.039950 0.802638 -0.595127
vn 0.001137 0.946939 -0.321412
vn 0.001958 0.948885 -0.315616
vn -0.039202 0.806130 -0.590439
vn -0.077138 0.580190 -0.810820
vn -0.039950 0.802638 -0.595127
vn -0.039202 0.806130 -0.590439
vn -0.076590 0.584285 -0.807927
vn -0.106823 0.301125 -0.947583
vn -0.077138 0.580190 -0.810820
vn -0.076590 0.584285 -0.807927
vn -0.106528 0.304646 -0.946490
vn -0.126104 -0.007476 -0.991989
vn -0.106823 0.301125 -0.947583
vn -0.106528 0.304646 -0.946490
vn -0.126019 -0.005492 -0.992013
vn -0.133081 -0.315477 -0.939555
vn -0.126104 -0.007476 -0.991989
vn -0.126019 -0.005492 -0.992013
vn -0.133081 -0.315408 -0.939578
vn -0.127060 -0.592671 -0.795359
vn -0.133081 -0.315477 -0.939555
vn -0.133081 -0.315408 -0.939578
vn -0.126987 -0.594157 -0.794262
vn -0.108640 -0.811908 -0.573588
vn -0.127060 -0.592671 -0.795359
vn -0.126987 -0.594157 -0.794262
vn -0.108364 -0.813988 -0.570684
vn -0.079638 -0.951856 -0.296020
vn -0.108640 -0.811908 -0.573588
vn -0.108364 -0.813988 -0.570684
vn -0.079108 -0.953349 -0.291320
vn -0.042890 -0.999027 0.010275
vn -0.079638 -0.951856 -0.296020
vn -0.079108 -0.953349 -0.291320
vn -0.042152 -0.998982 0.016076
vn -0.001958 -0.948885 0.315616
vn -0.042890 -0.999027 0.010275
vn -0.042152 -0.998982 0.016076
vn -0.001137 -0.946939 0.321412
vn 0.039202 -0.806130 0.590439
vn -0.001958 -0.948885 0.315616
vn -0.001137 -0.946939 0.321412
vn 0.039950 -0.802638 0.595127
vn 0.076590 -0.584284 0.807927
vn 0.039202 -0.806130 0.590439
vn 0.039950 -0.802638 0.595127
vn 0.077138 -0.580190 0.810820
vn 0.106528 -0.304646 0.946490
vn 0.076590 -0.584284 0.807927
vn 0.077138 -0.580190 0.810820
vn 0.106823 -0.301125 0.947583
vn 0.126019 0.005492 0.992013
vn 0.106528 -0.304646 0.946490
vn 0.106823 -0.301125 0.947583
vn 0.126104 0.007476 0.991989
vn 0.133081 0.315408 0.939578
vn 0.126019 0.005492 0.992013
vn 0.126104 0.007476 0.991989
vn 0.133081 0.315477 0.939555
vn 0.126987 0.594157 0.794262
vn 0.133081 0.315408 0.939578
vn 0.133081 0.315477 0.939555
vn 0.127060 0.592671 0.795359
vn 0.108364 0.813988 0.570684
vn 0.126987 0.594157 0.794262
vn 0.127060 0.592671 0.795359
vn 0.108640 0.811908 0.573588
vn 0.079108 0.953349 0.291319
vn 0.108364 0.813988 0.570684
vn 0.108640 0.811908 0.573588
vn 0.079638 0.951856 0.296019
vn 0.042152 0.998982 -0.016077
vn 0.079108 0.953349 0.291319
vn 0.079638 0.951856 0.296019
vn 0.042890 0.999027 -0.010276
vn 0.986613 -0.053721 -0.153977
vn 0.986613 -0.053721 -0.153978
vn 0.986613 -0.053721 -0.153978
vn 0.986613 -0.053721 -0.153977
vn 0.986613 -0.053721 -0.153977
vn 0.986613 -0.053721 -0.153977
vn 0.986613 -0.053721 -0.153977
vn 0.986613 -0.053721 -0.153977
vn 0.986612 -0.053721 -0.153980
vn 0.986613 -0.053721 -0.153977
vn 0.986613 -0.053721 -0.153977
vn 0.986612 -0.053721 -0.153980
vn 0.986613 -0.053721 -0.153978
vn 0.986612 -0.053721 -0.153980
vn 0.986612 -0.053721 -0.153980
vn 0.986613 -0.053721 -0.153978
vn 0.986613 -0.053721 -0.153976
vn 0.986613 -0.053721 -0.153978
vn 0.986613 -0.053721 -0.153978
vn 0.986613 -0.053721 -0.153976
vn 0.986613 -0.053721 -0.153977
vn 0.986613 -0.053721 -0.153976
vn 0.986613 -0.053721 -0.153976
vn 0.986613 -0.053721 -0.153977
vn 0.986613 -0.053721 -0.153975
vn 0.986613 -0.053721 -0.153977
vn 0.986613 -0.053721 -0.153977
vn 0.986613 -0.053721 -0.153975
vn 0.986613 -0.053722 -0.153978
vn 0.986613 -0.053721 -0.153975
vn 0.986613 -0.053721 -0.153975
vn 0.986613 -0.053722 -0.153978
vn 0.986613 -0.053721 -0.153978
vn 0.986613 -0.053722 -0.153978
vn 0.986613 -0.053722 -0.153978
vn 0.986613 -0.053721 -0.153978
vn 0.986613 -0.053721 -0.153977
vn 0.986613 -0.053721 -0.153978
vn 0.986613 -0.053721 -0.153978
vn 0.986613 -0.053721 -0.153977
vn 0.986613 -0.053720 -0.153977
vn 0.986613 -0.053721 -0.153977
vn 0.986613 -0.053721 -0.153977
vn 0.986613 -0.053720 -0.153977
vn 0.986613 -0.053721 -0.153978
vn 0.986613 -0.053720 -0.153977
vn 0.986613 -0.053720 -0.153977
vn 0.986613 -0.053721 -0.153978
vn 0.986613 -0.053721 -0.153979
vn 0.986613 -0.053721 -0.153978
vn 0.986613 -0.053721 -0.153978
vn 0.986613 -0.053721 -0.153979
vn 0.986613 -0.053721 -0.153977
vn 0.986613 -0.053721 -0.153979
vn 0.986613 -0.053721 -0.153979
vn 0.986613 -0.053721 -0.153977
vn 0.986612 -0.053721 -0.153980
vn 0.986613 -0.053721 -0.153977
vn 0.986613 -0.053721 -0.153977
vn 0.986612 -0.053721 -0.153980
vn 0.986613 -0.053722 -0.153979
vn 0.986612 -0.053721 -0.153980
vn 0.986612 -0.053721 -0.153980
vn 0.986613 -0.053722 -0.153979
vn 0.986613 -0.053721 -0.153975
vn 0.986613 -0.053722 -0.153979
vn 0.986613 -0.053722 -0.153979
vn 0.986613 -0.053721 -0.153975
vn 0.986613 -0.053720 -0.153975
vn 0.986613 -0.053721 -0.153975
vn 0.986613 -0.053721 -0.153975
vn 0.986613 -0.053720 -0.153975
vn 0.986613 -0.053720 -0.153976
vn 0.986613 -0.053720 -0.153975
vn 0.986613 -0.053720 -0.153975
vn 0.986613 -0.053720 -0.153976
vn 0.986613 -0.053721 -0.153978
vn 0.986613 -0.053720 -0.153976
vn 0.986613 -0.053720 -0.153976
vn 0.986613 -0.053721 -0.153978
s off
g initialShadingGroup pPipe2
f 2/1/1 1/2/2 21/3/3 22/4/4
f 3/5/5 2/1/6 22/4/7 23/6/8
f 4/7/9 3/5/10 23/6/11 24/8/12
f 5/9/13 4/7/14 24/8/15 25/10/16
f 6/11/17 5/9/18 25/10/19 26/12/20
f 7/13/21 6/11/22 26/12/23 27/14/24
f 8/15/25 7/13/26 27/14/27 28/16/28
f 9/17/29 8/15/30 28/16/31 29/18/32
f 10/19/33 9/17/34 29/18/35 30/20/36
f 11/21/37 10/19/38 30/20/39 31/22/40
f 12/23/41 11/21/42 31/22/43 32/24/44
f 13/25/45 12/23/46 32/24/47 33/26/48
f 14/27/49 13/25/50 33/26/51 34/28/52
f 15/29/53 14/27/54 34/28/55 35/30/56
f 16/31/57 15/29/58 35/30/59 36/32/60
f 17/33/61 16/31/62 36/32/63 37/34/64
f 18/35/65 17/33/66 37/34/67 38/36/68
f 19/37/69 18/35/70 38/36/71 39/38/72
f 20/39/73 19/37/74 39/38/75 40/40/76
f 1/41/77 20/39/78 40/40/79 21/42/80
f 22/4/81 21/3/82 41/43/83 42/44/84
f 23/6/85 22/4/86 42/44/87 43/45/88
f 24/8/89 23/6/90 43/45/91 44/46/92
f 25/10/93 24/8/94 44/46/95 45/47/96
f 26/12/97 25/10/98 45/47/99 46/48/100
f 27/14/101 26/12/102 46/48/103 47/49/104
f 28/16/105 27/14/106 47/49/107 48/50/108
f 29/18/109 28/16/110 48/50/111 49/51/112
f 30/20/113 29/18/114 49/51/115 50/52/116
f 31/22/117 30/20/118 50/52/119 51/53/120
f 32/24/121 31/22/122 51/53/123 52/54/124
f 33/26/125 32/24/126 52/54/127 53/55/128
f 34/28/129 33/26/130 53/55/131 54/56/132
f 35/30/133 34/28/134 54/56/135 55/57/136
f 36/32/137 35/30/138 55/57/139 56/58/140
f 37/34/141 36/32/142 56/58/143 57/59/144
f 38/36/145 37/34/146 57/59/147 58/60/148
f 39/38/149 38/36/150 58/60/151 59/61/152
f 40/40/153 39/38/154 59/61/155 60/62/156
f 21/42/157 40/40/158 60/62/159 41/63/160
f 42/44/161 41/43/162 61/64/163 62/65/164
f 43/45/165 42/44/166 62/65/167 63/66/168
f 44/46/169 43/45/170 63/66/171 64/67/172
f 45/47/173 44/46/174 64/67/175 65/68/176
f 46/48/177 45/47/178 65/68/179 66/69/180
f 47/49/181 46/48/182 66/69/183 67/70/184
f 48/50/185 47/49/186 67/70/187 68/71/188
f 49/51/189 48/50/190 68/71/191 69/72/192
f 50/52/193 49/51/194 69/72/195 70/73/196
f 51/53/197 50/52/198 70/73/199 71/74/200
f 52/54/201 51/53/202 71/74/203 72/75/204
f 53/55/205 52/54/206 72/75/207 73/76/208
f 54/56/209 53/55/210 73/76/211 74/77/212
f 55/57/213 54/56/214 74/77/215 75/78/216
f 56/58/217 55/57/218 75/78/219 76/79/220
f 57/59/221 56/58/222 76/79/223 77/80/224
f 58/60/225 57/59/226 77/80/227 78/81/228
f 59/61/229 58/60/230 78/81/231 79/82/232
f 60/62/233 59/61/234 79/82/235 80/83/236
f 41/63/237 60/62/238 80/83/239 61/84/240
f 62/65/241 61/64/242 1/85/243 2/86/244
f 63/66/245 62/65/246 2/86/247 3/87/248
f 64/67/249 63/66/250 3/87/251 4/88/252
f 65/68/253 64/67/254 4/88/255 5/89/256
f 66/69/257 65/68/258 5/89/259 6/90/260
f 67/70/261 66/69/262 6/90/263 7/91/264
f 68/71/265 67/70/266 7/91/267 8/92/268
f 69/72/269 68/71/270 8/92/271 9/93/272
f 70/73/273 69/72/274 9/93/275 10/94/276
f 71/74/277 70/73/278 10/94/279 11/95/280
f 72/75/281 71/74/282 11/95/283 12/96/284
f 73/76/285 72/75/286 12/96/287 13/97/288
f 74/77/289 73/76/290 13/97/291 14/98/292
f 75/78/293 74/77/294 14/98/295 15/99/296
f 76/79/297 75/78/298 15/99/299 16/100/300
f 77/80/301 76/79/302 16/100/303 17/101/304
f 78/81/305 77/80/306 17/101/307 18/102/308
f 79/82/309 78/81/310 18/102/311 19/103/312
f 80/83/313 79/82/314 19/103/315 20/104/316
f 61/84/317 80/83/318 20/104/319 1/105/320
