# This file uses centimeters as units for non-parametric coordinates.

mtllib rail_a.mtl
g default
v -12.311717 5.612855 -0.539911
v -12.000000 6.227467 -0.539911
v -12.000000 6.539185 -0.000000
v -12.000000 6.227467 0.539911
v -12.311718 5.612855 0.539911
v -12.000000 5.292314 0.000000
v 12.311718 5.612855 -0.539911
v 12.000000 6.227467 -0.539911
v 12.000000 6.539185 -0.000000
v 12.000000 6.227467 0.539911
v 12.311718 5.612855 0.539911
v 12.000000 5.292314 0.000000
v -12.623435 5.612855 -0.000000
v 12.623436 5.612855 0.000000
v -11.688282 -5.612855 -0.539911
v -12.311718 -5.612855 -0.539911
v -12.623436 -5.612855 -0.000000
v -12.311718 -5.612855 0.539911
v -11.688282 -5.612855 0.539911
v -11.376564 -5.612855 0.000000
v -11.688282 5.612855 -0.539911
v -12.311718 5.612855 -0.539911
v -12.623436 5.612855 -0.000000
v -12.311718 5.612855 0.539911
v -11.688282 5.612855 0.539911
v -11.376564 5.612855 0.000000
v -12.000000 -5.612855 0.000000
v -12.000000 5.612855 0.000000
v 0.311718 -5.612855 -0.539911
v -0.311718 -5.612855 -0.539911
v -0.623436 -5.612855 -0.000000
v -0.311718 -5.612855 0.539911
v 0.311718 -5.612855 0.539911
v 0.623436 -5.612855 0.000000
v 0.311718 5.612855 -0.539911
v -0.311718 5.612855 -0.539911
v -0.623436 5.612855 -0.000000
v -0.311718 5.612855 0.539911
v 0.311718 5.612855 0.539911
v 0.623436 5.612855 0.000000
v 0.000000 -5.612855 0.000000
v 0.000000 5.612855 0.000000
v 12.311718 -5.612855 -0.539911
v 11.688282 -5.612855 -0.539911
v 11.376564 -5.612855 -0.000000
v 11.688282 -5.612855 0.539911
v 12.311718 -5.612855 0.539911
v 12.623436 -5.612855 0.000000
v 12.311718 5.612855 -0.539911
v 11.688282 5.612855 -0.539911
v 11.376564 5.612855 -0.000000
v 11.688282 5.612855 0.539911
v 12.311718 5.612855 0.539911
v 12.623436 5.612855 0.000000
v 12.000000 -5.612855 0.000000
v 12.000000 5.612855 0.000000
vt 0.578125 0.020934
vt 0.421875 0.020934
vt 0.343750 0.156250
vt 0.421875 0.291566
vt 0.578125 0.291566
vt 0.656250 0.156250
vt 0.375000 0.312500
vt 0.416667 0.312500
vt 0.458333 0.312500
vt 0.500000 0.312500
vt 0.541667 0.312500
vt 0.583333 0.312500
vt 0.625000 0.312500
vt 0.375000 0.688440
vt 0.416667 0.688440
vt 0.458333 0.688440
vt 0.500000 0.688440
vt 0.541667 0.688440
vt 0.583333 0.688440
vt 0.625000 0.688440
vt 0.578125 0.708434
vt 0.421875 0.708434
vt 0.343750 0.843750
vt 0.421875 0.979066
vt 0.578125 0.979066
vt 0.656250 0.843750
vt 0.500000 0.150000
vt 0.500000 0.837500
vt 0.375000 0.312500
vt 0.416667 0.312500
vt 0.416667 0.688440
vt 0.375000 0.688440
vt 0.458333 0.312500
vt 0.458333 0.688440
vt 0.500000 0.312500
vt 0.500000 0.688440
vt 0.541667 0.312500
vt 0.541667 0.688440
vt 0.583333 0.312500
vt 0.583333 0.688440
vt 0.625000 0.312500
vt 0.625000 0.688440
vt 0.421875 0.020934
vt 0.578125 0.020934
vt 0.500000 0.150000
vt 0.343750 0.156250
vt 0.421875 0.291566
vt 0.578125 0.291566
vt 0.656250 0.156250
vt 0.578125 0.979066
vt 0.421875 0.979066
vt 0.500000 0.837500
vt 0.343750 0.843750
vt 0.421875 0.708434
vt 0.578125 0.708434
vt 0.656250 0.843750
vt 0.375000 0.312500
vt 0.416667 0.312500
vt 0.416667 0.688440
vt 0.375000 0.688440
vt 0.458333 0.312500
vt 0.458333 0.688440
vt 0.500000 0.312500
vt 0.500000 0.688440
vt 0.541667 0.312500
vt 0.541667 0.688440
vt 0.583333 0.312500
vt 0.583333 0.688440
vt 0.625000 0.312500
vt 0.625000 0.688440
vt 0.421875 0.020934
vt 0.578125 0.020934
vt 0.500000 0.150000
vt 0.343750 0.156250
vt 0.421875 0.291566
vt 0.578125 0.291566
vt 0.656250 0.156250
vt 0.578125 0.979066
vt 0.421875 0.979066
vt 0.500000 0.837500
vt 0.343750 0.843750
vt 0.421875 0.708434
vt 0.578125 0.708434
vt 0.656250 0.843750
vt 0.375000 0.312500
vt 0.416667 0.312500
vt 0.416667 0.688440
vt 0.375000 0.688440
vt 0.458333 0.312500
vt 0.458333 0.688440
vt 0.500000 0.312500
vt 0.500000 0.688440
vt 0.541667 0.312500
vt 0.541667 0.688440
vt 0.583333 0.312500
vt 0.583333 0.688440
vt 0.625000 0.312500
vt 0.625000 0.688440
vt 0.421875 0.020934
vt 0.578125 0.020934
vt 0.500000 0.150000
vt 0.343750 0.156250
vt 0.421875 0.291566
vt 0.578125 0.291566
vt 0.656250 0.156250
vt 0.578125 0.979066
vt 0.421875 0.979066
vt 0.500000 0.837500
vt 0.343750 0.843750
vt 0.421875 0.708434
vt 0.578125 0.708434
vt 0.656250 0.843750
vn -0.013490 -0.499387 -0.866274
vn -0.009715 0.437474 -0.899179
vn 0.009715 0.437474 -0.899179
vn 0.013490 -0.499387 -0.866274
vn -0.013911 0.999903 -0.000001
vn 0.013911 0.999903 -0.000001
vn -0.009715 0.437474 0.899178
vn 0.009715 0.437474 0.899178
vn -0.013490 -0.499387 0.866274
vn 0.013490 -0.499387 0.866274
vn -0.002973 -0.999996 -0.000000
vn 0.002973 -0.999996 -0.000000
vn -0.996849 -0.079323 -0.000000
vn 0.996849 -0.079323 0.000000
vn 0.499914 -0.018509 -0.865877
vn -0.499914 -0.018509 -0.865877
vn -0.499914 0.018509 -0.865877
vn 0.499914 0.018509 -0.865877
vn -0.999829 -0.018509 0.000000
vn -0.999829 0.018509 0.000000
vn -0.499914 -0.018509 0.865877
vn -0.499914 0.018509 0.865877
vn 0.499914 -0.018509 0.865877
vn 0.499914 0.018509 0.865877
vn 0.999829 -0.018509 0.000000
vn 0.999829 0.018509 0.000000
vn 0.000000 -1.000000 0.000000
vn 0.000000 1.000000 0.000000
vn 0.499914 -0.018509 -0.865877
vn -0.499914 -0.018509 -0.865877
vn -0.499914 0.018509 -0.865877
vn 0.499914 0.018509 -0.865877
vn -0.999829 -0.018509 -0.000000
vn -0.999829 0.018509 -0.000000
vn -0.499914 -0.018509 0.865877
vn -0.499914 0.018509 0.865877
vn 0.499914 -0.018509 0.865877
vn 0.499914 0.018509 0.865877
vn 0.999829 -0.018509 0.000000
vn 0.999829 0.018509 0.000000
vn 0.000000 -1.000000 -0.000000
vn 0.000000 1.000000 -0.000000
vn 0.499914 -0.018509 -0.865877
vn -0.499914 -0.018509 -0.865877
vn -0.499914 0.018509 -0.865877
vn 0.499914 0.018509 -0.865877
vn -0.999829 -0.018509 0.000000
vn -0.999829 0.018509 0.000000
vn -0.499914 -0.018509 0.865877
vn -0.499914 0.018509 0.865877
vn 0.499914 -0.018509 0.865877
vn 0.499914 0.018509 0.865877
vn 0.999829 -0.018509 0.000000
vn 0.999829 0.018509 0.000000
vn 0.000000 -1.000000 0.000000
vn 0.000000 1.000000 0.000000
s 1
g pCylinder5
usemtl initialShadingGroup
f 1/7/1 2/8/2 8/15/3 7/14/4
f 2/8/2 3/9/5 9/16/6 8/15/3
f 3/9/5 4/10/7 10/17/8 9/16/6
f 4/10/7 5/11/9 11/18/10 10/17/8
f 5/11/9 6/12/11 12/19/12 11/18/10
f 6/12/11 1/13/1 7/20/4 12/19/12
f 2/2/2 1/1/1 13/27/13
f 3/3/5 2/2/2 13/27/13
f 4/4/7 3/3/5 13/27/13
f 5/5/9 4/4/7 13/27/13
f 6/6/11 5/5/9 13/27/13
f 1/1/1 6/6/11 13/27/13
f 7/25/4 8/24/3 14/28/14
f 8/24/3 9/23/6 14/28/14
f 9/23/6 10/22/8 14/28/14
f 10/22/8 11/21/10 14/28/14
f 11/21/10 12/26/12 14/28/14
f 12/26/12 7/25/4 14/28/14
s 2
f 15/29/15 16/30/16 22/31/17 21/32/18
f 16/30/16 17/33/19 23/34/20 22/31/17
f 17/33/19 18/35/21 24/36/22 23/34/20
f 18/35/21 19/37/23 25/38/24 24/36/22
f 19/37/23 20/39/25 26/40/26 25/38/24
f 20/39/25 15/41/15 21/42/18 26/40/26
f 16/43/16 15/44/15 27/45/27
f 17/46/19 16/43/16 27/45/27
f 18/47/21 17/46/19 27/45/27
f 19/48/23 18/47/21 27/45/27
f 20/49/25 19/48/23 27/45/27
f 15/44/15 20/49/25 27/45/27
f 21/50/18 22/51/17 28/52/28
f 22/51/17 23/53/20 28/52/28
f 23/53/20 24/54/22 28/52/28
f 24/54/22 25/55/24 28/52/28
f 25/55/24 26/56/26 28/52/28
f 26/56/26 21/50/18 28/52/28
s 3
f 29/57/29 30/58/30 36/59/31 35/60/32
f 30/58/30 31/61/33 37/62/34 36/59/31
f 31/61/33 32/63/35 38/64/36 37/62/34
f 32/63/35 33/65/37 39/66/38 38/64/36
f 33/65/37 34/67/39 40/68/40 39/66/38
f 34/67/39 29/69/29 35/70/32 40/68/40
f 30/71/30 29/72/29 41/73/41
f 31/74/33 30/71/30 41/73/41
f 32/75/35 31/74/33 41/73/41
f 33/76/37 32/75/35 41/73/41
f 34/77/39 33/76/37 41/73/41
f 29/72/29 34/77/39 41/73/41
f 35/78/32 36/79/31 42/80/42
f 36/79/31 37/81/34 42/80/42
f 37/81/34 38/82/36 42/80/42
f 38/82/36 39/83/38 42/80/42
f 39/83/38 40/84/40 42/80/42
f 40/84/40 35/78/32 42/80/42
s 4
f 43/85/43 44/86/44 50/87/45 49/88/46
f 44/86/44 45/89/47 51/90/48 50/87/45
f 45/89/47 46/91/49 52/92/50 51/90/48
f 46/91/49 47/93/51 53/94/52 52/92/50
f 47/93/51 48/95/53 54/96/54 53/94/52
f 48/95/53 43/97/43 49/98/46 54/96/54
f 44/99/44 43/100/43 55/101/55
f 45/102/47 44/99/44 55/101/55
f 46/103/49 45/102/47 55/101/55
f 47/104/51 46/103/49 55/101/55
f 48/105/53 47/104/51 55/101/55
f 43/100/43 48/105/53 55/101/55
f 49/106/46 50/107/45 56/108/56
f 50/107/45 51/109/48 56/108/56
f 51/109/48 52/110/50 56/108/56
f 52/110/50 53/111/52 56/108/56
f 53/111/52 54/112/54 56/108/56
f 54/112/54 49/106/46 56/108/56
