# This file uses centimeters as units for non-parametric coordinates.

mtllib rock_c.mtl
g rock_c:default1
v 0.172412 2.344408 0.089398
v 1.307213 2.214695 0.200786
v -0.369609 2.133643 -0.539299
v -0.128524 2.247720 0.869910
v 1.713176 2.026135 -0.527945
v 1.652583 2.168330 1.034194
v -1.040092 1.290528 -0.553387
v 0.245876 2.163460 -1.201540
v 0.788857 2.227431 1.469016
v -0.733486 1.739111 0.943397
v 2.139280 1.431986 -0.439284
v 1.334004 1.852397 -1.293309
v 2.197933 1.597818 1.107310
v -1.143172 1.242833 -1.127362
v -1.250450 1.301192 0.152270
v -0.239368 1.563605 -1.493950
v 0.754619 1.602912 2.078182
v -0.663740 1.399730 1.619712
v 2.232794 0.616301 -1.278765
v 2.221704 1.199319 0.385158
v 1.814666 0.801318 -1.820712
v 2.262383 0.837234 1.644888
v -1.555588 0.572059 -1.080847
v -1.551010 0.783448 0.343715
v 0.410397 0.802567 -1.996909
v 1.507525 0.822859 2.178678
v -0.118518 1.320577 2.178678
v -1.119385 0.759608 1.226778
v 2.341904 -0.133012 -1.247727
v 2.449092 0.243390 0.393642
v 1.452782 0.454806 -2.281732
v 2.446766 0.021420 1.234520
v -0.577307 -0.089807 -1.277592
v -1.780656 0.313351 -0.332648
v -0.025800 -0.026404 -1.867868
v 0.956065 0.083799 2.343955
v -0.011912 0.500867 2.343955
v -1.030891 0.001041 1.392055
v 2.119803 -0.678847 -1.853110
v 2.381984 -0.398007 -0.389691
v 1.628661 -0.356441 -2.245578
v 1.968548 -0.808551 1.391304
v -1.353501 -0.785124 -0.887408
v -1.648589 -0.473470 -0.162765
v 0.740199 -0.748463 -2.053069
v 1.200356 -0.789753 1.950268
v -0.549466 -0.167792 1.950268
v -1.345432 -0.733861 0.677052
v 1.880734 -1.395976 -1.435986
v 2.058136 -1.195885 -0.397816
v 1.751469 -1.395976 0.652160
v -0.712066 -1.472405 -0.827290
v 0.383756 -1.472405 -1.408960
v 0.494978 -1.384088 1.556583
v -0.435887 -1.153551 1.556583
v -0.956424 -1.396510 0.767620
v 1.011553 -1.796162 -1.068984
v 0.915456 -1.796162 0.754306
v -0.593432 -1.796162 -0.006128
v 0.416429 -1.996256 -0.032891
vt 0.032258 0.299280
vt 0.096774 0.299280
vt 0.129032 0.355153
vt 0.096774 0.411025
vt 0.032258 0.411025
vt 0.000000 0.355153
vt 0.225806 0.299280
vt 0.290323 0.299280
vt 0.322581 0.355153
vt 0.290323 0.411025
vt 0.225806 0.411025
vt 0.193548 0.355153
vt 0.419355 0.299280
vt 0.483871 0.299280
vt 0.516129 0.355153
vt 0.483871 0.411025
vt 0.419355 0.411025
vt 0.387097 0.355153
vt 0.612903 0.299280
vt 0.677419 0.299280
vt 0.709677 0.355153
vt 0.677419 0.411025
vt 0.612903 0.411025
vt 0.580645 0.355153
vt 0.806452 0.299280
vt 0.870968 0.299280
vt 0.903226 0.355153
vt 0.870968 0.411025
vt 0.806452 0.411025
vt 0.774194 0.355153
vt 0.903226 0.466898
vt 0.870968 0.522771
vt 0.806452 0.522771
vt 0.774194 0.466898
vt 0.709677 0.466898
vt 0.677419 0.522771
vt 0.612903 0.522771
vt 0.580645 0.466898
vt 0.516129 0.466898
vt 0.483871 0.522771
vt 0.419355 0.522771
vt 0.387097 0.466898
vt 0.322581 0.466898
vt 0.290323 0.522771
vt 0.225806 0.522771
vt 0.193548 0.466898
vt 0.129032 0.466898
vt 0.096774 0.522771
vt 0.032258 0.522771
vt 0.000000 0.466898
vt 0.193548 0.578643
vt 0.129032 0.578643
vt 0.387097 0.578643
vt 0.322581 0.578643
vt 0.580645 0.578643
vt 0.516129 0.578643
vt 0.774194 0.578643
vt 0.709677 0.578643
vt 0.967742 0.466898
vt 1.000000 0.522771
vt 0.967742 0.578643
vt 0.903226 0.578643
vt 1.000000 0.634516
vt 0.967742 0.690388
vt 0.903226 0.690388
vt 0.870968 0.634516
vt 0.806452 0.634516
vt 0.774194 0.690388
vt 0.709677 0.690388
vt 0.677419 0.634516
vt 0.612903 0.634516
vt 0.580645 0.690388
vt 0.516129 0.690388
vt 0.483871 0.634516
vt 0.419355 0.634516
vt 0.387097 0.690388
vt 0.322581 0.690388
vt 0.290323 0.634516
vt 0.225806 0.634516
vt 0.193548 0.690388
vt 0.129032 0.690388
vt 0.096774 0.634516
vt 0.116711 0.584129
vt 0.064516 0.622051
vt 0.012321 0.584129
vt 0.310259 0.584129
vt 0.258065 0.622051
vt 0.205870 0.584129
vt 0.503808 0.584129
vt 0.451613 0.622051
vt 0.399418 0.584129
vt 0.697356 0.584129
vt 0.645161 0.622051
vt 0.592967 0.584129
vt 0.890904 0.584129
vt 0.838710 0.622051
vt 0.786515 0.584129
vt 0.213485 0.751747
vt 0.161290 0.789669
vt 0.109096 0.751747
vt 0.109096 0.405539
vt 0.161290 0.367618
vt 0.213485 0.405539
vt 0.302644 0.405539
vt 0.354839 0.367618
vt 0.407033 0.405539
vt 0.496192 0.405539
vt 0.548387 0.367618
vt 0.600582 0.405539
vt 0.689741 0.405539
vt 0.741935 0.367618
vt 0.794130 0.405539
vt 0.883289 0.405539
vt 0.935484 0.367618
vt 0.987679 0.405539
vt 0.205870 0.237922
vt 0.258065 0.200000
vt 0.310259 0.237922
vt 0.225806 0.299280
vt 0.290323 0.299280
vn -0.061224 0.998123 -0.001594
vn 0.272307 0.962087 -0.015440
vn 0.421900 0.901407 -0.097291
vn 0.310264 0.852768 -0.420147
vn 0.072375 0.914462 -0.398148
vn -0.224546 0.970898 -0.083284
vn -0.061224 0.998123 -0.001594
vn -0.224546 0.970898 -0.083284
vn -0.546670 0.821375 -0.162773
vn -0.599019 0.800653 0.011454
vn -0.419852 0.863040 0.280868
vn -0.259817 0.934079 0.244931
vn -0.259817 0.934079 0.244931
vn 0.043735 0.887905 0.457944
vn 0.408425 0.860442 0.304678
vn 0.272307 0.962087 -0.015440
vn -0.061224 0.998123 -0.001594
vn 0.408425 0.860442 0.304678
vn 0.689738 0.642410 0.334024
vn 0.914673 0.404010 -0.012251
vn 0.869599 0.475535 -0.132905
vn 0.421900 0.901407 -0.097291
vn 0.272307 0.962087 -0.015440
vn 0.072375 0.914462 -0.398148
vn -0.301874 0.439808 -0.845838
vn -0.592622 0.341946 -0.729295
vn -0.546670 0.821375 -0.162773
vn -0.224546 0.970898 -0.083284
vn -0.419852 0.863040 0.280868
vn -0.493382 0.465930 0.734495
vn -0.332374 0.455774 0.825711
vn 0.004757 0.649126 0.760666
vn 0.043735 0.887905 0.457944
vn -0.259817 0.934079 0.244931
vn 0.421900 0.901407 -0.097291
vn 0.869599 0.475535 -0.132905
vn 0.905527 0.299435 -0.300600
vn 0.538325 0.498614 -0.679404
vn 0.310264 0.852768 -0.420147
vn 0.408425 0.860442 0.304678
vn 0.043735 0.887905 0.457944
vn 0.004757 0.649126 0.760666
vn 0.432378 0.211334 0.876577
vn 0.686521 0.215595 0.694411
vn 0.689738 0.642410 0.334024
vn -0.546670 0.821375 -0.162773
vn -0.592622 0.341946 -0.729295
vn -0.703217 0.041877 -0.709741
vn -0.967526 -0.060293 -0.245477
vn -0.968665 0.180470 0.170644
vn -0.599019 0.800653 0.011454
vn 0.072375 0.914462 -0.398148
vn 0.310264 0.852768 -0.420147
vn 0.538325 0.498614 -0.679404
vn 0.290926 0.277451 -0.915633
vn -0.100086 0.244647 -0.964433
vn -0.301874 0.439808 -0.845838
vn -0.419852 0.863040 0.280868
vn -0.599019 0.800653 0.011454
vn -0.968665 0.180470 0.170644
vn -0.812841 0.041413 0.581012
vn -0.493382 0.465930 0.734495
vn 0.914673 0.404010 -0.012251
vn 0.996089 -0.063316 0.061625
vn 0.985342 -0.169259 0.021273
vn 0.966179 0.023880 -0.256766
vn 0.905527 0.299435 -0.300600
vn 0.869599 0.475535 -0.132905
vn 0.686521 0.215595 0.694411
vn 0.865631 -0.192476 0.462208
vn 0.996089 -0.063316 0.061625
vn 0.914673 0.404010 -0.012251
vn 0.689738 0.642410 0.334024
vn -0.592622 0.341946 -0.729295
vn -0.301874 0.439808 -0.845838
vn -0.100086 0.244647 -0.964433
vn -0.390126 -0.239862 -0.888970
vn -0.479077 -0.281290 -0.831482
vn -0.703217 0.041877 -0.709741
vn -0.332374 0.455774 0.825711
vn -0.223178 -0.157326 0.961998
vn 0.200397 -0.222799 0.954045
vn 0.432378 0.211334 0.876577
vn 0.004757 0.649126 0.760666
vn -0.812841 0.041413 0.581012
vn -0.715500 -0.276579 0.641532
vn -0.387576 -0.332791 0.859672
vn -0.223178 -0.157326 0.961998
vn -0.332374 0.455774 0.825711
vn -0.493382 0.465930 0.734495
vn 0.966179 0.023880 -0.256766
vn 0.649619 -0.400108 -0.646459
vn 0.304355 -0.280277 -0.910392
vn 0.290926 0.277451 -0.915633
vn 0.538325 0.498614 -0.679404
vn 0.905527 0.299435 -0.300600
vn 0.686521 0.215595 0.694411
vn 0.432378 0.211334 0.876577
vn 0.200397 -0.222799 0.954045
vn 0.291626 -0.447844 0.845216
vn 0.730619 -0.418922 0.539166
vn 0.865631 -0.192476 0.462208
vn -0.703217 0.041877 -0.709741
vn -0.479077 -0.281290 -0.831482
vn -0.626239 -0.584904 -0.515473
vn -0.820836 -0.554141 -0.138403
vn -0.967526 -0.060293 -0.245477
vn -0.967526 -0.060293 -0.245477
vn -0.820836 -0.554141 -0.138403
vn -0.769489 -0.600917 0.216298
vn -0.715500 -0.276579 0.641532
vn -0.812841 0.041413 0.581012
vn -0.968665 0.180470 0.170644
vn -0.100086 0.244647 -0.964433
vn 0.290926 0.277451 -0.915633
vn 0.304355 -0.280277 -0.910392
vn -0.180362 -0.458920 -0.869978
vn -0.390126 -0.239862 -0.888970
vn 0.985342 -0.169259 0.021273
vn 0.740031 -0.671355 0.040452
vn 0.482414 -0.778511 -0.401493
vn 0.649619 -0.400108 -0.646459
vn 0.966179 0.023880 -0.256766
vn 0.996089 -0.063316 0.061625
vn 0.865631 -0.192476 0.462208
vn 0.730619 -0.418922 0.539166
vn 0.662722 -0.719253 0.208506
vn 0.740031 -0.671355 0.040452
vn 0.985342 -0.169259 0.021273
vn -0.479077 -0.281290 -0.831482
vn -0.390126 -0.239862 -0.888970
vn -0.180362 -0.458920 -0.869978
vn -0.251474 -0.663433 -0.704711
vn -0.500782 -0.708479 -0.497268
vn -0.626239 -0.584904 -0.515473
vn 0.200397 -0.222799 0.954045
vn -0.223178 -0.157326 0.961998
vn -0.387576 -0.332791 0.859672
vn -0.250023 -0.709925 0.658403
vn -0.015451 -0.752466 0.658450
vn 0.291626 -0.447844 0.845216
vn -0.769489 -0.600917 0.216298
vn -0.488811 -0.832721 0.260076
vn -0.250023 -0.709925 0.658403
vn -0.387576 -0.332791 0.859672
vn -0.715500 -0.276579 0.641532
vn 0.482414 -0.778511 -0.401493
vn 0.219683 -0.923357 -0.314882
vn -0.251474 -0.663433 -0.704711
vn -0.180362 -0.458920 -0.869978
vn 0.304355 -0.280277 -0.910392
vn 0.649619 -0.400108 -0.646459
vn 0.730619 -0.418922 0.539166
vn 0.291626 -0.447844 0.845216
vn -0.015451 -0.752466 0.658450
vn 0.205354 -0.933688 0.293354
vn 0.662722 -0.719253 0.208506
vn -0.500782 -0.708479 -0.497268
vn -0.394008 -0.918477 0.034034
vn -0.488811 -0.832721 0.260076
vn -0.769489 -0.600917 0.216298
vn -0.820836 -0.554141 -0.138403
vn -0.626239 -0.584904 -0.515473
vn 0.482414 -0.778511 -0.401493
vn 0.740031 -0.671355 0.040452
vn 0.662722 -0.719253 0.208506
vn 0.205354 -0.933688 0.293354
vn 0.049016 -0.997094 0.058313
vn 0.219683 -0.923357 -0.314882
vn -0.500782 -0.708479 -0.497268
vn -0.251474 -0.663433 -0.704711
vn 0.219683 -0.923357 -0.314882
vn 0.049016 -0.997094 0.058313
vn -0.394008 -0.918477 0.034034
vn -0.015451 -0.752466 0.658450
vn -0.250023 -0.709925 0.658403
vn -0.488811 -0.832721 0.260076
vn -0.394008 -0.918477 0.034034
vn 0.049016 -0.997094 0.058313
vn 0.205354 -0.933688 0.293354
s off
g rock_c:group rock_c:pasted__pSolid1 rock_c:polySurface2 rock_c:polySurface1
usemtl initialShadingGroup
f 1/17/1 2/18/2 5/13/3 12/14/4 8/15/5 3/16/6
f 1/17/7 3/16/8 7/39/9 15/40/10 10/41/11 4/42/12
f 4/42/13 9/43/14 6/104/15 2/105/16 1/106/17
f 6/10/18 13/11/19 20/12/20 11/7/21 5/8/22 2/9/23
f 8/108/24 16/109/25 14/38/26 7/39/27 3/107/28
f 10/41/29 18/53/30 27/54/31 17/44/32 9/43/33 4/42/34
f 5/119/35 11/116/36 19/117/37 21/118/38 12/120/39
f 6/10/40 9/43/41 17/44/42 26/45/43 22/46/44 13/11/45
f 7/39/46 14/38/47 23/37/48 34/55/49 24/56/50 15/40/51
f 8/24/52 12/19/53 21/20/54 31/21/55 25/22/56 16/23/57
f 10/41/58 15/40/59 24/89/60 28/90/61 18/91/62
f 20/3/63 30/4/64 40/5/65 29/6/66 19/1/67 11/2/68
f 22/46/69 32/47/70 30/101/71 20/102/72 13/103/73
f 14/38/74 16/23/75 25/22/76 35/35/77 33/36/78 23/37/79
f 27/86/80 37/87/81 36/88/82 26/45/83 17/44/84
f 28/75/85 38/76/86 47/77/87 37/78/88 27/54/89 18/53/90
f 29/27/91 39/28/92 41/29/93 31/30/94 21/25/95 19/26/96
f 22/46/97 26/45/98 36/51/99 46/52/100 42/48/101 32/47/102
f 23/37/103 33/36/104 43/92/105 44/93/106 34/94/107
f 34/55/108 44/71/109 48/72/110 38/73/111 28/74/112 24/56/113
f 25/110/114 31/111/115 41/112/116 45/34/117 35/35/118
f 40/115/119 50/59/120 49/31/121 39/113/122 29/114/123
f 30/4/124 32/47/125 42/48/126 51/49/127 50/50/128 40/5/129
f 33/36/130 35/35/131 45/34/132 53/33/133 52/57/134 43/58/135
f 36/51/136 37/79/137 47/80/138 55/81/139 54/82/140 46/52/141
f 48/99/142 56/100/143 55/81/144 47/80/145 38/98/146
f 49/31/147 57/32/148 53/33/149 45/34/150 41/29/151 39/28/152
f 42/48/153 46/83/154 54/84/155 58/85/156 51/49/157
f 52/57/158 59/67/159 56/68/160 48/69/161 44/70/162 43/58/163
f 49/31/164 50/59/165 51/60/166 58/61/167 60/62/168 57/32/169
f 52/97/170 53/33/171 57/32/172 60/95/173 59/96/174
f 54/63/175 55/64/176 56/65/177 59/66/178 60/62/179 58/61/180
