# This file uses centimeters as units for non-parametric coordinates.

mtllib rock_d.mtl
g rock_d:default1
v -0.142865 -3.607046 0.108176
v 0.776089 -3.474700 -0.226992
v -0.524169 -3.326576 1.006077
v -0.432481 -3.363106 -0.565493
v 1.254130 -2.798273 0.433096
v 0.945125 -3.209390 -0.887700
v -1.351624 -2.784937 1.392763
v -0.067178 -2.679015 1.482201
v 0.127697 -3.047508 -1.250675
v -1.503297 -2.803978 -0.227329
v 1.636573 -1.917538 0.460270
v 0.952376 -2.478740 1.250665
v 1.352931 -1.899736 -0.821676
v -1.283248 -2.123268 1.811929
v -1.930588 -2.766552 0.790660
v -0.444317 -1.783558 2.003700
v -0.040848 -1.269232 -2.021166
v -1.647457 -1.086873 -1.406707
v 1.985540 -0.289438 1.291241
v 1.507246 -1.131284 -0.166083
v 1.530074 -0.386691 1.936110
v 1.256658 -0.149660 -1.275992
v -1.674329 -0.670229 1.741188
v -2.357413 -1.251884 0.495748
v 0.106145 0.252637 2.549454
v 0.539133 0.083264 -2.062527
v -0.808388 -0.132586 -2.471785
v -2.224549 -0.307025 -0.831345
v 2.289050 1.212840 1.220539
v 1.953523 0.930280 -0.141009
v 1.192399 0.548473 2.505809
v 1.743684 1.602097 -0.887539
v -0.914723 1.431125 1.741858
v -2.195403 -0.161068 1.038953
v -0.271238 1.507192 2.153668
v 0.223557 1.833435 -2.226343
v -0.609534 1.664633 -2.438013
v -2.015151 1.419130 -1.271197
v 1.902085 2.515179 1.805141
v 2.217598 1.866159 0.464571
v 1.417705 1.910007 2.216856
v 1.352610 3.010115 -1.136825
v -1.427104 2.458454 1.034242
v -2.004645 1.781159 0.524606
v 0.419327 2.618012 2.016193
v 0.543767 2.957980 -1.783037
v -1.208364 2.345608 -1.991242
v -1.956605 2.216017 -0.483055
v 1.741681 3.487576 1.388017
v 1.936415 3.340688 0.425868
v 1.397490 3.672698 -0.511744
v -0.867932 3.436885 0.823738
v 0.124654 3.659597 1.360991
v 0.021062 3.306322 -1.503180
v -0.855930 3.037754 -1.594310
v -1.327625 2.971169 -0.733026
v 0.820756 3.892875 1.021014
v 0.531090 3.625142 -0.685673
v -0.854317 3.522255 0.001661
v 0.132803 3.755103 0.002181
vt 0.032258 0.299280
vt 0.096774 0.299280
vt 0.129032 0.355153
vt 0.096774 0.411025
vt 0.032258 0.411025
vt 0.000000 0.355153
vt 0.225806 0.299280
vt 0.290323 0.299280
vt 0.322581 0.355153
vt 0.290323 0.411025
vt 0.225806 0.411025
vt 0.193548 0.355153
vt 0.419355 0.299280
vt 0.483871 0.299280
vt 0.516129 0.355153
vt 0.483871 0.411025
vt 0.419355 0.411025
vt 0.387097 0.355153
vt 0.612903 0.299280
vt 0.677419 0.299280
vt 0.709677 0.355153
vt 0.677419 0.411025
vt 0.612903 0.411025
vt 0.580645 0.355153
vt 0.806452 0.299280
vt 0.870968 0.299280
vt 0.903226 0.355153
vt 0.870968 0.411025
vt 0.806452 0.411025
vt 0.774194 0.355153
vt 0.903226 0.466898
vt 0.870968 0.522771
vt 0.806452 0.522771
vt 0.774194 0.466898
vt 0.709677 0.466898
vt 0.677419 0.522771
vt 0.612903 0.522771
vt 0.580645 0.466898
vt 0.516129 0.466898
vt 0.483871 0.522771
vt 0.419355 0.522771
vt 0.387097 0.466898
vt 0.322581 0.466898
vt 0.290323 0.522771
vt 0.225806 0.522771
vt 0.193548 0.466898
vt 0.129032 0.466898
vt 0.096774 0.522771
vt 0.032258 0.522771
vt 0.000000 0.466898
vt 0.193548 0.578643
vt 0.129032 0.578643
vt 0.387097 0.578643
vt 0.322581 0.578643
vt 0.580645 0.578643
vt 0.516129 0.578643
vt 0.774194 0.578643
vt 0.709677 0.578643
vt 0.967742 0.466898
vt 1.000000 0.522771
vt 0.967742 0.578643
vt 0.903226 0.578643
vt 1.000000 0.634516
vt 0.967742 0.690388
vt 0.903226 0.690388
vt 0.870968 0.634516
vt 0.806452 0.634516
vt 0.774194 0.690388
vt 0.709677 0.690388
vt 0.677419 0.634516
vt 0.612903 0.634516
vt 0.580645 0.690388
vt 0.516129 0.690388
vt 0.483871 0.634516
vt 0.419355 0.634516
vt 0.387097 0.690388
vt 0.322581 0.690388
vt 0.290323 0.634516
vt 0.225806 0.634516
vt 0.193548 0.690388
vt 0.129032 0.690388
vt 0.096774 0.634516
vt 0.116711 0.584129
vt 0.064516 0.622051
vt 0.012321 0.584129
vt 0.310259 0.584129
vt 0.258065 0.622051
vt 0.205870 0.584129
vt 0.503808 0.584129
vt 0.451613 0.622051
vt 0.399418 0.584129
vt 0.697356 0.584129
vt 0.645161 0.622051
vt 0.592967 0.584129
vt 0.890904 0.584129
vt 0.838710 0.622051
vt 0.786515 0.584129
vt 0.213485 0.751747
vt 0.161290 0.789669
vt 0.109096 0.751747
vt 0.109096 0.405539
vt 0.161290 0.367618
vt 0.213485 0.405539
vt 0.302644 0.405539
vt 0.354839 0.367618
vt 0.407033 0.405539
vt 0.496192 0.405539
vt 0.548387 0.367618
vt 0.600582 0.405539
vt 0.689741 0.405539
vt 0.741935 0.367618
vt 0.794130 0.405539
vt 0.883289 0.405539
vt 0.935484 0.367618
vt 0.987679 0.405539
vt 0.205870 0.237922
vt 0.258065 0.200000
vt 0.310259 0.237922
vt 0.225806 0.299280
vt 0.290323 0.299280
vn -0.034278 -0.980692 0.192533
vn 0.639592 -0.766842 0.053626
vn 0.773262 -0.566785 0.284292
vn 0.449997 -0.519404 0.726445
vn 0.257201 -0.531265 0.807220
vn -0.071986 -0.908205 0.412289
vn -0.034278 -0.980692 0.192533
vn -0.071986 -0.908205 0.412289
vn -0.639948 -0.557409 0.528924
vn -0.851792 -0.499924 0.156610
vn -0.672863 -0.588756 -0.447908
vn -0.411974 -0.691995 -0.592807
vn -0.411974 -0.691995 -0.592807
vn 0.017004 -0.503615 -0.863761
vn 0.662416 -0.385998 -0.642036
vn 0.639592 -0.766842 0.053626
vn -0.034278 -0.980692 0.192533
vn 0.662416 -0.385998 -0.642036
vn 0.807138 -0.235112 -0.541526
vn 0.950697 -0.196327 -0.240064
vn 0.960520 -0.278157 0.005566
vn 0.773262 -0.566785 0.284292
vn 0.639592 -0.766842 0.053626
vn 0.257201 -0.531265 0.807220
vn -0.083446 -0.227033 0.970306
vn -0.503309 -0.143470 0.852113
vn -0.639948 -0.557409 0.528924
vn -0.071986 -0.908205 0.412289
vn -0.672863 -0.588756 -0.447908
vn -0.646133 -0.278130 -0.710743
vn -0.435686 -0.220434 -0.872689
vn 0.038402 -0.367943 -0.929055
vn 0.017004 -0.503615 -0.863761
vn -0.411974 -0.691995 -0.592807
vn 0.773262 -0.566785 0.284292
vn 0.960520 -0.278157 0.005566
vn 0.949149 -0.205498 0.238511
vn 0.570555 -0.272841 0.774613
vn 0.449997 -0.519404 0.726445
vn 0.662416 -0.385998 -0.642036
vn 0.017004 -0.503615 -0.863761
vn 0.038402 -0.367943 -0.929055
vn 0.559393 -0.082472 -0.824789
vn 0.711209 -0.099958 -0.695838
vn 0.807138 -0.235112 -0.541526
vn -0.639948 -0.557409 0.528924
vn -0.503309 -0.143470 0.852113
vn -0.644924 0.015997 0.764080
vn -0.906968 0.063208 0.416430
vn -0.995237 -0.097318 0.005699
vn -0.851792 -0.499924 0.156610
vn 0.257201 -0.531265 0.807220
vn 0.449997 -0.519404 0.726445
vn 0.570555 -0.272841 0.774613
vn 0.316938 -0.145235 0.937261
vn -0.022654 -0.116942 0.992880
vn -0.083446 -0.227033 0.970306
vn -0.672863 -0.588756 -0.447908
vn -0.851792 -0.499924 0.156610
vn -0.995237 -0.097318 0.005699
vn -0.950958 -0.055401 -0.304319
vn -0.646133 -0.278130 -0.710743
vn 0.950697 -0.196327 -0.240064
vn 0.952216 -0.043892 -0.302256
vn 0.981750 0.019139 -0.189213
vn 0.986222 -0.044252 0.159400
vn 0.949149 -0.205498 0.238511
vn 0.960520 -0.278157 0.005566
vn 0.711209 -0.099958 -0.695838
vn 0.856589 0.039761 -0.514466
vn 0.952216 -0.043892 -0.302256
vn 0.950697 -0.196327 -0.240064
vn 0.807138 -0.235112 -0.541526
vn -0.503309 -0.143470 0.852113
vn -0.083446 -0.227033 0.970306
vn -0.022654 -0.116942 0.992880
vn -0.376863 0.185248 0.907556
vn -0.504007 0.197406 0.840838
vn -0.644924 0.015997 0.764080
vn -0.435686 -0.220434 -0.872689
vn -0.278399 0.106104 -0.954587
vn 0.404455 0.132051 -0.904975
vn 0.559393 -0.082472 -0.824789
vn 0.038402 -0.367943 -0.929055
vn -0.950958 -0.055401 -0.304319
vn -0.872512 0.115179 -0.474822
vn -0.645202 0.176218 -0.743412
vn -0.278399 0.106104 -0.954587
vn -0.435686 -0.220434 -0.872689
vn -0.646133 -0.278130 -0.710743
vn 0.986222 -0.044252 0.159400
vn 0.683502 0.228782 0.693169
vn 0.417395 0.206845 0.884871
vn 0.316938 -0.145235 0.937261
vn 0.570555 -0.272841 0.774613
vn 0.949149 -0.205498 0.238511
vn 0.711209 -0.099958 -0.695838
vn 0.559393 -0.082472 -0.824789
vn 0.404455 0.132051 -0.904975
vn 0.518496 0.258264 -0.815145
vn 0.727664 0.201284 -0.655736
vn 0.856589 0.039761 -0.514466
vn -0.644924 0.015997 0.764080
vn -0.504007 0.197406 0.840838
vn -0.707053 0.395809 0.586013
vn -0.939753 0.271013 0.208366
vn -0.906968 0.063208 0.416430
vn -0.906968 0.063208 0.416430
vn -0.939753 0.271013 0.208366
vn -0.956219 0.292156 -0.017052
vn -0.872512 0.115179 -0.474822
vn -0.950958 -0.055401 -0.304319
vn -0.995237 -0.097318 0.005699
vn -0.022654 -0.116942 0.992880
vn 0.316938 -0.145235 0.937261
vn 0.417395 0.206845 0.884871
vn -0.149297 0.389750 0.908738
vn -0.376863 0.185248 0.907556
vn 0.981750 0.019139 -0.189213
vn 0.819920 0.545915 -0.172358
vn 0.563882 0.665189 0.489449
vn 0.683502 0.228782 0.693169
vn 0.986222 -0.044252 0.159400
vn 0.952216 -0.043892 -0.302256
vn 0.856589 0.039761 -0.514466
vn 0.727664 0.201284 -0.655736
vn 0.722275 0.604044 -0.336824
vn 0.819920 0.545915 -0.172358
vn 0.981750 0.019139 -0.189213
vn -0.504007 0.197406 0.840838
vn -0.376863 0.185248 0.907556
vn -0.149297 0.389750 0.908738
vn -0.299347 0.617956 0.726995
vn -0.601482 0.632608 0.487880
vn -0.707053 0.395809 0.586013
vn 0.404455 0.132051 -0.904975
vn -0.278399 0.106104 -0.954587
vn -0.645202 0.176218 -0.743412
vn -0.361364 0.717248 -0.595795
vn -0.100482 0.771581 -0.628145
vn 0.518496 0.258264 -0.815145
vn -0.956219 0.292156 -0.017052
vn -0.672941 0.719184 -0.172989
vn -0.361364 0.717248 -0.595795
vn -0.645202 0.176218 -0.743412
vn -0.872512 0.115179 -0.474822
vn 0.563882 0.665189 0.489449
vn 0.121897 0.910973 0.394043
vn -0.299347 0.617956 0.726995
vn -0.149297 0.389750 0.908738
vn 0.417395 0.206845 0.884871
vn 0.683502 0.228782 0.693169
vn 0.727664 0.201284 -0.655736
vn 0.518496 0.258264 -0.815145
vn -0.100482 0.771581 -0.628145
vn 0.038414 0.957750 -0.285027
vn 0.722275 0.604044 -0.336824
vn -0.601482 0.632608 0.487880
vn -0.562302 0.826602 -0.023354
vn -0.672941 0.719184 -0.172989
vn -0.956219 0.292156 -0.017052
vn -0.939753 0.271013 0.208366
vn -0.707053 0.395809 0.586013
vn 0.563882 0.665189 0.489449
vn 0.819920 0.545915 -0.172358
vn 0.722275 0.604044 -0.336824
vn 0.038414 0.957750 -0.285027
vn -0.090833 0.989657 -0.111035
vn 0.121897 0.910973 0.394043
vn -0.601482 0.632608 0.487880
vn -0.299347 0.617956 0.726995
vn 0.121897 0.910973 0.394043
vn -0.090833 0.989657 -0.111035
vn -0.562302 0.826602 -0.023354
vn -0.100482 0.771581 -0.628145
vn -0.361364 0.717248 -0.595795
vn -0.672941 0.719184 -0.172989
vn -0.562302 0.826602 -0.023354
vn -0.090833 0.989657 -0.111035
vn 0.038414 0.957750 -0.285027
s off
g rock_d:group rock_d:pasted__pSolid1 rock_d:polySurface1
usemtl rock_d:initialShadingGroup
f 1/17/1 2/18/2 5/13/3 12/14/4 8/15/5 3/16/6
f 1/17/7 3/16/8 7/39/9 15/40/10 10/41/11 4/42/12
f 4/42/13 9/43/14 6/104/15 2/105/16 1/106/17
f 6/10/18 13/11/19 20/12/20 11/7/21 5/8/22 2/9/23
f 8/108/24 16/109/25 14/38/26 7/39/27 3/107/28
f 10/41/29 18/53/30 27/54/31 17/44/32 9/43/33 4/42/34
f 5/119/35 11/116/36 19/117/37 21/118/38 12/120/39
f 6/10/40 9/43/41 17/44/42 26/45/43 22/46/44 13/11/45
f 7/39/46 14/38/47 23/37/48 34/55/49 24/56/50 15/40/51
f 8/24/52 12/19/53 21/20/54 31/21/55 25/22/56 16/23/57
f 10/41/58 15/40/59 24/89/60 28/90/61 18/91/62
f 20/3/63 30/4/64 40/5/65 29/6/66 19/1/67 11/2/68
f 22/46/69 32/47/70 30/101/71 20/102/72 13/103/73
f 14/38/74 16/23/75 25/22/76 35/35/77 33/36/78 23/37/79
f 27/86/80 37/87/81 36/88/82 26/45/83 17/44/84
f 28/75/85 38/76/86 47/77/87 37/78/88 27/54/89 18/53/90
f 29/27/91 39/28/92 41/29/93 31/30/94 21/25/95 19/26/96
f 22/46/97 26/45/98 36/51/99 46/52/100 42/48/101 32/47/102
f 23/37/103 33/36/104 43/92/105 44/93/106 34/94/107
f 34/55/108 44/71/109 48/72/110 38/73/111 28/74/112 24/56/113
f 25/110/114 31/111/115 41/112/116 45/34/117 35/35/118
f 40/115/119 50/59/120 49/31/121 39/113/122 29/114/123
f 30/4/124 32/47/125 42/48/126 51/49/127 50/50/128 40/5/129
f 33/36/130 35/35/131 45/34/132 53/33/133 52/57/134 43/58/135
f 36/51/136 37/79/137 47/80/138 55/81/139 54/82/140 46/52/141
f 48/99/142 56/100/143 55/81/144 47/80/145 38/98/146
f 49/31/147 57/32/148 53/33/149 45/34/150 41/29/151 39/28/152
f 42/48/153 46/83/154 54/84/155 58/85/156 51/49/157
f 52/57/158 59/67/159 56/68/160 48/69/161 44/70/162 43/58/163
f 49/31/164 50/59/165 51/60/166 58/61/167 60/62/168 57/32/169
f 52/97/170 53/33/171 57/32/172 60/95/173 59/96/174
f 54/63/175 55/64/176 56/65/177 59/66/178 60/62/179 58/61/180
