# This file uses centimeters as units for non-parametric coordinates.

mtllib Bowl_001.mtl
g default
v -0.659931 0.218488 -0.214425
v -0.561371 0.218488 -0.407860
v -0.407860 0.218488 -0.561371
v -0.214425 0.228615 -0.659931
v -0.000000 0.228615 -0.693892
v 0.214425 0.228615 -0.659931
v 0.407860 0.228615 -0.561371
v 0.561371 0.228615 -0.407860
v 0.659931 0.228615 -0.214425
v 0.693892 0.228615 0.000000
v 0.659931 0.228615 0.214425
v 0.561371 0.228615 0.407860
v 0.407860 0.228615 0.561371
v 0.214425 0.228615 0.659931
v -0.000000 0.228615 0.693892
v -0.214425 0.228615 0.659931
v -0.407860 0.218488 0.561371
v -0.561371 0.218488 0.407860
v -0.659931 0.218488 0.214424
v -0.693892 0.218488 -0.000000
v -0.647662 0.456394 0.485595
v -0.761372 0.456394 0.255293
v -0.470554 0.456394 0.668365
v -0.247385 0.466522 0.785710
v -0.000000 0.466522 0.826144
v 0.247385 0.466522 0.785710
v 0.470554 0.466522 0.668365
v 0.647662 0.466522 0.485595
v 0.761372 0.466522 0.255293
v 0.800555 0.466522 0.000000
v 0.761372 0.466522 -0.255293
v 0.647662 0.466522 -0.485595
v 0.470554 0.466522 -0.668365
v 0.247385 0.466522 -0.785710
v -0.000000 0.466522 -0.826144
v -0.247385 0.445055 -0.785710
v -0.470554 0.456394 -0.668365
v -0.647662 0.456394 -0.485595
v -0.761373 0.456394 -0.255293
v -0.800555 0.456394 0.000000
v -0.524097 0.002763 -0.000000
v -0.498446 0.002763 -0.167132
v -0.424004 0.002763 -0.317904
v -0.308057 0.002763 -0.437557
v -0.161955 0.002763 -0.514379
v 0.000000 0.002763 -0.540850
v 0.161955 0.002763 -0.514379
v 0.308057 0.002763 -0.437557
v 0.424004 0.002763 -0.317904
v 0.498446 0.002763 -0.167132
v 0.524098 0.002763 -0.000000
v 0.498446 0.002763 0.167132
v 0.424004 0.002763 0.317904
v 0.308057 0.002763 0.437557
v 0.161955 0.002763 0.514379
v 0.000000 0.002763 0.540850
v -0.161955 0.002763 0.514379
v -0.308057 0.002763 0.437557
v -0.424004 0.002763 0.317904
v -0.498446 0.002763 0.167132
v -0.375230 0.053014 0.282208
v -0.441116 0.053010 0.148368
v -0.272616 0.053019 0.388419
v -0.143320 0.053022 0.456608
v 0.000000 0.053024 0.480103
v 0.143320 0.053022 0.456607
v 0.272616 0.053019 0.388419
v 0.375230 0.053014 0.282208
v 0.441116 0.053010 0.148368
v 0.463819 0.053009 -0.000000
v 0.441116 0.053010 -0.148368
v 0.375230 0.053014 -0.282208
v 0.272616 0.053019 -0.388419
v 0.143320 0.053022 -0.456608
v 0.000000 0.053024 -0.480103
v -0.143320 0.053022 -0.456608
v -0.272616 0.053019 -0.388419
v -0.375230 0.053014 -0.282208
v -0.441116 0.053010 -0.148368
v -0.463819 0.053009 -0.000000
v -0.607020 0.459764 0.455239
v -0.713601 0.459750 0.239335
v -0.441022 0.459782 0.626577
v -0.231857 0.459797 0.736580
v -0.000000 0.459802 0.774484
v 0.231857 0.459797 0.736580
v 0.441022 0.459782 0.626577
v 0.607021 0.459764 0.455239
v 0.713601 0.459750 0.239335
v 0.750327 0.459745 0.000000
v 0.713601 0.459750 -0.239335
v 0.607021 0.459764 -0.455239
v 0.441022 0.459782 -0.626577
v 0.231857 0.459797 -0.736580
v -0.000000 0.459802 -0.774484
v -0.231857 0.459797 -0.736580
v -0.441022 0.459782 -0.626577
v -0.607021 0.459764 -0.455239
v -0.713601 0.459750 -0.239335
v -0.750327 0.459745 0.000000
vt 0.648603 0.107966
vt 0.626409 0.064408
vt 0.591842 0.029841
vt 0.548284 0.007647
vt 0.500000 -0.000000
vt 0.451716 0.007647
vt 0.408159 0.029841
vt 0.373591 0.064409
vt 0.351397 0.107966
vt 0.343750 0.156250
vt 0.351397 0.204534
vt 0.373591 0.248091
vt 0.408159 0.282659
vt 0.451716 0.304853
vt 0.500000 0.312500
vt 0.548284 0.304853
vt 0.591841 0.282659
vt 0.626409 0.248091
vt 0.648603 0.204534
vt 0.656250 0.156250
vt 0.375000 0.312500
vt 0.387500 0.312500
vt 0.400000 0.312500
vt 0.412500 0.312500
vt 0.425000 0.312500
vt 0.437500 0.312500
vt 0.450000 0.312500
vt 0.462500 0.312500
vt 0.475000 0.312500
vt 0.487500 0.312500
vt 0.500000 0.312500
vt 0.512500 0.312500
vt 0.525000 0.312500
vt 0.537500 0.312500
vt 0.550000 0.312500
vt 0.562500 0.312500
vt 0.575000 0.312500
vt 0.587500 0.312500
vt 0.600000 0.312500
vt 0.612500 0.312500
vt 0.625000 0.312500
vt 0.648603 0.204534
vt 0.626409 0.248091
vt 0.591841 0.282659
vt 0.548284 0.304853
vt 0.500000 0.312500
vt 0.451716 0.304853
vt 0.408159 0.282659
vt 0.373591 0.248091
vt 0.351397 0.204534
vt 0.343750 0.156250
vt 0.351397 0.107966
vt 0.373591 0.064409
vt 0.408159 0.029841
vt 0.451716 0.007647
vt 0.500000 -0.000000
vt 0.548284 0.007647
vt 0.591842 0.029841
vt 0.626409 0.064408
vt 0.648603 0.107966
vt 0.656250 0.156250
vt 0.656250 0.843750
vt 0.648603 0.892034
vt 0.626409 0.935591
vt 0.591841 0.970159
vt 0.548284 0.992353
vt 0.500000 1.000000
vt 0.451716 0.992353
vt 0.408159 0.970159
vt 0.373591 0.935591
vt 0.351397 0.892034
vt 0.343750 0.843750
vt 0.351397 0.795466
vt 0.373591 0.751909
vt 0.408159 0.717341
vt 0.451716 0.695147
vt 0.500000 0.687500
vt 0.548284 0.695147
vt 0.591842 0.717341
vt 0.626409 0.751908
vt 0.648603 0.795466
vt 0.648603 0.204534
vt 0.626409 0.248091
vt 0.591841 0.282659
vt 0.548284 0.304853
vt 0.500000 0.312500
vt 0.451716 0.304853
vt 0.408159 0.282659
vt 0.373591 0.248091
vt 0.351397 0.204534
vt 0.343750 0.156250
vt 0.351397 0.107966
vt 0.373591 0.064409
vt 0.408159 0.029841
vt 0.451716 0.007647
vt 0.500000 -0.000000
vt 0.548284 0.007647
vt 0.591842 0.029841
vt 0.626409 0.064408
vt 0.648603 0.107966
vt 0.656250 0.156250
vt 0.648603 0.204534
vt 0.626409 0.248091
vt 0.591841 0.282659
vt 0.548284 0.304853
vt 0.500000 0.312500
vt 0.451716 0.304853
vt 0.408159 0.282659
vt 0.373591 0.248091
vt 0.351397 0.204534
vt 0.343750 0.156250
vt 0.351397 0.107966
vt 0.373591 0.064409
vt 0.408159 0.029841
vt 0.451716 0.007647
vt 0.500000 -0.000000
vt 0.548284 0.007647
vt 0.591842 0.029841
vt 0.626409 0.064408
vt 0.648603 0.107966
vt 0.656250 0.156250
vn -0.000000 1.000000 0.000000
vn -0.000000 1.000000 0.000000
vn -0.000000 1.000000 0.000000
vn -0.000000 1.000000 0.000000
vn -0.000000 1.000000 0.000000
vn -0.000000 1.000000 0.000000
vn -0.000000 1.000000 0.000000
vn -0.000000 1.000000 0.000000
vn -0.000000 1.000000 0.000000
vn -0.000000 1.000000 0.000000
vn -0.000000 1.000000 0.000000
vn -0.000000 1.000000 0.000000
vn -0.000000 1.000000 0.000000
vn -0.000000 1.000000 0.000000
vn -0.000000 1.000000 0.000000
vn -0.000000 1.000000 0.000000
vn -0.000000 1.000000 0.000000
vn -0.000000 1.000000 0.000000
vn -0.000000 1.000000 0.000000
vn -0.000000 1.000000 0.000000
vn 0.000000 -1.000000 -0.000000
vn 0.000000 -1.000000 -0.000000
vn 0.000000 -1.000000 -0.000000
vn 0.000000 -1.000000 -0.000000
vn 0.000000 -1.000000 -0.000000
vn 0.000000 -1.000000 -0.000000
vn 0.000000 -1.000000 -0.000000
vn 0.000000 -1.000000 -0.000000
vn 0.000000 -1.000000 -0.000000
vn 0.000000 -1.000000 -0.000000
vn 0.000000 -1.000000 -0.000000
vn 0.000000 -1.000000 -0.000000
vn 0.000000 -1.000000 -0.000000
vn 0.000000 -1.000000 -0.000000
vn 0.000000 -1.000000 -0.000000
vn 0.000000 -1.000000 -0.000000
vn 0.000000 -1.000000 -0.000000
vn 0.000000 -1.000000 -0.000000
vn 0.000000 -1.000000 -0.000000
vn 0.000000 -1.000000 -0.000000
vn -0.821999 -0.506277 0.260773
vn -0.700926 -0.511316 0.497251
vn -0.728927 -0.437367 0.526664
vn -0.864288 -0.418352 0.279263
vn -0.503548 -0.517363 0.691936
vn -0.513680 -0.461155 0.723512
vn -0.261227 -0.516451 0.815499
vn -0.261902 -0.477403 0.838746
vn -0.000000 -0.517818 0.855491
vn 0.000000 -0.484238 0.874937
vn 0.270420 -0.515833 0.812890
vn 0.272838 -0.477660 0.835105
vn 0.513170 -0.510676 0.689831
vn 0.523786 -0.460020 0.716959
vn 0.704220 -0.504391 0.499665
vn 0.728927 -0.437368 0.526664
vn 0.825808 -0.499387 0.262021
vn 0.864288 -0.418353 0.279262
vn 0.867466 -0.497496 -0.000000
vn 0.911669 -0.410926 0.000000
vn 0.825807 -0.499387 -0.262021
vn 0.864288 -0.418353 -0.279262
vn 0.704220 -0.504391 -0.499664
vn 0.728927 -0.437368 -0.526663
vn 0.513170 -0.510676 -0.689831
vn 0.523786 -0.460020 -0.716959
vn 0.270420 -0.515833 -0.812890
vn 0.272838 -0.477660 -0.835105
vn 0.008262 -0.522514 -0.852591
vn 0.017739 -0.491827 -0.870512
vn -0.259158 -0.527528 -0.809044
vn -0.257490 -0.495821 -0.829374
vn -0.508084 -0.521611 -0.685400
vn -0.525820 -0.468282 -0.710088
vn -0.700925 -0.511317 -0.497251
vn -0.728927 -0.437368 -0.526664
vn -0.821998 -0.506277 -0.260772
vn -0.864288 -0.418353 -0.279262
vn -0.863486 -0.504372 0.000001
vn -0.911669 -0.410926 0.000001
vn -0.751329 -0.614038 -0.241788
vn -0.786609 -0.617451 0.000001
vn -0.646321 -0.604920 -0.465125
vn -0.470415 -0.589160 -0.656963
vn -0.247705 -0.569503 -0.783778
vn 0.000000 -0.562133 -0.827047
vn 0.256967 -0.565914 -0.783396
vn 0.483643 -0.575634 -0.659344
vn 0.656969 -0.587294 -0.472734
vn 0.764072 -0.596444 -0.245862
vn 0.800095 -0.599873 -0.000000
vn 0.764072 -0.596444 0.245862
vn 0.656969 -0.587294 0.472734
vn 0.483643 -0.575634 0.659344
vn 0.256966 -0.565914 0.783396
vn 0.000000 -0.562133 0.827047
vn -0.247705 -0.569504 0.783778
vn -0.470414 -0.589160 0.656963
vn -0.646321 -0.604920 0.465125
vn -0.751330 -0.614037 0.241788
vn 0.779014 0.576798 -0.245846
vn 0.665938 0.579377 -0.469945
vn 0.667460 0.579346 -0.467821
vn 0.779498 0.576787 -0.244337
vn 0.486809 0.582622 -0.650822
vn 0.488962 0.582589 -0.649235
vn 0.257214 0.585294 -0.768942
vn 0.258815 0.585281 -0.768415
vn -0.000000 0.586325 -0.810076
vn -0.000000 0.586325 -0.810076
vn -0.257214 0.585294 -0.768942
vn -0.258815 0.585281 -0.768415
vn -0.486809 0.582622 -0.650822
vn -0.488962 0.582589 -0.649235
vn -0.665938 0.579377 -0.469945
vn -0.667459 0.579346 -0.467821
vn -0.779015 0.576798 -0.245846
vn -0.779498 0.576787 -0.244336
vn -0.817574 0.575824 -0.000000
vn -0.817574 0.575824 -0.000000
vn -0.779015 0.576798 0.245846
vn -0.779498 0.576786 0.244336
vn -0.665938 0.579377 0.469945
vn -0.667460 0.579346 0.467821
vn -0.486809 0.582622 0.650822
vn -0.488962 0.582589 0.649235
vn -0.257214 0.585294 0.768942
vn -0.258815 0.585281 0.768415
vn -0.000000 0.586325 0.810076
vn -0.000000 0.586325 0.810076
vn 0.257214 0.585294 0.768942
vn 0.258814 0.585281 0.768415
vn 0.486809 0.582622 0.650821
vn 0.488962 0.582589 0.649235
vn 0.665938 0.579378 0.469945
vn 0.667459 0.579346 0.467821
vn 0.779014 0.576799 0.245846
vn 0.779498 0.576787 0.244336
vn 0.817574 0.575824 -0.000001
vn 0.817574 0.575824 -0.000001
vn -0.063435 0.997784 0.020095
vn -0.054132 0.997797 0.038344
vn -0.054346 0.997797 0.038047
vn -0.063504 0.997784 0.019882
vn -0.025375 0.999672 0.003429
vn -0.026145 0.999646 0.004887
vn 0.009111 0.996379 -0.084534
vn 0.008824 0.996471 -0.083468
vn 0.000000 0.991641 -0.129026
vn 0.000000 0.991641 -0.129026
vn -0.040922 0.991583 -0.122833
vn -0.041356 0.991582 -0.122697
vn -0.078041 0.991431 -0.104758
vn -0.078640 0.991428 -0.104340
vn -0.107758 0.991241 -0.076352
vn -0.108194 0.991238 -0.075775
vn -0.127002 0.991086 -0.040243
vn -0.127144 0.991085 -0.039822
vn -0.133669 0.991026 0.000000
vn -0.133669 0.991026 0.000000
vn -0.127002 0.991086 0.040243
vn -0.127145 0.991085 0.039822
vn -0.107758 0.991241 0.076352
vn -0.108195 0.991238 0.075774
vn -0.078041 0.991431 0.104758
vn -0.078640 0.991428 0.104339
vn -0.040922 0.991583 0.122833
vn -0.041356 0.991582 0.122697
vn -0.038714 0.998802 0.029943
vn -0.038780 0.998810 0.029566
vn -0.058858 0.991233 -0.118289
vn -0.058903 0.991133 -0.119109
vn -0.055071 0.992623 -0.108013
vn -0.054830 0.992870 -0.105847
vn -0.054132 0.997797 -0.038344
vn -0.054346 0.997797 -0.038047
vn -0.063436 0.997784 -0.020095
vn -0.063504 0.997784 -0.019882
vn -0.066619 0.997779 -0.000000
vn -0.066619 0.997778 0.000000
s off
g pCylinder380
usemtl initialShadingGroup
f 62/82/1 61/83/2 63/84/3 64/85/4 65/86/5 66/87/6 67/88/7 68/89/8 69/90/9 70/91/10 71/92/11 72/93/12 73/94/13 74/95/14 75/96/15 76/97/16 77/98/17 78/99/18 79/100/19 80/101/20
f 41/62/21 42/63/22 43/64/23 44/65/24 45/66/25 46/67/26 47/68/27 48/69/28 49/70/29 50/71/30 51/72/31 52/73/32 53/74/33 54/75/34 55/76/35 56/77/36 57/78/37 58/79/38 59/80/39 60/81/40
s 1
f 19/19/41 18/18/42 21/43/43 22/42/44
f 18/18/42 17/17/45 23/44/46 21/43/43
f 17/17/45 16/16/47 24/45/48 23/44/46
f 16/16/47 15/15/49 25/46/50 24/45/48
f 15/15/49 14/14/51 26/47/52 25/46/50
f 14/14/51 13/13/53 27/48/54 26/47/52
f 13/13/53 12/12/55 28/49/56 27/48/54
f 12/12/55 11/11/57 29/50/58 28/49/56
f 11/11/57 10/10/59 30/51/60 29/50/58
f 10/10/59 9/9/61 31/52/62 30/51/60
f 9/9/61 8/8/63 32/53/64 31/52/62
f 8/8/63 7/7/65 33/54/66 32/53/64
f 7/7/65 6/6/67 34/55/68 33/54/66
f 6/6/67 5/5/69 35/56/70 34/55/68
f 5/5/69 4/4/71 36/57/72 35/56/70
f 4/4/71 3/3/73 37/58/74 36/57/72
f 3/3/73 2/2/75 38/59/76 37/58/74
f 2/2/75 1/1/77 39/60/78 38/59/76
f 1/1/77 20/20/79 40/61/80 39/60/78
f 20/20/79 19/19/41 22/42/44 40/61/80
f 1/41/77 42/63/81 41/62/82 20/40/79
f 2/22/75 43/64/83 42/63/81 1/21/77
f 3/23/73 44/65/84 43/64/83 2/22/75
f 4/24/71 45/66/85 44/65/84 3/23/73
f 5/25/69 46/67/86 45/66/85 4/24/71
f 6/26/67 47/68/87 46/67/86 5/25/69
f 7/27/65 48/69/88 47/68/87 6/26/67
f 8/28/63 49/70/89 48/69/88 7/27/65
f 9/29/61 50/71/90 49/70/89 8/28/63
f 10/30/59 51/72/91 50/71/90 9/29/61
f 11/31/57 52/73/92 51/72/91 10/30/59
f 12/32/55 53/74/93 52/73/92 11/31/57
f 13/33/53 54/75/94 53/74/93 12/32/55
f 14/34/51 55/76/95 54/75/94 13/33/53
f 15/35/49 56/77/96 55/76/95 14/34/51
f 16/36/47 57/78/97 56/77/96 15/35/49
f 17/37/45 58/79/98 57/78/97 16/36/47
f 18/38/42 59/80/99 58/79/98 17/37/45
f 19/39/41 60/81/100 59/80/99 18/38/42
f 20/40/79 41/62/82 60/81/100 19/39/41
s 2
f 82/102/101 81/103/102 61/83/103 62/82/104
f 81/103/102 83/104/105 63/84/106 61/83/103
f 83/104/105 84/105/107 64/85/108 63/84/106
f 84/105/107 85/106/109 65/86/110 64/85/108
f 85/106/109 86/107/111 66/87/112 65/86/110
f 86/107/111 87/108/113 67/88/114 66/87/112
f 87/108/113 88/109/115 68/89/116 67/88/114
f 88/109/115 89/110/117 69/90/118 68/89/116
f 89/110/117 90/111/119 70/91/120 69/90/118
f 90/111/119 91/112/121 71/92/122 70/91/120
f 91/112/121 92/113/123 72/93/124 71/92/122
f 92/113/123 93/114/125 73/94/126 72/93/124
f 93/114/125 94/115/127 74/95/128 73/94/126
f 94/115/127 95/116/129 75/96/130 74/95/128
f 95/116/129 96/117/131 76/97/132 75/96/130
f 96/117/131 97/118/133 77/98/134 76/97/132
f 97/118/133 98/119/135 78/99/136 77/98/134
f 98/119/135 99/120/137 79/100/138 78/99/136
f 99/120/137 100/121/139 80/101/140 79/100/138
f 100/121/139 82/102/101 62/82/104 80/101/140
s 3
f 22/42/141 21/43/142 81/103/143 82/102/144
f 21/43/142 23/44/145 83/104/146 81/103/143
f 23/44/145 24/45/147 84/105/148 83/104/146
f 24/45/147 25/46/149 85/106/150 84/105/148
f 25/46/149 26/47/151 86/107/152 85/106/150
f 26/47/151 27/48/153 87/108/154 86/107/152
f 27/48/153 28/49/155 88/109/156 87/108/154
f 28/49/155 29/50/157 89/110/158 88/109/156
f 29/50/157 30/51/159 90/111/160 89/110/158
f 30/51/159 31/52/161 91/112/162 90/111/160
f 31/52/161 32/53/163 92/113/164 91/112/162
f 32/53/163 33/54/165 93/114/166 92/113/164
f 33/54/165 34/55/167 94/115/168 93/114/166
f 34/55/167 35/56/169 95/116/170 94/115/168
f 35/56/169 36/57/171 96/117/172 95/116/170
f 36/57/171 37/58/173 97/118/174 96/117/172
f 37/58/173 38/59/175 98/119/176 97/118/174
f 38/59/175 39/60/177 99/120/178 98/119/176
f 39/60/177 40/61/179 100/121/180 99/120/178
f 40/61/179 22/42/141 82/102/144 100/121/180
