# This file uses centimeters as units for non-parametric coordinates.

mtllib Cabnet_003.mtl
g default
v -1.000000 0.003777 4.000000
v 1.000000 0.003777 4.000000
v -0.960159 4.922851 3.871132
v 0.861080 0.246779 3.871132
v -0.960159 4.922851 -3.871132
v 0.861080 0.246779 -3.863445
v -1.000000 0.003777 -4.000000
v 1.000000 0.003777 -4.000000
v -1.000000 0.087502 -4.000000
v 1.000000 0.087502 -4.000000
v 1.000000 0.087502 4.000000
v -1.000000 0.087502 4.000000
v -0.986430 0.165996 -3.945717
v 0.986430 0.165996 -3.945717
v 0.986430 0.165997 3.945717
v -0.986430 0.165997 3.945717
v -0.972175 0.165997 -3.919575
v 0.972175 0.165997 -3.919575
v 0.972175 0.165997 3.919575
v -0.972175 0.165997 3.919575
v 0.960159 0.247303 -3.863445
v 0.960159 0.247303 3.871132
v 0.860504 4.922851 -3.871132
v 0.860504 4.922851 3.871132
v 0.788632 4.771394 -3.683136
v 0.788632 4.771394 3.683136
v 0.789152 0.246145 3.683136
v 0.789152 0.246145 -3.683136
v 0.710979 4.771377 -3.683136
v 0.710979 4.771377 3.683136
v 0.711498 0.246128 3.683136
v 0.711498 0.246128 -3.683136
v -0.971947 0.247620 -3.863258
v -0.971947 0.247620 3.863258
v 0.861070 0.246566 3.737503
v 0.861061 0.246359 -3.746521
v 0.860523 4.822460 -3.746521
v 0.860514 4.830224 3.747711
v 0.861077 0.246713 3.781113
v 0.861067 0.246490 -3.785397
v 0.860517 4.853779 -3.785397
v 0.860507 4.865357 3.791321
v 0.838232 0.246487 -3.785397
v 0.837682 4.853776 -3.785397
v 0.837688 4.822457 -3.746521
v 0.838226 0.246356 -3.746521
v 0.837672 4.865354 3.791321
v 0.837679 4.830221 3.747711
v 0.838241 0.246710 3.781113
v 0.838235 0.246563 3.737503
vt 0.375000 0.000000
vt 0.625000 0.000000
vt 0.375000 0.250000
vt 0.618513 0.158984
vt 0.375000 0.500000
vt 0.618513 0.591016
vt 0.375000 0.750000
vt 0.625000 0.750000
vt 0.375000 1.000000
vt 0.625000 1.000000
vt 0.875000 0.000000
vt 0.875000 0.250000
vt 0.125000 0.000000
vt 0.125000 0.250000
vt 0.125000 0.020931
vt 0.375000 0.729069
vt 0.625000 0.729069
vt 0.875000 0.020931
vt 0.625000 0.020931
vt 0.375000 0.020931
vt 0.125000 0.039165
vt 0.375000 0.710835
vt 0.625000 0.710835
vt 0.875000 0.039165
vt 0.625000 0.039165
vt 0.375000 0.039165
vt 0.125000 0.048349
vt 0.375000 0.701651
vt 0.625000 0.701651
vt 0.875000 0.048349
vt 0.625000 0.048349
vt 0.375000 0.048349
vt 0.625000 0.682032
vt 0.875000 0.067968
vt 0.625000 0.067968
vt 0.612026 0.500000
vt 0.612026 0.250000
vt 0.612026 0.500000
vt 0.612026 0.250000
vt 0.618513 0.158984
vt 0.618513 0.591016
vt 0.612026 0.500000
vt 0.612026 0.250000
vt 0.618513 0.158984
vt 0.618513 0.591016
vt 0.125000 0.052172
vt 0.375000 0.697828
vt 0.375000 0.052172
vt 0.618513 0.158984
vt 0.618513 0.591016
vt 0.612026 0.500000
vt 0.612026 0.250000
vt 0.618513 0.158984
vt 0.618513 0.591016
vt 0.612026 0.500000
vt 0.612026 0.250000
vt 0.618513 0.591016
vt 0.612026 0.500000
vt 0.612026 0.500000
vt 0.618513 0.591016
vt 0.612026 0.250000
vt 0.612026 0.250000
vt 0.618513 0.158984
vt 0.618513 0.158984
vn 0.000000 0.000000 1.000000
vn 0.000000 0.000000 1.000000
vn 0.000000 0.302372 0.953190
vn 0.000000 0.302372 0.953190
vn 1.000000 0.000115 0.000000
vn 1.000000 0.000115 0.000000
vn 1.000000 0.000115 0.000000
vn 1.000000 0.000115 0.000000
vn 0.000000 0.302372 -0.953190
vn 0.000000 0.000000 -1.000000
vn 0.000000 0.000000 -1.000000
vn 0.000000 0.302372 -0.953190
vn 0.000000 -1.000000 0.000000
vn 0.000000 -1.000000 0.000000
vn 0.000000 -1.000000 0.000000
vn 0.000000 -1.000000 0.000000
vn 1.000000 0.000000 0.000000
vn 1.000000 0.000000 0.000000
vn 0.998007 0.063100 -0.000000
vn 0.998007 0.063100 -0.000000
vn -1.000000 0.000000 0.000000
vn -1.000000 0.000000 0.000000
vn -0.998007 0.063100 -0.000000
vn -0.998007 0.063100 -0.000000
vn 0.000000 0.667766 -0.744371
vn 0.000000 0.667766 -0.744371
vn 0.977808 0.209501 -0.000000
vn 0.977808 0.209501 -0.000000
vn 0.000000 0.667765 0.744372
vn 0.000000 0.667765 0.744372
vn -0.977808 0.209501 -0.000000
vn -0.977808 0.209501 -0.000000
vn 0.000006 0.756547 -0.653939
vn 0.000006 0.746453 -0.665438
vn 0.846330 0.532658 -0.000000
vn 0.858065 0.513542 -0.000000
vn -0.002152 0.019230 0.999813
vn -0.002152 0.018564 0.999825
vn -0.899715 0.436477 -0.000000
vn -0.899716 0.436476 -0.000000
vn -0.000049 0.022961 -0.999736
vn -0.000050 0.010922 -0.999940
vn -0.000052 -0.001664 -0.999999
vn -0.000052 -0.001664 -0.999999
vn 0.697018 0.717053 -0.000000
vn 0.687329 0.726346 -0.000000
vn -0.002152 0.010798 0.999939
vn -0.002152 0.010798 0.999939
vn -0.002152 0.010798 0.999939
vn -0.002152 0.010798 0.999939
vn -0.002152 0.010798 0.999939
vn -0.999997 0.002521 0.000000
vn -0.999997 0.002528 0.000000
vn -0.999997 0.002528 0.000000
vn -0.999997 0.002521 0.000000
vn -0.005284 0.999986 0.000000
vn -0.005284 0.999986 0.000000
vn 0.000000 1.000000 -0.000000
vn 0.000000 1.000000 -0.000000
vn 0.000000 1.000000 -0.000000
vn 0.000000 1.000000 -0.000000
vn 0.749229 -0.542786 0.379524
vn 0.737642 -0.565790 -0.368464
vn 0.733959 -0.583448 -0.347696
vn 0.740524 -0.582385 0.335338
vn 0.507968 0.595402 -0.622467
vn 0.308487 0.872962 -0.377853
vn 0.319094 0.874057 0.366338
vn 0.547293 0.553091 0.628141
vn 0.000221 -1.000000 0.000000
vn 0.000221 -1.000000 0.000000
vn 0.000221 -1.000000 0.000000
vn 0.000221 -1.000000 0.000000
vn -0.000001 0.000000 -1.000000
vn -0.000001 0.000000 -1.000000
vn -0.000001 0.000000 -1.000000
vn -0.000001 0.000000 -1.000000
vn -0.000221 1.000000 0.000000
vn -0.000221 1.000000 0.000000
vn -0.000221 1.000000 0.000000
vn -0.000221 1.000000 0.000000
vn 0.000001 0.000000 1.000000
vn 0.000001 0.000000 1.000000
vn 0.000001 0.000000 1.000000
vn 0.000001 0.000000 1.000000
vn 0.000007 0.569250 -0.822165
vn 1.000000 0.000430 -0.000042
vn 1.000000 0.000440 0.000051
vn 1.000000 0.000118 0.000049
vn 1.000000 0.000151 0.000024
vn 1.000000 0.000157 0.000020
vn 1.000000 0.000118 0.000049
vn 1.000000 0.000152 -0.000025
vn 1.000000 0.000157 -0.000020
vn 1.000000 0.000122 -0.000049
vn 1.000000 0.000122 -0.000049
vn 1.000000 0.000123 -0.000042
vn 1.000000 0.000122 0.000051
vn 1.000000 0.000123 0.000026
vn 1.000000 0.000123 0.000021
vn 1.000000 0.000124 -0.000023
vn 1.000000 0.000124 -0.000017
vn -0.000006 0.000000 1.000000
vn -0.000006 0.000000 1.000000
vn -0.000006 0.000000 1.000000
vn -0.000006 0.000000 1.000000
vn -0.000007 0.000000 -1.000000
vn -0.000007 0.000000 -1.000000
vn -0.000007 0.000000 -1.000000
vn -0.000007 0.000000 -1.000000
vn -0.000125 0.999994 0.003373
vn -0.000125 0.999994 0.003373
vn -0.000125 0.999994 0.003373
vn -0.000125 0.999994 0.003373
vn 0.000125 -0.999999 0.001528
vn 0.000125 -0.999999 0.001528
vn 0.000125 -0.999999 0.001528
vn 0.000125 -0.999999 0.001528
vn -0.000125 0.999999 -0.001036
vn -0.000125 0.999999 -0.001036
vn -0.000125 0.999999 -0.001036
vn -0.000125 0.999999 -0.001036
vn 0.000006 0.002210 -0.999998
vn 0.000006 0.002210 -0.999998
vn 0.000006 0.002210 -0.999998
vn 0.000006 0.002210 -0.999998
vn -0.000125 0.999994 -0.003368
vn -0.000125 0.999994 -0.003368
vn -0.000125 0.999994 -0.003368
vn -0.000125 0.999994 -0.003368
vn 0.000007 -0.002227 0.999998
vn 0.000007 -0.002227 0.999998
vn 0.000007 -0.002227 0.999998
vn 0.000007 -0.002227 0.999998
s 1
g pCube245
usemtl initialShadingGroup
f 1/1/1 2/2/2 11/19/3 12/20/4
s off
f 29/42/5 30/43/6 31/44/7 32/45/8
s 2
f 10/17/9 8/8/10 7/7/11 9/16/12
s off
f 8/8/13 2/10/14 1/9/15 7/7/16
s 3
f 2/2/17 8/11/18 10/18/19 11/19/20
s 4
f 7/13/21 1/1/22 12/20/23 9/15/24
s 2
f 14/23/25 10/17/9 9/16/12 13/22/26
s 3
f 11/19/20 10/18/19 14/24/27 15/25/28
s 1
f 11/19/3 15/25/29 16/26/30 12/20/4
s 4
f 9/15/24 12/20/23 16/26/31 13/21/32
s 2
f 18/29/33 14/23/25 13/22/26 17/28/34
s 3
f 15/25/28 14/24/27 18/30/35 19/31/36
s 1
f 15/25/29 19/31/37 20/32/38 16/26/30
s 4
f 13/21/32 16/26/31 20/32/39 17/27/40
s 2
f 6/6/41 33/47/42 5/5/43 23/36/44
s 3
f 19/31/36 18/30/35 21/34/45 22/35/46
s 1
f 19/31/37 22/35/47 4/4/48 24/37/49 3/3/50 34/48/51 20/32/38
s 4
f 5/14/52 33/46/53 34/48/54 3/3/55
s 3
f 22/35/46 21/34/45 6/12/56 4/4/57
s off
f 3/3/58 24/37/59 23/36/60 5/5/61
s 5
f 37/51/62 38/52/63 26/39/64 25/38/65
f 38/52/63 35/49/66 27/40/67 26/39/64
f 28/41/68 27/40/67 35/49/66 36/50/69
f 36/50/69 37/51/62 25/38/65 28/41/68
s off
f 25/38/70 26/39/71 30/43/72 29/42/73
f 26/39/74 27/40/75 31/44/76 30/43/77
f 27/40/78 28/41/79 32/45/80 31/44/81
f 28/41/82 25/38/83 29/42/84 32/45/85
s 4
f 34/48/54 33/46/53 17/27/40 20/32/39
s 2
f 6/6/41 21/33/86 18/29/33 17/28/34 33/47/42
s 5
f 36/50/69 35/49/66 39/53/87 40/54/88
s 6
f 43/57/89 44/58/90 45/59/91 46/60/92
f 44/58/90 47/61/93 48/62/94 45/59/91
f 47/61/93 49/63/95 50/64/96 48/62/94
s 5
f 40/54/88 39/53/87 4/4/97 6/6/98
f 23/36/99 41/55/100 40/54/88 6/6/98
f 24/37/101 42/56/102 41/55/100 23/36/99
f 4/4/97 39/53/87 42/56/102 24/37/101
s off
f 40/54/103 41/55/104 44/58/105 43/57/106
f 37/51/107 36/50/108 46/60/109 45/59/110
f 36/50/111 40/54/112 43/57/113 46/60/114
f 41/55/115 42/56/116 47/61/117 44/58/118
f 38/52/119 37/51/120 45/59/121 48/62/122
f 42/56/123 39/53/124 49/63/125 47/61/126
f 39/53/127 35/49/128 50/64/129 49/63/130
f 35/49/131 38/52/132 48/62/133 50/64/134
