# This file uses centimeters as units for non-parametric coordinates.

mtllib Dresser_LowPoly_001.mtl
g default
v 1.000000 0.242498 1.712500
v 1.000000 0.242498 -1.712500
v 1.000000 5.980311 1.712500
v 1.000000 5.980311 -1.712500
v -1.000000 5.980311 1.712500
v -1.000000 5.980311 -1.712500
v -1.000000 0.242498 1.712500
v -1.000000 0.242498 -1.712500
v 1.000000 5.980311 1.174306
v 1.000000 0.242498 1.174306
v -1.000000 0.242498 1.174306
v -1.000000 5.980311 1.174306
v -1.000000 0.242498 -1.160234
v 1.000000 0.242498 -1.160234
v 1.000000 5.980311 -1.160234
v -1.000000 5.980311 -1.160234
v 0.530504 5.980311 1.712500
v 0.530504 5.980311 1.174306
v 0.530504 5.980311 -1.160234
v 0.530504 5.980311 -1.712500
v 0.530504 0.242498 -1.712500
v 0.530504 0.242498 -1.160234
v 0.530504 0.242498 1.174306
v 0.530504 0.242498 1.712500
v -0.536673 0.242498 1.174306
v -0.536673 0.242498 -1.160234
v -0.536674 0.242498 -1.712500
v -0.536674 5.980311 -1.712500
v -0.536673 5.980311 -1.160234
v -0.536673 5.980311 1.174306
v -0.536673 5.980311 1.712500
v -0.536673 0.242498 1.712500
v 0.543172 0.019688 -1.195245
v 0.970042 0.019688 -1.209944
v 0.560462 0.019688 -1.662790
v 0.987332 0.019688 -1.677489
v 0.560243 0.019688 1.222935
v 0.543394 0.019688 1.678567
v 0.987113 0.019688 1.208237
v 0.970264 0.019688 1.663869
v -0.566345 0.019689 -1.209849
v -0.549056 0.019689 -1.677395
v -0.987605 0.019689 -1.195344
v -0.970316 0.019689 -1.662889
v -0.987393 0.019689 1.678472
v -0.970543 0.019689 1.222840
v -0.549284 0.019689 1.208335
v -0.566133 0.019689 1.663967
vt 0.375000 0.000000
vt 0.625000 0.000000
vt 0.375000 0.250000
vt 0.625000 0.250000
vt 0.375000 0.500000
vt 0.625000 0.500000
vt 0.375000 0.750000
vt 0.625000 0.750000
vt 0.375000 1.000000
vt 0.625000 1.000000
vt 0.875000 0.000000
vt 0.875000 0.250000
vt 0.125000 0.000000
vt 0.125000 0.250000
vt 0.414284 0.250000
vt 0.414284 0.000000
vt 0.414284 1.000000
vt 0.414284 0.750000
vt 0.414284 0.500000
vt 0.584689 0.750000
vt 0.584689 0.000000
vt 0.584689 1.000000
vt 0.584689 0.250000
vt 0.584689 0.500000
vt 0.316313 0.250000
vt 0.375000 0.308687
vt 0.414284 0.308687
vt 0.584689 0.308687
vt 0.625000 0.308687
vt 0.683687 0.250000
vt 0.625000 0.941313
vt 0.683687 0.000000
vt 0.584689 0.941313
vt 0.414284 0.941313
vt 0.316313 0.000000
vt 0.375000 0.941313
vt 0.414284 0.807916
vt 0.584689 0.807916
vt 0.625000 0.807916
vt 0.817084 0.000000
vt 0.625000 0.442084
vt 0.817084 0.250000
vt 0.584689 0.442084
vt 0.414284 0.442084
vt 0.182916 0.250000
vt 0.375000 0.442084
vt 0.182916 0.000000
vt 0.375000 0.807916
vt 0.584689 1.000000
vt 0.584689 0.941313
vt 0.625000 0.941313
vt 0.625000 1.000000
vt 0.375000 0.941313
vt 0.414284 0.941313
vt 0.414284 1.000000
vt 0.375000 1.000000
vt 0.625000 0.807916
vt 0.584689 0.807916
vt 0.584689 0.750000
vt 0.625000 0.750000
vt 0.375000 0.750000
vt 0.414284 0.750000
vt 0.414284 0.807916
vt 0.375000 0.807916
vn 1.000000 0.000000 0.000000
vn 1.000000 -0.000581 0.000102
vn 1.000000 -0.000565 0.000100
vn 1.000000 0.000000 -0.000000
vn 0.000000 1.000000 0.000000
vn 0.000000 1.000000 0.000000
vn -0.000000 1.000000 -0.000000
vn -0.000000 1.000000 -0.000000
vn -1.000000 -0.000548 -0.000098
vn -1.000000 0.000000 0.000000
vn -1.000000 0.000000 -0.000000
vn -1.000000 -0.000583 -0.000104
vn -0.000000 -1.000000 -0.000000
vn -0.000000 -1.000000 -0.000000
vn -0.000000 -1.000000 -0.000000
vn -0.000000 -1.000000 -0.000000
vn 0.000000 0.000000 -1.000000
vn -0.000168 -0.001961 -0.999998
vn -0.000176 -0.002044 -0.999998
vn 0.000000 0.000000 -1.000000
vn 0.000000 0.000000 1.000000
vn 0.000167 -0.001896 0.999998
vn 0.000177 -0.002007 0.999998
vn 0.000000 0.000000 1.000000
vn 0.999996 -0.002892 0.000510
vn 1.000000 0.000000 0.000000
vn -0.000000 -1.000000 -0.000000
vn -0.000000 -1.000000 -0.000000
vn -1.000000 0.000000 0.000000
vn -0.999995 -0.002980 -0.000532
vn 0.000000 1.000000 0.000000
vn 0.000000 1.000000 0.000000
vn -0.000000 -1.000000 -0.000000
vn -0.000000 -1.000000 -0.000000
vn 0.999995 -0.003011 0.000530
vn 1.000000 0.000000 -0.000000
vn 0.000000 1.000000 0.000000
vn 0.000000 1.000000 0.000000
vn -1.000000 0.000000 -0.000000
vn -0.999996 -0.002846 -0.000508
vn 0.000000 1.000000 0.000000
vn -0.000001 1.000000 -0.000000
vn -0.000001 1.000000 -0.000000
vn 0.000000 1.000000 0.000000
vn -0.000566 -0.006583 -0.999978
vn 0.000000 0.000000 -1.000000
vn 0.000000 -1.000000 0.000000
vn 0.000000 -1.000000 0.000000
vn 0.000000 -1.000000 0.000000
vn 0.000000 -1.000000 0.000000
vn -0.000000 -1.000000 -0.000000
vn -0.000000 -1.000000 -0.000000
vn -0.000000 -1.000000 -0.000000
vn -0.000000 -1.000000 -0.000000
vn -0.000000 -1.000000 -0.000000
vn -0.000000 -1.000000 -0.000000
vn 0.000539 -0.006114 0.999981
vn -0.000000 0.000000 1.000000
vn -0.000000 -1.000000 -0.000000
vn -0.000000 -1.000000 -0.000000
vn -0.000000 -1.000000 -0.000000
vn -0.000000 -1.000000 -0.000000
vn -0.000000 -1.000000 -0.000000
vn -0.000000 -1.000000 -0.000000
vn -0.000540 -0.006275 -0.999980
vn -0.000000 0.000000 -1.000000
vn 0.000001 1.000000 0.000000
vn 0.000000 1.000000 0.000000
vn 0.000001 1.000000 0.000000
vn 0.000000 1.000000 0.000000
vn 0.000566 -0.006416 0.999979
vn -0.000000 0.000000 1.000000
vn 0.000000 -1.000000 0.000000
vn 0.000000 -1.000000 0.000000
vn 0.000000 -1.000000 0.000000
vn 0.000000 -1.000000 0.000000
vn 0.016105 -0.187353 0.982161
vn 0.016105 -0.187353 0.982161
vn 0.016105 -0.187353 0.982161
vn 0.016105 -0.187353 0.982161
vn -0.995261 -0.095760 -0.016874
vn -0.995261 -0.095760 -0.016874
vn -0.995261 -0.095760 -0.016874
vn -0.995261 -0.095760 -0.016874
vn -0.016105 -0.187353 -0.982161
vn -0.016105 -0.187353 -0.982161
vn 0.995261 -0.095760 0.016873
vn 0.995261 -0.095760 0.016873
vn -0.995261 -0.095767 -0.016873
vn -0.995261 -0.095767 -0.016873
vn -0.995261 -0.095767 -0.016873
vn -0.995261 -0.095767 -0.016873
vn -0.016120 -0.182738 -0.983029
vn -0.016120 -0.182738 -0.983029
vn -0.016120 -0.182738 -0.983030
vn -0.016120 -0.182738 -0.983030
vn 0.995262 -0.095754 0.016874
vn 0.995262 -0.095754 0.016874
vn 0.016120 -0.182744 0.983028
vn 0.016120 -0.182744 0.983028
vn 0.995383 -0.094486 0.016875
vn 0.995383 -0.094486 0.016875
vn 0.995383 -0.094486 0.016875
vn 0.995383 -0.094486 0.016875
vn 0.016105 -0.187365 0.982158
vn 0.016105 -0.187365 0.982158
vn 0.016105 -0.187365 0.982158
vn 0.016105 -0.187365 0.982158
vn -0.995378 -0.094541 -0.016875
vn -0.995378 -0.094541 -0.016875
vn -0.016106 -0.187343 -0.982163
vn -0.016106 -0.187343 -0.982162
vn -0.995381 -0.094507 -0.016876
vn -0.995381 -0.094507 -0.016876
vn -0.016120 -0.182743 -0.983029
vn -0.016120 -0.182743 -0.983029
vn -0.016120 -0.182743 -0.983029
vn -0.016120 -0.182743 -0.983029
vn 0.995380 -0.094520 0.016876
vn 0.995380 -0.094520 0.016876
vn 0.995380 -0.094520 0.016876
vn 0.995380 -0.094520 0.016876
vn 0.016120 -0.182738 0.983029
vn 0.016120 -0.182738 0.983029
s 1
g pasted__pCube410 group26
usemtl initialShadingGroup
f 9/15/1 10/16/2 14/21/3 15/23/4
s 2
f 29/43/5 30/44/6 18/27/7 19/28/8
s 3
f 11/18/9 12/19/10 16/24/11 13/20/12
s 4
f 22/33/13 23/34/14 25/37/15 26/38/16
s 5
f 20/30/17 21/32/18 27/40/19 28/42/20
s 6
f 31/45/21 32/47/22 24/35/23 17/25/24
s 1
f 1/1/25 10/16/2 9/15/1 3/3/26
s 4
f 32/48/27 25/37/15 23/34/14 24/36/28
s 3
f 5/5/29 12/19/10 11/18/9 7/7/30
s 2
f 17/26/31 18/27/7 30/44/6 31/46/32
s 4
f 21/31/33 22/33/13 26/38/16 27/39/34
s 1
f 15/23/4 14/21/3 2/2/35 4/4/36
s 2
f 28/41/37 29/43/5 19/28/8 20/29/38
s 3
f 13/20/12 16/24/11 6/6/39 8/8/40
s 2
f 3/3/41 9/15/42 18/27/7 17/26/31
f 19/28/8 18/27/7 9/15/42 15/23/43
f 20/29/38 19/28/8 15/23/43 4/4/44
s 5
f 2/2/45 21/32/18 20/30/17 4/4/46
s off
f 34/49/47 33/50/48 35/51/49 36/52/50
s 4
f 10/17/51 23/34/14 22/33/13 14/22/52
s off
f 38/53/53 37/54/54 39/55/55 40/56/56
s 6
f 17/25/24 24/35/23 1/1/57 3/3/58
s 4
f 26/38/16 25/37/15 11/18/59 13/20/60
s off
f 42/57/61 41/58/62 43/59/63 44/60/64
s 5
f 28/42/20 27/40/19 8/11/65 6/12/66
s 2
f 16/24/67 29/43/5 28/41/37 6/6/68
f 12/19/69 30/44/6 29/43/5 16/24/67
f 31/46/32 30/44/6 12/19/69 5/5/70
s 6
f 7/13/71 32/47/22 31/45/21 5/14/72
s off
f 45/61/73 46/62/74 47/63/75 48/64/76
f 14/22/77 22/33/78 33/50/79 34/49/80
f 22/33/81 21/31/82 35/51/83 33/50/84
s 5
f 21/31/18 2/10/45 36/52/85 35/51/86
s 1
f 2/10/35 14/22/3 34/49/87 36/52/88
s off
f 24/36/89 23/34/90 37/54/91 38/53/92
f 23/34/93 10/17/94 39/55/95 37/54/96
s 1
f 10/17/2 1/9/25 40/56/97 39/55/98
s 6
f 1/9/57 24/36/23 38/53/99 40/56/100
s off
f 27/39/101 26/38/102 41/58/103 42/57/104
f 26/38/105 13/20/106 43/59/107 41/58/108
s 3
f 13/20/12 8/8/40 44/60/109 43/59/110
s 5
f 8/8/65 27/39/19 42/57/111 44/60/112
s 3
f 7/7/30 11/18/9 46/62/113 45/61/114
s off
f 11/18/115 25/37/116 47/63/117 46/62/118
f 25/37/119 32/48/120 48/64/121 47/63/122
s 6
f 32/48/22 7/7/71 45/61/123 48/64/124
