# This file uses centimeters as units for non-parametric coordinates.

mtllib Plate_001.mtl
g default
v -0.951057 0.051867 -0.309017
v -0.809017 0.051867 -0.587786
v -0.587786 0.051867 -0.809017
v -0.309017 0.051867 -0.951057
v -0.000000 0.051867 -1.000000
v 0.309017 0.051867 -0.951057
v 0.587786 0.051867 -0.809017
v 0.809017 0.051867 -0.587785
v 0.951056 0.051867 -0.309017
v 1.000000 0.051867 0.000000
v 0.951056 0.051867 0.309017
v 0.809017 0.051867 0.587785
v 0.587786 0.051867 0.809017
v 0.309017 0.051867 0.951057
v -0.000000 0.051867 1.000000
v -0.309017 0.051867 0.951057
v -0.587786 0.051867 0.809017
v -0.809017 0.051867 0.587785
v -0.951056 0.051867 0.309017
v -1.000000 0.051867 0.000000
v -0.933376 0.115544 0.699814
v -1.097249 0.115544 0.367914
v -0.678137 0.115544 0.963211
v -0.356518 0.115544 1.132322
v -0.000000 0.115544 1.190594
v 0.356518 0.115544 1.132323
v 0.678137 0.115544 0.963211
v 0.933376 0.115544 0.699814
v 1.097249 0.115544 0.367914
v 1.153716 0.115544 0.000000
v 1.097249 0.115544 -0.367914
v 0.933376 0.115544 -0.699814
v 0.678138 0.115544 -0.963211
v 0.356518 0.115544 -1.132323
v -0.000000 0.115544 -1.190595
v -0.356518 0.115544 -1.132323
v -0.678138 0.115544 -0.963211
v -0.933376 0.115544 -0.699814
v -1.097250 0.115544 -0.367914
v -1.153716 0.115544 0.000000
v -0.917240 0.014715 -0.000000
v -0.872348 0.014715 -0.292503
v -0.742064 0.014715 -0.556374
v -0.539141 0.014715 -0.765783
v -0.283443 0.014715 -0.900232
v -0.000000 0.014715 -0.946560
v 0.283443 0.014715 -0.900232
v 0.539141 0.014715 -0.765783
v 0.742064 0.014715 -0.556374
v 0.872348 0.014715 -0.292503
v 0.917241 0.014715 -0.000000
v 0.872348 0.014715 0.292503
v 0.742064 0.014715 0.556374
v 0.539141 0.014715 0.765783
v 0.283442 0.014715 0.900232
v -0.000000 0.014715 0.946560
v -0.283442 0.014715 0.900232
v -0.539141 0.014715 0.765783
v -0.742064 0.014715 0.556374
v -0.872348 0.014715 0.292503
v -0.656703 0.102381 0.493902
v -0.772012 0.102380 0.259663
v -0.477114 0.102382 0.679785
v -0.250830 0.102383 0.799124
v -0.000000 0.102383 0.840244
v 0.250830 0.102383 0.799124
v 0.477114 0.102382 0.679785
v 0.656703 0.102381 0.493902
v 0.772013 0.102380 0.259663
v 0.811746 0.102380 -0.000000
v 0.772013 0.102380 -0.259663
v 0.656703 0.102381 -0.493902
v 0.477114 0.102382 -0.679786
v 0.250830 0.102383 -0.799124
v -0.000000 0.102383 -0.840244
v -0.250830 0.102383 -0.799125
v -0.477114 0.102382 -0.679786
v -0.656703 0.102381 -0.493902
v -0.772013 0.102380 -0.259663
v -0.811746 0.102380 -0.000000
v -0.929547 0.159524 0.697120
v -1.092756 0.159521 0.366500
v -0.675348 0.159528 0.959494
v -0.355049 0.159531 1.127945
v -0.000000 0.159532 1.185988
v 0.355049 0.159531 1.127945
v 0.675348 0.159528 0.959494
v 0.929547 0.159524 0.697120
v 1.092756 0.159521 0.366500
v 1.148995 0.159520 0.000000
v 1.092756 0.159521 -0.366500
v 0.929547 0.159524 -0.697120
v 0.675349 0.159528 -0.959495
v 0.355049 0.159531 -1.127945
v -0.000000 0.159532 -1.185989
v -0.355049 0.159531 -1.127945
v -0.675349 0.159528 -0.959495
v -0.929547 0.159524 -0.697120
v -1.092757 0.159521 -0.366500
v -1.148995 0.159520 0.000000
vt 0.648603 0.107966
vt 0.626409 0.064408
vt 0.591842 0.029841
vt 0.548284 0.007647
vt 0.500000 -0.000000
vt 0.451716 0.007647
vt 0.408159 0.029841
vt 0.373591 0.064409
vt 0.351397 0.107966
vt 0.343750 0.156250
vt 0.351397 0.204534
vt 0.373591 0.248091
vt 0.408159 0.282659
vt 0.451716 0.304853
vt 0.500000 0.312500
vt 0.548284 0.304853
vt 0.591841 0.282659
vt 0.626409 0.248091
vt 0.648603 0.204534
vt 0.656250 0.156250
vt 0.375000 0.312500
vt 0.387500 0.312500
vt 0.400000 0.312500
vt 0.412500 0.312500
vt 0.425000 0.312500
vt 0.437500 0.312500
vt 0.450000 0.312500
vt 0.462500 0.312500
vt 0.475000 0.312500
vt 0.487500 0.312500
vt 0.500000 0.312500
vt 0.512500 0.312500
vt 0.525000 0.312500
vt 0.537500 0.312500
vt 0.550000 0.312500
vt 0.562500 0.312500
vt 0.575000 0.312500
vt 0.587500 0.312500
vt 0.600000 0.312500
vt 0.612500 0.312500
vt 0.625000 0.312500
vt 0.648603 0.204534
vt 0.626409 0.248091
vt 0.591841 0.282659
vt 0.548284 0.304853
vt 0.500000 0.312500
vt 0.451716 0.304853
vt 0.408159 0.282659
vt 0.373591 0.248091
vt 0.351397 0.204534
vt 0.343750 0.156250
vt 0.351397 0.107966
vt 0.373591 0.064409
vt 0.408159 0.029841
vt 0.451716 0.007647
vt 0.500000 -0.000000
vt 0.548284 0.007647
vt 0.591842 0.029841
vt 0.626409 0.064408
vt 0.648603 0.107966
vt 0.656250 0.156250
vt 0.656250 0.843750
vt 0.648603 0.892034
vt 0.626409 0.935591
vt 0.591841 0.970159
vt 0.548284 0.992353
vt 0.500000 1.000000
vt 0.451716 0.992353
vt 0.408159 0.970159
vt 0.373591 0.935591
vt 0.351397 0.892034
vt 0.343750 0.843750
vt 0.351397 0.795466
vt 0.373591 0.751909
vt 0.408159 0.717341
vt 0.451716 0.695147
vt 0.500000 0.687500
vt 0.548284 0.695147
vt 0.591842 0.717341
vt 0.626409 0.751908
vt 0.648603 0.795466
vt 0.648603 0.204534
vt 0.626409 0.248091
vt 0.591841 0.282659
vt 0.548284 0.304853
vt 0.500000 0.312500
vt 0.451716 0.304853
vt 0.408159 0.282659
vt 0.373591 0.248091
vt 0.351397 0.204534
vt 0.343750 0.156250
vt 0.351397 0.107966
vt 0.373591 0.064409
vt 0.408159 0.029841
vt 0.451716 0.007647
vt 0.500000 -0.000000
vt 0.548284 0.007647
vt 0.591842 0.029841
vt 0.626409 0.064408
vt 0.648603 0.107966
vt 0.656250 0.156250
vt 0.648603 0.204534
vt 0.626409 0.248091
vt 0.591841 0.282659
vt 0.548284 0.304853
vt 0.500000 0.312500
vt 0.451716 0.304853
vt 0.408159 0.282659
vt 0.373591 0.248091
vt 0.351397 0.204534
vt 0.343750 0.156250
vt 0.351397 0.107966
vt 0.373591 0.064409
vt 0.408159 0.029841
vt 0.451716 0.007647
vt 0.500000 -0.000000
vt 0.548284 0.007647
vt 0.591842 0.029841
vt 0.626409 0.064408
vt 0.648603 0.107966
vt 0.656250 0.156250
vn -0.000000 1.000000 -0.000000
vn -0.000000 1.000000 -0.000000
vn -0.000000 1.000000 -0.000000
vn -0.000000 1.000000 -0.000000
vn -0.000000 1.000000 -0.000000
vn -0.000000 1.000000 -0.000000
vn -0.000000 1.000000 -0.000000
vn -0.000000 1.000000 -0.000000
vn -0.000000 1.000000 -0.000000
vn -0.000000 1.000000 -0.000000
vn -0.000000 1.000000 -0.000000
vn -0.000000 1.000000 -0.000000
vn -0.000000 1.000000 -0.000000
vn -0.000000 1.000000 -0.000000
vn -0.000000 1.000000 -0.000000
vn -0.000000 1.000000 -0.000000
vn -0.000000 1.000000 -0.000000
vn -0.000000 1.000000 -0.000000
vn -0.000000 1.000000 -0.000000
vn -0.000000 1.000000 -0.000000
vn 0.000000 -1.000000 -0.000000
vn 0.000000 -1.000000 -0.000000
vn 0.000000 -1.000000 -0.000000
vn 0.000000 -1.000000 -0.000000
vn 0.000000 -1.000000 -0.000000
vn 0.000000 -1.000000 -0.000000
vn 0.000000 -1.000000 -0.000000
vn 0.000000 -1.000000 -0.000000
vn 0.000000 -1.000000 -0.000000
vn 0.000000 -1.000000 -0.000000
vn 0.000000 -1.000000 -0.000000
vn 0.000000 -1.000000 -0.000000
vn 0.000000 -1.000000 -0.000000
vn 0.000000 -1.000000 -0.000000
vn 0.000000 -1.000000 -0.000000
vn 0.000000 -1.000000 -0.000000
vn 0.000000 -1.000000 -0.000000
vn 0.000000 -1.000000 -0.000000
vn 0.000000 -1.000000 -0.000000
vn 0.000000 -1.000000 -0.000000
vn -0.370361 -0.921689 0.115420
vn -0.313784 -0.923970 0.218676
vn -0.472032 -0.813458 0.339812
vn -0.574808 -0.797063 0.185166
vn -0.227000 -0.926663 0.299612
vn -0.329005 -0.831076 0.448406
vn -0.119073 -0.928686 0.351231
vn -0.167510 -0.843545 0.510268
vn -0.000000 -0.929411 0.369046
vn -0.000000 -0.847942 0.530090
vn 0.119073 -0.928686 0.351231
vn 0.167510 -0.843545 0.510268
vn 0.227000 -0.926663 0.299612
vn 0.329005 -0.831076 0.448406
vn 0.313784 -0.923970 0.218676
vn 0.472031 -0.813458 0.339812
vn 0.370361 -0.921689 0.115420
vn 0.574807 -0.797064 0.185166
vn 0.390026 -0.920804 -0.000000
vn 0.612835 -0.790211 0.000000
vn 0.370361 -0.921689 -0.115420
vn 0.574807 -0.797063 -0.185166
vn 0.313784 -0.923970 -0.218676
vn 0.472031 -0.813459 -0.339811
vn 0.226999 -0.926663 -0.299612
vn 0.329005 -0.831076 -0.448406
vn 0.119073 -0.928686 -0.351231
vn 0.167510 -0.843545 -0.510268
vn 0.000000 -0.929411 -0.369047
vn 0.000000 -0.847942 -0.530090
vn -0.119073 -0.928686 -0.351231
vn -0.167510 -0.843545 -0.510268
vn -0.226999 -0.926663 -0.299612
vn -0.329005 -0.831076 -0.448406
vn -0.313783 -0.923970 -0.218676
vn -0.472031 -0.813459 -0.339811
vn -0.370360 -0.921690 -0.115419
vn -0.574808 -0.797063 -0.185166
vn -0.390025 -0.920804 0.000000
vn -0.612836 -0.790210 0.000001
vn -0.403156 -0.905464 -0.132663
vn -0.412597 -0.910913 0.000000
vn -0.368618 -0.888927 -0.271900
vn -0.293310 -0.862950 -0.411445
vn -0.165870 -0.836395 -0.522428
vn 0.000000 -0.824770 -0.565468
vn 0.165871 -0.836395 -0.522428
vn 0.293310 -0.862949 -0.411446
vn 0.368619 -0.888927 -0.271900
vn 0.403159 -0.905463 -0.132665
vn 0.412600 -0.910912 0.000000
vn 0.403159 -0.905463 0.132665
vn 0.368619 -0.888927 0.271900
vn 0.293309 -0.862950 0.411445
vn 0.165870 -0.836395 0.522428
vn -0.000000 -0.824771 0.565467
vn -0.165870 -0.836395 0.522427
vn -0.293309 -0.862950 0.411445
vn -0.368619 -0.888927 0.271900
vn -0.403159 -0.905463 0.132664
vn 0.158939 0.986007 -0.050281
vn 0.135278 0.986175 -0.095697
vn 0.135800 0.986172 -0.094990
vn 0.159107 0.986006 -0.049771
vn 0.098352 0.986384 -0.131809
vn 0.099077 0.986381 -0.131290
vn 0.051734 0.986553 -0.155036
vn 0.052265 0.986552 -0.154866
vn -0.000000 0.986618 -0.163048
vn -0.000000 0.986618 -0.163048
vn -0.051734 0.986553 -0.155036
vn -0.052265 0.986552 -0.154866
vn -0.098352 0.986384 -0.131809
vn -0.099077 0.986381 -0.131290
vn -0.135278 0.986175 -0.095697
vn -0.135800 0.986172 -0.094990
vn -0.158939 0.986007 -0.050281
vn -0.159107 0.986006 -0.049771
vn -0.167081 0.985943 -0.000000
vn -0.167081 0.985943 -0.000000
vn -0.158939 0.986007 0.050281
vn -0.159107 0.986006 0.049771
vn -0.135278 0.986175 0.095697
vn -0.135800 0.986172 0.094990
vn -0.098352 0.986384 0.131809
vn -0.099077 0.986381 0.131290
vn -0.051734 0.986553 0.155036
vn -0.052265 0.986552 0.154866
vn -0.000000 0.986618 0.163048
vn -0.000000 0.986618 0.163048
vn 0.051734 0.986553 0.155036
vn 0.052265 0.986552 0.154866
vn 0.098352 0.986384 0.131809
vn 0.099077 0.986381 0.131290
vn 0.135278 0.986175 0.095697
vn 0.135800 0.986172 0.094990
vn 0.158939 0.986007 0.050281
vn 0.159107 0.986006 0.049771
vn 0.167081 0.985943 -0.000000
vn 0.167081 0.985943 -0.000000
vn -0.813104 0.105817 0.572419
vn -0.948430 0.106397 0.298599
vn -0.596583 0.105093 0.795641
vn -0.316189 0.104501 0.942923
vn -0.000000 0.104273 0.994549
vn 0.316189 0.104501 0.942923
vn 0.596583 0.105094 0.795641
vn 0.813105 0.105815 0.572420
vn 0.948430 0.106391 0.298598
vn 0.994301 0.106610 0.000000
vn 0.948430 0.106392 -0.298598
vn 0.813105 0.105816 -0.572419
vn 0.596583 0.105093 -0.795641
vn 0.316188 0.104501 -0.942923
vn 0.000000 0.104273 -0.994549
vn -0.316188 0.104501 -0.942923
vn -0.596583 0.105094 -0.795641
vn -0.813105 0.105817 -0.572419
vn -0.948430 0.106396 -0.298598
vn -0.994300 0.106617 0.000001
s off
g pCylinder379
usemtl initialShadingGroup
f 62/82/1 61/83/2 63/84/3 64/85/4 65/86/5 66/87/6 67/88/7 68/89/8 69/90/9 70/91/10 71/92/11 72/93/12 73/94/13 74/95/14 75/96/15 76/97/16 77/98/17 78/99/18 79/100/19 80/101/20
f 41/62/21 42/63/22 43/64/23 44/65/24 45/66/25 46/67/26 47/68/27 48/69/28 49/70/29 50/71/30 51/72/31 52/73/32 53/74/33 54/75/34 55/76/35 56/77/36 57/78/37 58/79/38 59/80/39 60/81/40
s 1
f 19/19/41 18/18/42 21/43/43 22/42/44
f 18/18/42 17/17/45 23/44/46 21/43/43
f 17/17/45 16/16/47 24/45/48 23/44/46
f 16/16/47 15/15/49 25/46/50 24/45/48
f 15/15/49 14/14/51 26/47/52 25/46/50
f 14/14/51 13/13/53 27/48/54 26/47/52
f 13/13/53 12/12/55 28/49/56 27/48/54
f 12/12/55 11/11/57 29/50/58 28/49/56
f 11/11/57 10/10/59 30/51/60 29/50/58
f 10/10/59 9/9/61 31/52/62 30/51/60
f 9/9/61 8/8/63 32/53/64 31/52/62
f 8/8/63 7/7/65 33/54/66 32/53/64
f 7/7/65 6/6/67 34/55/68 33/54/66
f 6/6/67 5/5/69 35/56/70 34/55/68
f 5/5/69 4/4/71 36/57/72 35/56/70
f 4/4/71 3/3/73 37/58/74 36/57/72
f 3/3/73 2/2/75 38/59/76 37/58/74
f 2/2/75 1/1/77 39/60/78 38/59/76
f 1/1/77 20/20/79 40/61/80 39/60/78
f 20/20/79 19/19/41 22/42/44 40/61/80
f 1/41/77 42/63/81 41/62/82 20/40/79
f 2/22/75 43/64/83 42/63/81 1/21/77
f 3/23/73 44/65/84 43/64/83 2/22/75
f 4/24/71 45/66/85 44/65/84 3/23/73
f 5/25/69 46/67/86 45/66/85 4/24/71
f 6/26/67 47/68/87 46/67/86 5/25/69
f 7/27/65 48/69/88 47/68/87 6/26/67
f 8/28/63 49/70/89 48/69/88 7/27/65
f 9/29/61 50/71/90 49/70/89 8/28/63
f 10/30/59 51/72/91 50/71/90 9/29/61
f 11/31/57 52/73/92 51/72/91 10/30/59
f 12/32/55 53/74/93 52/73/92 11/31/57
f 13/33/53 54/75/94 53/74/93 12/32/55
f 14/34/51 55/76/95 54/75/94 13/33/53
f 15/35/49 56/77/96 55/76/95 14/34/51
f 16/36/47 57/78/97 56/77/96 15/35/49
f 17/37/45 58/79/98 57/78/97 16/36/47
f 18/38/42 59/80/99 58/79/98 17/37/45
f 19/39/41 60/81/100 59/80/99 18/38/42
f 20/40/79 41/62/82 60/81/100 19/39/41
s 2
f 82/102/101 81/103/102 61/83/103 62/82/104
f 81/103/102 83/104/105 63/84/106 61/83/103
f 83/104/105 84/105/107 64/85/108 63/84/106
f 84/105/107 85/106/109 65/86/110 64/85/108
f 85/106/109 86/107/111 66/87/112 65/86/110
f 86/107/111 87/108/113 67/88/114 66/87/112
f 87/108/113 88/109/115 68/89/116 67/88/114
f 88/109/115 89/110/117 69/90/118 68/89/116
f 89/110/117 90/111/119 70/91/120 69/90/118
f 90/111/119 91/112/121 71/92/122 70/91/120
f 91/112/121 92/113/123 72/93/124 71/92/122
f 92/113/123 93/114/125 73/94/126 72/93/124
f 93/114/125 94/115/127 74/95/128 73/94/126
f 94/115/127 95/116/129 75/96/130 74/95/128
f 95/116/129 96/117/131 76/97/132 75/96/130
f 96/117/131 97/118/133 77/98/134 76/97/132
f 97/118/133 98/119/135 78/99/136 77/98/134
f 98/119/135 99/120/137 79/100/138 78/99/136
f 99/120/137 100/121/139 80/101/140 79/100/138
f 100/121/139 82/102/101 62/82/104 80/101/140
s 1
f 22/42/44 21/43/43 81/103/141 82/102/142
f 21/43/43 23/44/46 83/104/143 81/103/141
f 23/44/46 24/45/48 84/105/144 83/104/143
f 24/45/48 25/46/50 85/106/145 84/105/144
f 25/46/50 26/47/52 86/107/146 85/106/145
f 26/47/52 27/48/54 87/108/147 86/107/146
f 27/48/54 28/49/56 88/109/148 87/108/147
f 28/49/56 29/50/58 89/110/149 88/109/148
f 29/50/58 30/51/60 90/111/150 89/110/149
f 30/51/60 31/52/62 91/112/151 90/111/150
f 31/52/62 32/53/64 92/113/152 91/112/151
f 32/53/64 33/54/66 93/114/153 92/113/152
f 33/54/66 34/55/68 94/115/154 93/114/153
f 34/55/68 35/56/70 95/116/155 94/115/154
f 35/56/70 36/57/72 96/117/156 95/116/155
f 36/57/72 37/58/74 97/118/157 96/117/156
f 37/58/74 38/59/76 98/119/158 97/118/157
f 38/59/76 39/60/78 99/120/159 98/119/158
f 39/60/78 40/61/80 100/121/160 99/120/159
f 40/61/80 22/42/44 82/102/142 100/121/160
