# This file uses centimeters as units for non-parametric coordinates.

mtllib Pot_002.mtl
g default
v 0.700315 -0.005231 -0.000000
v -0.000000 -0.005231 -0.700315
v -0.700315 -0.005231 -0.000000
v 0.000000 -0.005231 0.700315
v 0.630283 0.127170 -0.000000
v 0.000000 0.127170 0.630284
v -0.630283 0.127170 -0.000000
v -0.000000 0.127170 -0.630283
v -0.000000 -0.005231 0.000000
v -0.000000 0.127169 0.000000
v 0.814029 1.124395 -0.000000
v 0.000000 1.124395 0.814029
v -0.814029 1.124395 -0.000000
v 0.000000 1.124395 -0.814029
v 0.837347 1.433231 -0.000000
v 0.000000 1.433231 0.837348
v -0.837347 1.433231 -0.000000
v 0.000000 1.433231 -0.837347
v 0.794043 2.107542 -0.000000
v 0.000000 2.107542 -0.794043
v -0.794043 2.107542 -0.000000
v 0.000000 2.107542 0.794043
v 0.861443 2.072932 -0.000000
v 0.000000 2.072932 0.861444
v -0.861443 2.072932 -0.000000
v 0.000000 2.072932 -0.861443
v 0.783142 2.309700 -0.000000
v 0.927743 2.400672 -0.000000
v 0.000000 2.309700 -0.783142
v 0.000000 2.400672 -0.927743
v -0.783142 2.309700 -0.000000
v -0.927743 2.400672 -0.000000
v 0.000000 2.309700 0.783142
v 0.000000 2.400672 0.927743
v 0.741425 2.189224 -0.000000
v 0.000000 2.189224 -0.741425
v -0.741425 2.189224 -0.000000
v 0.000000 2.189224 0.741425
v 0.913558 1.979981 -0.000000
v 0.000000 1.979981 0.913559
v -0.913558 1.979982 -0.000000
v 0.000000 1.979981 -0.913558
v 0.823771 1.260935 -0.000000
v 0.000000 1.260935 -0.823771
v -0.823771 1.260935 -0.000000
v 0.000000 1.260935 0.823772
v 0.871902 1.231987 -0.000000
v 0.862159 1.128850 -0.000000
v 0.000000 1.231987 -0.871902
v 0.000000 1.128850 -0.862159
v -0.871902 1.231987 -0.000000
v -0.862159 1.128850 -0.000000
v 0.000000 1.231987 0.871902
v 0.000000 1.128850 0.862160
vt 0.000000 0.750000
vt 0.250000 0.750000
vt 0.500000 0.750000
vt 0.750000 0.750000
vt 1.000000 0.750000
vt 0.000000 0.500000
vt 0.250000 0.500000
vt 0.500000 0.500000
vt 0.750000 0.500000
vt 1.000000 0.500000
vt 0.000000 0.250000
vt 0.250000 0.250000
vt 0.500000 0.250000
vt 0.750000 0.250000
vt 1.000000 0.250000
vt 0.000000 0.979675
vt 1.000000 0.979675
vt 0.750000 0.979675
vt 0.500000 0.979675
vt 0.250000 0.979675
vt 0.500000 1.000000
vt 0.500000 0.979675
vt 0.000000 0.424830
vt 1.000000 0.424830
vt 0.750000 0.424830
vt 0.500000 0.424830
vt 0.250000 0.424830
vt 0.000000 0.449656
vt 1.000000 0.449656
vt 0.750000 0.449656
vt 0.500000 0.449656
vt 0.250000 0.449656
vt 0.000000 0.760319
vt 1.000000 0.760319
vt 0.250000 0.760319
vt 0.500000 0.760319
vt 0.750000 0.760319
vt 0.000000 0.490194
vt 1.000000 0.490194
vt 0.750000 0.490194
vt 0.500000 0.490194
vt 0.250000 0.490194
vt 0.000000 0.760319
vt 0.250000 0.760319
vt 0.500000 0.760319
vt 0.750000 0.760319
vt 1.000000 0.760319
vt 1.000000 0.490194
vt 0.750000 0.490194
vt 0.500000 0.490194
vt 0.250000 0.490194
vt 0.000000 0.490194
vt 0.000000 0.430187
vt 1.000000 0.430187
vt 0.250000 0.430187
vt 0.500000 0.430187
vt 0.750000 0.430187
vt 0.000000 0.430187
vt 0.000000 0.424830
vt 0.250000 0.430187
vt 0.250000 0.424830
vt 0.500000 0.430187
vt 0.500000 0.424830
vt 0.750000 0.430187
vt 0.750000 0.424830
vt 1.000000 0.430187
vt 1.000000 0.424830
vn -0.705901 0.058372 0.705901
vn -0.705901 0.058372 0.705901
vn -0.705901 0.058372 0.705901
vn -0.705901 0.058372 0.705901
vn 0.705901 0.058372 0.705901
vn 0.705901 0.058372 0.705901
vn 0.705901 0.058372 0.705901
vn 0.705901 0.058372 0.705901
vn 0.705901 0.058372 -0.705901
vn 0.705901 0.058372 -0.705901
vn 0.705901 0.058372 -0.705901
vn 0.705901 0.058372 -0.705901
vn -0.705901 0.058372 -0.705901
vn -0.705901 0.058372 -0.705901
vn -0.705901 0.058372 -0.705901
vn -0.705901 0.058372 -0.705901
vn -0.470022 0.747099 0.470023
vn -0.470022 0.747099 0.470023
vn -0.470022 0.747099 0.470023
vn -0.470022 0.747099 0.470023
vn 0.470023 0.747100 0.470022
vn 0.470023 0.747100 0.470022
vn 0.470023 0.747100 0.470022
vn 0.470023 0.747100 0.470022
vn 0.470023 0.747100 -0.470021
vn 0.470023 0.747100 -0.470021
vn 0.470023 0.747100 -0.470021
vn 0.470023 0.747100 -0.470021
vn -0.470023 0.747099 -0.470023
vn -0.470023 0.747099 -0.470023
vn -0.470023 0.747099 -0.470023
vn -0.470023 0.747099 -0.470023
vn 0.705322 -0.071001 -0.705322
vn 0.705322 -0.071001 -0.705322
vn 0.705322 -0.071001 -0.705322
vn 0.705322 -0.071001 -0.705322
vn -0.705322 -0.071001 -0.705322
vn -0.705322 -0.071001 -0.705322
vn -0.705322 -0.071001 -0.705322
vn -0.705322 -0.071001 -0.705322
vn -0.705322 -0.071001 0.705322
vn -0.705322 -0.071001 0.705322
vn -0.705322 -0.071001 0.705322
vn -0.705322 -0.071001 0.705322
vn 0.705322 -0.071001 0.705322
vn 0.705322 -0.071001 0.705322
vn 0.705322 -0.071001 0.705322
vn 0.705322 -0.071001 0.705322
vn 0.000000 -1.000000 -0.000000
vn 0.000000 -1.000000 -0.000000
vn 0.000000 -1.000000 -0.000000
vn -0.000000 -1.000000 -0.000000
vn -0.000000 -1.000000 -0.000000
vn -0.000000 -1.000000 -0.000000
vn -0.000000 -1.000000 0.000000
vn -0.000000 -1.000000 0.000000
vn -0.000000 -1.000000 0.000000
vn 0.000000 -1.000000 0.000000
vn 0.000000 -1.000000 0.000000
vn 0.000000 -1.000000 0.000000
vn -0.000000 1.000000 -0.000000
vn -0.000000 1.000000 -0.000000
vn -0.000000 1.000000 -0.000000
vn 0.000000 1.000000 -0.000000
vn 0.000000 1.000000 -0.000000
vn 0.000000 1.000000 -0.000000
vn 0.000000 1.000000 0.000000
vn 0.000000 1.000000 0.000000
vn 0.000000 1.000000 0.000000
vn -0.000000 1.000000 0.000000
vn -0.000000 1.000000 0.000000
vn -0.000000 1.000000 0.000000
vn 0.706012 -0.055631 0.706011
vn 0.706012 -0.055631 0.706011
vn 0.706012 -0.055631 0.706011
vn 0.706012 -0.055631 0.706011
vn -0.706012 -0.055630 0.706012
vn -0.706012 -0.055630 0.706012
vn -0.706012 -0.055630 0.706012
vn -0.706012 -0.055630 0.706012
vn -0.706012 -0.055631 -0.706012
vn -0.706012 -0.055631 -0.706012
vn -0.706012 -0.055631 -0.706012
vn -0.706012 -0.055631 -0.706012
vn 0.706012 -0.055630 -0.706012
vn 0.706012 -0.055630 -0.706012
vn 0.706012 -0.055630 -0.706012
vn 0.706012 -0.055630 -0.706012
vn 0.706856 -0.026625 0.706856
vn 0.706856 -0.026625 0.706856
vn 0.706856 -0.026625 0.706856
vn 0.706856 -0.026625 0.706856
vn -0.706856 -0.026626 0.706856
vn -0.706856 -0.026626 0.706856
vn -0.706856 -0.026626 0.706856
vn -0.706856 -0.026626 0.706856
vn -0.706856 -0.026625 -0.706856
vn -0.706856 -0.026625 -0.706856
vn -0.706856 -0.026625 -0.706856
vn -0.706856 -0.026625 -0.706856
vn 0.706856 -0.026625 -0.706856
vn 0.706856 -0.026625 -0.706856
vn 0.706856 -0.026625 -0.706856
vn 0.706856 -0.026625 -0.706856
vn -0.686819 0.237823 0.686819
vn -0.686819 0.237823 0.686819
vn -0.686819 0.237823 0.686819
vn -0.686819 0.237824 0.686819
vn 0.686819 0.237824 0.686819
vn 0.686819 0.237824 0.686819
vn 0.686819 0.237824 0.686819
vn 0.686819 0.237824 0.686819
vn 0.686818 0.237824 -0.686819
vn 0.686818 0.237824 -0.686819
vn 0.686818 0.237824 -0.686819
vn 0.686819 0.237824 -0.686819
vn -0.686819 0.237824 -0.686819
vn -0.686819 0.237824 -0.686819
vn -0.686819 0.237824 -0.686819
vn -0.686819 0.237824 -0.686819
vn 0.706906 -0.023835 0.706906
vn 0.706906 -0.023835 0.706906
vn 0.706906 -0.023835 0.706906
vn 0.706906 -0.023835 0.706906
vn -0.706906 -0.023835 0.706906
vn -0.706906 -0.023835 0.706906
vn -0.706906 -0.023835 0.706906
vn -0.706906 -0.023835 0.706906
vn -0.706906 -0.023835 -0.706906
vn -0.706906 -0.023835 -0.706906
vn -0.706906 -0.023835 -0.706906
vn -0.706906 -0.023835 -0.706906
vn 0.706906 -0.023835 -0.706906
vn 0.706906 -0.023835 -0.706906
vn 0.706906 -0.023835 -0.706906
vn 0.706906 -0.023835 -0.706906
vn -0.643493 -0.414531 0.643492
vn -0.643493 -0.414531 0.643492
vn -0.643493 -0.414530 0.643492
vn -0.643493 -0.414530 0.643492
vn 0.643493 -0.414530 0.643492
vn 0.643492 -0.414530 0.643492
vn 0.643493 -0.414530 0.643492
vn 0.643493 -0.414530 0.643492
vn 0.643493 -0.414531 -0.643492
vn 0.643493 -0.414531 -0.643492
vn 0.643493 -0.414531 -0.643492
vn 0.643493 -0.414531 -0.643492
vn -0.643492 -0.414531 -0.643492
vn -0.643492 -0.414531 -0.643492
vn -0.643492 -0.414531 -0.643492
vn -0.643492 -0.414531 -0.643492
vn -0.657334 -0.368546 -0.657332
vn -0.657334 -0.368546 -0.657332
vn -0.657334 -0.368546 -0.657332
vn -0.657334 -0.368546 -0.657332
vn 0.657332 -0.368548 -0.657333
vn 0.657332 -0.368548 -0.657333
vn 0.657332 -0.368548 -0.657333
vn 0.657332 -0.368548 -0.657333
vn 0.657333 -0.368547 0.657333
vn 0.657333 -0.368547 0.657333
vn 0.657333 -0.368547 0.657333
vn 0.657333 -0.368547 0.657333
vn -0.657333 -0.368546 0.657333
vn -0.657333 -0.368546 0.657333
vn -0.657334 -0.368546 0.657333
vn -0.657334 -0.368546 0.657333
vn 0.705535 -0.066648 -0.705535
vn 0.705535 -0.066648 -0.705535
vn 0.705534 -0.066648 -0.705535
vn 0.705534 -0.066648 -0.705535
vn -0.705535 -0.066647 -0.705535
vn -0.705535 -0.066647 -0.705535
vn -0.705535 -0.066647 -0.705535
vn -0.705535 -0.066647 -0.705535
vn -0.705535 -0.066648 0.705534
vn -0.705535 -0.066648 0.705534
vn -0.705535 -0.066648 0.705534
vn -0.705535 -0.066648 0.705534
vn 0.705535 -0.066648 0.705534
vn 0.705535 -0.066648 0.705534
vn 0.705535 -0.066648 0.705534
vn 0.705535 -0.066648 0.705534
vn 0.091772 -0.991542 -0.091773
vn 0.091772 -0.991542 -0.091773
vn 0.091772 -0.991542 -0.091773
vn 0.091772 -0.991542 -0.091773
vn 0.458137 0.761722 -0.458138
vn 0.458137 0.761722 -0.458138
vn 0.458137 0.761722 -0.458138
vn 0.458137 0.761722 -0.458138
vn -0.091772 -0.991542 -0.091773
vn -0.091772 -0.991542 -0.091773
vn -0.091772 -0.991542 -0.091773
vn -0.091772 -0.991542 -0.091773
vn -0.458137 0.761722 -0.458138
vn -0.458137 0.761722 -0.458138
vn -0.458137 0.761722 -0.458138
vn -0.458137 0.761722 -0.458138
vn -0.091772 -0.991542 0.091773
vn -0.091772 -0.991542 0.091773
vn -0.091772 -0.991542 0.091773
vn -0.091772 -0.991542 0.091773
vn -0.458137 0.761722 0.458138
vn -0.458137 0.761722 0.458138
vn -0.458137 0.761722 0.458138
vn -0.458137 0.761722 0.458138
vn 0.091772 -0.991542 0.091773
vn 0.091772 -0.991542 0.091773
vn 0.091772 -0.991542 0.091773
vn 0.091772 -0.991542 0.091773
vn 0.458137 0.761722 0.458138
vn 0.458137 0.761721 0.458138
vn 0.458137 0.761721 0.458138
vn 0.458137 0.761721 0.458138
s off
g pPipe184
usemtl initialShadingGroup
f 8/20/1 5/16/2 19/33/3 20/35/4
f 7/19/5 8/20/6 20/35/7 21/36/8
f 6/18/9 7/19/10 21/36/11 22/37/12
f 19/34/13 5/17/14 6/18/15 22/37/16
f 30/7/17 29/2/18 27/1/19 28/6/20
f 32/8/21 31/3/22 29/2/23 30/7/24
f 34/9/25 33/4/26 31/3/27 32/8/28
f 28/10/29 27/5/30 33/4/31 34/9/32
f 1/11/33 2/12/34 14/27/35 11/23/36
f 2/12/37 3/13/38 13/26/39 14/27/40
f 3/13/41 4/14/42 12/25/43 13/26/44
f 4/14/45 1/15/46 11/24/47 12/25/48
f 9/21/49 2/12/50 1/11/51
f 9/21/52 3/13/53 2/12/54
f 9/21/55 4/14/56 3/13/57
f 9/21/58 1/15/59 4/14/60
f 10/22/61 6/18/62 5/17/63
f 10/22/64 7/19/65 6/18/66
f 10/22/67 8/20/68 7/19/69
f 10/22/70 5/16/71 8/20/72
f 43/54/73 15/29/74 16/30/75 46/57/76
f 46/57/77 16/30/78 17/31/79 45/56/80
f 45/56/81 17/31/82 18/32/83 44/55/84
f 44/55/85 18/32/86 15/28/87 43/53/88
f 16/30/89 15/29/90 23/39/91 24/40/92
f 17/31/93 16/30/94 24/40/95 25/41/96
f 18/32/97 17/31/98 25/41/99 26/42/100
f 15/28/101 18/32/102 26/42/103 23/38/104
f 27/1/105 29/2/106 36/44/107 35/43/108
f 29/2/109 31/3/110 37/45/111 36/44/112
f 31/3/113 33/4/114 38/46/115 37/45/116
f 33/4/117 27/5/118 35/47/119 38/46/120
f 39/48/121 28/10/122 34/9/123 40/49/124
f 40/49/125 34/9/126 32/8/127 41/50/128
f 41/50/129 32/8/130 30/7/131 42/51/132
f 42/51/133 30/7/134 28/6/135 39/52/136
f 35/43/137 36/44/138 20/35/139 19/33/140
f 36/44/141 37/45/142 21/36/143 20/35/144
f 37/45/145 38/46/146 22/37/147 21/36/148
f 38/46/149 35/47/150 19/34/151 22/37/152
f 39/48/153 40/49/154 24/40/155 23/39/156
f 40/49/157 41/50/158 25/41/159 24/40/160
f 41/50/161 42/51/162 26/42/163 25/41/164
f 42/51/165 39/52/166 23/38/167 26/42/168
f 48/59/169 50/61/170 49/60/171 47/58/172
f 50/61/173 52/63/174 51/62/175 49/60/176
f 52/63/177 54/65/178 53/64/179 51/62/180
f 54/65/181 48/67/182 47/66/183 53/64/184
f 48/59/185 11/23/186 14/27/187 50/61/188
f 47/58/189 49/60/190 44/55/191 43/53/192
f 50/61/193 14/27/194 13/26/195 52/63/196
f 49/60/197 51/62/198 45/56/199 44/55/200
f 52/63/201 13/26/202 12/25/203 54/65/204
f 51/62/205 53/64/206 46/57/207 45/56/208
f 54/65/209 12/25/210 11/24/211 48/67/212
f 53/64/213 47/66/214 43/54/215 46/57/216
