# This file uses centimeters as units for non-parametric coordinates.

mtllib Stool_LowPoly_002.mtl
g default
v 0.942394 2.033183 -0.306202
v 0.801648 2.033183 -0.582431
v 0.582431 2.033183 -0.801648
v 0.306202 2.033183 -0.942393
v 0.000000 2.033183 -0.990891
v -0.306202 2.033183 -0.942393
v -0.582431 2.033183 -0.801648
v -0.801647 2.033183 -0.582431
v -0.942393 2.033183 -0.306202
v -0.990891 2.033183 0.000000
v -0.942393 2.033183 0.306202
v -0.801647 2.033183 0.582431
v -0.582431 2.033183 0.801647
v -0.306202 2.033183 0.942393
v 0.000000 2.033183 0.990891
v 0.306202 2.033183 0.942393
v 0.582431 2.033183 0.801647
v 0.801647 2.033183 0.582431
v 0.942393 2.033183 0.306202
v 0.990891 2.033183 0.000000
v 0.000000 2.033183 0.000000
v -0.942393 1.704353 -0.306202
v -0.990891 1.704353 0.000000
v -0.942393 1.704353 0.306202
v -0.801647 1.704353 0.582431
v -0.582431 1.704353 0.801647
v -0.306202 1.704353 0.942393
v 0.000000 1.704353 0.990891
v 0.306202 1.704353 0.942393
v 0.582431 1.704353 0.801647
v 0.801647 1.704353 0.582431
v 0.942393 1.704353 0.306202
v 0.990891 1.704353 0.000000
v 0.942394 1.704353 -0.306202
v 0.801648 1.704353 -0.582431
v 0.582431 1.704353 -0.801648
v 0.306202 1.704353 -0.942393
v 0.000000 1.704353 -0.990891
v -0.306202 1.704353 -0.942393
v -0.582431 1.704353 -0.801648
v -0.801647 1.704353 -0.582431
v 0.186730 -0.033183 -0.060671
v 0.158842 -0.033183 -0.115405
v -0.000000 -0.029581 0.000001
v 0.115405 -0.033183 -0.158842
v 0.060672 -0.033183 -0.186730
v -0.000000 -0.033183 -0.196339
v -0.060672 -0.033183 -0.186730
v -0.115406 -0.033183 -0.158841
v -0.158842 -0.033183 -0.115404
v -0.186730 -0.033183 -0.060672
v -0.196339 -0.033183 -0.000000
v -0.186729 -0.033183 0.060673
v -0.158842 -0.033183 0.115405
v -0.115405 -0.033183 0.158841
v -0.060672 -0.033183 0.186730
v -0.000000 -0.033183 0.196339
v 0.060672 -0.033167 0.186730
v 0.115405 -0.033183 0.158842
v 0.158841 -0.033183 0.115405
v 0.186729 -0.033183 0.060673
v 0.196339 -0.033183 -0.000000
v -0.195202 1.701435 -0.000000
v -0.185647 1.701435 -0.060321
v -0.185647 1.701435 0.060321
v -0.157921 1.701435 0.114737
v -0.114737 1.701435 0.157921
v -0.060321 1.701435 0.185647
v -0.000000 1.701435 0.195201
v 0.060321 1.701435 0.185647
v 0.114736 1.701435 0.157921
v 0.157921 1.701435 0.114737
v 0.185647 1.701435 0.060321
v 0.195201 1.701435 -0.000000
v 0.185648 1.701435 -0.060321
v 0.157921 1.701435 -0.114737
v 0.114737 1.701435 -0.157921
v 0.060320 1.701435 -0.185648
v -0.000000 1.701435 -0.195202
v -0.060321 1.701435 -0.185648
v -0.114737 1.701435 -0.157921
v -0.157921 1.701435 -0.114737
vt 0.648603 0.107966
vt 0.626409 0.064408
vt 0.591842 0.029841
vt 0.548284 0.007647
vt 0.500000 -0.000000
vt 0.451716 0.007647
vt 0.408159 0.029841
vt 0.373591 0.064409
vt 0.351397 0.107966
vt 0.343750 0.156250
vt 0.351397 0.204534
vt 0.373591 0.248091
vt 0.408159 0.282659
vt 0.451716 0.304853
vt 0.500000 0.312500
vt 0.548284 0.304853
vt 0.591841 0.282659
vt 0.626409 0.248091
vt 0.648603 0.204534
vt 0.656250 0.156250
vt 0.375000 0.312500
vt 0.387500 0.312500
vt 0.400000 0.312500
vt 0.412500 0.312500
vt 0.425000 0.312500
vt 0.437500 0.312500
vt 0.450000 0.312500
vt 0.462500 0.312500
vt 0.475000 0.312500
vt 0.487500 0.312500
vt 0.500000 0.312500
vt 0.512500 0.312500
vt 0.525000 0.312500
vt 0.537500 0.312500
vt 0.550000 0.312500
vt 0.562500 0.312500
vt 0.575000 0.312500
vt 0.587500 0.312500
vt 0.600000 0.312500
vt 0.612500 0.312500
vt 0.625000 0.312500
vt 0.375000 0.688440
vt 0.387500 0.688440
vt 0.400000 0.688440
vt 0.412500 0.688440
vt 0.425000 0.688440
vt 0.437500 0.688440
vt 0.450000 0.688440
vt 0.462500 0.688440
vt 0.475000 0.688440
vt 0.487500 0.688440
vt 0.500000 0.688440
vt 0.512500 0.688440
vt 0.525000 0.688440
vt 0.537500 0.688440
vt 0.550000 0.688440
vt 0.562500 0.688440
vt 0.575000 0.688440
vt 0.587500 0.688440
vt 0.600000 0.688440
vt 0.612500 0.688440
vt 0.625000 0.688440
vt 0.648603 0.795466
vt 0.626409 0.751908
vt 0.591842 0.717341
vt 0.548284 0.695147
vt 0.500000 0.687500
vt 0.451716 0.695147
vt 0.408159 0.717341
vt 0.373591 0.751909
vt 0.351397 0.795466
vt 0.343750 0.843750
vt 0.351397 0.892034
vt 0.373591 0.935591
vt 0.408159 0.970159
vt 0.451716 0.992353
vt 0.500000 1.000000
vt 0.548284 0.992353
vt 0.591841 0.970159
vt 0.626409 0.935591
vt 0.648603 0.892034
vt 0.656250 0.843750
vt 0.500000 0.150000
vt 0.500000 0.837500
vt 0.475000 0.507241
vt 0.487500 0.507241
vt 0.500000 0.507241
vt 0.512500 0.507241
vt 0.525000 0.507241
vt 0.537500 0.507241
vt 0.550000 0.507241
vt 0.562500 0.507241
vt 0.575000 0.507241
vt 0.587500 0.507241
vt 0.600000 0.507241
vt 0.612500 0.507241
vt 0.625000 0.507241
vt 0.375000 0.507241
vt 0.387500 0.507241
vt 0.400000 0.507241
vt 0.412500 0.507241
vt 0.425000 0.507241
vt 0.437500 0.507241
vt 0.450000 0.507241
vt 0.462500 0.507241
vt 0.487500 0.507241
vt 0.475000 0.507241
vt 0.500000 0.507241
vt 0.512500 0.507241
vt 0.525000 0.507241
vt 0.537500 0.507241
vt 0.550000 0.507241
vt 0.562500 0.507241
vt 0.575000 0.507241
vt 0.587500 0.507241
vt 0.600000 0.507241
vt 0.612500 0.507241
vt 0.625000 0.507241
vt 0.387500 0.507241
vt 0.375000 0.507241
vt 0.400000 0.507241
vt 0.412500 0.507241
vt 0.425000 0.507241
vt 0.437500 0.507241
vt 0.450000 0.507241
vt 0.462500 0.507241
vn 0.951057 0.000000 -0.309016
vn 0.809017 0.000000 -0.587785
vn 0.809017 0.000000 -0.587785
vn 0.951057 0.000000 -0.309016
vn 0.587785 0.000000 -0.809017
vn 0.587785 0.000000 -0.809017
vn 0.309017 0.000000 -0.951057
vn 0.309017 0.000000 -0.951057
vn 0.000000 0.000000 -1.000000
vn 0.000000 0.000000 -1.000000
vn -0.309017 0.000000 -0.951057
vn -0.309017 0.000000 -0.951057
vn -0.587786 0.000000 -0.809017
vn -0.587786 0.000000 -0.809017
vn -0.809017 0.000000 -0.587785
vn -0.809017 0.000000 -0.587785
vn -0.951056 0.000000 -0.309017
vn -0.951056 0.000000 -0.309017
vn -1.000000 0.000000 -0.000000
vn -1.000000 0.000000 -0.000000
vn -0.951057 0.000000 0.309017
vn -0.951057 0.000000 0.309017
vn -0.809017 0.000000 0.587786
vn -0.809017 0.000000 0.587786
vn -0.587785 0.000000 0.809017
vn -0.587785 0.000000 0.809017
vn -0.309018 0.000000 0.951056
vn -0.309018 0.000000 0.951056
vn 0.000000 0.000000 1.000000
vn 0.000000 0.000000 1.000000
vn 0.309018 0.000000 0.951056
vn 0.309018 0.000000 0.951056
vn 0.587785 0.000000 0.809017
vn 0.587785 0.000000 0.809017
vn 0.809017 0.000000 0.587786
vn 0.809017 0.000000 0.587786
vn 0.951057 0.000000 0.309017
vn 0.951057 0.000000 0.309017
vn 1.000000 0.000000 0.000001
vn 1.000000 0.000000 0.000001
vn -0.014838 -0.999832 0.010781
vn -0.017443 -0.999832 0.005668
vn 0.000002 -1.000000 0.000008
vn -0.010781 -0.999832 0.014838
vn -0.005668 -0.999832 0.017443
vn 0.000000 -0.999832 0.018341
vn 0.005668 -0.999832 0.017443
vn 0.010781 -0.999832 0.014838
vn 0.014838 -0.999832 0.010781
vn 0.017443 -0.999832 0.005668
vn 0.018341 -0.999832 -0.000000
vn 0.017443 -0.999832 -0.005668
vn 0.014838 -0.999832 -0.010781
vn 0.010781 -0.999832 -0.014838
vn 0.005668 -0.999832 -0.017443
vn 0.000130 -0.999832 -0.018341
vn -0.005643 -0.999833 -0.017367
vn -0.010886 -0.999832 -0.014762
vn -0.014838 -0.999832 -0.010781
vn -0.017443 -0.999832 -0.005668
vn -0.018341 -0.999832 -0.000000
vn 0.000000 1.000000 -0.000000
vn 0.000000 1.000000 -0.000000
vn 0.000000 1.000000 -0.000000
vn 0.000000 1.000000 0.000000
vn 0.000000 1.000000 0.000000
vn 0.000000 1.000000 0.000000
vn 0.000000 1.000000 0.000000
vn 0.000000 1.000000 0.000000
vn 0.000000 1.000000 -0.000000
vn 0.000000 1.000000 0.000000
vn 0.000000 1.000000 0.000000
vn 0.000000 1.000000 0.000000
vn 0.000000 1.000000 0.000000
vn 0.000000 1.000000 0.000000
vn 0.000000 1.000000 0.000000
vn 0.000000 1.000000 0.000000
vn 0.000000 1.000000 0.000000
vn 0.000000 1.000000 0.000000
vn 0.000000 1.000000 0.000000
vn 0.000000 1.000000 0.000000
vn 0.000000 1.000000 -0.000000
vn -0.951057 0.000656 -0.309016
vn -1.000000 0.000656 0.000001
vn -1.000000 0.000656 0.000001
vn -0.951057 0.000656 -0.309016
vn -0.951056 0.000656 0.309018
vn -0.951056 0.000656 0.309017
vn -0.809015 0.000656 0.587788
vn -0.809015 0.000656 0.587788
vn -0.587785 0.000656 0.809017
vn -0.587785 0.000656 0.809017
vn -0.309017 0.000656 0.951056
vn -0.309017 0.000656 0.951056
vn -0.000014 0.000656 1.000000
vn -0.000001 0.000656 1.000000
vn 0.309016 0.000656 0.951057
vn 0.309016 0.000656 0.951057
vn 0.587796 0.000656 0.809009
vn 0.587785 0.000656 0.809017
vn 0.809015 0.000656 0.587787
vn 0.809015 0.000656 0.587787
vn 0.951056 0.000656 0.309018
vn 0.951056 0.000656 0.309018
vn 1.000000 0.000656 0.000003
vn 1.000000 0.000656 0.000003
vn 0.951056 0.000656 -0.309017
vn 0.951056 0.000656 -0.309017
vn 0.809018 0.000656 -0.587784
vn 0.809018 0.000656 -0.587784
vn 0.587786 0.000656 -0.809016
vn 0.587786 0.000656 -0.809016
vn 0.309017 0.000656 -0.951056
vn 0.309017 0.000656 -0.951056
vn 0.000000 0.000656 -1.000000
vn 0.000000 0.000656 -1.000000
vn -0.309021 0.000656 -0.951055
vn -0.309021 0.000656 -0.951055
vn -0.587787 0.000656 -0.809015
vn -0.587787 0.000656 -0.809015
vn -0.809017 0.000656 -0.587786
vn -0.809017 0.000656 -0.587786
vn -0.003667 -0.999993 0.000000
vn -0.003488 -0.999993 -0.001133
vn -0.003488 -0.999993 -0.001133
vn -0.003667 -0.999993 -0.000000
vn -0.003488 -0.999993 0.001133
vn -0.003488 -0.999993 0.001133
vn -0.002967 -0.999993 0.002156
vn -0.002967 -0.999993 0.002156
vn -0.002156 -0.999993 0.002967
vn -0.002156 -0.999993 0.002967
vn -0.001133 -0.999993 0.003488
vn -0.001133 -0.999993 0.003488
vn 0.000000 -0.999993 0.003667
vn -0.000000 -0.999993 0.003667
vn 0.001133 -0.999993 0.003488
vn 0.001133 -0.999993 0.003488
vn 0.002156 -0.999993 0.002967
vn 0.002156 -0.999993 0.002967
vn 0.002967 -0.999993 0.002156
vn 0.002967 -0.999993 0.002156
vn 0.003488 -0.999993 0.001133
vn 0.003488 -0.999993 0.001133
vn 0.003667 -0.999993 -0.000000
vn 0.003667 -0.999993 0.000000
vn 0.003488 -0.999993 -0.001133
vn 0.003488 -0.999993 -0.001133
vn 0.002967 -0.999993 -0.002156
vn 0.002967 -0.999993 -0.002156
vn 0.002156 -0.999993 -0.002967
vn 0.002156 -0.999993 -0.002967
vn 0.001133 -0.999993 -0.003488
vn 0.001133 -0.999993 -0.003488
vn 0.000000 -0.999993 -0.003667
vn -0.000000 -0.999993 -0.003667
vn -0.001133 -0.999993 -0.003488
vn -0.001133 -0.999993 -0.003488
vn -0.002156 -0.999993 -0.002967
vn -0.002156 -0.999993 -0.002967
vn -0.002967 -0.999993 -0.002155
vn -0.002967 -0.999993 -0.002155
s 1
g pCylinder336
usemtl initialShadingGroup
f 34/98/1 35/99/2 2/43/3 1/42/4
f 35/99/2 36/100/5 3/44/6 2/43/3
f 36/100/5 37/101/7 4/45/8 3/44/6
f 37/101/7 38/102/9 5/46/10 4/45/8
f 38/102/9 39/103/11 6/47/12 5/46/10
f 39/103/11 40/104/13 7/48/14 6/47/12
f 40/104/13 41/105/15 8/49/16 7/48/14
f 41/105/15 22/85/17 9/50/18 8/49/16
f 22/85/17 23/86/19 10/51/20 9/50/18
f 23/86/19 24/87/21 11/52/22 10/51/20
f 24/87/21 25/88/23 12/53/24 11/52/22
f 25/88/23 26/89/25 13/54/26 12/53/24
f 26/89/25 27/90/27 14/55/28 13/54/26
f 27/90/27 28/91/29 15/56/30 14/55/28
f 28/91/29 29/92/31 16/57/32 15/56/30
f 29/92/31 30/93/33 17/58/34 16/57/32
f 30/93/33 31/94/35 18/59/36 17/58/34
f 31/94/35 32/95/37 19/60/38 18/59/36
f 32/95/37 33/96/39 20/61/40 19/60/38
f 33/96/39 34/97/1 1/62/4 20/61/40
s 2
f 43/2/41 42/1/42 44/83/43
f 45/3/44 43/2/41 44/83/43
f 46/4/45 45/3/44 44/83/43
f 47/5/46 46/4/45 44/83/43
f 48/6/47 47/5/46 44/83/43
f 49/7/48 48/6/47 44/83/43
f 50/8/49 49/7/48 44/83/43
f 51/9/50 50/8/49 44/83/43
f 52/10/51 51/9/50 44/83/43
f 53/11/52 52/10/51 44/83/43
f 54/12/53 53/11/52 44/83/43
f 55/13/54 54/12/53 44/83/43
f 56/14/55 55/13/54 44/83/43
f 57/15/56 56/14/55 44/83/43
f 58/16/57 57/15/56 44/83/43
f 59/17/58 58/16/57 44/83/43
f 60/18/59 59/17/58 44/83/43
f 61/19/60 60/18/59 44/83/43
f 62/20/61 61/19/60 44/83/43
f 42/1/42 62/20/61 44/83/43
s 3
f 1/81/62 2/80/63 21/84/64
f 2/80/63 3/79/65 21/84/64
f 3/79/65 4/78/66 21/84/64
f 4/78/66 5/77/67 21/84/64
f 5/77/67 6/76/68 21/84/64
f 6/76/68 7/75/69 21/84/64
f 7/75/69 8/74/70 21/84/64
f 8/74/70 9/73/71 21/84/64
f 9/73/71 10/72/72 21/84/64
f 10/72/72 11/71/73 21/84/64
f 11/71/73 12/70/74 21/84/64
f 12/70/74 13/69/75 21/84/64
f 13/69/75 14/68/76 21/84/64
f 14/68/76 15/67/77 21/84/64
f 15/67/77 16/66/78 21/84/64
f 16/66/78 17/65/79 21/84/64
f 17/65/79 18/64/80 21/84/64
f 18/64/80 19/63/81 21/84/64
f 19/63/81 20/82/82 21/84/64
f 20/82/82 1/81/62 21/84/64
s 4
f 51/29/83 52/30/84 63/106/85 64/107/86
f 52/30/84 53/31/87 65/108/88 63/106/85
f 53/31/87 54/32/89 66/109/90 65/108/88
f 54/32/89 55/33/91 67/110/92 66/109/90
f 55/33/91 56/34/93 68/111/94 67/110/92
f 56/34/93 57/35/95 69/112/96 68/111/94
f 57/35/95 58/36/97 70/113/98 69/112/96
f 58/36/97 59/37/99 71/114/100 70/113/98
f 59/37/99 60/38/101 72/115/102 71/114/100
f 60/38/101 61/39/103 73/116/104 72/115/102
f 61/39/103 62/40/105 74/117/106 73/116/104
f 62/40/105 42/41/107 75/118/108 74/117/106
f 42/21/107 43/22/109 76/119/110 75/120/108
f 43/22/109 45/23/111 77/121/112 76/119/110
f 45/23/111 46/24/113 78/122/114 77/121/112
f 46/24/113 47/25/115 79/123/116 78/122/114
f 47/25/115 48/26/117 80/124/118 79/123/116
f 48/26/117 49/27/119 81/125/120 80/124/118
f 49/27/119 50/28/121 82/126/122 81/125/120
f 50/28/121 51/29/83 64/107/86 82/126/122
s 5
f 23/86/123 22/85/124 64/107/125 63/106/126
f 24/87/127 23/86/123 63/106/126 65/108/128
f 25/88/129 24/87/127 65/108/128 66/109/130
f 26/89/131 25/88/129 66/109/130 67/110/132
f 27/90/133 26/89/131 67/110/132 68/111/134
f 28/91/135 27/90/133 68/111/134 69/112/136
f 29/92/137 28/91/135 69/112/136 70/113/138
f 30/93/139 29/92/137 70/113/138 71/114/140
f 31/94/141 30/93/139 71/114/140 72/115/142
f 32/95/143 31/94/141 72/115/142 73/116/144
f 33/96/145 32/95/143 73/116/144 74/117/146
f 34/97/147 33/96/145 74/117/146 75/118/148
f 35/99/149 34/98/147 75/120/148 76/119/150
f 36/100/151 35/99/149 76/119/150 77/121/152
f 37/101/153 36/100/151 77/121/152 78/122/154
f 38/102/155 37/101/153 78/122/154 79/123/156
f 39/103/157 38/102/155 79/123/156 80/124/158
f 40/104/159 39/103/157 80/124/158 81/125/160
f 41/105/161 40/104/159 81/125/160 82/126/162
f 22/85/124 41/105/161 82/126/162 64/107/125
