# This file uses centimeters as units for non-parametric coordinates.

mtllib Left Fence.mtl
g default
v -0.500000 0.000000 -0.500000
v 0.500000 0.000000 -0.500000
v -0.500000 15.000000 -0.500000
v 0.500000 15.000000 -0.500000
v -0.500000 15.000000 -0.750000
v 0.500000 15.000000 -0.750000
v -0.500000 0.000000 -0.750000
v 0.500000 0.000000 -0.750000
v 0.000000 15.050000 -0.750000
v 0.000000 15.050000 -0.500000
v -0.412215 0.000000 0.412215
v 0.412215 0.000000 0.412215
v -0.412215 14.250000 0.412215
v 0.412215 14.250000 0.412215
v -0.412215 14.250000 -0.412215
v 0.412215 14.250000 -0.412215
v -0.412215 0.000000 -0.412215
v 0.412215 0.000000 -0.412215
v 0.550000 0.000000 -0.500000
v 1.550000 0.000000 -0.500000
v 0.550000 15.000000 -0.500000
v 1.550000 15.000000 -0.500000
v 0.550000 15.000000 -0.750000
v 1.550000 15.000000 -0.750000
v 0.550000 0.000000 -0.750000
v 1.550000 0.000000 -0.750000
v 0.950000 15.050001 -0.750000
v 0.950000 15.050001 -0.500000
v 1.600000 0.000000 -0.500000
v 2.600000 0.000000 -0.500000
v 1.600000 15.100000 -0.500000
v 2.600000 15.100000 -0.500000
v 1.600000 15.100000 -0.750000
v 2.600000 15.100000 -0.750000
v 1.600000 0.000000 -0.750000
v 2.600000 0.000000 -0.750000
v 1.800000 15.000000 -0.750000
v 1.800000 15.000000 -0.500000
v 2.100000 15.150001 -0.750000
v 2.100000 15.150001 -0.500000
v 2.417853 15.065747 -0.750000
v 2.417853 15.065747 -0.500000
v 2.307338 15.038226 -0.750000
v 2.307338 15.038226 -0.500000
v 2.650000 0.000000 -0.500000
v 3.650000 0.000000 -0.500000
v 2.650000 15.000000 -0.500000
v 3.650000 15.000000 -0.500000
v 2.650000 15.000000 -0.750000
v 3.650000 15.000000 -0.750000
v 2.650000 0.000000 -0.750000
v 3.650000 0.000000 -0.750000
v 3.050000 15.050001 -0.750000
v 3.050000 15.050001 -0.500000
v 3.700000 0.000000 -0.500000
v 4.700000 0.000000 -0.500000
v 3.700000 15.100000 -0.500000
v 4.700000 15.100000 -0.500000
v 3.700000 15.100000 -0.750000
v 4.700000 15.100000 -0.750000
v 3.700000 0.000000 -0.750000
v 4.700000 0.000000 -0.750000
v 3.900000 15.000000 -0.750000
v 3.900000 15.000000 -0.500000
v 4.200000 15.150001 -0.750000
v 4.200000 15.150001 -0.500000
v 4.517853 15.065747 -0.750000
v 4.517853 15.065747 -0.500000
v 4.407338 15.038226 -0.750000
v 4.407338 15.038226 -0.500000
vt 0.375000 0.000000
vt 0.625000 0.000000
vt 0.375000 0.250000
vt 0.625000 0.250000
vt 0.375000 0.500000
vt 0.625000 0.500000
vt 0.375000 0.750000
vt 0.625000 0.750000
vt 0.375000 1.000000
vt 0.625000 1.000000
vt 0.875000 0.000000
vt 0.875000 0.250000
vt 0.125000 0.000000
vt 0.125000 0.250000
vt 0.500000 0.500000
vt 0.500000 0.250000
vt 0.375000 0.000000
vt 0.625000 0.000000
vt 0.625000 0.250000
vt 0.375000 0.250000
vt 0.625000 0.500000
vt 0.375000 0.500000
vt 0.625000 0.750000
vt 0.375000 0.750000
vt 0.625000 1.000000
vt 0.375000 1.000000
vt 0.875000 0.000000
vt 0.875000 0.250000
vt 0.125000 0.000000
vt 0.125000 0.250000
vt 0.375000 0.000000
vt 0.625000 0.000000
vt 0.625000 0.250000
vt 0.475000 0.250000
vt 0.375000 0.250000
vt 0.475000 0.500000
vt 0.625000 0.500000
vt 0.375000 0.500000
vt 0.625000 0.750000
vt 0.375000 0.750000
vt 0.625000 1.000000
vt 0.375000 1.000000
vt 0.875000 0.000000
vt 0.875000 0.250000
vt 0.125000 0.000000
vt 0.125000 0.250000
vt 0.375000 0.000000
vt 0.625000 0.000000
vt 0.625000 0.250000
vt 0.575000 0.250000
vt 0.559556 0.250000
vt 0.525000 0.250000
vt 0.425000 0.250000
vt 0.375000 0.250000
vt 0.575000 0.500000
vt 0.625000 0.500000
vt 0.375000 0.500000
vt 0.425000 0.500000
vt 0.525000 0.500000
vt 0.559556 0.500000
vt 0.625000 0.750000
vt 0.375000 0.750000
vt 0.625000 1.000000
vt 0.375000 1.000000
vt 0.875000 0.000000
vt 0.875000 0.250000
vt 0.125000 0.000000
vt 0.125000 0.250000
vt 0.375000 0.000000
vt 0.625000 0.000000
vt 0.625000 0.250000
vt 0.475000 0.250000
vt 0.375000 0.250000
vt 0.475000 0.500000
vt 0.625000 0.500000
vt 0.375000 0.500000
vt 0.625000 0.750000
vt 0.375000 0.750000
vt 0.625000 1.000000
vt 0.375000 1.000000
vt 0.875000 0.000000
vt 0.875000 0.250000
vt 0.125000 0.000000
vt 0.125000 0.250000
vt 0.375000 0.000000
vt 0.625000 0.000000
vt 0.625000 0.250000
vt 0.575000 0.250000
vt 0.559556 0.250000
vt 0.525000 0.250000
vt 0.425000 0.250000
vt 0.375000 0.250000
vt 0.575000 0.500000
vt 0.625000 0.500000
vt 0.375000 0.500000
vt 0.425000 0.500000
vt 0.525000 0.500000
vt 0.559556 0.500000
vt 0.625000 0.750000
vt 0.375000 0.750000
vt 0.625000 1.000000
vt 0.375000 1.000000
vt 0.875000 0.000000
vt 0.875000 0.250000
vt 0.125000 0.000000
vt 0.125000 0.250000
vn 0.000000 0.000000 1.000000
vn 0.000000 0.000000 1.000000
vn 0.000000 0.000000 1.000000
vn 0.000000 0.000000 1.000000
vn 0.000000 0.000000 1.000000
vn 0.000000 1.000000 0.000000
vn 0.000000 1.000000 0.000000
vn 0.099504 0.995037 0.000000
vn 0.099504 0.995037 0.000000
vn 0.000000 0.000000 -1.000000
vn 0.000000 0.000000 -1.000000
vn 0.000000 0.000000 -1.000000
vn 0.000000 0.000000 -1.000000
vn 0.000000 0.000000 -1.000000
vn 0.000000 -1.000000 0.000000
vn 0.000000 -1.000000 0.000000
vn 0.000000 -1.000000 0.000000
vn 0.000000 -1.000000 0.000000
vn 1.000000 0.000000 0.000000
vn 1.000000 0.000000 0.000000
vn 1.000000 0.000000 0.000000
vn 1.000000 0.000000 0.000000
vn -1.000000 0.000000 0.000000
vn -1.000000 0.000000 0.000000
vn -1.000000 0.000000 0.000000
vn -1.000000 0.000000 0.000000
vn -0.099504 0.995037 0.000000
vn -0.099504 0.995037 0.000000
vn 0.000000 0.000000 1.000000
vn 0.000000 0.000000 1.000000
vn 0.000000 0.000000 1.000000
vn 0.000000 0.000000 1.000000
vn 0.000000 1.000000 0.000000
vn 0.000000 1.000000 0.000000
vn 0.000000 1.000000 0.000000
vn 0.000000 1.000000 0.000000
vn 0.000000 0.000000 -1.000000
vn 0.000000 0.000000 -1.000000
vn 0.000000 0.000000 -1.000000
vn 0.000000 0.000000 -1.000000
vn 0.000000 -1.000000 0.000000
vn 0.000000 -1.000000 0.000000
vn 0.000000 -1.000000 0.000000
vn 0.000000 -1.000000 0.000000
vn 1.000000 0.000000 0.000000
vn 1.000000 0.000000 0.000000
vn 1.000000 0.000000 0.000000
vn 1.000000 0.000000 0.000000
vn -1.000000 0.000000 0.000000
vn -1.000000 0.000000 0.000000
vn -1.000000 0.000000 0.000000
vn -1.000000 0.000000 0.000000
vn 0.000000 0.000000 1.000000
vn 0.000000 0.000000 1.000000
vn 0.000000 0.000000 1.000000
vn 0.000000 0.000000 1.000000
vn 0.000000 0.000000 1.000000
vn 0.000000 1.000000 0.000000
vn 0.000000 1.000000 0.000000
vn 0.083047 0.996546 0.000000
vn 0.083047 0.996546 0.000000
vn 0.000000 0.000000 -1.000000
vn 0.000000 0.000000 -1.000000
vn 0.000000 0.000000 -1.000000
vn 0.000000 0.000000 -1.000000
vn 0.000000 0.000000 -1.000000
vn 0.000000 -1.000000 0.000000
vn 0.000000 -1.000000 0.000000
vn 0.000000 -1.000000 0.000000
vn 0.000000 -1.000000 0.000000
vn 1.000000 0.000000 0.000000
vn 1.000000 0.000000 0.000000
vn 1.000000 0.000000 0.000000
vn 1.000000 0.000000 0.000000
vn -1.000000 0.000000 0.000000
vn -1.000000 0.000000 0.000000
vn -1.000000 0.000000 0.000000
vn -1.000000 0.000000 0.000000
vn -0.124038 0.992278 0.000000
vn -0.124038 0.992278 0.000000
vn 0.000000 0.000000 1.000000
vn 0.000000 0.000000 1.000000
vn 0.000000 0.000000 1.000000
vn 0.000000 0.000000 1.000000
vn 0.000000 0.000000 1.000000
vn 0.000000 0.000000 1.000000
vn 0.000000 0.000000 1.000000
vn 0.000000 0.000000 1.000000
vn -0.206527 0.978441 0.000000
vn -0.206527 0.978441 0.000000
vn -0.184812 0.982774 0.000000
vn -0.184812 0.982774 0.000000
vn 0.000000 0.000000 -1.000000
vn 0.000000 0.000000 -1.000000
vn 0.000000 0.000000 -1.000000
vn 0.000000 0.000000 -1.000000
vn 0.000000 0.000000 -1.000000
vn 0.000000 0.000000 -1.000000
vn 0.000000 0.000000 -1.000000
vn 0.000000 0.000000 -1.000000
vn 0.000000 -1.000000 0.000000
vn 0.000000 -1.000000 0.000000
vn 0.000000 -1.000000 0.000000
vn 0.000000 -1.000000 0.000000
vn 1.000000 0.000000 0.000000
vn 1.000000 0.000000 0.000000
vn 1.000000 0.000000 0.000000
vn 1.000000 0.000000 0.000000
vn -1.000000 0.000000 0.000000
vn -1.000000 0.000000 0.000000
vn -1.000000 0.000000 0.000000
vn -1.000000 0.000000 0.000000
vn 0.447215 0.894427 0.000000
vn -0.099504 0.995037 0.000000
vn -0.099504 0.995037 0.000000
vn 0.447215 0.894427 0.000000
vn -0.075133 0.997173 0.000000
vn -0.075133 0.997173 0.000000
vn 0.256222 0.966618 0.000000
vn 0.256222 0.966618 0.000000
vn 0.000000 0.000000 1.000000
vn 0.000000 0.000000 1.000000
vn 0.000000 0.000000 1.000000
vn 0.000000 0.000000 1.000000
vn 0.000000 0.000000 1.000000
vn 0.000000 1.000000 0.000000
vn 0.000000 1.000000 0.000000
vn 0.083047 0.996546 0.000000
vn 0.083047 0.996546 0.000000
vn 0.000000 0.000000 -1.000000
vn 0.000000 0.000000 -1.000000
vn 0.000000 0.000000 -1.000000
vn 0.000000 0.000000 -1.000000
vn 0.000000 0.000000 -1.000000
vn 0.000000 -1.000000 0.000000
vn 0.000000 -1.000000 0.000000
vn 0.000000 -1.000000 0.000000
vn 0.000000 -1.000000 0.000000
vn 1.000000 0.000000 0.000000
vn 1.000000 0.000000 0.000000
vn 1.000000 0.000000 0.000000
vn 1.000000 0.000000 0.000000
vn -1.000000 0.000000 0.000000
vn -1.000000 0.000000 0.000000
vn -1.000000 0.000000 0.000000
vn -1.000000 0.000000 0.000000
vn -0.124037 0.992278 0.000000
vn -0.124037 0.992278 0.000000
vn 0.000000 0.000000 1.000000
vn 0.000000 0.000000 1.000000
vn 0.000000 0.000000 1.000000
vn 0.000000 0.000000 1.000000
vn 0.000000 0.000000 1.000000
vn 0.000000 0.000000 1.000000
vn 0.000000 0.000000 1.000000
vn 0.000000 0.000000 1.000000
vn -0.206527 0.978441 0.000000
vn -0.206527 0.978441 0.000000
vn -0.184813 0.982774 0.000000
vn -0.184813 0.982774 0.000000
vn 0.000000 0.000000 -1.000000
vn 0.000000 0.000000 -1.000000
vn 0.000000 0.000000 -1.000000
vn 0.000000 0.000000 -1.000000
vn 0.000000 0.000000 -1.000000
vn 0.000000 0.000000 -1.000000
vn 0.000000 0.000000 -1.000000
vn 0.000000 0.000000 -1.000000
vn 0.000000 -1.000000 0.000000
vn 0.000000 -1.000000 0.000000
vn 0.000000 -1.000000 0.000000
vn 0.000000 -1.000000 0.000000
vn 1.000000 0.000000 0.000000
vn 1.000000 0.000000 0.000000
vn 1.000000 0.000000 0.000000
vn 1.000000 0.000000 0.000000
vn -1.000000 0.000000 0.000000
vn -1.000000 0.000000 0.000000
vn -1.000000 0.000000 0.000000
vn -1.000000 0.000000 0.000000
vn 0.447215 0.894427 0.000000
vn -0.099504 0.995037 0.000000
vn -0.099504 0.995037 0.000000
vn 0.447215 0.894427 0.000000
vn -0.075133 0.997173 0.000000
vn -0.075133 0.997173 0.000000
vn 0.256222 0.966618 0.000000
vn 0.256222 0.966618 0.000000
s off
g pCube792
usemtl initialShadingGroup
f 1/1/1 2/2/2 4/4/3 10/16/4 3/3/5
s 1
f 9/15/6 10/16/7 4/4/8 6/6/9
s off
f 5/5/10 9/15/11 6/6/12 8/8/13 7/7/14
f 7/7/15 8/8/16 2/10/17 1/9/18
f 2/2/19 8/11/20 6/12/21 4/4/22
f 7/13/23 1/1/24 3/3/25 5/14/26
s 1
f 3/3/27 10/16/7 9/15/6 5/5/28
s off
f 11/17/29 12/18/30 14/19/31 13/20/32
f 13/20/33 14/19/34 16/21/35 15/22/36
f 15/22/37 16/21/38 18/23/39 17/24/40
f 17/24/41 18/23/42 12/25/43 11/26/44
f 12/18/45 18/27/46 16/28/47 14/19/48
f 17/29/49 11/17/50 13/20/51 15/30/52
f 19/31/53 20/32/54 22/33/55 28/34/56 21/35/57
s 2
f 27/36/58 28/34/59 22/33/60 24/37/61
s off
f 23/38/62 27/36/63 24/37/64 26/39/65 25/40/66
f 25/40/67 26/39/68 20/41/69 19/42/70
f 20/32/71 26/43/72 24/44/73 22/33/74
f 25/45/75 19/31/76 21/35/77 23/46/78
s 2
f 21/35/79 28/34/59 27/36/58 23/38/80
s off
f 29/47/81 30/48/82 32/49/83 42/50/84 44/51/85 40/52/86 38/53/87 31/54/88
s 3
f 41/55/89 42/50/90 32/49/91 34/56/92
s off
f 33/57/93 37/58/94 39/59/95 43/60/96 41/55/97 34/56/98 36/61/99 35/62/100
f 35/62/101 36/61/102 30/63/103 29/64/104
f 30/48/105 36/65/106 34/66/107 32/49/108
f 35/67/109 29/47/110 31/54/111 33/68/112
s 3
f 31/54/113 38/53/114 37/58/115 33/57/116
f 37/58/115 38/53/114 40/52/117 39/59/118
f 43/60/119 44/51/120 42/50/90 41/55/89
f 39/59/118 40/52/117 44/51/120 43/60/119
s off
f 45/69/121 46/70/122 48/71/123 54/72/124 47/73/125
s 5
f 53/74/126 54/72/127 48/71/128 50/75/129
s off
f 49/76/130 53/74/131 50/75/132 52/77/133 51/78/134
f 51/78/135 52/77/136 46/79/137 45/80/138
f 46/70/139 52/81/140 50/82/141 48/71/142
f 51/83/143 45/69/144 47/73/145 49/84/146
s 5
f 47/73/147 54/72/127 53/74/126 49/76/148
s off
f 55/85/149 56/86/150 58/87/151 68/88/152 70/89/153 66/90/154 64/91/155 57/92/156
s 6
f 67/93/157 68/88/158 58/87/159 60/94/160
s off
f 59/95/161 63/96/162 65/97/163 69/98/164 67/93/165 60/94/166 62/99/167 61/100/168
f 61/100/169 62/99/170 56/101/171 55/102/172
f 56/86/173 62/103/174 60/104/175 58/87/176
f 61/105/177 55/85/178 57/92/179 59/106/180
s 6
f 57/92/181 64/91/182 63/96/183 59/95/184
f 63/96/183 64/91/182 66/90/185 65/97/186
f 69/98/187 70/89/188 68/88/158 67/93/157
f 65/97/186 66/90/185 70/89/188 69/98/187
