# This file uses centimeters as units for non-parametric coordinates.

mtllib Right Fence.mtl
g default
v -4.650000 0.000000 -0.500000
v -3.650000 0.000000 -0.500000
v -4.650000 15.000000 -0.500000
v -3.650000 15.000000 -0.500000
v -4.650000 15.000000 -0.750000
v -3.650000 15.000000 -0.750000
v -4.650000 0.000000 -0.750000
v -3.650000 0.000000 -0.750000
v -4.450000 15.200000 -0.750000
v -4.450000 15.200000 -0.500000
v -3.600000 0.000000 -0.500000
v -2.600000 0.000000 -0.500000
v -3.600000 15.000000 -0.500000
v -2.600000 15.000000 -0.500000
v -3.600000 15.000000 -0.750000
v -2.600000 15.000000 -0.750000
v -3.600000 0.000000 -0.750000
v -2.600000 0.000000 -0.750000
v -3.200000 15.050001 -0.750000
v -3.200000 15.050001 -0.500000
v -2.550000 0.000000 -0.500000
v -1.550000 0.000000 -0.500000
v -2.550000 15.100000 -0.500000
v -1.550000 15.100000 -0.500000
v -2.550000 15.100000 -0.750000
v -1.550000 15.100000 -0.750000
v -2.550000 0.000000 -0.750000
v -1.550000 0.000000 -0.750000
v -2.350000 15.000000 -0.750000
v -2.350000 15.000000 -0.500000
v -2.050000 15.150001 -0.750000
v -2.050000 15.150001 -0.500000
v -1.732147 15.065747 -0.750000
v -1.732147 15.065747 -0.500000
v -1.842661 15.038226 -0.750000
v -1.842661 15.038226 -0.500000
v -1.450000 0.000000 -0.500000
v -0.450000 0.000000 -0.500000
v -1.450000 15.000000 -0.500000
v -0.450000 15.000000 -0.500000
v -1.450000 15.000000 -0.750000
v -0.450000 15.000000 -0.750000
v -1.450000 0.000000 -0.750000
v -0.450000 0.000000 -0.750000
v -1.250000 15.200000 -0.750000
v -1.250000 15.200000 -0.500000
v -0.400000 0.000000 -0.500000
v 0.600000 0.000000 -0.500000
v -0.400000 15.000000 -0.500000
v 0.600000 15.000000 -0.500000
v -0.400000 15.000000 -0.750000
v 0.600000 15.000000 -0.750000
v -0.400000 0.000000 -0.750000
v 0.600000 0.000000 -0.750000
v 0.100000 15.050000 -0.750000
v 0.100000 15.050000 -0.500000
v -0.312215 0.000000 0.412215
v 0.512215 0.000000 0.412215
v -0.312215 14.250000 0.412215
v 0.512215 14.250000 0.412215
v -0.312215 14.250000 -0.412215
v 0.512215 14.250000 -0.412215
v -0.312215 0.000000 -0.412215
v 0.512215 0.000000 -0.412215
vt 0.375000 0.000000
vt 0.625000 0.000000
vt 0.375000 0.250000
vt 0.625000 0.250000
vt 0.375000 0.500000
vt 0.625000 0.500000
vt 0.375000 0.750000
vt 0.625000 0.750000
vt 0.375000 1.000000
vt 0.625000 1.000000
vt 0.875000 0.000000
vt 0.875000 0.250000
vt 0.125000 0.000000
vt 0.125000 0.250000
vt 0.425000 0.500000
vt 0.425000 0.250000
vt 0.375000 0.000000
vt 0.625000 0.000000
vt 0.625000 0.250000
vt 0.475000 0.250000
vt 0.375000 0.250000
vt 0.475000 0.500000
vt 0.625000 0.500000
vt 0.375000 0.500000
vt 0.625000 0.750000
vt 0.375000 0.750000
vt 0.625000 1.000000
vt 0.375000 1.000000
vt 0.875000 0.000000
vt 0.875000 0.250000
vt 0.125000 0.000000
vt 0.125000 0.250000
vt 0.375000 0.000000
vt 0.625000 0.000000
vt 0.625000 0.250000
vt 0.575000 0.250000
vt 0.559556 0.250000
vt 0.525000 0.250000
vt 0.425000 0.250000
vt 0.375000 0.250000
vt 0.575000 0.500000
vt 0.625000 0.500000
vt 0.375000 0.500000
vt 0.425000 0.500000
vt 0.525000 0.500000
vt 0.559556 0.500000
vt 0.625000 0.750000
vt 0.375000 0.750000
vt 0.625000 1.000000
vt 0.375000 1.000000
vt 0.875000 0.000000
vt 0.875000 0.250000
vt 0.125000 0.000000
vt 0.125000 0.250000
vt 0.375000 0.000000
vt 0.625000 0.000000
vt 0.625000 0.250000
vt 0.425000 0.250000
vt 0.375000 0.250000
vt 0.425000 0.500000
vt 0.625000 0.500000
vt 0.375000 0.500000
vt 0.625000 0.750000
vt 0.375000 0.750000
vt 0.625000 1.000000
vt 0.375000 1.000000
vt 0.875000 0.000000
vt 0.875000 0.250000
vt 0.125000 0.000000
vt 0.125000 0.250000
vt 0.375000 0.000000
vt 0.625000 0.000000
vt 0.625000 0.250000
vt 0.500000 0.250000
vt 0.375000 0.250000
vt 0.500000 0.500000
vt 0.625000 0.500000
vt 0.375000 0.500000
vt 0.625000 0.750000
vt 0.375000 0.750000
vt 0.625000 1.000000
vt 0.375000 1.000000
vt 0.875000 0.000000
vt 0.875000 0.250000
vt 0.125000 0.000000
vt 0.125000 0.250000
vt 0.375000 0.000000
vt 0.625000 0.000000
vt 0.625000 0.250000
vt 0.375000 0.250000
vt 0.625000 0.500000
vt 0.375000 0.500000
vt 0.625000 0.750000
vt 0.375000 0.750000
vt 0.625000 1.000000
vt 0.375000 1.000000
vt 0.875000 0.000000
vt 0.875000 0.250000
vt 0.125000 0.000000
vt 0.125000 0.250000
vn 0.000000 0.000000 1.000000
vn 0.000000 0.000000 1.000000
vn 0.000000 0.000000 1.000000
vn 0.000000 0.000000 1.000000
vn 0.000000 0.000000 1.000000
vn 0.000000 1.000000 0.000000
vn 0.000000 1.000000 0.000000
vn 0.242535 0.970143 0.000000
vn 0.242535 0.970143 0.000000
vn 0.000000 0.000000 -1.000000
vn 0.000000 0.000000 -1.000000
vn 0.000000 0.000000 -1.000000
vn 0.000000 0.000000 -1.000000
vn 0.000000 0.000000 -1.000000
vn 0.000000 -1.000000 0.000000
vn 0.000000 -1.000000 0.000000
vn 0.000000 -1.000000 0.000000
vn 0.000000 -1.000000 0.000000
vn 1.000000 0.000000 0.000000
vn 1.000000 0.000000 0.000000
vn 1.000000 0.000000 0.000000
vn 1.000000 0.000000 0.000000
vn -1.000000 0.000000 0.000000
vn -1.000000 0.000000 0.000000
vn -1.000000 0.000000 0.000000
vn -1.000000 0.000000 0.000000
vn -0.707107 0.707107 0.000000
vn -0.707107 0.707107 0.000000
vn 0.000000 0.000000 1.000000
vn 0.000000 0.000000 1.000000
vn 0.000000 0.000000 1.000000
vn 0.000000 0.000000 1.000000
vn 0.000000 0.000000 1.000000
vn 0.000000 1.000000 0.000000
vn 0.000000 1.000000 0.000000
vn 0.083047 0.996546 0.000000
vn 0.083047 0.996546 0.000000
vn 0.000000 0.000000 -1.000000
vn 0.000000 0.000000 -1.000000
vn 0.000000 0.000000 -1.000000
vn 0.000000 0.000000 -1.000000
vn 0.000000 0.000000 -1.000000
vn 0.000000 -1.000000 0.000000
vn 0.000000 -1.000000 0.000000
vn 0.000000 -1.000000 0.000000
vn 0.000000 -1.000000 0.000000
vn 1.000000 0.000000 0.000000
vn 1.000000 0.000000 0.000000
vn 1.000000 0.000000 0.000000
vn 1.000000 0.000000 0.000000
vn -1.000000 0.000000 0.000000
vn -1.000000 0.000000 0.000000
vn -1.000000 0.000000 0.000000
vn -1.000000 0.000000 0.000000
vn -0.124037 0.992278 0.000000
vn -0.124037 0.992278 0.000000
vn 0.000000 0.000000 1.000000
vn 0.000000 0.000000 1.000000
vn 0.000000 0.000000 1.000000
vn 0.000000 0.000000 1.000000
vn 0.000000 0.000000 1.000000
vn 0.000000 0.000000 1.000000
vn 0.000000 0.000000 1.000000
vn 0.000000 0.000000 1.000000
vn -0.206527 0.978441 0.000000
vn -0.206527 0.978441 0.000000
vn -0.184812 0.982774 0.000000
vn -0.184812 0.982774 0.000000
vn 0.000000 0.000000 -1.000000
vn 0.000000 0.000000 -1.000000
vn 0.000000 0.000000 -1.000000
vn 0.000000 0.000000 -1.000000
vn 0.000000 0.000000 -1.000000
vn 0.000000 0.000000 -1.000000
vn 0.000000 0.000000 -1.000000
vn 0.000000 0.000000 -1.000000
vn 0.000000 -1.000000 0.000000
vn 0.000000 -1.000000 0.000000
vn 0.000000 -1.000000 0.000000
vn 0.000000 -1.000000 0.000000
vn 1.000000 0.000000 0.000000
vn 1.000000 0.000000 0.000000
vn 1.000000 0.000000 0.000000
vn 1.000000 0.000000 0.000000
vn -1.000000 0.000000 0.000000
vn -1.000000 0.000000 0.000000
vn -1.000000 0.000000 0.000000
vn -1.000000 0.000000 0.000000
vn 0.447215 0.894427 0.000000
vn -0.099504 0.995037 0.000000
vn -0.099504 0.995037 0.000000
vn 0.447215 0.894427 0.000000
vn -0.075133 0.997174 0.000000
vn -0.075133 0.997174 0.000000
vn 0.256222 0.966618 0.000000
vn 0.256222 0.966618 0.000000
vn 0.000000 0.000000 1.000000
vn 0.000000 0.000000 1.000000
vn 0.000000 0.000000 1.000000
vn 0.000000 0.000000 1.000000
vn 0.000000 0.000000 1.000000
vn 0.000000 1.000000 0.000000
vn 0.000000 1.000000 0.000000
vn 0.242535 0.970143 0.000000
vn 0.242535 0.970143 0.000000
vn 0.000000 0.000000 -1.000000
vn 0.000000 0.000000 -1.000000
vn 0.000000 0.000000 -1.000000
vn 0.000000 0.000000 -1.000000
vn 0.000000 0.000000 -1.000000
vn 0.000000 -1.000000 0.000000
vn 0.000000 -1.000000 0.000000
vn 0.000000 -1.000000 0.000000
vn 0.000000 -1.000000 0.000000
vn 1.000000 0.000000 0.000000
vn 1.000000 0.000000 0.000000
vn 1.000000 0.000000 0.000000
vn 1.000000 0.000000 0.000000
vn -1.000000 0.000000 0.000000
vn -1.000000 0.000000 0.000000
vn -1.000000 0.000000 0.000000
vn -1.000000 0.000000 0.000000
vn -0.707106 0.707107 0.000000
vn -0.707106 0.707107 0.000000
vn 0.000000 0.000000 1.000000
vn 0.000000 0.000000 1.000000
vn 0.000000 0.000000 1.000000
vn 0.000000 0.000000 1.000000
vn 0.000000 0.000000 1.000000
vn 0.000000 1.000000 0.000000
vn 0.000000 1.000000 0.000000
vn 0.099504 0.995037 0.000000
vn 0.099504 0.995037 0.000000
vn 0.000000 0.000000 -1.000000
vn 0.000000 0.000000 -1.000000
vn 0.000000 0.000000 -1.000000
vn 0.000000 0.000000 -1.000000
vn 0.000000 0.000000 -1.000000
vn 0.000000 -1.000000 0.000000
vn 0.000000 -1.000000 0.000000
vn 0.000000 -1.000000 0.000000
vn 0.000000 -1.000000 0.000000
vn 1.000000 0.000000 0.000000
vn 1.000000 0.000000 0.000000
vn 1.000000 0.000000 0.000000
vn 1.000000 0.000000 0.000000
vn -1.000000 0.000000 0.000000
vn -1.000000 0.000000 0.000000
vn -1.000000 0.000000 0.000000
vn -1.000000 0.000000 0.000000
vn -0.099504 0.995037 0.000000
vn -0.099504 0.995037 0.000000
vn 0.000000 0.000000 1.000000
vn 0.000000 0.000000 1.000000
vn 0.000000 0.000000 1.000000
vn 0.000000 0.000000 1.000000
vn 0.000000 1.000000 0.000000
vn 0.000000 1.000000 0.000000
vn 0.000000 1.000000 0.000000
vn 0.000000 1.000000 0.000000
vn 0.000000 0.000000 -1.000000
vn 0.000000 0.000000 -1.000000
vn 0.000000 0.000000 -1.000000
vn 0.000000 0.000000 -1.000000
vn 0.000000 -1.000000 0.000000
vn 0.000000 -1.000000 0.000000
vn 0.000000 -1.000000 0.000000
vn 0.000000 -1.000000 0.000000
vn 1.000000 0.000000 0.000000
vn 1.000000 0.000000 0.000000
vn 1.000000 0.000000 0.000000
vn 1.000000 0.000000 0.000000
vn -1.000000 0.000000 0.000000
vn -1.000000 0.000000 0.000000
vn -1.000000 0.000000 0.000000
vn -1.000000 0.000000 0.000000
s off
g pCube794
usemtl initialShadingGroup
f 1/1/1 2/2/2 4/4/3 10/16/4 3/3/5
s 1
f 9/15/6 10/16/7 4/4/8 6/6/9
s off
f 5/5/10 9/15/11 6/6/12 8/8/13 7/7/14
f 7/7/15 8/8/16 2/10/17 1/9/18
f 2/2/19 8/11/20 6/12/21 4/4/22
f 7/13/23 1/1/24 3/3/25 5/14/26
s 1
f 3/3/27 10/16/7 9/15/6 5/5/28
s off
f 11/17/29 12/18/30 14/19/31 20/20/32 13/21/33
s 2
f 19/22/34 20/20/35 14/19/36 16/23/37
s off
f 15/24/38 19/22/39 16/23/40 18/25/41 17/26/42
f 17/26/43 18/25/44 12/27/45 11/28/46
f 12/18/47 18/29/48 16/30/49 14/19/50
f 17/31/51 11/17/52 13/21/53 15/32/54
s 2
f 13/21/55 20/20/35 19/22/34 15/24/56
s off
f 21/33/57 22/34/58 24/35/59 34/36/60 36/37/61 32/38/62 30/39/63 23/40/64
s 3
f 33/41/65 34/36/66 24/35/67 26/42/68
s off
f 25/43/69 29/44/70 31/45/71 35/46/72 33/41/73 26/42/74 28/47/75 27/48/76
f 27/48/77 28/47/78 22/49/79 21/50/80
f 22/34/81 28/51/82 26/52/83 24/35/84
f 27/53/85 21/33/86 23/40/87 25/54/88
s 3
f 23/40/89 30/39/90 29/44/91 25/43/92
f 29/44/91 30/39/90 32/38/93 31/45/94
f 35/46/95 36/37/96 34/36/66 33/41/65
f 31/45/94 32/38/93 36/37/96 35/46/95
s off
f 37/55/97 38/56/98 40/57/99 46/58/100 39/59/101
s 5
f 45/60/102 46/58/103 40/57/104 42/61/105
s off
f 41/62/106 45/60/107 42/61/108 44/63/109 43/64/110
f 43/64/111 44/63/112 38/65/113 37/66/114
f 38/56/115 44/67/116 42/68/117 40/57/118
f 43/69/119 37/55/120 39/59/121 41/70/122
s 5
f 39/59/123 46/58/103 45/60/102 41/62/124
s off
f 47/71/125 48/72/126 50/73/127 56/74/128 49/75/129
s 6
f 55/76/130 56/74/131 50/73/132 52/77/133
s off
f 51/78/134 55/76/135 52/77/136 54/79/137 53/80/138
f 53/80/139 54/79/140 48/81/141 47/82/142
f 48/72/143 54/83/144 52/84/145 50/73/146
f 53/85/147 47/71/148 49/75/149 51/86/150
s 6
f 49/75/151 56/74/131 55/76/130 51/78/152
s off
f 57/87/153 58/88/154 60/89/155 59/90/156
f 59/90/157 60/89/158 62/91/159 61/92/160
f 61/92/161 62/91/162 64/93/163 63/94/164
f 63/94/165 64/93/166 58/95/167 57/96/168
f 58/88/169 64/97/170 62/98/171 60/89/172
f 63/99/173 57/87/174 59/90/175 61/100/176
