# This file uses centimeters as units for non-parametric coordinates.

mtllib Short Fencepost.mtl
g default
v -0.000005 5.614930 -0.000005
v 0.726640 5.255154 0.726632
v -0.726640 5.255154 0.726640
v 0.726640 5.255154 -0.726640
v -0.726640 5.255154 -0.726640
v 0.641560 5.387562 0.641560
v -0.641558 5.387562 0.641558
v -0.641563 5.387562 -0.641563
v 0.641560 5.387562 -0.641558
v 0.727380 5.291388 -0.727380
v -0.727380 5.291388 -0.727380
v -0.727380 5.291388 0.727380
v 0.727377 5.291388 0.727377
v 0.697968 5.342554 0.697968
v -0.697968 5.342554 0.697968
v -0.697969 5.342554 -0.697969
v 0.697966 5.342554 -0.697966
v -0.599776 4.966495 0.599776
v 0.599776 4.966495 0.599776
v -0.679314 5.268034 0.679314
v 0.679314 5.268034 0.679314
v -0.679314 5.268034 -0.679314
v 0.679314 5.268034 -0.679314
v -0.599776 4.966495 -0.599776
v 0.599776 4.966495 -0.599776
v -0.599776 5.157059 0.599776
v 0.599776 5.157059 0.599776
v 0.599776 5.157059 -0.599776
v -0.599776 5.157059 -0.599776
v -0.653456 5.207874 -0.653456
v 0.653456 5.207874 -0.653456
v 0.653456 5.207874 0.653456
v -0.653456 5.207874 0.653456
v -0.500000 0.000000 0.500000
v 0.500000 0.000000 0.500000
v -0.500000 5.000000 0.500000
v 0.500000 5.000000 0.500000
v -0.500000 5.000000 -0.500000
v 0.500000 5.000000 -0.500000
v -0.500000 0.000000 -0.500000
v 0.500000 0.000000 -0.500000
vt 0.500000 0.000000
vt 0.375000 0.250000
vt 0.625000 0.250000
vt 0.375000 0.500000
vt 0.625000 0.500000
vt 0.500000 0.875000
vt 0.875000 0.250000
vt 0.125000 0.250000
vt 0.375000 0.157992
vt 0.625000 0.157992
vt 0.625000 0.592008
vt 0.875000 0.157992
vt 0.125000 0.157992
vt 0.375000 0.592008
vt 0.125000 0.200122
vt 0.375000 0.549878
vt 0.625000 0.549878
vt 0.875000 0.200122
vt 0.625000 0.200122
vt 0.375000 0.200122
vt 0.375000 0.181752
vt 0.625000 0.181752
vt 0.625000 0.568248
vt 0.875000 0.181752
vt 0.125000 0.181752
vt 0.375000 0.568248
vt 0.375000 0.157992
vt 0.625000 0.157992
vt 0.625000 0.200122
vt 0.375000 0.200122
vt 0.375000 0.250000
vt 0.625000 0.250000
vt 0.625000 0.500000
vt 0.375000 0.500000
vt 0.375000 0.549878
vt 0.625000 0.549878
vt 0.625000 0.592008
vt 0.375000 0.592008
vt 0.375000 0.750000
vt 0.625000 0.750000
vt 0.625000 1.000000
vt 0.375000 1.000000
vt 0.875000 0.157992
vt 0.875000 0.200122
vt 0.125000 0.157992
vt 0.125000 0.200122
vt 0.375000 0.000000
vt 0.625000 0.000000
vt 0.875000 0.000000
vt 0.125000 0.000000
vt 0.875000 0.250000
vt 0.125000 0.250000
vt 0.375000 0.000000
vt 0.625000 0.000000
vt 0.625000 0.250000
vt 0.375000 0.250000
vt 0.625000 0.500000
vt 0.375000 0.500000
vt 0.625000 0.750000
vt 0.375000 0.750000
vt 0.625000 1.000000
vt 0.375000 1.000000
vt 0.875000 0.000000
vt 0.875000 0.250000
vt 0.125000 0.000000
vt 0.125000 0.250000
vn 0.000000 0.603904 0.797057
vn 0.000000 0.603902 0.797059
vn 0.000002 0.265702 0.964055
vn 0.000002 0.265700 0.964056
vn 0.000000 -1.000000 0.000000
vn 0.000000 -1.000000 0.000000
vn 0.000000 -1.000000 0.000000
vn 0.000000 -1.000000 0.000000
vn 0.000000 0.265751 -0.964042
vn 0.000000 0.265754 -0.964041
vn 0.000001 0.603912 -0.797051
vn 0.000001 0.603912 -0.797051
vn -0.797056 0.603905 0.000000
vn -0.797055 0.603906 0.000000
vn -0.964044 0.265744 0.000000
vn -0.964044 0.265744 0.000000
vn 0.797060 0.603900 -0.000000
vn 0.797058 0.603903 -0.000000
vn 0.964036 0.265773 0.000000
vn 0.964041 0.265755 0.000000
vn -0.000001 0.942559 0.334039
vn -0.000001 0.893397 0.449269
vn -0.000001 0.893396 0.449269
vn -0.334043 0.942558 0.000002
vn -0.449274 0.893394 0.000002
vn -0.449275 0.893394 0.000002
vn 0.000001 0.893392 -0.449278
vn 0.000001 0.893392 -0.449278
vn 0.000001 0.942557 -0.334044
vn 0.334039 0.942559 0.000000
vn 0.449273 0.893394 -0.000000
vn 0.449273 0.893395 -0.000000
vn 0.000000 -0.020421 -0.999791
vn 0.000000 -0.020421 -0.999791
vn -0.999791 -0.020422 0.000000
vn -0.999791 -0.020422 0.000000
vn 0.000003 -0.020489 0.999790
vn 0.000003 -0.020489 0.999790
vn 0.999792 -0.020388 0.000001
vn 0.999792 -0.020388 0.000001
vn 0.000000 -0.284170 0.958774
vn 0.000000 -0.284170 0.958774
vn 0.000000 -0.516915 0.856037
vn 0.000000 -0.516915 0.856037
vn 0.000000 1.000000 0.000000
vn 0.000000 1.000000 0.000000
vn 0.000000 1.000000 0.000000
vn 0.000000 1.000000 0.000000
vn 0.000000 -0.516915 -0.856037
vn 0.000000 -0.516915 -0.856037
vn 0.000000 -0.284170 -0.958774
vn 0.000000 -0.284170 -0.958774
vn 0.000000 -1.000000 0.000000
vn 0.000000 -1.000000 0.000000
vn 0.000000 -1.000000 0.000000
vn 0.000000 -1.000000 0.000000
vn 0.958774 -0.284170 0.000000
vn 0.958774 -0.284170 0.000000
vn 0.856036 -0.516916 0.000000
vn 0.856036 -0.516916 0.000000
vn -0.958774 -0.284170 0.000000
vn -0.958774 -0.284170 0.000000
vn -0.856036 -0.516916 0.000000
vn -0.856036 -0.516916 0.000000
vn 0.000000 0.000000 1.000000
vn 0.000000 0.000000 1.000000
vn 1.000000 0.000000 0.000000
vn 1.000000 0.000000 0.000000
vn 0.000000 0.000000 -1.000000
vn 0.000000 0.000000 -1.000000
vn -1.000000 0.000000 0.000000
vn -1.000000 0.000000 0.000000
vn 0.000000 -0.394882 -0.918732
vn 0.000000 -0.394882 -0.918732
vn 0.918732 -0.394883 0.000000
vn 0.918732 -0.394883 0.000000
vn 0.000000 -0.394882 0.918732
vn 0.000000 -0.394882 0.918732
vn -0.918732 -0.394883 0.000000
vn -0.918732 -0.394883 0.000000
vn 0.000000 0.000000 1.000000
vn 0.000000 0.000000 1.000000
vn 0.000000 0.000000 1.000000
vn 0.000000 0.000000 1.000000
vn 0.000000 1.000000 0.000000
vn 0.000000 1.000000 0.000000
vn 0.000000 1.000000 0.000000
vn 0.000000 1.000000 0.000000
vn 0.000000 0.000000 -1.000000
vn 0.000000 0.000000 -1.000000
vn 0.000000 0.000000 -1.000000
vn 0.000000 0.000000 -1.000000
vn 0.000000 -1.000000 0.000000
vn 0.000000 -1.000000 0.000000
vn 0.000000 -1.000000 0.000000
vn 0.000000 -1.000000 0.000000
vn 1.000000 0.000000 0.000000
vn 1.000000 0.000000 0.000000
vn 1.000000 0.000000 0.000000
vn 1.000000 0.000000 0.000000
vn -1.000000 0.000000 0.000000
vn -1.000000 0.000000 0.000000
vn -1.000000 0.000000 0.000000
vn -1.000000 0.000000 0.000000
s 1
g pCube794
usemtl initialShadingGroup
f 14/21/1 15/22/2 12/19/3 13/20/4
s off
f 2/2/5 3/3/6 5/5/7 4/4/8
s 2
f 10/16/9 11/17/10 16/23/11 17/26/12
s 3
f 15/22/13 16/24/14 11/18/15 12/19/16
s 4
f 17/25/17 14/21/18 13/20/19 10/15/20
s 1
f 1/1/21 7/10/22 6/9/23
s 3
f 1/1/24 8/12/25 7/10/26
s 2
f 9/14/27 8/11/28 1/6/29
s 4
f 1/1/30 6/9/31 9/13/32
s 2
f 4/4/33 5/5/34 11/17/10 10/16/9
s 3
f 12/19/16 11/18/15 5/7/35 3/3/36
s 1
f 13/20/4 12/19/3 3/3/37 2/2/38
s 4
f 10/15/20 13/20/19 2/2/39 4/8/40
s 1
f 6/9/23 7/10/22 15/22/2 14/21/1
s 3
f 7/10/26 8/12/25 16/24/14 15/22/13
s 2
f 17/26/12 16/23/11 8/11/28 9/14/27
s 4
f 9/13/32 6/9/31 14/21/18 17/25/17
s 5
f 26/27/41 27/28/42 32/29/43 33/30/44
s off
f 20/31/45 21/32/46 23/33/47 22/34/48
s 6
f 30/35/49 31/36/50 28/37/51 29/38/52
s off
f 24/39/53 25/40/54 19/41/55 18/42/56
s 7
f 27/28/57 28/43/58 31/44/59 32/29/60
s 8
f 29/45/61 26/27/62 33/30/63 30/46/64
s 5
f 18/47/65 19/48/66 27/28/42 26/27/41
s 7
f 19/48/67 25/49/68 28/43/58 27/28/57
s 6
f 29/38/52 28/37/51 25/40/69 24/39/70
s 8
f 24/50/71 18/47/72 26/27/62 29/45/61
s 6
f 22/34/73 23/33/74 31/36/50 30/35/49
s 7
f 32/29/60 31/44/59 23/51/75 21/32/76
s 5
f 33/30/44 32/29/43 21/32/77 20/31/78
s 8
f 30/46/64 33/30/63 20/31/79 22/52/80
s off
f 34/53/81 35/54/82 37/55/83 36/56/84
f 36/56/85 37/55/86 39/57/87 38/58/88
f 38/58/89 39/57/90 41/59/91 40/60/92
f 40/60/93 41/59/94 35/61/95 34/62/96
f 35/54/97 41/63/98 39/64/99 37/55/100
f 40/65/101 34/53/102 36/56/103 38/66/104
