# This file uses centimeters as units for non-parametric coordinates.

mtllib Shrub.mtl
g default
v 0.030902 -0.120141 -0.095106
v -0.080902 -0.120141 -0.058779
v -0.080902 -0.120141 0.058779
v 0.030902 -0.120141 0.095106
v 0.100000 -0.120141 0.000000
v 0.030902 1.879859 -0.095106
v -0.080902 1.879859 -0.058779
v -0.080902 1.879859 0.058779
v 0.030902 1.879859 0.095106
v 0.100000 1.879859 0.000000
v 0.000000 -0.120141 0.000000
v 0.231210 3.280307 0.000000
vt 0.548284 0.007647
vt 0.373591 0.064409
vt 0.373591 0.248091
vt 0.548284 0.304853
vt 0.656250 0.156250
vt 0.375000 0.312500
vt 0.425000 0.312500
vt 0.475000 0.312500
vt 0.525000 0.312500
vt 0.575000 0.312500
vt 0.625000 0.312500
vt 0.375000 0.688440
vt 0.425000 0.688440
vt 0.475000 0.688440
vt 0.525000 0.688440
vt 0.575000 0.688440
vt 0.625000 0.688440
vt 0.548284 0.695147
vt 0.373591 0.751909
vt 0.373591 0.935591
vt 0.548284 0.992353
vt 0.656250 0.843750
vt 0.500000 0.150000
vt 0.500000 0.837500
vn -0.309017 0.000000 -0.951057
vn -0.309017 0.000000 -0.951057
vn -0.309017 0.000000 -0.951057
vn -0.309017 0.000000 -0.951057
vn -1.000000 0.000000 0.000000
vn -1.000000 0.000000 0.000000
vn -1.000000 0.000000 0.000000
vn -1.000000 0.000000 0.000000
vn -0.309017 0.000000 0.951057
vn -0.309017 0.000000 0.951057
vn -0.309017 0.000000 0.951057
vn -0.309017 0.000000 0.951057
vn 0.809017 0.000000 0.587785
vn 0.809017 0.000000 0.587785
vn 0.809017 0.000000 0.587785
vn 0.809017 0.000000 0.587785
vn 0.809017 0.000000 -0.587785
vn 0.809017 0.000000 -0.587785
vn 0.809017 0.000000 -0.587785
vn 0.809017 0.000000 -0.587785
vn 0.000000 -1.000000 0.000000
vn 0.000000 -1.000000 -0.000000
vn 0.000000 -1.000000 -0.000000
vn 0.000000 -1.000000 -0.000000
vn 0.000000 -1.000000 -0.000000
vn 0.000000 -1.000000 -0.000000
vn 0.252708 0.029531 -0.967092
vn -0.813580 0.204169 -0.544428
vn 0.080637 0.996744 -0.000001
vn -0.813580 0.204169 0.544428
vn 0.252707 0.029531 0.967092
vn 0.995640 -0.093283 -0.000000
s off
g pCylinder1
usemtl initialShadingGroup
f 1/6/1 2/7/2 7/13/3 6/12/4
f 2/7/5 3/8/6 8/14/7 7/13/8
f 3/8/9 4/9/10 9/15/11 8/14/12
f 4/9/13 5/10/14 10/16/15 9/15/16
f 5/10/17 1/11/18 6/17/19 10/16/20
s 1
f 2/2/21 1/1/22 11/23/23
f 3/3/24 2/2/21 11/23/23
f 4/4/25 3/3/24 11/23/23
f 5/5/26 4/4/25 11/23/23
f 1/1/22 5/5/26 11/23/23
s 2
f 6/21/27 7/20/28 12/24/29
f 7/20/28 8/19/30 12/24/29
f 8/19/30 9/18/31 12/24/29
f 9/18/31 10/22/32 12/24/29
f 10/22/32 6/21/27 12/24/29
g default
v 0.019539 1.738875 -0.058195
v -0.051155 1.753460 -0.040450
v -0.051155 1.800658 0.016975
v 0.019539 1.815242 0.034721
v 0.063231 1.777059 -0.011737
v 0.019539 2.715851 -0.861166
v -0.051155 2.730436 -0.843421
v -0.051155 2.777634 -0.785996
v 0.019539 2.792218 -0.768250
v 0.063231 2.754035 -0.814708
v 0.000000 1.777059 -0.011737
v 0.000000 3.095174 -1.394387
v 0.000000 2.263576 -0.471916
v -0.047003 2.305270 -0.493616
v -0.000000 2.346964 -0.515316
v 0.047003 2.305270 -0.493616
v 0.000000 1.818252 -1.429372
v 0.000000 2.504955 -0.661544
v -0.047003 2.504955 -0.614541
v -0.000000 2.504955 -0.567537
v 0.047003 2.504955 -0.614541
v 0.000000 3.559860 -0.614541
vt 0.548284 0.007647
vt 0.373591 0.064409
vt 0.373591 0.248091
vt 0.548284 0.304853
vt 0.656250 0.156250
vt 0.375000 0.312500
vt 0.425000 0.312500
vt 0.475000 0.312500
vt 0.525000 0.312500
vt 0.575000 0.312500
vt 0.625000 0.312500
vt 0.375000 0.688440
vt 0.425000 0.688440
vt 0.475000 0.688440
vt 0.525000 0.688440
vt 0.575000 0.688440
vt 0.625000 0.688440
vt 0.548284 0.695147
vt 0.373591 0.751909
vt 0.373591 0.935591
vt 0.548284 0.992353
vt 0.656250 0.843750
vt 0.500000 0.150000
vt 0.500000 0.837500
vt 0.500000 0.000000
vt 0.750000 0.250000
vt 0.500000 0.500000
vt 0.250000 0.250000
vt 0.250000 0.500000
vt 0.375000 0.500000
vt 0.500000 1.000000
vt 0.500000 0.500000
vt 0.625000 0.500000
vt 0.750000 0.500000
vt 0.500000 0.000000
vt 0.750000 0.250000
vt 0.500000 0.500000
vt 0.250000 0.250000
vt 0.250000 0.500000
vt 0.375000 0.500000
vt 0.500000 1.000000
vt 0.500000 0.500000
vt 0.625000 0.500000
vt 0.750000 0.500000
vn -0.309017 -0.603877 -0.734739
vn -0.309017 -0.603877 -0.734739
vn -0.309017 -0.603877 -0.734739
vn -0.309017 -0.603877 -0.734739
vn -1.000000 0.000000 0.000000
vn -1.000000 0.000000 0.000000
vn -1.000000 0.000000 0.000000
vn -1.000000 0.000000 0.000000
vn -0.309017 0.603878 0.734738
vn -0.309017 0.603878 0.734738
vn -0.309017 0.603878 0.734738
vn -0.309017 0.603878 0.734738
vn 0.809017 0.373217 0.454093
vn 0.809017 0.373217 0.454093
vn 0.809017 0.373217 0.454093
vn 0.809017 0.373217 0.454093
vn 0.809017 -0.373216 -0.454093
vn 0.809018 -0.373216 -0.454093
vn 0.809017 -0.373216 -0.454093
vn 0.809018 -0.373216 -0.454093
vn 0.000000 -0.772550 0.634954
vn 0.000000 -0.772552 0.634952
vn -0.000000 -0.772551 0.634953
vn -0.000000 -0.772549 0.634955
vn -0.000000 -0.772551 0.634953
vn 0.000000 -0.772551 0.634953
vn 0.335010 -0.761923 -0.554294
vn -0.861668 -0.382657 -0.333320
vn 0.001372 0.657027 -0.753866
vn -0.694291 0.660313 0.286263
vn 0.240616 0.876643 0.416655
vn 0.980322 0.197195 0.009117
vn 0.000000 0.461672 0.887051
vn 0.000000 0.461672 0.887051
vn 0.000000 0.461672 0.887051
vn 0.000000 0.461672 0.887051
vn -0.706755 -0.641468 0.298355
vn -0.706755 -0.641468 0.298354
vn -0.706755 -0.641468 0.298354
vn -0.706755 0.612391 -0.354222
vn -0.706755 0.612391 -0.354222
vn -0.706755 0.612392 -0.354222
vn 0.706755 0.612392 -0.354222
vn 0.706755 0.612392 -0.354222
vn 0.706755 0.612392 -0.354222
vn 0.706755 -0.641468 0.298354
vn 0.706755 -0.641468 0.298354
vn 0.706755 -0.641468 0.298354
vn 0.000000 -1.000000 0.000000
vn 0.000000 -1.000000 0.000000
vn 0.000000 -1.000000 0.000000
vn 0.000000 -1.000000 0.000000
vn -0.706756 0.031491 -0.706756
vn -0.706756 0.031491 -0.706756
vn -0.706756 0.031491 -0.706756
vn -0.706756 0.031491 0.706756
vn -0.706756 0.031491 0.706756
vn -0.706756 0.031491 0.706756
vn 0.706756 0.031491 0.706756
vn 0.706756 0.031491 0.706756
vn 0.706756 0.031491 0.706756
vn 0.706756 0.031491 -0.706756
vn 0.706756 0.031491 -0.706756
vn 0.706756 0.031491 -0.706756
s off
g pasted__pCylinder1
usemtl initialShadingGroup
f 13/30/33 14/31/34 19/37/35 18/36/36
f 14/31/37 15/32/38 20/38/39 19/37/40
f 15/32/41 16/33/42 21/39/43 20/38/44
f 16/33/45 17/34/46 22/40/47 21/39/48
f 17/34/49 13/35/50 18/41/51 22/40/52
s 1
f 14/26/53 13/25/54 23/47/55
f 15/27/56 14/26/53 23/47/55
f 16/28/57 15/27/56 23/47/55
f 17/29/58 16/28/57 23/47/55
f 13/25/54 17/29/58 23/47/55
s 2
f 18/45/59 19/44/60 24/48/61
f 19/44/60 20/43/62 24/48/61
f 20/43/62 21/42/63 24/48/61
f 21/42/63 22/46/64 24/48/61
f 22/46/64 18/45/59 24/48/61
s off
f 25/49/65 28/50/66 27/51/67 26/52/68
f 25/53/69 26/54/70 29/55/71
f 26/54/72 27/56/73 29/55/74
f 27/56/75 28/57/76 29/55/77
f 28/57/78 25/58/79 29/55/80
f 30/59/81 33/60/82 32/61/83 31/62/84
f 30/63/85 31/64/86 34/65/87
f 31/64/88 32/66/89 34/65/90
f 32/66/91 33/67/92 34/65/93
f 33/67/94 30/68/95 34/65/96
g default
v -0.013721 1.679221 -0.007635
v -0.074106 1.637715 0.004864
v -0.054552 1.581564 0.049472
v 0.017918 1.588366 0.064543
v 0.043152 1.648721 0.029249
v -0.290404 2.386289 1.003674
v -0.350789 2.344783 1.016173
v -0.331235 2.288631 1.060782
v -0.258765 2.295434 1.075853
v -0.233531 2.355789 1.040558
v -0.016262 1.627117 0.028098
v -0.589722 3.023940 1.534358
v -0.174681 2.035836 0.534375
v -0.226356 2.038155 0.576125
v -0.189697 2.072593 0.619585
v -0.138023 2.070274 0.577835
v -0.501388 2.955755 0.131827
v -0.240043 2.202307 0.783850
v -0.268128 2.142129 0.780920
v -0.207879 2.114071 0.779700
v -0.179795 2.174248 0.782631
v -0.226063 2.107864 1.835478
vt 0.548284 0.007647
vt 0.373591 0.064409
vt 0.373591 0.248091
vt 0.548284 0.304853
vt 0.656250 0.156250
vt 0.375000 0.312500
vt 0.425000 0.312500
vt 0.475000 0.312500
vt 0.525000 0.312500
vt 0.575000 0.312500
vt 0.625000 0.312500
vt 0.375000 0.688440
vt 0.425000 0.688440
vt 0.475000 0.688440
vt 0.525000 0.688440
vt 0.575000 0.688440
vt 0.625000 0.688440
vt 0.548284 0.695147
vt 0.373591 0.751909
vt 0.373591 0.935591
vt 0.548284 0.992353
vt 0.656250 0.843750
vt 0.500000 0.150000
vt 0.500000 0.837500
vt 0.500000 0.000000
vt 0.750000 0.250000
vt 0.500000 0.500000
vt 0.250000 0.250000
vt 0.250000 0.500000
vt 0.375000 0.500000
vt 0.500000 1.000000
vt 0.500000 0.500000
vt 0.625000 0.500000
vt 0.750000 0.500000
vt 0.500000 0.000000
vt 0.750000 0.250000
vt 0.500000 0.500000
vt 0.250000 0.250000
vt 0.250000 0.500000
vt 0.375000 0.500000
vt 0.500000 1.000000
vt 0.500000 0.500000
vt 0.625000 0.500000
vt 0.750000 0.500000
vn -0.540554 0.612857 -0.576375
vn -0.540554 0.612857 -0.576375
vn -0.540554 0.612857 -0.576375
vn -0.540554 0.612857 -0.576375
vn -0.939643 -0.341673 -0.018191
vn -0.939643 -0.341673 -0.018191
vn -0.939643 -0.341673 -0.018191
vn -0.939643 -0.341673 -0.018191
vn -0.040178 -0.824022 0.565132
vn -0.040178 -0.824022 0.565132
vn -0.040178 -0.824022 0.565132
vn -0.040178 -0.824022 0.565132
vn 0.914812 -0.167602 0.367463
vn 0.914812 -0.167602 0.367463
vn 0.914812 -0.167602 0.367463
vn 0.914812 -0.167602 0.367463
vn 0.605563 0.720438 -0.338027
vn 0.605563 0.720438 -0.338027
vn 0.605563 0.720438 -0.338027
vn 0.605563 0.720438 -0.338027
vn 0.218790 -0.559118 -0.799699
vn 0.218789 -0.559117 -0.799700
vn 0.218789 -0.559118 -0.799699
vn 0.218789 -0.559118 -0.799699
vn 0.218788 -0.559118 -0.799699
vn 0.218788 -0.559118 -0.799699
vn 0.137826 0.671011 -0.728525
vn -0.901066 0.013724 -0.433465
vn -0.274024 0.667925 0.691945
vn -0.549386 -0.580316 0.601173
vn 0.388205 -0.358084 0.849160
vn 0.919002 0.325331 0.222702
vn 0.302586 -0.854618 0.421984
vn 0.302586 -0.854618 0.421984
vn 0.302586 -0.854618 0.421984
vn 0.302586 -0.854618 0.421984
vn -0.560738 -0.490915 -0.666765
vn -0.560738 -0.490915 -0.666765
vn -0.560738 -0.490915 -0.666765
vn -0.786515 0.061783 0.614473
vn -0.786515 0.061783 0.614473
vn -0.786515 0.061783 0.614473
vn 0.541680 0.544740 0.640188
vn 0.541680 0.544740 0.640188
vn 0.541680 0.544740 0.640188
vn 0.767458 -0.007957 -0.641050
vn 0.767458 -0.007957 -0.641050
vn 0.767458 -0.007957 -0.641050
vn 0.001992 0.047706 -0.998860
vn 0.001992 0.047706 -0.998859
vn 0.001992 0.047706 -0.998859
vn 0.001992 0.047706 -0.998860
vn -0.905978 0.420386 0.049798
vn -0.905978 0.420386 0.049798
vn -0.905978 0.420386 0.049798
vn -0.422342 -0.906349 -0.012603
vn -0.422342 -0.906349 -0.012603
vn -0.422342 -0.906349 -0.012603
vn 0.905852 -0.423391 0.013112
vn 0.905852 -0.423391 0.013112
vn 0.905852 -0.423391 0.013112
vn 0.422220 0.903343 0.075513
vn 0.422220 0.903343 0.075513
vn 0.422220 0.903343 0.075513
s off
g group5_pasted__group_pasted__pasted__pCylinder1
usemtl initialShadingGroup
f 35/74/97 36/75/98 41/81/99 40/80/100
f 36/75/101 37/76/102 42/82/103 41/81/104
f 37/76/105 38/77/106 43/83/107 42/82/108
f 38/77/109 39/78/110 44/84/111 43/83/112
f 39/78/113 35/79/114 40/85/115 44/84/116
s 1
f 36/70/117 35/69/118 45/91/119
f 37/71/120 36/70/117 45/91/119
f 38/72/121 37/71/120 45/91/119
f 39/73/122 38/72/121 45/91/119
f 35/69/118 39/73/122 45/91/119
s 2
f 40/89/123 41/88/124 46/92/125
f 41/88/124 42/87/126 46/92/125
f 42/87/126 43/86/127 46/92/125
f 43/86/127 44/90/128 46/92/125
f 44/90/128 40/89/123 46/92/125
s off
f 47/93/129 50/94/130 49/95/131 48/96/132
f 47/97/133 48/98/134 51/99/135
f 48/98/136 49/100/137 51/99/138
f 49/100/139 50/101/140 51/99/141
f 50/101/142 47/102/143 51/99/144
f 52/103/145 55/104/146 54/105/147 53/106/148
f 52/107/149 53/108/150 56/109/151
f 53/108/152 54/110/153 56/109/154
f 54/110/155 55/111/156 56/109/157
f 55/111/158 52/112/159 56/109/160
g default
v -0.011255 1.206212 -0.030974
v -0.055782 1.179431 0.022181
v -0.048318 1.222540 0.082274
v 0.000822 1.275964 0.066259
v 0.023728 1.265872 -0.003732
v -0.950000 1.945629 -0.444815
v -0.994527 1.918849 -0.391661
v -0.987063 1.961958 -0.331568
v -0.937923 2.015381 -0.347583
v -0.915017 2.005289 -0.417574
v -0.018161 1.230004 0.027201
v -1.437598 2.738795 -0.685399
v -0.745871 1.776948 -0.324041
v -0.751209 1.753894 -0.261923
v -0.694270 1.784166 -0.245795
v -0.688932 1.807220 -0.307913
v -1.257778 2.645529 -0.010108
v -0.518746 1.593589 -0.229086
v -0.583049 1.599447 -0.213291
v -0.585074 1.658632 -0.243487
v -0.520771 1.652774 -0.259281
v -0.817314 1.154928 -1.142031
vt 0.548284 0.007647
vt 0.373591 0.064409
vt 0.373591 0.248091
vt 0.548284 0.304853
vt 0.656250 0.156250
vt 0.375000 0.312500
vt 0.425000 0.312500
vt 0.475000 0.312500
vt 0.525000 0.312500
vt 0.575000 0.312500
vt 0.625000 0.312500
vt 0.375000 0.688440
vt 0.425000 0.688440
vt 0.475000 0.688440
vt 0.525000 0.688440
vt 0.575000 0.688440
vt 0.625000 0.688440
vt 0.548284 0.695147
vt 0.373591 0.751909
vt 0.373591 0.935591
vt 0.548284 0.992353
vt 0.656250 0.843750
vt 0.500000 0.150000
vt 0.500000 0.837500
vt 0.500000 0.000000
vt 0.750000 0.250000
vt 0.500000 0.500000
vt 0.250000 0.250000
vt 0.250000 0.500000
vt 0.375000 0.500000
vt 0.500000 1.000000
vt 0.500000 0.500000
vt 0.625000 0.500000
vt 0.750000 0.500000
vt 0.500000 0.000000
vt 0.750000 0.250000
vt 0.500000 0.500000
vt 0.250000 0.250000
vt 0.250000 0.500000
vt 0.375000 0.500000
vt 0.500000 1.000000
vt 0.500000 0.500000
vt 0.625000 0.500000
vt 0.750000 0.500000
vn -0.300215 -0.726860 -0.617694
vn -0.300215 -0.726860 -0.617694
vn -0.300215 -0.726860 -0.617695
vn -0.300215 -0.726860 -0.617695
vn -0.662481 -0.567259 0.489220
vn -0.662481 -0.567259 0.489220
vn -0.662481 -0.567259 0.489220
vn -0.662481 -0.567259 0.489220
vn -0.109221 0.376274 0.920048
vn -0.109221 0.376274 0.920048
vn -0.109221 0.376274 0.920048
vn -0.109221 0.376274 0.920048
vn 0.594979 0.799810 0.079401
vn 0.594979 0.799810 0.079401
vn 0.594979 0.799810 0.079401
vn 0.594979 0.799810 0.079401
vn 0.476938 0.118036 -0.870975
vn 0.476938 0.118036 -0.870975
vn 0.476938 0.118036 -0.870975
vn 0.476938 0.118036 -0.870975
vn 0.742319 -0.584699 0.327246
vn 0.742318 -0.584699 0.327247
vn 0.742319 -0.584699 0.327247
vn 0.742319 -0.584699 0.327247
vn 0.742319 -0.584699 0.327247
vn 0.742318 -0.584699 0.327247
vn -0.108273 -0.348915 -0.930879
vn -0.835104 -0.517793 -0.185719
vn -0.637334 0.698491 -0.325447
vn -0.688302 -0.070330 0.722007
vn 0.372694 0.591365 0.715113
vn 0.795048 0.399916 -0.456033
vn 0.509721 -0.819951 -0.260508
vn 0.509721 -0.819951 -0.260508
vn 0.509721 -0.819951 -0.260508
vn 0.509721 -0.819951 -0.260508
vn -0.872211 -0.429360 -0.234302
vn -0.872211 -0.429360 -0.234302
vn -0.872211 -0.429360 -0.234302
vn -0.096318 -0.320825 0.942228
vn -0.096318 -0.320825 0.942228
vn -0.096318 -0.320825 0.942228
vn 0.840107 0.481003 0.250712
vn 0.840107 0.481003 0.250712
vn 0.840107 0.481003 0.250712
vn 0.064214 0.372466 -0.925822
vn 0.064214 0.372466 -0.925822
vn 0.064214 0.372466 -0.925822
vn 0.251589 0.446658 0.858603
vn 0.251589 0.446658 0.858603
vn 0.251589 0.446658 0.858603
vn 0.251589 0.446658 0.858603
vn 0.022528 -0.903978 0.426986
vn 0.022528 -0.903978 0.426986
vn 0.022528 -0.903978 0.426986
vn -0.974798 0.074018 0.210454
vn -0.974798 0.074018 0.210454
vn -0.974798 0.074018 0.210454
vn -0.038374 0.875847 -0.481061
vn -0.038374 0.875847 -0.481061
vn -0.038374 0.875847 -0.481061
vn 0.958952 -0.102151 -0.264530
vn 0.958952 -0.102151 -0.264530
vn 0.958952 -0.102151 -0.264530
s off
g group6_pasted__group_pasted__pasted__pCylinder1
usemtl initialShadingGroup
f 57/118/161 58/119/162 63/125/163 62/124/164
f 58/119/165 59/120/166 64/126/167 63/125/168
f 59/120/169 60/121/170 65/127/171 64/126/172
f 60/121/173 61/122/174 66/128/175 65/127/176
f 61/122/177 57/123/178 62/129/179 66/128/180
s 1
f 58/114/181 57/113/182 67/135/183
f 59/115/184 58/114/181 67/135/183
f 60/116/185 59/115/184 67/135/183
f 61/117/186 60/116/185 67/135/183
f 57/113/182 61/117/186 67/135/183
s 2
f 62/133/187 63/132/188 68/136/189
f 63/132/188 64/131/190 68/136/189
f 64/131/190 65/130/191 68/136/189
f 65/130/191 66/134/192 68/136/189
f 66/134/192 62/133/187 68/136/189
s off
f 69/137/193 72/138/194 71/139/195 70/140/196
f 69/141/197 70/142/198 73/143/199
f 70/142/200 71/144/201 73/143/202
f 71/144/203 72/145/204 73/143/205
f 72/145/206 69/146/207 73/143/208
f 74/147/209 77/148/210 76/149/211 75/150/212
f 74/151/213 75/152/214 78/153/215
f 75/152/216 76/154/217 78/153/218
f 76/154/219 77/155/220 78/153/221
f 77/155/222 74/156/223 78/153/224
