# This file uses centimeters as units for non-parametric coordinates.

mtllib Arrow.mtl
g default
v 0.037041 7.151555 -3.861896
v 0.037504 7.201433 -3.861896
v 0.037967 7.251310 -3.861896
v 0.043804 7.151493 -3.639771
v 0.049666 7.157286 -3.449048
v 0.004093 7.103179 -3.860906
v -0.045761 7.103641 -3.859388
v -0.095616 7.104104 -3.857870
v 0.010856 7.103116 -3.638781
v 0.010818 7.103116 -3.447880
v 0.068459 7.102582 -3.862866
v 0.118313 7.102119 -3.864384
v 0.168167 7.101656 -3.865902
v 0.075222 7.102519 -3.640741
v 0.086873 7.102411 -3.450196
v 0.204662 7.091836 0.676347
v 0.175942 7.082127 0.677219
v 0.147407 7.092367 0.678091
v 0.135773 7.116559 0.678452
v 0.143100 7.140577 0.678236
v 0.176885 7.150239 0.677210
v 0.210485 7.139952 0.676184
v 0.216744 7.115807 0.675986
v 0.185368 7.144772 1.025413
v 0.071564 7.117943 1.028870
v 0.184851 7.089006 1.025413
v 0.298655 7.115835 1.021956
v 0.204009 7.116714 1.646173
v 0.178960 7.100174 0.822598
v 0.221612 7.116391 0.865203
v 0.180737 7.134843 0.869358
v 0.139867 7.117149 0.862836
v 0.175910 7.071402 0.714374
v 0.220563 7.118936 0.718191
v 0.177389 7.164857 0.725457
v 0.133680 7.119855 0.729782
v 0.179258 7.160584 0.797121
v 0.139281 7.118501 0.790222
v 0.177433 7.070456 0.770362
v 0.218644 7.117704 0.795703
v 0.120447 7.131853 1.027386
v 0.143009 7.126975 0.883020
v 0.143074 7.147192 0.795829
v 0.138346 7.152750 0.725876
v 0.245134 7.131722 1.023590
v 0.216710 7.127369 0.882926
v 0.214181 7.148478 0.799874
v 0.212365 7.154257 0.722326
v 0.237530 7.101425 1.023813
v 0.210286 7.104346 0.868981
v 0.205493 7.081978 0.779698
v 0.207737 7.081880 0.713355
v 0.131354 7.102671 1.027046
v 0.156164 7.102762 0.862220
v 0.151430 7.081957 0.775698
v 0.148744 7.078709 0.719736
v 0.154301 7.085724 0.836769
v 0.178651 7.077652 0.813864
v 0.208404 7.087544 0.842185
v 0.220674 7.116950 0.848051
v 0.216034 7.142813 0.859168
v 0.180148 7.153237 0.836685
v 0.143593 7.141468 0.857244
v 0.140090 7.117727 0.844166
v 0.072731 7.087119 -3.945899
v 0.038631 7.068425 -3.905998
v -0.005283 7.088474 -3.945078
v -0.007071 7.118565 -3.939129
v 0.006679 7.149459 -3.941019
v 0.034243 7.160498 -3.901059
v 0.067124 7.143310 -3.941694
v 0.078075 7.120854 -3.941208
v 0.036575 7.110465 -3.903129
v 0.034665 7.149674 -3.902078
v 0.060111 7.136244 -3.944283
v 0.069315 7.118804 -3.944100
v 0.064478 7.092256 -3.946419
v 0.038164 7.077162 -3.904587
v 0.002606 7.092834 -3.945303
v 0.001762 7.116897 -3.942339
v 0.012455 7.141480 -3.943379
v 0.035009 7.143519 -3.894327
v 0.056949 7.131634 -3.930701
v 0.065591 7.116788 -3.931433
v 0.060935 7.093587 -3.932888
v 0.038063 7.080212 -3.896519
v 0.006917 7.093979 -3.932180
v 0.006365 7.115021 -3.929373
v 0.015507 7.136634 -3.930555
v 0.026164 7.123397 -3.916683
v 0.020197 7.112935 -3.917357
v 0.021029 7.101823 -3.918357
v 0.037415 7.093394 -3.899399
v 0.050214 7.101015 -3.919790
v 0.053943 7.114250 -3.920070
v 0.047642 7.121963 -3.918105
v 0.035745 7.127991 -3.898462
vt 0.810101 0.515093
vt 0.810101 0.790652
vt 0.810101 0.966592
vt 0.443770 0.751331
vt 0.130684 0.870347
vt 0.810101 0.515093
vt 0.810101 0.790652
vt 0.130684 0.870347
vt 0.443770 0.751331
vt 0.810101 0.966592
vt 0.810101 0.515093
vt 0.810101 0.790652
vt 0.130684 0.870347
vt 0.443770 0.751331
vt 0.810101 0.966592
vt 0.179070 0.311511
vt 0.130511 0.213205
vt 0.238898 0.256318
vt 0.180655 0.171823
vt 0.492667 0.608697
vt 0.316865 0.214920
vt 0.402528 0.175378
vt 0.491428 0.592639
vt 0.171863 0.315524
vt 0.237425 0.262030
vt 0.304393 0.213124
vt 0.388413 0.167406
vt 0.259688 0.110910
vt 0.239261 0.136139
vt 0.214839 0.144901
vt 0.134172 0.198791
vt 0.151476 0.151798
vt 0.236103 0.107700
vt 0.227349 0.104643
vt 0.197420 0.133312
vt 0.129292 0.194572
vt 0.168479 0.153163
vt 0.221151 0.127631
vt 0.248372 0.102336
vt 0.238570 0.094521
vt 0.124997 0.180918
vt 0.147030 0.144028
vt 0.214373 0.064935
vt 0.190763 0.097510
vt 0.185978 0.028619
vt 0.158239 0.059310
vt 0.102608 0.144231
vt 0.085618 0.111319
vt 0.131584 0.119743
vt 0.112933 0.089065
vt 0.207556 0.077229
vt 0.168412 0.102429
vt 0.178497 0.032454
vt 0.144899 0.063430
vt 0.113195 0.156871
vt 0.089810 0.111134
vt 0.151875 0.129609
vt 0.125858 0.089984
vt 0.109325 0.384769
vt 0.092399 0.212352
vt 0.089379 0.201459
vt 0.072012 0.170944
vt 0.043981 0.123934
vt 0.106883 0.383802
vt 0.081031 0.199171
vt 0.080232 0.210053
vt 0.039441 0.133494
vt 0.063056 0.168882
vt 0.124930 0.045584
vt 0.149541 0.016991
vt 0.035641 0.092504
vt 0.072400 0.081905
vt 0.102678 0.065204
vt 0.127813 0.039545
vt 0.150073 0.006817
vt 0.069839 0.085590
vt 0.035185 0.095931
vt 0.098690 0.068057
vt 0.096760 0.228990
vt 0.096489 0.227813
vt 0.243010 0.119468
vt 0.950463 0.974866
vt 0.938771 0.974688
vt 0.950554 0.043080
vt 0.964660 0.044182
vt 0.927078 0.974583
vt 0.934223 0.043504
vt 0.915385 0.974519
vt 0.920707 0.044617
vt 0.903692 0.974442
vt 0.906134 0.044224
vt 0.891999 0.974380
vt 0.896322 0.043684
vt 0.880305 0.974360
vt 0.882982 0.044384
vt 0.868612 0.974342
vt 0.872337 0.044532
vt 0.962154 0.975078
vt 0.979874 0.045430
vt 0.827512 0.098145
vt 0.743564 0.054295
vt 0.853661 0.042365
vt 0.746904 0.062086
vt 0.737959 0.126442
vt 0.746283 0.090926
vt 0.745514 0.087016
vt 0.740760 0.126258
vt 0.847437 0.149197
vt 0.714950 0.042216
vt 0.706575 0.054254
vt 0.830446 0.031979
vt 0.833447 0.013712
vt 0.717419 0.079956
vt 0.707974 0.083554
vt 0.702933 0.136993
vt 0.700623 0.128449
vt 0.819156 0.169088
vt 0.823325 0.154344
vt 0.698286 0.135927
vt 0.698327 0.128443
vt 0.707093 0.087831
vt 0.715886 0.085154
vt 0.704936 0.046161
vt 0.711459 0.032781
vt 0.786026 0.076475
vt 0.783475 0.094231
vt 0.780570 0.112978
vt 0.838755 0.126952
vt 0.778942 0.113885
vt 0.778432 0.091483
vt 0.783729 0.078559
vt 0.841376 0.068570
vn 0.999494 -0.009274 -0.030434
vn 0.999494 -0.009274 -0.030434
vn 0.999494 -0.009274 -0.030434
vn 0.999494 -0.009274 -0.030434
vn 0.999494 -0.009274 -0.030434
vn 0.009278 0.999957 -0.000000
vn 0.009278 0.999957 0.000000
vn 0.009278 0.999957 0.000000
vn 0.009278 0.999957 -0.000000
vn 0.009278 0.999957 0.000000
vn -0.009278 -0.999957 0.000000
vn -0.009278 -0.999957 0.000000
vn -0.009278 -0.999957 0.000000
vn -0.009278 -0.999957 0.000000
vn -0.009278 -0.999957 0.000000
vn 0.249035 0.965169 -0.080188
vn 0.345033 0.934188 -0.090799
vn -0.002974 0.997642 -0.068570
vn -0.014469 0.997193 0.073464
vn -0.222080 0.973543 0.053809
vn -0.230652 0.971485 0.054917
vn -0.271517 0.960551 0.060168
vn -0.245704 -0.968014 0.050790
vn -0.245704 -0.968013 0.050790
vn -0.245704 -0.968013 0.050790
vn 0.230351 -0.972431 0.036294
vn 0.230351 -0.972431 0.036294
vn 0.230351 -0.972431 0.036294
vn 0.246326 0.968377 0.039615
vn 0.251040 0.967154 0.039897
vn 0.214270 0.976047 0.037682
vn -0.860089 -0.430431 -0.273818
vn -0.863155 -0.465078 -0.196634
vn -0.339299 0.937524 -0.076970
vn 0.321460 -0.944229 -0.071377
vn 0.893332 -0.360132 -0.268817
vn 0.227105 -0.972077 -0.059080
vn -0.247618 -0.967978 -0.041289
vn -0.322330 -0.946090 -0.031909
vn -0.011089 -0.989294 0.145517
vn 0.915422 -0.201260 -0.348565
vn 0.911822 -0.410492 0.008783
vn 0.503379 -0.822453 0.264915
vn 0.541066 0.805815 0.240644
vn 0.179018 0.958323 0.222644
vn -0.528798 0.812631 0.244957
vn -0.990718 0.135070 0.015324
vn -0.567731 -0.778380 0.267966
vn -0.120607 -0.954220 0.273713
vn -0.991010 0.119124 0.060899
vn -0.694632 0.713345 0.092877
vn -0.986758 0.139615 0.082556
vn -0.686041 0.720151 0.103584
vn -0.776084 -0.624610 0.086925
vn -0.721095 -0.690997 0.050438
vn -0.355419 -0.930501 0.088577
vn -0.261451 -0.965173 -0.009196
vn 0.935867 -0.352347 -0.002296
vn 0.753120 -0.657159 0.030861
vn 0.939927 -0.340402 0.025763
vn 0.728289 -0.684791 0.025644
vn 0.727239 0.684991 0.043710
vn 0.743660 0.667289 0.041165
vn 0.312806 0.945327 0.092245
vn 0.293722 0.954621 0.049261
vn -0.193449 0.979830 0.050097
vn -0.236549 0.969115 -0.069717
vn -0.216952 0.948820 0.229507
vn -0.315325 0.945300 0.083530
vn -0.348463 0.931380 0.105382
vn 0.285479 0.957467 0.041938
vn 0.984429 0.173825 -0.026160
vn 0.986190 0.165231 -0.011356
vn 0.974440 0.222939 0.027668
vn 0.230351 -0.972430 0.036295
vn 0.097571 -0.954823 0.280700
vn 0.334437 -0.942417 0.001125
vn 0.370188 -0.928365 0.033144
vn -0.245703 -0.968014 0.050790
vn -0.885564 -0.459544 0.067791
vn -0.933892 -0.350245 0.071931
vn -0.933101 -0.354634 0.059636
vn 0.957279 -0.287732 -0.028752
vn 0.957383 -0.287417 -0.028443
vn 0.926397 -0.361606 -0.105018
vn 0.945648 -0.319243 -0.061917
vn 0.937897 0.345728 -0.028662
vn 0.938007 0.345410 -0.028914
vn 0.964160 0.241127 -0.110692
vn 0.964891 0.237175 -0.112845
vn 0.375984 0.926553 -0.011675
vn 0.375853 0.926603 -0.011906
vn 0.262344 0.920897 -0.288313
vn 0.254925 0.924678 -0.282815
vn -0.326207 0.945245 0.010057
vn -0.326245 0.945233 0.009982
vn -0.281131 0.921065 -0.269451
vn -0.288256 0.920452 -0.263963
vn -0.933000 0.358816 0.027616
vn -0.933153 0.358391 0.027956
vn -0.980358 0.178796 -0.083244
vn -0.989693 0.134569 -0.048986
vn -0.969213 -0.244352 0.030292
vn -0.931252 -0.362230 -0.039495
vn -0.969240 -0.244218 0.030527
vn -0.940210 -0.340196 -0.016478
vn -0.391860 -0.919931 0.013159
vn -0.315460 -0.907706 -0.276685
vn -0.391833 -0.919942 0.013216
vn -0.301399 -0.908841 -0.288388
vn 0.406187 -0.913723 -0.011066
vn 0.406194 -0.913720 -0.011016
vn 0.297231 -0.916493 -0.267758
vn 0.293171 -0.916843 -0.271016
vn -0.013552 -0.998417 -0.054582
vn 0.406540 -0.913578 -0.010063
vn 0.406540 -0.913577 -0.010063
vn -0.392009 -0.919853 0.014106
vn -0.392009 -0.919853 0.014106
vn -0.969450 -0.243316 0.031054
vn -0.969450 -0.243316 0.031054
vn -0.932840 0.359152 0.028627
vn -0.932840 0.359152 0.028627
vn -0.326462 0.945136 0.011872
vn -0.326462 0.945136 0.011872
vn 0.376396 0.926401 -0.010334
vn 0.376396 0.926401 -0.010334
vn 0.937757 0.346135 -0.028323
vn 0.937757 0.346135 -0.028323
vn 0.957510 -0.287032 -0.028053
vn 0.957510 -0.287032 -0.028053
vn 0.020668 0.258183 -0.965875
vn 0.786738 -0.013407 -0.617142
vn 0.836908 -0.285542 -0.466959
vn -0.022307 -0.287898 -0.957401
vn -0.825845 -0.340179 -0.449731
vn -0.792902 -0.029612 -0.608630
vn 0.642930 -0.106175 -0.758530
vn 0.707530 -0.028568 -0.706105
vn 0.805623 0.365220 -0.466462
vn 0.818575 -0.136072 -0.558050
vn -0.871417 -0.055532 -0.487390
vn -0.857808 0.311998 -0.408439
vn -0.780163 -0.023799 -0.625123
vn -0.694078 -0.033893 -0.719101
vn 0.021643 0.416967 -0.908664
vn 0.000388 -0.213429 -0.976959
vn -0.488534 0.348003 -0.800143
vn -0.673055 0.025651 -0.739147
vn -0.040367 0.010122 -0.999134
vn 0.098179 0.525516 -0.845100
vn 0.235881 0.096848 -0.966944
vn -0.443330 -0.000419 -0.896358
vn -0.385692 -0.236137 -0.891898
vn -0.651619 -0.033982 -0.757785
vn -0.052769 -0.430143 -0.901217
vn -0.034705 0.274477 -0.960967
vn 0.348667 -0.140561 -0.926646
vn 0.602419 0.010004 -0.798117
vn 0.471584 -0.052480 -0.880258
vn -0.267940 0.113506 -0.956726
vn 0.630345 0.026664 -0.775857
vn 0.537406 0.322203 -0.779346
vn -0.069619 -0.042023 -0.996688
s 1
g arrow
usemtl phong1SG
f 1/1/1 2/2/2 5/5/3 4/4/4
f 2/2/2 3/3/5 5/5/3
s 2
f 6/6/6 7/7/7 10/8/8 9/9/9
f 7/7/7 8/10/10 10/8/8
s 3
f 11/11/11 12/12/12 15/13/13 14/14/14
f 12/12/12 13/15/15 15/13/13
s 4
f 45/16/16 46/17/17 24/18/18
f 24/18/18 46/17/17 31/19/19
s 5
f 28/20/20 41/21/21 25/22/22
s 6
f 28/23/23 53/24/24 26/25/25
s 7
f 28/23/26 49/26/27 27/27/28
s 8
f 28/20/29 45/16/30 24/18/31
s 4
f 32/28/32 25/22/33 42/29/34
f 50/30/35 27/27/36 49/26/37
f 53/24/38 54/31/39 29/32/40
f 30/33/41 50/30/35 60/34/42
f 60/34/42 50/30/35 59/35/43
f 46/17/17 61/36/44 31/19/19
f 31/19/19 61/36/44 62/37/45
f 42/29/34 63/38/46 32/39/32
f 32/39/32 63/38/46 64/40/47
f 54/31/39 57/41/48 29/32/40
f 29/32/40 57/41/48 58/42/49
f 38/43/50 43/44/51 36/45/52
f 36/45/52 43/44/51 44/46/53
f 55/47/54 56/48/55 39/49/56
f 39/49/56 56/48/55 33/50/57
f 40/51/58 51/52/59 34/53/60
f 34/53/60 51/52/59 52/54/61
f 47/55/62 48/56/63 37/57/64
f 37/57/64 48/56/63 35/58/65
s 5
f 24/18/66 41/21/21 28/20/20
s 4
f 41/21/67 24/18/18 42/29/34
f 42/29/34 24/18/18 31/19/19
f 42/29/34 31/19/19 63/38/46
f 63/38/46 31/19/19 62/37/68
f 44/46/53 43/44/51 35/58/69
f 35/58/69 43/44/51 37/57/70
s 8
f 27/59/71 45/16/30 28/20/29
s 4
f 27/59/36 46/17/17 45/16/16
f 46/17/17 30/60/41 61/36/44
f 61/36/44 30/60/41 60/61/72
f 47/55/62 40/62/73 48/56/63
f 48/56/63 40/62/73 34/63/74
s 7
f 26/25/75 49/26/27 28/23/26
s 4
f 50/30/35 49/26/37 29/32/40
f 50/30/35 29/32/40 59/35/43
f 59/35/43 29/32/40 58/42/76
f 52/54/61 51/52/59 33/50/77
f 33/50/77 51/52/59 39/49/78
s 6
f 25/64/79 53/24/24 28/23/23
s 4
f 25/64/33 54/31/39 53/24/38
f 57/41/48 54/31/39 64/65/80
f 64/65/80 54/31/39 32/66/32
f 56/48/55 55/47/54 36/67/81
f 36/67/81 55/47/54 38/68/82
s 16
f 16/69/83 23/70/84 52/54/85
f 52/54/85 23/70/84 34/53/86
s 17
f 23/71/87 22/72/88 34/63/89
f 34/63/89 22/72/88 48/56/90
s 18
f 22/72/91 21/73/92 48/56/93
f 48/56/93 21/73/92 35/58/94
s 19
f 21/73/95 20/74/96 35/58/97
f 35/58/97 20/74/96 44/46/98
s 20
f 20/74/99 19/75/100 44/46/101
f 44/46/101 19/75/100 36/45/102
s 21
f 18/76/103 56/48/104 19/77/105
f 19/77/105 56/48/104 36/67/106
s 22
f 17/78/107 33/50/108 18/76/109
f 18/76/109 33/50/108 56/48/110
s 23
f 17/78/111 16/69/112 33/50/113
f 33/50/113 16/69/112 52/54/114
s 4
f 57/41/48 55/47/54 58/42/49
f 58/42/49 55/47/54 39/49/56
f 59/35/43 58/42/76 51/52/59
f 51/52/59 58/42/76 39/49/78
f 60/34/42 59/35/43 40/51/58
f 40/51/58 59/35/43 51/52/59
f 61/36/44 60/61/72 47/55/62
f 47/55/62 60/61/72 40/62/73
f 61/36/44 47/55/62 62/37/45
f 62/37/45 47/55/62 37/57/64
f 63/38/46 62/37/68 43/44/51
f 43/44/51 62/37/68 37/57/70
f 63/38/46 43/44/51 64/40/47
f 64/40/47 43/44/51 38/43/50
f 55/47/54 57/41/48 38/68/82
f 38/68/82 57/41/48 64/65/80
f 30/79/41 46/17/17 27/59/36
f 42/29/34 25/22/33 41/21/67
f 29/32/40 49/26/37 26/25/115
f 53/24/38 29/32/40 26/25/115
f 32/80/32 54/31/39 25/64/33
f 30/81/41 27/27/36 50/30/35
s 23
f 16/82/112 17/83/111 66/84/116 65/85/117
s 22
f 17/83/107 18/86/109 67/87/118 66/84/119
s 21
f 18/86/103 19/88/105 68/89/120 67/87/121
s 20
f 19/88/100 20/90/99 69/91/122 68/89/123
s 19
f 20/90/96 21/92/95 70/93/124 69/91/125
s 18
f 21/92/92 22/94/91 71/95/126 70/93/127
s 17
f 22/94/88 23/96/87 72/97/128 71/95/129
s 16
f 23/98/84 16/82/83 65/85/130 72/99/131
s 24
f 97/132/132 90/125/133 89/101/134 82/102/135
f 82/102/135 83/103/136 96/131/137 97/132/132
f 91/126/138 92/127/139 87/104/140 88/105/141
f 84/106/142 85/107/143 94/129/144 95/130/145
f 85/107/143 86/108/146 93/128/147 94/129/144
f 86/108/146 87/104/140 92/127/139 93/128/147
f 90/125/133 91/126/138 88/105/141 89/101/134
f 83/103/136 84/106/142 95/130/145 96/131/137
f 71/109/148 75/110/149 74/111/150 70/112/151
f 72/113/152 76/114/153 75/110/149 71/109/148
f 65/115/154 77/116/155 76/114/153 72/113/152
f 66/117/156 78/118/157 77/116/155 65/115/154
f 66/117/156 67/119/158 79/120/159 78/118/157
f 80/121/160 79/120/159 67/119/158 68/122/161
f 81/123/162 80/121/160 68/122/161 69/124/163
f 74/111/150 81/123/162 69/124/163 70/112/151
f 74/111/150 75/110/149 83/103/136 82/102/135
f 75/110/149 76/114/153 84/106/142 83/103/136
f 76/114/153 77/116/155 85/107/143 84/106/142
f 77/116/155 78/118/157 86/108/146 85/107/143
f 78/118/157 79/120/159 87/104/140 86/108/146
f 88/105/141 87/104/140 79/120/159 80/121/160
f 89/101/134 88/105/141 80/121/160 81/123/162
f 82/102/135 89/101/134 81/123/162 74/111/150
f 73/100/164 91/126/138 90/125/133
f 73/100/164 92/127/139 91/126/138
f 93/128/147 92/127/139 73/100/164
f 94/129/144 93/128/147 73/100/164
f 95/130/145 94/129/144 73/100/164
f 96/131/137 95/130/145 73/100/164
f 97/132/132 96/131/137 73/100/164
f 73/100/164 90/125/133 97/132/132
