# This file uses centimeters as units for non-parametric coordinates.

mtllib Board.mtl
g default
v 0.500000 -3.000000 -4.000000
v 0.500000 -3.000000 4.000000
v -0.500000 -3.000000 3.999999
v -0.500000 -3.000000 -4.000001
v 0.500000 3.000000 -3.999998
v 0.500000 3.000000 4.000002
v -0.500000 3.000000 3.999999
v -0.500000 3.000000 -4.000000
v 0.500000 -2.777858 -3.703810
v 0.500000 -2.777858 3.703811
v 0.500000 2.777858 -3.703809
v 0.500000 2.777858 3.703813
v 0.335608 -2.777858 -3.703810
v 0.335608 -2.777858 3.703811
v 0.335608 2.777858 -3.703809
v 0.335607 2.777858 3.703813
vt 0.049230 0.952637
vt 0.048214 0.612610
vt 0.057698 0.625170
vt 0.058634 0.940019
vt 0.303296 0.611713
vt 0.293890 0.624335
vt 0.304259 0.951869
vt 0.294779 0.939303
vt 0.108874 0.689605
vt 0.244440 0.688902
vt 0.245378 0.869657
vt 0.109811 0.870360
vt 0.287788 0.939323
vt 0.058613 0.933031
vt 0.993729 0.847554
vt 0.286900 0.624354
vt 0.303146 0.569199
vt 0.346785 0.951752
vt 0.049355 0.995144
vt 0.005711 0.612736
vt 0.359530 0.846226
vt 0.361301 0.000626
vt 0.995499 0.001957
vt 0.057724 0.632159
vt 0.065621 0.939998
vt 0.294757 0.932316
vt 0.064685 0.625149
vt 0.293915 0.631324
vt 0.048055 0.570094
vt 0.006726 0.952763
vt 0.304387 0.994376
vt 0.345813 0.611593
vn 0.000000 -1.000000 0.000000
vn 0.000000 -1.000000 0.000000
vn 0.000000 -1.000000 0.000000
vn 0.000000 -1.000000 0.000000
vn 0.000000 1.000000 0.000000
vn 0.000000 1.000000 0.000000
vn 0.000000 1.000000 0.000000
vn 0.000000 1.000000 0.000000
vn 1.000000 0.000000 0.000000
vn 1.000000 0.000000 0.000000
vn 1.000000 0.000000 0.000000
vn 1.000000 0.000000 0.000000
vn 0.000000 0.000000 1.000000
vn 0.000000 0.000000 1.000000
vn 0.000000 0.000000 1.000000
vn 0.000000 0.000000 1.000000
vn -1.000000 0.000000 0.000000
vn -1.000000 0.000000 0.000000
vn -1.000000 0.000000 0.000000
vn -1.000000 0.000000 0.000000
vn 0.000000 0.000000 -1.000000
vn 0.000000 0.000000 -1.000000
vn 0.000000 0.000000 -1.000000
vn 0.000000 0.000000 -1.000000
vn 0.000000 0.000000 -1.000000
vn 0.000000 0.000000 -1.000000
vn 0.000000 0.000000 -1.000000
vn 0.000000 0.000000 -1.000000
vn 1.000000 0.000000 0.000000
vn 1.000000 0.000000 0.000000
vn 1.000000 0.000000 0.000000
vn 1.000000 0.000000 0.000000
vn 1.000000 0.000000 0.000000
vn 1.000000 0.000000 0.000000
vn 1.000000 0.000000 0.000000
vn 1.000000 0.000000 0.000000
vn 1.000000 0.000000 0.000000
vn 1.000000 0.000000 0.000000
vn 1.000000 0.000000 0.000000
vn 1.000000 0.000000 0.000000
vn 1.000000 0.000000 0.000000
vn 1.000000 0.000000 0.000000
vn 1.000000 0.000000 0.000000
vn 1.000000 0.000000 0.000000
vn 0.000000 1.000000 0.000000
vn 0.000000 1.000000 0.000000
vn 0.000000 1.000000 0.000000
vn 0.000000 1.000000 0.000000
vn 0.000000 -1.000000 0.000000
vn 0.000000 -1.000000 0.000000
vn 0.000000 -1.000000 0.000000
vn 0.000000 -1.000000 0.000000
vn 0.000000 0.000000 1.000000
vn 0.000000 0.000000 1.000000
vn 0.000000 0.000000 1.000000
vn 0.000000 0.000000 1.000000
s off
g Board:Mesh
usemtl phong1SG
f 1/7/1 2/5/2 3/32/3 4/18/4
f 5/1/5 8/30/6 7/20/7 6/2/8
f 5/1/9 6/2/10 12/3/11 11/4/12
f 2/5/13 6/2/14 7/29/15 3/17/16
f 3/9/17 7/10/18 8/11/19 4/12/20
f 5/1/21 1/7/22 4/31/23 8/19/24
f 12/3/25 10/6/26 14/28/27 16/24/28
f 6/2/29 2/5/30 10/6/31 12/3/32
f 1/7/33 5/1/34 11/4/35 9/8/36
f 2/5/37 1/7/38 9/8/39 10/6/40
f 13/22/41 15/23/42 16/15/43 14/21/44
f 10/6/45 9/8/46 13/13/47 14/16/48
f 11/4/49 12/3/50 16/27/51 15/25/52
f 9/8/53 11/4/54 15/14/55 13/26/56
