# This file uses centimeters as units for non-parametric coordinates.

mtllib Cereal Box 1.mtl
g default
v -0.379754 -0.379754 0.905624
v 0.379754 -0.379754 0.905624
v -0.379754 2.500987 0.905624
v 0.379754 2.500987 0.905624
v -0.379754 2.500987 -0.905624
v 0.379754 2.500987 -0.905624
v -0.379754 -0.379754 -0.905624
v 0.379754 -0.379754 -0.905624
v -0.367266 2.500987 0.896159
v 0.367266 2.500987 0.896159
v 0.367266 2.500987 -0.896159
v -0.367266 2.500987 -0.896159
v -0.367266 -0.329391 0.896159
v 0.367266 -0.329391 0.896159
v 0.367266 -0.329391 -0.896159
v -0.367266 -0.329391 -0.896159
v -0.201891 3.005340 0.905623
v 0.201891 3.005340 0.905623
v 0.195252 3.005340 0.896158
v -0.195252 3.005340 0.896158
v -0.201891 3.005340 -0.905623
v 0.201891 3.005340 -0.905623
v -0.195252 3.005340 -0.896158
v 0.195252 3.005340 -0.896158
v 0.379754 2.916864 0.802301
v 0.379754 2.916864 -0.802301
v 0.367266 2.916864 -0.793916
v 0.367266 2.916864 0.793916
v -0.379754 2.855695 0.802301
v -0.379754 2.855695 -0.802301
v -0.367266 2.855695 0.793916
v -0.367266 2.855695 -0.793916
v -0.367266 2.752069 0.000000
v -0.379754 2.752069 0.000000
v -0.379754 2.752069 0.197125
v -0.367266 2.752069 0.202015
v -0.379754 2.752069 -0.197125
v -0.367266 2.752069 -0.202015
v 0.367266 2.916864 -0.202015
v 0.379754 2.916864 -0.197125
v 0.367266 2.916864 0.202015
v 0.379754 2.916864 0.197125
v 0.367266 3.076685 0.161710
v 0.379754 3.076685 0.157795
v 0.379754 3.076685 -0.157795
v 0.367266 3.076685 -0.161710
v -0.379754 2.855695 -0.199077
v -0.367266 2.855695 -0.204015
v -0.367266 2.855695 0.205223
v -0.379754 2.855695 0.200255
vt 0.093454 0.091917
vt 0.093677 0.001740
vt 0.033104 0.459248
vt 0.434206 0.613046
vt 0.434959 0.307815
vt 0.832280 -0.020116
vt 0.002523 0.396926
vt 0.092701 0.397148
vt 0.001992 0.611979
vt 0.092170 0.612202
vt 0.434737 0.397992
vt 0.092923 0.306971
vt 0.925448 0.784201
vt 1.004922 0.297676
vt 0.926108 0.484182
vt 0.059284 0.185270
vt 0.503308 0.270444
vt 0.590520 0.270636
vt 0.590052 0.483442
vt 0.589859 0.570655
vt 0.614857 0.295472
vt 0.589172 0.256457
vt 0.985183 0.851122
vt 0.615308 0.294216
vt 0.553050 0.289691
vt 0.528463 0.249810
vt 0.985844 0.551103
vt 0.553615 0.288475
vt 0.483614 0.600900
vt 0.835919 0.030591
vt 0.975513 0.472152
vt 0.964526 0.266779
vt 0.477105 0.295651
vt 0.060494 0.425031
vt 0.967589 0.772154
vt 0.078723 0.224559
vt 0.080381 0.324266
vt 0.465094 0.176957
vt 0.081688 0.341691
vt 0.923602 0.193819
vt 0.079847 0.306244
vt 0.975668 0.401874
vt 0.888240 0.127955
vt 0.925300 0.193538
vt 0.483792 0.529046
vt 0.920185 0.174641
vt 0.918667 0.174919
vt 0.502779 0.524423
vt 0.901651 0.142130
vt 0.994654 0.397130
vt 0.085174 0.294903
vt 0.083644 0.294499
vt 0.081401 0.354009
vt 0.083020 0.353983
vt 0.975773 0.353903
vt 0.464979 0.223767
vt 0.465036 0.200362
vt 0.083070 0.307047
vt 0.085267 0.324739
vt 0.589391 0.783461
vt 0.502839 0.483250
vt 0.925916 0.571395
vt 0.925255 0.871413
vt 0.435490 0.092762
vt 0.671923 0.322266
vt 0.926577 0.271377
vt 0.975928 0.283625
vt 0.605492 0.324668
vt 0.967743 0.702257
vt 0.477399 0.176615
vt 0.083010 0.341684
vt 0.955441 0.701849
vt 0.477282 0.224029
vt 0.967850 0.653667
vt 0.080161 0.223529
vt 0.994739 0.358730
vt 0.902725 0.141023
vt 0.502872 0.486953
vt 0.889595 0.126474
vt 0.483907 0.482236
vt 0.838156 0.030734
vt 0.955546 0.653878
vt 0.955494 0.677863
vt 0.059302 0.423675
vt 0.963570 0.268451
vt 0.484085 0.410382
vt 0.968005 0.583627
vt 0.515467 0.188152
vt 0.477575 0.105133
vt 0.031869 0.457858
vt 0.513607 0.188092
vt 0.060790 0.184178
vt 0.671553 0.324088
vt 0.576174 0.194790
vt 0.834135 -0.019985
vt 0.604855 0.326416
vt 0.435713 0.002584
vt 0.574315 0.194730
vt 1.004018 0.299302
vt 0.494672 0.377022
vt 0.985946 0.504738
vt 0.529802 0.249795
vt 0.494790 0.329080
vt 0.495425 0.071791
vt 0.985285 0.804756
vt 0.590509 0.256423
vt 0.495543 0.023849
vt 0.589199 0.870673
vn 0.000000 0.000000 1.000000
vn 0.000000 0.000000 1.000000
vn 0.000000 0.000000 1.000000
vn 0.000000 0.000000 1.000000
vn 0.000000 1.000000 0.000000
vn 0.000000 1.000000 0.000000
vn 0.000000 1.000000 0.000000
vn 0.000000 1.000000 0.000000
vn 0.000000 0.000000 -1.000000
vn 0.000000 0.000000 -1.000000
vn 0.000000 0.000000 -1.000000
vn 0.000000 0.000000 -1.000000
vn 0.000000 -1.000000 0.000000
vn 0.000000 -1.000000 0.000000
vn 0.000000 -1.000000 0.000000
vn 0.000000 -1.000000 0.000000
vn 1.000000 0.000000 0.000000
vn 1.000000 0.000000 0.000000
vn 1.000000 -0.000000 0.000000
vn 1.000000 -0.000000 0.000000
vn -1.000000 0.000000 0.000000
vn -1.000000 0.000000 0.000000
vn -1.000000 0.000000 0.000000
vn -1.000000 0.000000 0.000000
vn 0.000000 1.000000 -0.000009
vn 0.000000 1.000000 -0.000009
vn 0.000000 1.000000 -0.000009
vn 0.000000 1.000000 -0.000009
vn 0.000000 1.000000 0.000000
vn 0.000000 1.000000 0.000000
vn 0.000000 1.000000 0.000000
vn 0.000000 1.000000 0.000000
vn 0.000000 1.000000 0.000009
vn 0.000000 1.000000 0.000009
vn 0.000000 1.000000 0.000009
vn 0.000000 1.000000 0.000009
vn 0.000000 1.000000 0.000000
vn 0.054120 0.989074 -0.137123
vn 0.087883 0.970925 -0.222667
vn 0.000000 1.000000 0.000000
vn 0.000000 -0.000000 -1.000000
vn 0.000000 -0.000000 -1.000000
vn 0.000000 0.000000 -1.000000
vn 0.000000 0.000000 -1.000000
vn -1.000000 -0.000000 0.000000
vn -1.000000 -0.000000 0.000000
vn -1.000000 0.000000 0.000000
vn -1.000000 0.000000 0.000000
vn 0.000000 -0.000000 1.000000
vn 0.000000 -0.000000 1.000000
vn 0.000000 0.000000 1.000000
vn 0.000000 0.000000 1.000000
vn 1.000000 0.000000 0.000000
vn 1.000000 0.000000 0.000000
vn 1.000000 0.000000 0.000000
vn 1.000000 0.000000 0.000000
vn 0.000000 0.000003 1.000000
vn 0.000000 0.000003 1.000000
vn 0.683389 0.237037 -0.690502
vn 0.683389 0.237037 -0.690502
vn 0.683389 0.237037 -0.690502
vn 0.683389 0.237037 -0.690502
vn 0.000000 -0.000003 -1.000000
vn 0.000000 -0.000003 -1.000000
vn -0.683389 0.237037 -0.690502
vn -0.683389 0.237037 -0.690502
vn -0.683389 0.237037 -0.690502
vn -0.683389 0.237037 -0.690502
vn 0.000000 0.000003 -1.000000
vn 0.000000 0.000003 -1.000000
vn -0.683389 0.237037 0.690502
vn -0.683389 0.237037 0.690502
vn -0.683389 0.237037 0.690502
vn -0.683389 0.237037 0.690502
vn 0.000000 -0.000003 1.000000
vn 0.000000 -0.000003 1.000000
vn 0.683389 0.237037 0.690502
vn 0.683389 0.237037 0.690502
vn 0.683389 0.237037 0.690502
vn 0.683389 0.237037 0.690502
vn -0.570047 0.197129 -0.797613
vn -0.570047 0.197129 -0.797613
vn -0.570047 0.197129 -0.797613
vn -0.570047 0.197129 -0.797613
vn -1.000000 -0.000000 0.000000
vn -1.000000 -0.000000 0.000000
vn -1.000000 -0.000000 0.000000
vn -1.000000 -0.000000 0.000000
vn -1.000000 -0.000000 0.000000
vn -1.000000 -0.000000 0.000000
vn -0.570047 0.197129 0.797613
vn -0.570047 0.197129 0.797613
vn -0.570047 0.197129 0.797613
vn -0.570047 0.197129 0.797613
vn -1.000000 0.000000 0.000000
vn -1.000000 0.000000 0.000000
vn -1.000000 0.000000 0.000000
vn -1.000000 0.000000 0.000000
vn -1.000000 0.000000 0.000000
vn -1.000000 0.000000 0.000000
vn -1.000000 0.000000 0.000000
vn 0.565939 0.229460 0.791872
vn 0.565939 0.229460 0.791872
vn 0.565939 0.229460 0.791872
vn 0.565939 0.229460 0.791872
vn 1.000000 0.000000 0.000000
vn 1.000000 0.000000 0.000000
vn 1.000000 0.000000 0.000000
vn 1.000000 0.000000 0.000000
vn 1.000000 0.000000 0.000000
vn 1.000000 0.000000 0.000000
vn 1.000000 0.000000 0.000000
vn 0.565939 0.229460 -0.791872
vn 0.565939 0.229460 -0.791872
vn 0.565939 0.229460 -0.791872
vn 0.565939 0.229460 -0.791872
vn 0.054140 0.989010 0.137582
vn 0.000000 1.000000 0.000000
vn 0.000000 1.000000 0.000000
vn 0.087318 0.971153 0.221896
vn 0.000000 1.000000 0.000000
vn 0.000000 1.000000 0.000000
vn 0.000000 1.000000 0.000000
vn 0.000000 1.000000 0.000000
vn 0.000000 1.000000 0.000000
vn 0.000000 1.000000 0.000000
vn 0.000000 1.000000 0.000000
vn 0.000000 1.000000 0.000000
vn 0.323644 0.228736 0.918115
vn 0.323644 0.228736 0.918115
vn 0.323644 0.228736 0.918115
vn 0.323644 0.228736 0.918115
vn 1.000000 -0.000000 0.000000
vn 1.000000 -0.000000 0.000000
vn 1.000000 -0.000000 0.000000
vn 1.000000 -0.000000 0.000000
vn 1.000000 -0.000000 0.000000
vn 1.000000 -0.000000 0.000000
vn 0.323644 0.228736 -0.918115
vn 0.323644 0.228736 -0.918115
vn 0.323644 0.228736 -0.918115
vn 0.323644 0.228736 -0.918115
vn 0.366121 0.017744 0.930398
vn 0.366122 0.017744 0.930398
vn 0.366975 0.028434 -0.929796
vn 0.366975 0.028434 -0.929796
vn 0.000000 1.000000 0.000000
vn 0.000000 1.000000 0.000000
vn 0.000000 1.000000 0.000000
vn 0.000000 1.000000 0.000000
vn 0.000000 1.000000 0.000000
vn 0.000000 1.000000 0.000000
s 1
g pCube158
usemtl initialShadingGroup
f 1/1/1 2/2/2 4/97/3 3/64/4
s off
f 13/17/5 14/18/6 15/19/7 16/61/8
s 2
f 5/5/9 6/11/10 8/8/11 7/12/12
s off
f 7/7/13 8/8/14 2/10/15 1/9/16
s 3
f 2/10/17 8/8/18 6/11/19 4/4/20
s 4
f 7/12/21 1/1/22 3/64/23 5/5/24
s off
f 17/21/25 18/22/26 19/106/27 20/24/28
f 25/85/29 42/40/30 41/44/31 28/32/32
f 22/25/33 21/26/34 23/102/35 24/28/36
s 5
f 31/84/37 49/53/38 50/54/39 29/34/40
s 6
f 9/13/41 10/63/42 14/108/43 13/60/44
s 7
f 10/66/45 11/15/46 15/19/47 14/18/48
s 8
f 11/15/49 12/62/50 16/20/51 15/19/52
s 9
f 12/62/53 9/13/54 13/60/55 16/20/56
s 1
f 3/64/4 4/97/3 18/107/57 17/104/58
s off
f 4/98/59 10/94/60 19/106/61 18/22/62
s 6
f 10/63/42 9/13/41 20/105/63 19/23/64
s off
f 9/65/65 3/93/66 17/21/67 20/24/68
s 2
f 6/11/10 5/5/9 21/103/69 22/100/70
s off
f 5/91/71 12/88/72 23/102/73 21/26/74
s 8
f 12/62/50 11/15/49 24/101/75 23/27/76
s off
f 11/68/77 6/96/78 22/25/79 24/28/80
f 6/6/81 11/95/82 27/81/83 26/30/84
s 7
f 43/76/85 46/50/86 39/42/87 27/31/88 11/15/46 10/66/45 28/67/89 41/55/90
s off
f 10/14/91 4/99/92 25/85/93 28/32/94
s 4
f 5/5/24 3/64/23 29/89/95 50/70/96 35/38/97 34/57/98 37/56/99 47/73/100 30/33/101
s off
f 3/3/102 9/90/103 31/84/104 29/34/105
s 9
f 9/13/54 12/62/53 32/87/106 48/74/107 38/82/108 33/83/109 36/72/110 49/69/111 31/35/112
s off
f 12/16/113 5/92/114 30/75/115 32/36/116
s 10
f 48/52/117 32/36/118 30/75/119 47/51/120
s off
f 40/43/121 26/30/122 27/81/123 39/79/124
f 43/46/125 44/47/126 45/49/127 46/77/128
f 41/44/129 42/40/130 44/47/131 43/46/132
s 3
f 44/48/133 42/45/134 25/29/135 4/4/20 6/11/19 26/86/136 40/80/137 45/78/138
s off
f 40/43/139 39/79/140 46/77/141 45/49/142
s 10
f 48/52/117 47/51/120 37/58/143 38/41/144
s 5
f 36/39/145 35/71/146 50/54/39 49/53/38
s off
f 38/41/147 37/58/148 34/59/149 35/71/150 36/39/151 33/37/152
