# This file uses centimeters as units for non-parametric coordinates.

mtllib Cereal Box Big.mtl
g default
v -0.379754 -0.379754 0.905624
v 0.937829 -0.379754 0.905624
v -0.379754 2.500987 0.905624
v 0.937829 2.500987 0.905624
v -0.379754 2.500987 -0.905624
v 0.937829 2.500987 -0.905624
v -0.379754 -0.379754 -0.905624
v 0.937829 -0.379754 -0.905624
v -0.367266 2.500987 0.896159
v 0.925341 2.500987 0.896159
v 0.925341 2.500987 -0.896159
v -0.367266 2.500987 -0.896159
v -0.367266 -0.329391 0.896159
v 0.925341 -0.329391 0.896159
v 0.925341 -0.329391 -0.896159
v -0.367266 -0.329391 -0.896159
v -0.201891 3.005340 0.905623
v 0.759966 3.005340 0.905623
v 0.753326 3.005340 0.896158
v -0.195252 3.005340 0.896158
v -0.201891 3.005340 -0.905623
v 0.759966 3.005340 -0.905623
v -0.195252 3.005340 -0.896158
v 0.753326 3.005340 -0.896158
v 0.937829 2.916864 0.802301
v 0.937829 2.916864 -0.802301
v 0.925341 2.916864 -0.793916
v 0.925341 2.916864 0.793916
v -0.379754 2.855695 0.802301
v -0.379754 2.855695 -0.802301
v -0.367266 2.855695 0.793916
v -0.367266 2.855695 -0.793916
v -0.367266 2.752069 0.000000
v -0.379754 2.752069 0.000000
v -0.379754 2.752069 0.197125
v -0.367266 2.752069 0.202015
v -0.379754 2.752069 -0.197125
v -0.367266 2.752069 -0.202015
v 0.925341 2.916864 -0.202015
v 0.937829 2.916864 -0.197125
v 0.925341 2.916864 0.202015
v 0.937829 2.916864 0.197125
v 0.925341 3.076685 0.161710
v 0.937829 3.076685 0.157795
v 0.937829 3.076685 -0.157795
v 0.925341 3.076685 -0.161710
v -0.379754 2.855695 -0.199077
v -0.367266 2.855695 -0.204015
v -0.367266 2.855695 0.205223
v -0.379754 2.855695 0.200255
vt 0.487948 0.391955
vt 0.487726 0.247989
vt 0.007042 0.393194
vt 0.147196 0.978957
vt 0.146443 0.607852
vt 0.031631 0.025875
vt 0.637674 0.762838
vt 0.488701 0.763060
vt 0.638204 0.977891
vt 0.489232 0.978113
vt 0.146665 0.763904
vt 0.488479 0.607009
vt 0.925448 0.587253
vt 0.341624 0.030090
vt 0.926109 0.224116
vt 0.041585 0.132474
vt 0.427089 0.010378
vt 0.590520 0.010570
vt 0.590052 0.223376
vt 0.589860 0.373708
vt 0.281626 0.107613
vt 0.233750 0.108964
vt 0.985184 0.718796
vt 0.280852 0.106500
vt 0.271055 0.119765
vt 0.223315 0.116058
vt 0.985844 0.354156
vt 0.270362 0.118601
vt 0.097787 0.966811
vt 0.077479 0.047912
vt 0.975513 0.212085
vt 0.295492 0.051459
vt 0.104297 0.595688
vt 0.036727 0.360904
vt 0.967590 0.575206
vt 0.060808 0.171865
vt 0.060326 0.267815
vt 0.116308 0.476994
vt 0.060198 0.281577
vt 0.224636 0.052432
vt 0.060726 0.253503
vt 0.975668 0.141807
vt 0.149185 0.051524
vt 0.225158 0.050940
vt 0.097610 0.894957
vt 0.206165 0.046222
vt 0.205678 0.047697
vt 0.078623 0.890335
vt 0.168216 0.047052
vt 0.994654 0.137064
vt 0.066194 0.242308
vt 0.064679 0.241854
vt 0.059873 0.293888
vt 0.061457 0.293900
vt 0.975774 0.093836
vt 0.116424 0.523804
vt 0.116366 0.500399
vt 0.063011 0.254214
vt 0.063430 0.268033
vt 0.589391 0.586513
vt 0.426620 0.223184
vt 0.925917 0.374447
vt 0.925256 0.739087
vt 0.145912 0.392799
vt 0.338359 0.080133
vt 0.926577 0.011310
vt 0.975928 0.023558
vt 0.328726 0.094251
vt 0.967744 0.505309
vt 0.104004 0.476653
vt 0.061408 0.281594
vt 0.955441 0.504901
vt 0.104120 0.524066
vt 0.967851 0.456720
vt 0.062256 0.170850
vt 0.994739 0.098663
vt 0.167766 0.045565
vt 0.078530 0.852864
vt 0.148716 0.050014
vt 0.097495 0.848147
vt 0.078472 0.046450
vt 0.955547 0.456930
vt 0.955494 0.480916
vt 0.035638 0.359513
vt 0.296430 0.052957
vt 0.097317 0.776294
vt 0.968005 0.386680
vt 0.165062 0.092067
vt 0.103827 0.405171
vt 0.005905 0.391721
vt 0.163964 0.093570
vt 0.043098 0.131390
vt 0.339543 0.081568
vt 0.175467 0.084954
vt 0.032673 0.024334
vt 0.329860 0.095726
vt 0.145690 0.248833
vt 0.174370 0.086456
vt 0.342641 0.031648
vt 0.086730 0.742934
vt 0.985946 0.244671
vt 0.224082 0.114943
vt 0.086612 0.629118
vt 0.085977 0.371829
vt 0.985286 0.607808
vt 0.234458 0.107810
vt 0.085859 0.270099
vt 0.589199 0.738348
vn 0.000000 0.000000 1.000000
vn 0.000000 0.000000 1.000000
vn 0.000000 0.000000 1.000000
vn 0.000000 0.000000 1.000000
vn 0.000000 1.000000 0.000000
vn 0.000000 1.000000 0.000000
vn 0.000000 1.000000 0.000000
vn 0.000000 1.000000 0.000000
vn 0.000000 0.000000 -1.000000
vn 0.000000 0.000000 -1.000000
vn 0.000000 0.000000 -1.000000
vn 0.000000 0.000000 -1.000000
vn 0.000000 -1.000000 0.000000
vn 0.000000 -1.000000 0.000000
vn 0.000000 -1.000000 0.000000
vn 0.000000 -1.000000 0.000000
vn 1.000000 0.000000 0.000000
vn 1.000000 0.000000 0.000000
vn 1.000000 -0.000000 0.000000
vn 1.000000 -0.000000 0.000000
vn -1.000000 0.000000 0.000000
vn -1.000000 0.000000 0.000000
vn -1.000000 -0.000000 0.000000
vn -1.000000 -0.000000 0.000000
vn 0.000000 1.000000 0.000019
vn 0.000000 1.000000 0.000019
vn 0.000000 1.000000 0.000019
vn 0.000000 1.000000 0.000019
vn 0.000000 1.000000 0.000000
vn 0.000000 1.000000 0.000000
vn 0.000000 1.000000 0.000000
vn 0.000000 1.000000 0.000000
vn 0.000000 1.000000 -0.000042
vn 0.000000 1.000000 -0.000042
vn 0.000000 1.000000 -0.000042
vn 0.000000 1.000000 -0.000042
vn 0.000000 1.000000 0.000000
vn 0.054120 0.989074 -0.137123
vn 0.087884 0.970925 -0.222668
vn 0.000000 1.000000 0.000000
vn 0.000000 -0.000000 -1.000000
vn 0.000000 -0.000000 -1.000000
vn 0.000000 0.000000 -1.000000
vn 0.000000 0.000000 -1.000000
vn -1.000000 -0.000000 0.000000
vn -1.000000 -0.000000 0.000000
vn -1.000000 0.000000 0.000000
vn -1.000000 0.000000 0.000000
vn 0.000000 -0.000000 1.000000
vn 0.000000 -0.000000 1.000000
vn 0.000000 0.000000 1.000000
vn 0.000000 0.000000 1.000000
vn 1.000000 0.000000 0.000000
vn 1.000000 0.000000 0.000000
vn 1.000000 0.000000 0.000000
vn 1.000000 0.000000 0.000000
vn 0.000000 0.000003 1.000000
vn 0.000000 0.000003 1.000000
vn 0.683387 0.237036 -0.690504
vn 0.683387 0.237036 -0.690504
vn 0.683387 0.237036 -0.690504
vn 0.683387 0.237036 -0.690504
vn 0.000000 -0.000003 -1.000000
vn 0.000000 -0.000003 -1.000000
vn -0.683389 0.237037 -0.690502
vn -0.683389 0.237037 -0.690502
vn -0.683389 0.237037 -0.690502
vn -0.683389 0.237037 -0.690502
vn 0.000000 0.000003 -1.000000
vn 0.000000 0.000003 -1.000000
vn -0.683389 0.237037 0.690502
vn -0.683389 0.237037 0.690502
vn -0.683389 0.237037 0.690502
vn -0.683389 0.237037 0.690502
vn 0.000000 -0.000003 1.000000
vn 0.000000 -0.000003 1.000000
vn 0.683387 0.237036 0.690504
vn 0.683387 0.237036 0.690504
vn 0.683387 0.237036 0.690504
vn 0.683387 0.237036 0.690504
vn -0.570047 0.197129 -0.797613
vn -0.570047 0.197129 -0.797613
vn -0.570048 0.197129 -0.797613
vn -0.570047 0.197129 -0.797613
vn -1.000000 -0.000000 0.000000
vn -1.000000 -0.000000 0.000000
vn -1.000000 -0.000000 0.000000
vn -1.000000 -0.000000 0.000000
vn -1.000000 -0.000000 0.000000
vn -1.000000 -0.000000 0.000000
vn -0.570047 0.197129 0.797613
vn -0.570047 0.197129 0.797613
vn -0.570047 0.197129 0.797613
vn -0.570048 0.197129 0.797613
vn -1.000000 -0.000000 0.000000
vn -1.000000 -0.000000 0.000000
vn -1.000000 -0.000000 0.000000
vn -1.000000 -0.000000 0.000000
vn -1.000000 -0.000000 0.000000
vn -1.000000 -0.000000 0.000000
vn -1.000000 -0.000000 0.000000
vn 0.565941 0.229459 0.791871
vn 0.565941 0.229459 0.791871
vn 0.565941 0.229459 0.791871
vn 0.565941 0.229459 0.791871
vn 1.000000 0.000000 0.000000
vn 1.000000 0.000000 0.000000
vn 1.000000 0.000000 0.000000
vn 1.000000 0.000000 0.000000
vn 1.000000 0.000000 0.000000
vn 1.000000 0.000000 0.000000
vn 1.000000 0.000000 0.000000
vn 0.565941 0.229459 -0.791871
vn 0.565941 0.229459 -0.791871
vn 0.565941 0.229459 -0.791871
vn 0.565941 0.229459 -0.791871
vn 0.054140 0.989010 0.137582
vn 0.000000 1.000000 0.000000
vn 0.000000 1.000000 0.000000
vn 0.087319 0.971153 0.221896
vn 0.000000 1.000000 0.000000
vn 0.000000 1.000000 0.000000
vn 0.000000 1.000000 0.000000
vn 0.000000 1.000000 0.000000
vn 0.000000 1.000000 0.000000
vn 0.000000 1.000000 0.000000
vn 0.000000 1.000000 0.000000
vn 0.000000 1.000000 0.000000
vn 0.323645 0.228735 0.918115
vn 0.323645 0.228735 0.918115
vn 0.323645 0.228735 0.918115
vn 0.323645 0.228735 0.918115
vn 1.000000 -0.000000 0.000000
vn 1.000000 -0.000000 0.000000
vn 1.000000 -0.000000 0.000000
vn 1.000000 -0.000000 0.000000
vn 1.000000 -0.000000 0.000000
vn 1.000000 -0.000000 0.000000
vn 0.323645 0.228735 -0.918115
vn 0.323645 0.228735 -0.918115
vn 0.323645 0.228735 -0.918115
vn 0.323645 0.228735 -0.918115
vn 0.366123 0.017744 0.930397
vn 0.366123 0.017744 0.930397
vn 0.366976 0.028434 -0.929796
vn 0.366976 0.028434 -0.929796
vn 0.000000 1.000000 0.000000
vn 0.000000 1.000000 0.000000
vn 0.000000 1.000000 0.000000
vn 0.000000 1.000000 0.000000
vn 0.000000 1.000000 0.000000
vn 0.000000 1.000000 0.000000
s 1
g pCube159
usemtl initialShadingGroup
f 1/1/1 2/2/2 4/97/3 3/64/4
s off
f 13/17/5 14/18/6 15/19/7 16/61/8
s 2
f 5/5/9 6/11/10 8/8/11 7/12/12
s off
f 7/7/13 8/8/14 2/10/15 1/9/16
s 3
f 2/10/17 8/8/18 6/11/19 4/4/20
s 4
f 7/12/21 1/1/22 3/64/23 5/5/24
s off
f 17/21/25 18/22/26 19/106/27 20/24/28
f 25/85/29 42/40/30 41/44/31 28/32/32
f 22/25/33 21/26/34 23/102/35 24/28/36
s 5
f 31/84/37 49/53/38 50/54/39 29/34/40
s 6
f 9/13/41 10/63/42 14/108/43 13/60/44
s 7
f 10/66/45 11/15/46 15/19/47 14/18/48
s 8
f 11/15/49 12/62/50 16/20/51 15/19/52
s 9
f 12/62/53 9/13/54 13/60/55 16/20/56
s 1
f 3/64/4 4/97/3 18/107/57 17/104/58
s off
f 4/98/59 10/94/60 19/106/61 18/22/62
s 6
f 10/63/42 9/13/41 20/105/63 19/23/64
s off
f 9/65/65 3/93/66 17/21/67 20/24/68
s 2
f 6/11/10 5/5/9 21/103/69 22/100/70
s off
f 5/91/71 12/88/72 23/102/73 21/26/74
s 8
f 12/62/50 11/15/49 24/101/75 23/27/76
s off
f 11/68/77 6/96/78 22/25/79 24/28/80
f 6/6/81 11/95/82 27/81/83 26/30/84
s 7
f 43/76/85 46/50/86 39/42/87 27/31/88 11/15/46 10/66/45 28/67/89 41/55/90
s off
f 10/14/91 4/99/92 25/85/93 28/32/94
s 4
f 5/5/24 3/64/23 29/89/95 50/70/96 35/38/97 34/57/98 37/56/99 47/73/100 30/33/101
s off
f 3/3/102 9/90/103 31/84/104 29/34/105
s 9
f 9/13/54 12/62/53 32/87/106 48/74/107 38/82/108 33/83/109 36/72/110 49/69/111 31/35/112
s off
f 12/16/113 5/92/114 30/75/115 32/36/116
s 10
f 48/52/117 32/36/118 30/75/119 47/51/120
s off
f 40/43/121 26/30/122 27/81/123 39/79/124
f 43/46/125 44/47/126 45/49/127 46/77/128
f 41/44/129 42/40/130 44/47/131 43/46/132
s 3
f 44/48/133 42/45/134 25/29/135 4/4/20 6/11/19 26/86/136 40/80/137 45/78/138
s off
f 40/43/139 39/79/140 46/77/141 45/49/142
s 10
f 48/52/117 47/51/120 37/58/143 38/41/144
s 5
f 36/39/145 35/71/146 50/54/39 49/53/38
s off
f 38/41/147 37/58/148 34/59/149 35/71/150 36/39/151 33/37/152
