# This file uses centimeters as units for non-parametric coordinates.

mtllib Cleaver.mtl
g default
v 0.603677 0.183132 0.067226
v 0.604109 0.241354 0.067226
v 0.604109 0.241354 -0.051832
v 0.603677 0.183132 -0.051832
v -0.173134 0.165494 0.057393
v -0.173134 0.165494 -0.057393
v -0.173134 0.258997 -0.057393
v -0.173134 0.258997 0.057393
v 0.143049 0.165494 0.048000
v 0.142963 0.258997 0.048000
v 0.142963 0.258997 -0.048000
v 0.143049 0.165494 -0.048000
v 0.391330 0.160880 0.040075
v 0.391330 0.263610 0.040075
v 0.391330 0.263610 -0.040075
v 0.391330 0.160880 -0.040075
v -0.406755 0.165493 0.027216
v -0.383705 0.165493 0.057393
v -0.392951 0.165493 0.052488
v -0.400121 0.165493 0.044368
v -0.406744 0.258996 0.027216
v -0.400111 0.258996 0.044368
v -0.392941 0.258996 0.052488
v -0.383694 0.258996 0.057393
v -0.392941 0.258996 -0.052488
v -0.400111 0.258996 -0.044369
v -0.406744 0.258996 -0.027216
v -0.383694 0.258996 -0.057393
v -0.406755 0.165493 -0.027216
v -0.400121 0.165493 -0.044369
v -0.392951 0.165493 -0.052488
v -0.383705 0.165493 -0.057393
v -0.409111 0.165493 0.000000
v -0.409099 0.258996 0.000000
v 0.652264 0.200170 0.081595
v 0.652697 0.224111 0.081595
v 0.652264 0.200170 -0.081595
v 0.652697 0.224111 -0.081595
v 2.270194 0.191485 0.099804
v 2.270451 0.232671 0.099804
v 2.147309 0.191485 -0.035319
v 2.147741 0.232671 -0.035319
v 2.330224 0.191485 0.025200
v 2.330481 0.232671 0.025200
v 1.447689 0.191485 -0.108763
v 1.448121 0.232671 -0.108763
v 0.964737 0.191485 -0.090476
v 0.965169 0.232671 -0.090476
v 1.833922 0.191485 -0.094233
v 1.834355 0.232671 -0.094233
v 2.007197 0.191485 -0.066728
v 2.007630 0.232671 -0.066728
v 1.638490 0.191485 -0.105026
v 1.638923 0.232671 -0.105026
v 2.264570 0.191485 -0.036334
v 2.260324 0.232671 -0.008098
v 0.626732 0.187720 0.074623
v 0.625584 0.187720 -0.054562
v 0.626015 0.236606 -0.054562
v 0.627163 0.236606 0.074623
v 0.684771 0.198589 -0.082518
v 0.685202 0.225851 -0.082518
v 2.007414 0.212078 -0.683893
v 2.147525 0.212078 -0.663774
v 2.325851 0.212078 -0.606924
v 0.964953 0.212078 -0.699104
v 1.447905 0.212078 -0.710818
v 0.684988 0.212078 -0.694008
v 1.638707 0.212078 -0.708424
v 1.834139 0.212078 -0.701511
v 2.260195 0.212078 -0.646339
v 2.007197 0.197504 -0.597058
v 1.833922 0.197504 -0.611541
v 1.638490 0.197504 -0.617224
v 1.447689 0.197504 -0.619193
v 0.964737 0.197504 -0.609563
v 0.684771 0.202531 -0.605373
v 0.685202 0.221825 -0.605373
v 0.965169 0.226652 -0.609563
v 1.448121 0.226652 -0.619193
v 1.638923 0.226652 -0.617224
v 1.834355 0.226652 -0.611541
v 2.007630 0.226652 -0.597058
v 2.147741 0.226652 -0.580518
v 2.260324 0.226652 -0.566184
v 2.325978 0.226652 -0.533782
v 2.325722 0.197504 -0.533782
v 2.260068 0.197504 -0.566184
v 2.147309 0.197504 -0.580518
v 2.331781 0.232671 0.056859
v 2.308546 0.232671 0.090879
v 2.308289 0.191485 0.090879
v 2.331523 0.191485 0.056858
v 2.279133 0.232671 0.009134
v 2.220703 0.232671 0.009134
v 2.279133 0.232671 0.064342
v 2.220703 0.232671 0.064343
v 2.220704 0.191485 0.009134
v 2.279133 0.191485 0.009134
v 2.279133 0.191485 0.064342
v 2.220703 0.191485 0.064343
v 2.290854 0.191485 0.036738
v 2.290854 0.232671 0.036738
v 2.249918 0.191485 0.075417
v 2.249918 0.232671 0.075417
v 2.249918 0.191485 -0.001940
v 2.249918 0.232671 -0.001940
v 2.208983 0.191485 0.036738
v 2.208983 0.232671 0.036738
v 2.228218 0.191891 0.099607
v 2.228480 0.232269 0.099607
v 2.036522 0.193698 0.088077
v 2.036803 0.230476 0.088077
v 0.625784 0.210364 -0.099406
v 0.603877 0.210100 -0.094433
v 0.391330 0.208463 -0.073013
v 0.143009 0.208804 -0.087451
v -0.173134 0.208804 -0.104564
v -0.426842 0.208803 -0.100700
v -0.436089 0.208803 -0.098961
v -0.451325 0.208803 -0.083653
v -0.463810 0.208803 -0.051313
v -0.469328 0.208803 0.000000
v -0.463811 0.208803 0.051313
v -0.451325 0.208803 0.083653
v -0.436089 0.208803 0.098961
v -0.426842 0.208803 0.100700
v -0.173134 0.208804 0.104564
v 0.143009 0.208804 0.087451
v 0.391330 0.208463 0.073012
v 0.603877 0.210100 0.072670
vt 0.964502 0.848058
vt 0.963700 0.870540
vt 0.965587 0.914050
vt 0.974143 0.952313
vt 0.658896 0.843010
vt 0.783518 0.838026
vt 0.785861 0.887024
vt 0.788093 0.925433
vt 0.795778 0.973608
vt 0.882118 0.833792
vt 0.881837 0.883112
vt 0.883514 0.915263
vt 0.892307 0.963184
vt 0.661747 0.894751
vt 0.659366 0.797801
vt 0.664751 0.939036
vt 0.569366 0.831323
vt 0.555898 0.843226
vt 0.577285 0.846527
vt 0.573572 0.842918
vt 0.571739 0.845680
vt 0.571192 0.838754
vt 0.565901 0.844592
vt 0.556497 0.903265
vt 0.569452 0.912593
vt 0.566416 0.901702
vt 0.571102 0.904745
vt 0.572857 0.900855
vt 0.577696 0.898913
vt 0.579026 0.945065
vt 0.515883 0.900996
vt 0.575817 0.941965
vt 0.520301 0.901216
vt 0.572355 0.935248
vt 0.528849 0.901654
vt 0.582967 0.946010
vt 0.529915 0.843706
vt 0.571383 0.810589
vt 0.521505 0.844024
vt 0.574366 0.804735
vt 0.577200 0.802240
vt 0.516937 0.843981
vt 0.580661 0.800991
vt 0.542405 0.842940
vt 0.569626 0.820745
vt 0.542250 0.903247
vt 0.570016 0.924111
vt 0.983242 0.865885
vt 0.982402 0.858278
vt 0.990386 0.933126
vt 0.986926 0.923012
vt 0.373668 0.597570
vt 0.490959 0.089503
vt 0.298481 0.600310
vt 0.639948 0.529486
vt 0.296569 0.278571
vt 0.814327 0.458142
vt 0.141360 0.390616
vt 0.496413 0.576408
vt 0.410888 0.181525
vt 0.429228 0.589968
vt 0.456526 0.132061
vt 0.569458 0.553699
vt 0.353996 0.231575
vt 0.330871 0.613901
vt 0.517903 0.053921
vt 0.972767 0.852197
vt 0.982993 0.948459
vt 0.974457 0.914131
vt 0.972504 0.868276
vt 0.044706 0.467520
vt 0.050288 0.458290
vt 0.609107 0.320112
vt 0.458944 0.828135
vt 0.686930 0.214348
vt 0.292147 0.574675
vt 0.442203 0.463686
vt 0.208174 0.642284
vt 0.500459 0.417596
vt 0.559521 0.368308
vt 0.415293 0.837041
vt 0.501186 0.784176
vt 0.566589 0.765995
vt 0.638925 0.741657
vt 0.709130 0.716622
vt 0.885048 0.647521
vt 0.180687 0.620851
vt 0.185918 0.615440
vt 0.269810 0.547085
vt 0.419961 0.435034
vt 0.478404 0.388962
vt 0.537557 0.340186
vt 0.587486 0.293242
vt 0.626227 0.253047
vt 0.656469 0.219766
vt 0.667740 0.192996
vt 0.375991 0.804247
vt 0.404419 0.807152
vt 0.447647 0.797124
vt 0.495009 0.019977
vt 0.521803 0.017962
vt 0.530094 0.026023
vt 0.489080 0.006335
vt 0.297584 0.573309
vt 0.507965 0.015446
vt 0.526898 0.004178
vt 0.073201 0.546645
vt 0.048800 0.546645
vt 0.505788 0.028698
vt 0.025378 0.546645
vt 0.048800 0.530562
vt 0.073201 0.530562
vt 0.096623 0.530562
vt 0.333255 0.571139
vt 0.084912 0.530562
vt 0.084912 0.546645
vt 0.013178 0.530561
vt 0.013177 0.546644
vt 0.061001 0.530562
vt 0.061001 0.546645
vt 0.037089 0.530562
vt 0.037089 0.546645
vt 0.474070 0.016648
vt 0.482924 0.029571
vt 0.419441 0.066226
vt 0.428158 0.077680
vt 0.978966 0.931107
vt 0.971262 0.933248
vt 0.889162 0.940458
vt 0.792473 0.950576
vt 0.669862 0.965686
vt 0.572597 0.972771
vt 0.505173 0.870653
vt 0.568861 0.973060
vt 0.513100 0.870905
vt 0.524730 0.872508
vt 0.540584 0.872249
vt 0.554179 0.870760
vt 0.561825 0.872286
vt 0.566417 0.872867
vt 0.568210 0.872925
vt 0.661825 0.867813
vt 0.785004 0.861355
vt 0.882568 0.857223
vt 0.964219 0.858574
vt 0.397382 0.537327
vt 0.325712 0.559274
vt 0.310316 0.564879
vt 0.293704 0.588909
vt 0.506633 0.000977
vt 0.676782 0.186100
vt 0.385875 0.831646
vt 0.677414 0.243650
vt 0.647481 0.278426
vt 0.721640 0.750628
vt 0.651340 0.775529
vt 0.578820 0.799423
vt 0.512985 0.816472
vt 0.897355 0.680726
vt 0.540760 0.013809
vt 0.904493 0.350841
vt 0.986852 0.607567
vt 0.999023 0.640202
vt 0.985407 0.806989
vt 0.998846 0.803469
vt 0.915093 0.415768
vt 0.975977 0.804838
vt 0.587882 0.995455
vt 0.583558 0.996048
vt 0.671342 0.990894
vt 0.885789 0.802051
vt 0.784651 0.799948
vt 0.491615 0.053104
vt 0.488379 0.042051
vt 0.341299 0.579633
vt 0.025378 0.530562
vt 0.513298 0.054661
vt 0.501896 0.058465
vt 0.331567 0.599337
vt 0.319365 0.599251
vt 0.494478 0.032077
vt 0.321054 0.571050
vt 0.515883 0.033595
vt 0.000977 0.546644
vt 0.096623 0.546645
vt 0.311325 0.590747
vt 0.000977 0.530561
vt 0.311864 0.579062
vt 0.340761 0.591321
vt 0.519175 0.044137
vt 0.036780 0.460275
vt 0.926685 0.410568
vt 0.034808 0.467303
vt 0.006621 0.411167
vt 0.000977 0.403691
vn 0.015612 0.660777 0.750420
vn 0.020425 0.000561 0.999791
vn 0.040240 0.000014 0.999190
vn 0.031989 0.615745 0.787296
vn -0.000002 1.000000 0.000000
vn -0.000002 1.000000 0.000000
vn -0.007187 0.999974 0.000000
vn -0.007187 0.999974 0.000000
vn 0.040239 0.000014 -0.999190
vn 0.020425 0.000561 -0.999791
vn 0.015612 0.660778 -0.750419
vn 0.031989 0.615745 -0.787296
vn 0.000002 -1.000000 0.000000
vn 0.000002 -1.000000 0.000000
vn -0.007189 -0.999974 0.000000
vn -0.007189 -0.999974 0.000000
vn -0.623454 0.771823 -0.124879
vn -0.976034 0.003230 -0.217594
vn -0.999998 0.002133 -0.000001
vn -0.642553 0.766241 -0.000000
vn -0.034904 0.015618 -0.999269
vn -0.012454 0.673847 -0.738765
vn -0.012454 0.673847 0.738765
vn -0.034904 0.015618 0.999269
vn 0.007100 -0.001340 0.999974
vn 0.006412 0.509289 0.860571
vn 0.043757 0.999042 0.000000
vn 0.042439 0.999099 0.000000
vn 0.010296 -0.002646 -0.999943
vn 0.007403 0.606007 -0.795425
vn 0.042479 -0.999097 0.000000
vn 0.043802 -0.999040 0.000000
vn -0.044165 0.004516 0.999014
vn -0.044695 0.399470 0.915656
vn 0.119305 0.992858 -0.000142
vn 0.117442 0.993080 -0.000124
vn -0.026909 0.005769 -0.999621
vn -0.025755 0.672149 -0.739968
vn 0.116744 -0.993162 -0.000120
vn 0.118486 -0.992956 -0.000137
vn -0.976034 0.003230 0.217595
vn -0.864716 0.004685 0.502240
vn -0.540616 0.785459 0.301311
vn -0.623453 0.771824 0.124879
vn -0.618377 0.004769 0.785867
vn -0.366402 0.780198 0.506992
vn -0.540616 0.785459 -0.301310
vn -0.864716 0.004686 -0.502239
vn -0.366398 0.780198 -0.506995
vn -0.618372 0.004770 -0.785871
vn 0.000000 1.000000 0.000000
vn 0.000000 1.000000 0.000000
vn 0.000000 1.000000 0.000000
vn 0.000000 1.000000 0.000000
vn 0.000000 1.000000 0.000000
vn 0.000000 1.000000 0.000000
vn 0.000000 1.000000 0.000000
vn -0.000004 1.000000 0.000000
vn -0.000004 1.000000 0.000000
vn 0.000003 -1.000000 0.000000
vn 0.000003 -1.000000 0.000000
vn 0.000000 -1.000000 0.000000
vn 0.000000 -1.000000 0.000000
vn 0.000000 -1.000000 0.000000
vn 0.000000 -1.000000 0.000000
vn 0.000000 -1.000000 0.000000
vn 0.000000 -1.000000 0.000000
vn 0.000000 -1.000000 0.000000
vn 0.999140 -0.006240 -0.041002
vn 0.999140 -0.006240 -0.041002
vn 0.999140 -0.006240 -0.041002
vn 0.999140 -0.006240 -0.041002
vn -0.263391 0.003125 0.964684
vn -0.228002 0.037593 0.972935
vn -0.221203 -0.030909 0.974738
vn -0.263391 0.003125 0.964684
vn 0.359302 -0.933220 -0.001455
vn 0.363584 -0.931560 -0.001469
vn 0.429927 -0.902862 -0.001688
vn 0.429927 -0.902862 -0.001688
vn 0.024106 0.002651 -0.999706
vn 0.183686 -0.710253 -0.679559
vn -0.000344 -0.874488 -0.485047
vn 0.366324 0.930486 -0.001482
vn 0.362134 0.932125 -0.001468
vn 0.431183 0.902263 -0.001693
vn 0.431183 0.902263 -0.001693
vn -0.013114 0.000111 0.999914
vn -0.004683 0.000055 0.999989
vn -0.004683 0.000055 0.999989
vn -0.012977 0.000110 0.999916
vn -0.005522 -0.999695 0.024065
vn -0.005522 -0.999695 0.024065
vn -0.005522 -0.999695 0.024065
vn -0.005522 -0.999695 0.024065
vn -0.005522 -0.999695 0.024065
vn -0.005522 -0.999695 0.024065
vn -0.005522 -0.999695 0.024065
vn -0.005522 -0.999695 0.024065
vn -0.005508 -0.999697 0.024002
vn -0.005428 -0.999705 0.023651
vn -0.005522 -0.999695 0.024065
vn -0.005520 -0.999695 0.024053
vn -0.005423 -0.999706 0.023631
vn -0.005522 -0.999695 0.024065
vn -0.005522 -0.999695 0.024065
vn 0.000000 1.000000 0.000000
vn 0.000000 1.000000 0.000000
vn 0.000000 1.000000 0.000000
vn 0.000000 1.000000 -0.000000
vn 0.000000 1.000000 -0.000000
vn 0.000000 1.000000 0.000000
vn 0.000000 1.000000 0.000000
vn 0.228104 -0.001421 0.973636
vn 0.228104 -0.001421 0.973636
vn 0.228104 -0.001421 0.973636
vn 0.228104 -0.001421 0.973636
vn -0.030409 0.840982 -0.540208
vn -0.028410 0.000480 -0.999596
vn -0.028410 0.000480 -0.999596
vn -0.028410 0.000480 -0.999596
vn -0.028410 0.000480 -0.999596
vn 0.005096 0.999337 -0.036041
vn 0.004369 0.999529 -0.030363
vn 0.022098 0.985382 -0.168919
vn 0.022098 0.985382 -0.168919
vn 0.004376 -0.999528 -0.030419
vn 0.005087 -0.999340 -0.035976
vn 0.022083 -0.985401 -0.168809
vn 0.022083 -0.985401 -0.168809
vn 0.999943 -0.007364 -0.007691
vn 0.999943 -0.007364 -0.007691
vn 0.999961 -0.008805 0.000014
vn 0.101545 -0.977352 -0.185666
vn 0.014906 -0.999599 -0.024080
vn 0.027673 -0.998470 -0.047883
vn 0.101545 -0.977352 -0.185666
vn -0.000809 0.999437 -0.033554
vn -0.000829 0.999406 -0.034453
vn -0.003510 0.987298 -0.158839
vn -0.003510 0.987298 -0.158839
vn -0.000830 -0.999404 -0.034510
vn -0.000808 -0.999438 -0.033497
vn -0.003510 -0.987296 -0.158855
vn -0.003510 -0.987296 -0.158855
vn -0.999824 0.018779 -0.000004
vn -0.999824 0.018779 -0.000004
vn -0.999750 0.022368 -0.000039
vn -0.019541 0.999420 -0.027892
vn -0.019500 0.999407 -0.028393
vn -0.010784 0.990758 -0.135213
vn -0.010784 0.990758 -0.135213
vn -0.020280 -0.999396 -0.028212
vn -0.020330 -0.999412 -0.027621
vn -0.011122 -0.990896 -0.134171
vn -0.011122 -0.990896 -0.134171
vn 0.001217 0.999396 -0.034734
vn 0.001172 0.999445 -0.033283
vn 0.005119 0.987288 -0.158856
vn 0.005119 0.987288 -0.158856
vn 0.001174 -0.999443 -0.033339
vn 0.001216 -0.999398 -0.034676
vn 0.005119 -0.987292 -0.158832
vn 0.005119 -0.987292 -0.158832
vn 0.003585 0.999355 -0.035721
vn 0.003218 0.999493 -0.031667
vn 0.015069 0.986564 -0.162682
vn 0.015069 0.986564 -0.162682
vn 0.003223 -0.999492 -0.031723
vn 0.003579 -0.999358 -0.035660
vn 0.015063 -0.986575 -0.162610
vn 0.015063 -0.986575 -0.162610
vn 0.101723 0.977272 -0.185991
vn 0.101723 0.977272 -0.185991
vn 0.024425 0.998658 -0.045661
vn 0.011948 0.999664 -0.023007
vn 0.000429 0.999407 -0.034423
vn 0.000422 0.999426 -0.033872
vn 0.001800 0.987526 -0.157447
vn 0.001800 0.987526 -0.157447
vn 0.000423 -0.999424 -0.033928
vn 0.000428 -0.999409 -0.034367
vn 0.001800 -0.987527 -0.157439
vn 0.001800 -0.987527 -0.157439
vn 0.003397 -0.999545 -0.029957
vn 0.004287 -0.999342 -0.036028
vn 0.024733 -0.984169 -0.175498
vn 0.024733 -0.984169 -0.175498
vn 0.005444 0.999346 -0.035736
vn 0.004603 0.999550 -0.029651
vn 0.024766 0.984150 -0.175599
vn 0.024766 0.984150 -0.175599
vn 0.001392 -0.999933 -0.011490
vn 0.001392 -0.999933 -0.011490
vn 0.000493 -0.999932 -0.011692
vn 0.000493 -0.999932 -0.011692
vn 0.000176 -0.999931 -0.011771
vn 0.000176 -0.999931 -0.011771
vn -0.000338 -0.999932 -0.011692
vn -0.000338 -0.999932 -0.011692
vn -0.021865 -0.999715 -0.009558
vn -0.021865 -0.999715 -0.009558
vn -0.999828 0.018545 -0.000001
vn -0.999828 0.018545 -0.000001
vn -0.021005 0.999733 -0.009637
vn -0.021005 0.999733 -0.009637
vn -0.000338 0.999932 -0.011692
vn -0.000338 0.999932 -0.011692
vn 0.000176 0.999931 -0.011770
vn 0.000176 0.999931 -0.011770
vn 0.000493 0.999932 -0.011692
vn 0.000493 0.999932 -0.011692
vn 0.001392 0.999933 -0.011489
vn 0.001392 0.999933 -0.011489
vn 0.001915 0.999936 -0.011192
vn 0.001915 0.999936 -0.011192
vn 0.002013 0.999938 -0.010910
vn 0.002013 0.999938 -0.010910
vn 0.005223 0.999928 -0.010796
vn 0.005223 0.999928 -0.010796
vn 0.999941 -0.007296 -0.008054
vn 0.999941 -0.007296 -0.008054
vn 0.007954 -0.999907 -0.011120
vn 0.007954 -0.999907 -0.011120
vn 0.000649 -0.999937 -0.011199
vn 0.000649 -0.999937 -0.011199
vn 0.001915 -0.999936 -0.011192
vn 0.001915 -0.999936 -0.011192
vn 0.825778 -0.005157 0.563972
vn 0.825778 -0.005157 0.563972
vn 0.825778 -0.005157 0.563972
vn 0.825778 -0.005157 0.563972
vn -0.005441 0.999700 0.023864
vn -0.005441 0.999700 0.023864
vn -0.005441 0.999700 0.023864
vn -0.005441 0.999700 0.023864
vn -0.005343 0.999711 0.023431
vn -0.005439 0.999701 0.023853
vn -0.005441 0.999700 0.023864
vn -0.005398 0.999705 0.023673
vn -0.005438 0.999701 0.023848
vn -0.005441 0.999700 0.023864
vn -0.005441 0.999700 0.023864
vn -0.005441 0.999700 0.023864
vn -0.005441 0.999700 0.023864
vn -0.005441 0.999700 0.023864
vn -0.005441 0.999700 0.023864
vn 0.000000 1.000000 -0.000001
vn 0.000000 1.000000 0.000000
vn -0.000001 -1.000000 -0.000000
vn -0.000001 -1.000000 -0.000000
vn -0.000001 -1.000000 -0.000000
vn -0.000000 -1.000000 -0.000000
vn 0.000000 -1.000000 -0.000001
vn -0.000001 -1.000000 -0.000000
vn -0.000001 -1.000000 -0.000000
vn 0.000001 -1.000000 -0.000001
vn 0.000000 -1.000000 -0.000001
vn -1.000000 0.000000 -0.000000
vn -1.000000 0.000000 -0.000000
vn -0.920463 0.000000 0.390829
vn -0.920464 0.000000 0.390829
vn 0.686786 0.000009 0.726859
vn 0.686784 0.000009 0.726862
vn 0.000001 0.000001 1.000000
vn 0.000000 0.000001 1.000000
vn -0.000000 -0.000001 -1.000000
vn -0.000000 -0.000001 -1.000000
vn -0.354456 -0.000002 -0.935073
vn -0.354456 -0.000002 -0.935073
vn 0.686785 0.000005 -0.726860
vn 0.686784 0.000005 -0.726862
vn 1.000000 0.000013 0.000002
vn 1.000000 0.000013 0.000002
vn -0.920464 0.000000 -0.390828
vn -0.920464 0.000000 -0.390828
vn -0.354456 0.000000 0.935073
vn -0.354456 0.000000 0.935073
vn -0.004683 0.000030 0.999989
vn -0.049493 0.000348 0.998774
vn -0.049632 0.000349 0.998768
vn -0.004683 0.000030 0.999989
vn -0.013082 -0.724899 -0.688731
vn 0.010398 -0.661802 -0.749606
vn 0.029399 -0.671215 -0.740679
vn 0.014569 -0.714155 -0.699836
vn -0.011431 -0.726335 -0.687245
vn -0.333100 -0.822338 -0.461307
vn -0.491314 -0.826912 -0.273546
vn -0.568250 -0.814988 -0.113517
vn -0.586280 -0.810109 -0.000000
vn -0.568249 -0.814989 0.113517
vn -0.491313 -0.826912 0.273547
vn -0.333103 -0.822339 0.461304
vn -0.011431 -0.726335 0.687245
vn 0.014569 -0.714155 0.699836
vn 0.029400 -0.671215 0.740680
vn 0.007547 -0.565649 0.824612
vn -0.036947 -0.450806 0.891857
vn 0.102397 0.706645 -0.700120
s 1
g pCube148
usemtl initialShadingGroup
f 8/14/1 128/142/2 129/143/3 10/7/4
s 2
f 7/16/5 8/14/6 10/7/7 11/8/8
s 1
f 117/130/9 118/131/10 7/16/11 11/8/12
s 4
f 5/5/13 6/15/14 12/172/15 9/6/16
s 1
f 27/35/17 122/136/18 123/137/19 34/46/20
f 118/131/10 119/132/21 28/36/22 7/16/11
f 24/29/23 127/141/24 128/142/2 8/14/1
f 10/7/4 129/143/3 130/144/25 14/11/26
s 2
f 11/8/8 10/7/7 14/11/27 15/12/28
s 1
f 116/129/29 117/130/9 11/8/12 15/12/30
s 4
f 9/6/16 12/172/15 16/171/31 13/10/32
s 1
f 14/11/26 130/144/25 131/145/33 2/2/34
s 2
f 15/12/28 14/11/27 2/2/35 3/3/36
s 1
f 115/128/37 116/129/29 15/12/30 3/3/38
s 4
f 13/10/32 16/171/31 4/167/39 1/1/40
s 1
f 124/138/41 125/139/42 22/26/43 21/24/44
f 125/139/42 126/140/45 23/28/46 22/26/43
f 126/140/45 127/141/24 24/29/23 23/28/46
f 27/35/17 26/33/47 121/135/48 122/136/18
f 26/33/47 25/31/49 120/133/50 121/135/48
f 25/30/49 28/36/22 119/132/21 120/134/50
s 2
f 25/30/51 26/32/52 27/34/53 34/47/54 21/25/55 22/27/56 23/28/57 24/29/58 28/36/59
s 4
f 32/43/60 18/19/61 19/20/62 20/22/63 17/17/64 33/45/65 29/38/66 30/40/67 31/41/68
s 1
f 34/46/20 123/137/19 124/138/41 21/24/44
s off
f 44/102/69 90/101/70 93/106/71 43/160/72
s 1
f 36/48/73 60/70/74 57/67/75 35/49/76
s 4
f 57/67/77 58/164/78 37/165/79 35/49/80
s 1
f 114/127/81 37/50/82 58/68/83
s 2
f 59/69/84 60/70/85 36/48/86 38/51/87
s 9
f 113/126/88 36/194/89 35/195/90 112/125/91
s 10
f 35/161/92 37/192/93 61/166/94 47/57/95 45/55/96 53/63/97 49/59/98 51/61/99 41/52/100 98/189/101 108/175/102 101/114/103 39/148/104 110/147/105 112/146/106
s 11
f 56/66/107 94/190/108 103/183/109 96/109/110 91/105/111 90/101/112 44/102/113
s off
f 91/105/114 40/100/115 39/103/116 92/150/117
s 4
f 1/1/40 4/167/39 58/164/78 57/67/77
s 1
f 114/127/81 115/128/37 3/3/38 59/69/118
s 2
f 3/3/36 2/2/35 60/70/85 59/69/84
s 1
f 60/70/74 2/2/34 131/145/33
s off
f 38/191/119 62/72/120 61/71/121 37/193/122
s 12
f 83/93/123 84/94/124 64/154/125 63/73/126
s 13
f 89/99/127 72/82/128 63/158/129 64/74/130
s 14
f 86/96/131 87/151/132 65/75/133
s 15
f 65/152/134 87/97/135 88/98/136 71/81/137
s 16
f 79/89/138 80/90/139 67/77/140 66/76/141
s 17
f 75/85/142 76/86/143 66/159/144 67/155/145
s 18
f 77/87/146 78/88/147 68/78/148
s 19
f 78/88/149 79/89/150 66/76/151 68/78/152
s 20
f 76/86/153 77/162/154 68/163/155 66/159/156
s 21
f 81/91/157 82/92/158 70/80/159 69/79/160
s 22
f 73/83/161 74/84/162 69/156/163 70/157/164
s 23
f 82/92/165 83/93/166 63/73/167 70/80/168
s 24
f 72/82/169 73/83/170 70/157/171 63/158/172
s 25
f 65/75/173 71/153/174 85/95/175 86/96/176
s 26
f 80/90/177 81/91/178 69/79/179 67/77/180
s 27
f 74/84/181 75/85/182 67/155/183 69/156/184
s 28
f 88/98/185 89/99/186 64/74/187 71/81/188
s 29
f 84/94/189 85/95/190 71/153/191 64/154/192
s 24
f 51/61/193 49/59/194 73/83/170 72/82/169
s 22
f 49/59/195 53/63/196 74/84/162 73/83/161
s 27
f 53/63/197 45/55/198 75/85/182 74/84/181
s 17
f 45/55/199 47/57/200 76/86/143 75/85/142
s 20
f 47/57/201 61/166/202 77/162/154 76/86/153
s 18
f 62/72/203 78/88/147 77/87/146 61/71/204
s 19
f 62/72/205 48/58/206 79/89/150 78/88/149
s 16
f 48/58/207 46/56/208 80/90/139 79/89/138
s 26
f 46/56/209 54/64/210 81/91/178 80/90/177
s 21
f 54/64/211 50/60/212 82/92/158 81/91/157
s 23
f 50/60/213 52/62/214 83/93/166 82/92/165
s 12
f 52/62/215 42/53/216 84/94/124 83/93/123
s 29
f 42/53/217 56/66/218 85/95/190 84/94/189
s 25
f 86/96/176 85/95/175 56/66/219 44/102/220
s 14
f 87/151/132 86/96/131 44/102/221 43/160/222
s 15
f 88/98/136 87/97/135 43/54/223 55/65/224
s 28
f 55/65/225 41/52/226 89/99/186 88/98/185
s 13
f 41/52/227 51/61/228 72/82/128 89/99/127
s off
f 90/101/229 91/105/230 92/150/231 93/106/232
s 11
f 38/191/233 36/194/234 113/126/235 111/124/236 40/100/237 97/174/238 109/173/239 95/178/240 42/53/241 52/62/242 50/60/243 54/64/244 46/56/245 48/58/246 62/72/247
f 96/109/110 105/181/248 97/174/238 40/100/237 91/105/111
f 42/53/241 95/178/240 107/177/249 94/190/108 56/66/107
s 10
f 92/104/250 100/188/251 102/186/252 99/180/253 55/65/254 43/54/255 93/149/256
f 99/180/253 106/179/257 98/189/101 41/52/100 55/65/254
f 39/148/104 101/114/103 104/182/258 100/188/251 92/104/250
s 30
f 102/115/259 103/116/260 94/107/261 99/112/262
s 31
f 95/108/263 98/111/264 106/119/265 107/120/266
f 104/117/267 105/118/268 96/184/269 100/187/270
f 97/110/271 101/176/272 108/121/273 109/122/274
s 30
f 100/113/275 96/185/276 103/116/260 102/115/259
s 31
f 97/110/271 105/118/268 104/117/267 101/176/272
f 107/120/266 106/119/265 99/112/277 94/107/278
f 109/122/274 108/121/273 98/111/264 95/108/263
s 9
f 40/100/279 111/124/280 110/123/281 39/103/282
f 111/124/280 113/126/88 112/125/91 110/123/281
s 1
f 4/4/283 115/128/37 114/127/81 58/68/83
f 16/13/284 116/129/29 115/128/37 4/4/283
f 12/9/285 117/130/9 116/129/29 16/13/284
f 6/170/286 118/131/10 117/130/9 12/9/285
f 32/168/287 119/132/21 118/131/10 6/170/286
f 120/134/50 119/132/21 32/168/287 31/169/288
f 121/135/48 120/133/50 31/42/288 30/39/289
f 122/136/18 121/135/48 30/39/289 29/37/290
f 123/137/19 122/136/18 29/37/290 33/44/291
f 124/138/41 123/137/19 33/44/291 17/18/292
f 17/18/292 20/23/293 125/139/42 124/138/41
f 20/23/293 19/21/294 126/140/45 125/139/42
f 19/21/294 18/19/295 127/141/24 126/140/45
f 128/142/2 127/141/24 18/19/295 5/5/296
f 129/143/3 128/142/2 5/5/296 9/6/297
f 130/144/25 129/143/3 9/6/297 13/10/298
f 131/145/33 130/144/25 13/10/298 1/1/299
s 4
f 6/15/14 5/5/13 18/19/61 32/43/60
s 2
f 28/36/59 24/29/58 8/14/6 7/16/5
s 1
f 114/127/81 59/69/118 38/51/300
f 114/127/81 38/51/300 37/50/82
f 60/70/74 131/145/33 57/67/75
f 57/67/75 131/145/33 1/1/299
