# This file uses centimeters as units for non-parametric coordinates.

mtllib Fork.mtl
g default
v 0.807329 -0.071777 0.049343
v 0.807521 -0.047861 0.049343
v 0.807521 -0.047861 -0.049343
v 0.807329 -0.071777 -0.049343
v -0.481127 0.035733 0.054637
v -0.481127 0.035733 -0.054637
v -0.481127 0.060169 -0.054637
v -0.481127 0.060169 0.054637
v -0.065146 0.041355 0.045695
v -0.065259 0.065754 0.045695
v -0.065259 0.065754 -0.045695
v -0.065146 0.041355 -0.045695
v 0.348249 0.007366 0.034724
v 0.348249 0.031802 0.034724
v 0.348249 0.031802 -0.034724
v 0.348249 0.007366 -0.034724
v 0.832897 -0.081642 -0.077235
v 0.832897 -0.081639 0.077235
v 0.833071 -0.057471 -0.077235
v 0.833071 -0.057481 0.077235
v 0.896030 -0.093148 -0.102033
v 0.896030 -0.093414 0.102033
v 0.896159 -0.069130 -0.102033
v 0.896159 -0.069388 0.102033
v 0.935085 -0.095675 -0.107361
v 0.935085 -0.096327 0.107361
v 0.935172 -0.071857 -0.107361
v 0.935172 -0.072477 0.107361
v 1.338282 -0.025118 -0.097750
v 1.338282 -0.025118 0.097750
v 1.338282 -0.013419 -0.097750
v 1.338282 -0.013419 0.097750
v 1.338282 -0.024841 -0.037338
v 1.338282 -0.013142 -0.037338
v 1.009948 -0.058527 -0.012519
v 1.009948 -0.083041 -0.012519
v 1.338282 -0.024745 0.021988
v 1.338282 -0.013046 0.021988
v 1.009905 -0.088605 -0.080834
v 1.009948 -0.063994 -0.080834
v 1.338282 -0.024878 0.042737
v 1.338282 -0.013179 0.042737
v 1.009948 -0.058919 0.017430
v 1.009948 -0.083444 0.017430
v 1.338282 -0.024694 -0.017529
v 1.338282 -0.012995 -0.017529
v 1.009948 -0.061794 -0.051128
v 1.009948 -0.086372 -0.051128
v 1.338282 -0.025094 -0.082162
v 1.338282 -0.013395 -0.082162
v 1.338282 -0.025118 0.084098
v 1.338282 -0.013419 0.084098
v 1.009948 -0.086703 0.054885
v 1.009948 -0.062122 0.054885
v 1.009948 -0.064125 0.084267
v 1.009905 -0.088738 0.084267
v 0.982167 -0.094922 0.069202
v 0.982213 -0.070408 0.069202
v 0.982167 -0.084598 0.002443
v 0.982213 -0.060056 0.002443
v 0.982167 -0.094468 -0.065627
v 0.982213 -0.069947 -0.065627
v -0.845248 0.005088 0.026812
v -0.814922 0.007236 0.054637
v -0.827088 0.006406 0.051709
v -0.836521 0.005750 0.043711
v -0.845234 0.029547 0.026812
v -0.836507 0.030209 0.043711
v -0.827074 0.030865 0.051709
v -0.814908 0.031694 0.054637
v -0.827074 0.030865 -0.051709
v -0.836507 0.030209 -0.043711
v -0.845234 0.029547 -0.026812
v -0.814908 0.031694 -0.054637
v -0.845248 0.005088 -0.026812
v -0.836521 0.005750 -0.043711
v -0.827088 0.006406 -0.051709
v -0.814922 0.007236 -0.054637
v -0.848347 0.004667 0.000000
v -0.848333 0.029133 0.000000
v 0.861231 -0.087269 -0.089420
v 0.861383 -0.063172 -0.089420
v 0.861383 -0.063304 0.089420
v 0.861231 -0.087397 0.089420
vt 0.509491 0.000977
vt 0.365542 0.327836
vt 0.015019 0.996782
vt 0.000977 0.998563
vt 0.088882 0.965435
vt 0.436984 0.332487
vt 0.424116 0.326421
vt 0.095492 0.229700
vt 0.088523 0.477257
vt 0.179835 0.453584
vt 0.074152 0.476269
vt 0.020115 0.475916
vt 0.232991 0.462803
vt 0.080610 0.723283
vt 0.144376 0.695951
vt 0.066286 0.721415
vt 0.025191 0.721191
vt 0.184770 0.702956
vt 0.492909 0.017034
vt 0.452181 0.314649
vt 0.439132 0.309905
vt 0.349633 0.311730
vt 0.320059 0.277155
vt 0.598459 0.055687
vt 0.453724 0.272098
vt 0.333814 0.274541
vt 0.474687 0.077939
vt 0.471284 0.250751
vt 0.457295 0.248916
vt 0.329383 0.251743
vt 0.475227 0.319706
vt 0.458499 0.008838
vt 0.451637 0.007956
vt 0.324293 0.010912
vt 0.558759 0.321240
vt 0.405243 0.009127
vt 0.399833 0.205343
vt 0.545749 0.124275
vt 0.519947 0.320758
vt 0.379422 0.009937
vt 0.587001 0.123589
vt 0.441522 0.204592
vt 0.367128 0.003021
vt 0.367168 0.009929
vt 0.381897 0.205722
vt 0.527447 0.123985
vt 0.393289 0.002764
vt 0.492693 0.361479
vt 0.422723 0.204531
vt 0.568625 0.124121
vt 0.442498 0.000977
vt 0.996955 0.349426
vt 0.483284 0.319894
vt 0.332347 0.010518
vt 0.783060 0.318954
vt 0.359678 0.205957
vt 0.341127 0.206740
vt 0.487795 0.122491
vt 0.764444 0.314789
vt 0.350906 0.222932
vt 0.278379 0.329835
vt 0.391243 0.221811
vt 0.786335 0.293785
vt 0.432371 0.221073
vt 0.081061 0.230319
vt 0.280157 0.221730
vt 0.015987 0.230324
vt 0.216598 0.210708
vt 0.269639 0.000977
vt 0.067875 0.004998
vt 0.093381 0.028490
vt 0.250384 0.015851
vt 0.253321 0.009055
vt 0.087832 0.019118
vt 0.258927 0.004362
vt 0.080845 0.011851
vt 0.063615 0.017075
vt 0.073038 0.022173
vt 0.077543 0.027146
vt 0.079580 0.033641
vt 0.018870 0.026810
vt 0.023163 0.021853
vt 0.032556 0.017057
vt 0.016878 0.033472
vt 0.027382 0.003620
vt 0.300830 0.006385
vt 0.014655 0.012000
vt 0.309776 0.013180
vt 0.008099 0.019684
vt 0.313949 0.026875
vt 0.048005 0.000977
vt 0.285550 0.001862
vt 0.048075 0.015037
vt 0.591164 0.034800
vt 0.446412 0.292965
vt 0.341755 0.295076
vt 0.485592 0.034049
vt 0.328032 0.298770
vt 0.477996 0.054842
vt 0.460270 0.296387
vt 0.467641 0.274462
vt 0.001472 0.229588
vt 0.577449 0.107174
vt 0.767687 0.297945
vt 0.497023 0.105898
vt 0.745973 0.319186
vt 0.332011 0.003618
vt 0.505270 0.123099
vt 0.317479 0.012083
vt 0.774016 0.333802
vt 0.595733 0.320839
vt 0.804869 0.297927
vt 0.404975 0.002224
vt 0.547065 0.321154
vt 0.297028 0.329826
vt 0.379382 0.003028
vt 0.507702 0.320445
vt 0.604928 0.320488
vt 0.315481 0.254101
vt 0.601440 0.078812
vt 0.336575 0.316603
vt 0.584094 0.017695
vt 0.087447 0.999023
vt 0.146282 0.975390
vt 0.567747 0.001399
vt 0.010838 0.722901
vt 0.005726 0.476755
vt 0.003313 0.028725
vt 0.313474 0.019487
vt 0.352477 0.334792
vt 0.073432 0.997086
vt 0.323958 0.004010
vt 0.451702 0.001048
vt 0.536852 0.107885
vt 0.259808 0.331503
vt 0.553802 0.364555
vt 0.997209 0.342525
vt 0.492349 0.354581
vt 0.978234 0.348252
vt 0.580173 0.368454
vt 0.572590 0.327784
vt 0.785829 0.308251
vt 0.804360 0.312446
vt 0.279124 0.344304
vt 0.297749 0.344280
vt 0.765003 0.329249
vt 0.783597 0.333455
vt 0.746535 0.333705
vt 0.978489 0.355154
vt 0.554081 0.371455
vt 0.767204 0.312446
vt 0.260575 0.345961
vt 0.774016 0.348280
vt 0.442435 0.007885
vt 0.580173 0.375360
vt 0.393557 0.009668
vt 0.572359 0.334686
vn 0.012259 0.000028 0.999925
vn 0.011592 0.000027 0.999933
vn 0.024065 0.000056 0.999710
vn 0.023940 0.000055 0.999713
vn -0.048042 0.998845 0.000000
vn -0.048042 0.998845 0.000000
vn 0.028211 0.999602 0.000000
vn 0.028211 0.999602 0.000000
vn 0.011592 0.000027 -0.999933
vn 0.012259 0.000028 -0.999925
vn 0.023940 0.000055 -0.999713
vn 0.024065 0.000056 -0.999710
vn 0.048113 -0.998842 0.000000
vn 0.048113 -0.998842 0.000000
vn -0.028199 -0.999602 0.000000
vn -0.028199 -0.999602 0.000000
vn 0.063626 -0.000046 0.997974
vn 0.076521 -0.000058 0.997068
vn 0.050418 0.000000 0.998728
vn 0.057691 0.000000 0.998335
vn -0.964557 0.000564 -0.263874
vn -0.966047 0.000565 -0.258368
vn -1.000000 0.000587 0.000000
vn -1.000000 0.000587 0.000000
vn -0.009302 0.000005 -0.999957
vn -0.007713 0.000004 -0.999970
vn -0.007713 0.000004 0.999970
vn -0.009302 0.000005 0.999957
vn -0.006303 0.000098 0.999980
vn -0.001607 0.000093 0.999999
vn 0.130138 0.991496 0.000000
vn 0.130138 0.991496 0.000000
vn -0.001607 0.000093 -0.999999
vn -0.006303 0.000098 -0.999980
vn -0.129630 -0.991562 0.000000
vn -0.129630 -0.991562 0.000000
vn -0.101951 0.000669 0.994789
vn -0.074612 0.000457 0.997213
vn 0.192908 0.981217 0.000005
vn 0.192909 0.981217 0.000005
vn -0.074632 0.000457 -0.997211
vn -0.101974 0.000669 -0.994787
vn -0.193047 -0.981189 0.000002
vn -0.193047 -0.981189 0.000002
vn -0.233577 -0.972338 -0.000283
vn -0.233582 -0.972337 -0.000283
vn -0.736276 0.005609 -0.676659
vn -0.736276 0.005609 -0.676659
vn 0.233575 0.972339 0.000337
vn 0.233571 0.972340 0.000337
vn -0.736275 0.005611 0.676659
vn -0.736275 0.005611 0.676659
vn -0.177153 -0.984183 -0.000817
vn -0.177153 -0.984183 -0.000817
vn -0.106466 -0.994315 -0.001751
vn -0.106460 -0.994315 -0.001751
vn -0.362599 0.002274 -0.931943
vn -0.368228 0.002344 -0.929732
vn -0.243290 0.001340 -0.969953
vn -0.229163 0.001245 -0.973387
vn 0.179372 0.983781 0.000825
vn 0.179372 0.983781 0.000825
vn 0.110305 0.993896 0.001686
vn 0.110310 0.993896 0.001686
vn -0.368275 0.002345 0.929714
vn -0.362519 0.002273 0.931974
vn -0.228679 0.001241 0.973501
vn -0.243656 0.001342 0.969861
vn -0.011328 -0.999643 -0.024202
vn -0.016160 -0.999708 0.017973
vn 0.006131 0.000017 -0.999981
vn 0.003993 0.000026 -0.999992
vn -0.002960 0.999989 -0.003599
vn -0.006719 0.999926 0.010115
vn 0.004087 0.000025 0.999992
vn 0.006058 0.000017 0.999982
vn 0.178279 -0.971736 -0.154742
vn 0.179763 -0.971301 -0.155753
vn 0.179763 -0.971301 -0.155753
vn 0.023841 -0.000058 -0.999716
vn 0.023841 -0.000058 -0.999716
vn -0.149025 0.985505 -0.081066
vn -0.148972 0.985670 -0.079128
vn -0.148972 0.985670 -0.079128
vn 0.023841 -0.000058 0.999716
vn 0.023841 -0.000058 0.999716
vn 0.080450 -0.000039 -0.996759
vn 0.104295 -0.000063 -0.994546
vn 0.998856 -0.001379 0.047792
vn 0.999349 -0.001360 -0.036058
vn 1.000000 0.000000 0.000000
vn 0.023366 0.000001 -0.999727
vn 0.029166 0.000001 -0.999575
vn 1.000000 0.000000 0.000000
vn 0.062795 -0.000047 -0.998026
vn 0.075030 -0.000058 -0.997181
vn 0.999968 -0.000922 -0.007988
vn 0.999976 -0.000922 0.006907
vn 0.049676 -0.000087 0.998765
vn 0.073044 -0.000129 0.997329
vn 0.031336 -0.000004 0.999509
vn 0.037882 -0.000004 0.999282
vn 0.081898 0.000000 0.996641
vn 0.073095 0.000000 0.997325
vn 0.050655 -0.000000 -0.998716
vn 0.058376 -0.000000 -0.998295
vn 0.076423 -0.000000 -0.997076
vn 0.084825 -0.000000 -0.996396
vn 1.000000 0.000000 0.000000
vn 1.000000 0.000000 0.000000
vn 0.044754 -0.000081 -0.998998
vn 0.068797 -0.000124 -0.997631
vn 0.999012 -0.001379 -0.044421
vn 0.999445 -0.001362 0.033285
vn 0.075224 -0.000038 0.997167
vn 0.099325 -0.000062 0.995055
vn -0.966047 0.000565 0.258368
vn -0.811045 0.000469 0.584983
vn -0.804778 0.000465 0.593576
vn -0.964557 0.000564 0.263874
vn -0.459562 0.000262 0.888146
vn -0.443315 0.000253 0.896366
vn -0.804778 0.000465 -0.593576
vn -0.811045 0.000469 -0.584983
vn -0.443315 0.000253 -0.896366
vn -0.459562 0.000262 -0.888146
vn -0.084041 0.996462 0.000000
vn -0.084041 0.996462 0.000000
vn -0.084041 0.996462 0.000000
vn -0.084041 0.996462 0.000000
vn -0.084041 0.996462 0.000000
vn -0.084041 0.996462 0.000000
vn -0.084041 0.996462 0.000000
vn -0.084041 0.996462 0.000000
vn -0.084041 0.996462 0.000000
vn 0.084106 -0.996457 0.000000
vn 0.084106 -0.996457 0.000000
vn 0.084106 -0.996457 0.000000
vn 0.084106 -0.996457 0.000000
vn 0.084106 -0.996457 0.000000
vn 0.084106 -0.996457 0.000000
vn 0.084106 -0.996457 0.000000
vn 0.084106 -0.996457 0.000000
vn 0.084106 -0.996457 0.000000
vn -0.394750 0.002676 -0.918785
vn -0.394750 0.002676 -0.918785
vn -0.394740 0.002677 0.918789
vn -0.394740 0.002677 0.918789
vn 0.077622 -0.996974 -0.004314
vn 0.179465 -0.969476 0.167056
vn 0.177415 -0.981698 -0.069231
vn 0.177471 -0.981710 -0.068921
vn 0.179588 -0.982076 -0.057230
vn 0.179588 -0.982076 -0.057230
vn 0.177286 -0.981734 0.069050
vn 0.177247 -0.981718 0.069380
vn 0.178523 -0.982197 0.058467
vn 0.178523 -0.982197 0.058467
vn 0.347273 -0.935497 -0.065162
vn 0.021399 -0.997299 0.070258
vn 0.180841 -0.969045 0.168071
vn 0.180841 -0.969045 0.168071
vn -0.147777 0.985832 0.079362
vn -0.147856 0.985938 0.077876
vn -0.147856 0.985938 0.077876
vn -0.021865 0.993325 -0.113258
vn -0.198989 0.979995 0.003562
vn -0.126009 0.989769 -0.066932
vn -0.114190 0.989919 -0.083794
vn -0.126574 0.989629 0.067927
vn -0.032876 0.993248 0.111251
vn -0.117526 0.989629 0.082596
vn -0.142036 0.988239 0.056650
vn -0.142036 0.988239 0.056650
vn -0.140979 0.988327 -0.057749
vn -0.140979 0.988327 -0.057749
s 1
g pCube142
usemtl initialShadingGroup
f 8/65/1 5/8/2 9/9/3 10/11/4
s 2
f 7/67/5 8/65/6 10/11/7 11/12/8
s 1
f 6/102/9 7/67/10 11/12/11 12/127/12
s 4
f 5/68/13 6/66/14 12/13/15 9/10/16
s 5
f 35/145/17 36/115/18 45/138/19 46/48/20
s 1
f 73/83/21 75/85/22 79/91/23 80/93/24
f 78/128/25 74/84/26 7/67/10 6/102/9
f 70/80/27 64/71/28 5/8/2 8/65/1
f 10/11/4 9/9/3 13/14/29 14/16/30
s 2
f 11/12/8 10/11/7 14/16/31 15/17/32
s 1
f 12/127/12 11/12/11 15/17/33 16/126/34
s 4
f 9/10/16 12/13/15 16/18/35 13/15/36
s 1
f 14/16/30 13/14/29 1/123/37 2/131/38
s 2
f 15/17/32 14/16/31 2/131/39 3/3/40
s 1
f 16/126/34 15/17/33 3/3/41 4/4/42
s 4
f 13/15/36 16/18/35 4/124/43 1/5/44
f 1/1/44 4/125/43 17/122/45 18/19/46
s 1
f 4/6/42 3/7/41 19/21/47 17/20/48
s 2
f 3/7/40 2/2/39 20/22/49 19/21/50
s 1
f 2/2/38 1/130/37 18/121/51 20/22/52
s 4
f 84/97/53 81/94/54 21/24/55 22/99/56
s 7
f 81/100/57 82/95/58 23/25/59 21/101/60
s 2
f 82/95/61 83/96/62 24/26/63 23/25/64
s 8
f 83/96/65 84/98/66 22/23/67 24/26/68
s 4
f 22/99/56 21/24/55 25/120/69 26/27/70
s 7
f 21/101/60 23/25/59 27/29/71 25/28/72
s 2
f 23/25/64 24/26/63 28/30/73 27/29/74
s 8
f 24/26/68 22/23/67 26/119/75 28/30/76
s 4
f 39/41/77 25/120/69 29/118/78 49/111/79
s 7
f 25/28/72 27/29/71 31/33/80 29/32/81
s 2
f 55/57/82 28/30/73 32/34/83 52/54/84
s 8
f 28/30/76 26/119/75 30/109/85 32/34/86
s 5
f 47/151/87 48/104/88 61/63/89 62/142/90
f 30/132/91 51/107/92 52/54/93 32/34/94
f 43/152/95 44/135/96 59/61/97 60/144/98
f 40/143/99 39/112/100 49/137/101 50/52/102
f 42/44/103 41/43/104 37/116/105 38/40/106
f 38/155/106 37/140/105 44/110/96 43/153/95
f 46/156/20 45/47/19 33/113/107 34/36/108
f 34/157/108 33/141/107 48/104/88 47/151/87
f 50/154/102 49/51/101 29/133/109 31/33/110
f 55/148/111 56/106/112 57/59/113 58/146/114
f 54/147/115 53/55/116 41/139/104 42/149/103
f 52/150/93 51/136/92 56/106/112 55/148/111
f 58/146/114 57/59/113 53/55/116 54/147/115
f 60/144/98 59/61/97 36/115/18 35/145/17
f 62/142/90 61/63/89 39/112/100 40/143/99
s 1
f 63/70/117 66/76/118 68/78/119 67/77/120
f 66/76/118 65/74/121 69/79/122 68/78/119
f 65/74/121 64/71/28 70/80/27 69/79/122
f 73/83/21 72/82/123 76/87/124 75/85/22
f 72/82/123 71/81/125 77/89/126 76/87/124
f 71/81/125 74/84/26 78/128/25 77/89/126
s 2
f 71/81/127 72/82/128 73/83/129 80/93/130 67/77/131 68/78/132 69/79/133 70/80/134 8/65/6 7/67/5 74/84/135
s 4
f 6/66/14 5/68/13 64/72/136 65/73/137 66/75/138 63/69/139 79/92/140 75/86/141 76/88/142 77/129/143 78/90/144
s 1
f 80/93/24 79/91/23 63/70/117 67/77/120
s 7
f 17/20/145 19/21/146 82/95/58 81/100/57
s 2
f 19/21/50 20/22/49 83/96/62 82/95/61
s 8
f 20/22/147 18/121/148 84/98/66 83/96/65
s 4
f 18/19/46 17/122/45 81/94/54 84/97/53
f 26/27/70 57/105/149 56/58/150
f 26/27/70 25/120/69 57/105/149
f 53/108/151 44/46/152 37/39/153 41/117/154
f 36/38/155 48/50/156 33/35/157 45/114/158
f 57/105/149 25/120/69 59/134/159
f 59/134/159 25/120/69 61/103/160
f 61/103/160 25/120/69 39/41/77
f 59/134/159 61/103/160 48/50/156 36/38/155
f 57/105/149 59/134/159 44/46/152 53/108/151
f 26/27/70 56/58/150 51/53/161 30/31/162
s 2
f 27/29/74 40/42/163 50/154/164 31/33/165
f 27/29/74 62/64/166 40/42/163
f 27/29/74 60/62/167 35/37/168
f 27/29/74 35/37/168 47/49/169 62/64/166
f 27/29/74 28/30/73 60/62/167
f 60/62/167 28/30/73 43/45/170
f 43/45/170 28/30/73 58/60/171 54/56/172
f 58/60/171 28/30/73 55/57/82
f 43/45/170 54/56/172 42/44/173 38/40/174
f 47/49/169 35/37/168 46/156/175 34/36/176
