# This file uses centimeters as units for non-parametric coordinates.

mtllib Frying Pan Large.mtl
g default
v 0.913528 0.316632 -0.619972
v 0.662393 0.316632 -0.965630
v 0.316735 0.316632 -1.216765
v -0.089610 0.316632 -1.348795
v -0.516866 0.316632 -1.348795
v -0.923211 0.316632 -1.216765
v -1.268869 0.316632 -0.965630
v -1.520004 0.316632 -0.619972
v -1.652033 0.316632 -0.213629
v -1.652033 0.316632 0.213629
v -1.520004 0.316632 0.619972
v -1.268869 0.316632 0.965631
v -0.923211 0.316632 1.216765
v -0.516866 0.316632 1.348794
v -0.089610 0.316632 1.348794
v 0.316735 0.316632 1.216765
v 0.662393 0.316632 0.965631
v 0.913527 0.316632 0.619972
v 1.045557 0.316632 0.213629
v 1.045557 0.316632 -0.213629
v 1.010419 0.316632 -0.208062
v 0.881830 0.316632 -0.603822
v 0.637237 0.316632 -0.940475
v 0.300584 0.316632 -1.185068
v -0.095175 0.316632 -1.313657
v -0.511301 0.316632 -1.313657
v -0.907060 0.316632 -1.185068
v -1.243713 0.316632 -0.940475
v -1.488306 0.316632 -0.603822
v -1.616895 0.316632 -0.208062
v -1.616895 0.316632 0.208063
v -1.488306 0.316632 0.603822
v -1.243713 0.316632 0.940475
v -0.907060 0.316632 1.185067
v -0.511301 0.316632 1.313657
v -0.095175 0.316632 1.313657
v 0.300584 0.316632 1.185067
v 0.637237 0.316632 0.940475
v 0.881829 0.316632 0.603822
v 1.010419 0.316632 0.208063
v 0.760101 0.027633 -0.168416
v 0.656014 0.027633 -0.488763
v 0.458029 0.027633 -0.761267
v 0.185526 0.027633 -0.959252
v -0.134821 0.027633 -1.063339
v -0.471655 0.027633 -1.063339
v -0.792002 0.027633 -0.959252
v -1.064504 0.027633 -0.761267
v -1.262490 0.027633 -0.488762
v -1.366578 0.027633 -0.168416
v -1.366578 0.027633 0.168417
v -1.262490 0.027633 0.488762
v -1.064504 0.027633 0.761267
v -0.792002 0.027633 0.959252
v -0.471655 0.027633 1.063338
v -0.134822 0.027633 1.063338
v 0.185526 0.027633 0.959252
v 0.458029 0.027633 0.761267
v 0.656013 0.027633 0.488762
v 0.760101 0.027633 0.168417
v 0.614423 -0.012128 -0.467572
v 0.771468 0.102951 -0.547590
v 0.425022 -0.012128 -0.728260
v 0.549653 0.102951 -0.852891
v 0.164334 -0.012128 -0.917660
v 0.244352 0.102951 -1.074706
v -0.142124 -0.012128 -1.017235
v -0.114550 0.102951 -1.191320
v -0.464352 -0.012128 -1.017235
v -0.491926 0.102951 -1.191320
v -0.770810 -0.012128 -0.917660
v -0.850829 0.102951 -1.074705
v -1.031498 -0.012128 -0.728260
v -1.156129 0.102951 -0.852891
v -1.220900 -0.012128 -0.467571
v -1.377944 0.102951 -0.547590
v -1.320473 -0.012128 -0.161114
v -1.494557 0.102951 -0.188687
v -1.320473 -0.012128 0.161115
v -1.494557 0.102951 0.188687
v -1.220900 -0.012128 0.467571
v -1.377944 0.102951 0.547590
v -1.031498 -0.012128 0.728259
v -1.156129 0.102951 0.852892
v -0.770810 -0.012128 0.917660
v -0.850829 0.102951 1.074705
v -0.464352 -0.012128 1.017235
v -0.491926 0.102951 1.191320
v -0.142124 -0.012128 1.017234
v -0.114550 0.102951 1.191320
v 0.164334 -0.012128 0.917660
v 0.244352 0.102951 1.074705
v 0.425021 -0.012128 0.728259
v 0.549653 0.102951 0.852892
v 0.614422 -0.012128 0.467571
v 0.771467 0.102951 0.547590
v 0.713997 -0.012128 0.161115
v 0.888082 0.102951 0.188687
v 0.713997 -0.012128 -0.161114
v 0.888082 0.102951 -0.188687
v 0.859238 0.086238 0.180851
v 1.013560 0.284770 0.180851
v 1.013560 0.284770 -0.180851
v 0.859238 0.086238 -0.180851
v 3.163028 0.238649 0.156849
v 3.163028 0.238649 -0.156848
v 3.163028 0.260254 -0.127167
v 3.163028 0.260254 0.127167
v 1.069335 0.218505 0.104385
v 1.069335 0.218505 -0.104385
v 1.069335 0.273164 -0.084631
v 1.069335 0.273164 0.084631
v 1.040315 0.171242 0.104385
v 1.040315 0.171242 -0.104385
v 1.040315 0.284770 -0.104385
v 1.040315 0.284770 0.104385
v 3.163028 0.254259 0.000000
v 1.069335 0.224670 0.000000
v 1.069335 0.218505 0.052192
v 3.163028 0.251759 0.078424
v 1.069335 0.218505 -0.052192
v 3.163028 0.251759 -0.078424
v 3.163028 0.266143 0.000000
v 3.163028 0.264961 0.078424
v 3.163028 0.264961 -0.078424
v 3.163028 0.241093 0.117636
v 1.069335 0.208369 0.078289
v 1.069335 0.208369 -0.078289
v 3.163028 0.241093 -0.117636
v 1.069335 0.276077 0.000000
v 1.069335 0.273164 0.042316
v 1.069335 0.273164 -0.042316
v 3.270617 0.251759 0.059183
v 3.270617 0.264961 0.059183
v 3.270617 0.260254 0.095967
v 3.270617 0.238649 0.118367
v 3.270617 0.241093 0.088775
v 3.270617 0.251759 -0.059183
v 3.270617 0.264961 -0.059183
v 3.270617 0.266143 0.000000
v 3.270617 0.254259 0.000000
v 3.270617 0.238649 -0.118367
v 3.270617 0.260254 -0.095967
v 3.270617 0.241093 -0.088775
v 0.975467 0.158611 0.104385
v 0.975467 0.158611 -0.104385
vt 0.644754 0.342805
vt 0.566838 0.379977
vt 0.504216 0.439420
vt 0.463035 0.515307
vt 0.447317 0.600178
vt 0.458580 0.685770
vt 0.495755 0.763706
vt 0.555207 0.826337
vt 0.631095 0.867520
vt 0.716000 0.883236
vt 0.801604 0.871934
vt 0.879508 0.834731
vt 0.942087 0.775312
vt 0.983281 0.699463
vt 0.999023 0.614573
vt 0.987751 0.528962
vt 0.950575 0.451036
vt 0.891129 0.388405
vt 0.815230 0.347219
vt 0.730326 0.331514
vt 0.730154 0.338168
vt 0.813010 0.353494
vt 0.887078 0.393686
vt 0.945089 0.454806
vt 0.981369 0.530852
vt 0.992370 0.614397
vt 0.977007 0.697239
vt 0.936806 0.771261
vt 0.875736 0.829247
vt 0.799710 0.865553
vt 0.716172 0.876582
vt 0.633315 0.861245
vt 0.559258 0.821056
vt 0.501241 0.759936
vt 0.464962 0.683882
vt 0.453970 0.600353
vt 0.469310 0.517528
vt 0.509497 0.443471
vt 0.570608 0.385462
vt 0.646646 0.349186
vt 0.728825 0.409122
vt 0.789809 0.420565
vt 0.844273 0.450297
vt 0.886880 0.495407
vt 0.913462 0.551479
vt 0.921410 0.613015
vt 0.909951 0.673993
vt 0.880206 0.728445
vt 0.835104 0.771066
vt 0.779046 0.797658
vt 0.717512 0.805623
vt 0.656528 0.794178
vt 0.602060 0.764445
vt 0.559453 0.719336
vt 0.532874 0.663267
vt 0.524926 0.601731
vt 0.536373 0.540738
vt 0.566106 0.486276
vt 0.611215 0.443669
vt 0.667284 0.417087
vt 0.086931 0.071995
vt 0.036983 0.138263
vt 0.006318 0.217957
vt 0.000977 0.304055
vt 0.022413 0.388252
vt 0.068782 0.461924
vt 0.135590 0.517721
vt 0.216284 0.550165
vt 0.302994 0.556139
vt 0.387254 0.535038
vt 0.460828 0.488974
vt 0.516615 0.422545
vt 0.549469 0.342205
vt 0.555975 0.255623
vt 0.535428 0.171286
vt 0.489911 0.097451
vt 0.423871 0.041122
vt 0.343735 0.007916
vt 0.257656 0.000977
vt 0.102899 0.059283
vt 0.174548 0.019964
vt 0.153747 0.134094
vt 0.124899 0.105600
vt 0.130047 0.101239
vt 0.115019 0.180546
vt 0.080944 0.161675
vt 0.092885 0.235877
vt 0.054902 0.227884
vt 0.088909 0.294900
vt 0.050256 0.298905
vt 0.103409 0.352801
vt 0.067761 0.368319
vt 0.134963 0.403314
vt 0.105801 0.429021
vt 0.180479 0.441576
vt 0.160664 0.475015
vt 0.235526 0.463883
vt 0.226977 0.501808
vt 0.294702 0.468140
vt 0.298262 0.506844
vt 0.352234 0.453887
vt 0.367560 0.489603
vt 0.402511 0.422541
vt 0.428106 0.451799
vt 0.440628 0.377139
vt 0.474039 0.397186
vt 0.463309 0.322304
vt 0.501182 0.331143
vt 0.467896 0.263213
vt 0.506637 0.259971
vt 0.453979 0.205620
vt 0.489829 0.190615
vt 0.422888 0.155125
vt 0.452441 0.129858
vt 0.377729 0.116525
vt 0.398153 0.083456
vt 0.322813 0.093732
vt 0.332197 0.056066
vt 0.263392 0.088887
vt 0.261081 0.050320
vt 0.205077 0.102596
vt 0.191532 0.066216
vt 0.000977 0.897233
vt 0.041904 0.911867
vt 0.389630 0.587007
vt 0.429975 0.587023
vt 0.097871 0.502503
vt 0.380093 0.978294
vt 0.091788 0.896657
vt 0.090965 0.502885
vt 0.059389 0.897877
vt 0.043008 0.504108
vt 0.049156 0.893474
vt 0.036024 0.503937
vt 0.390285 0.577788
vt 0.429216 0.577687
vt 0.096670 0.903892
vt 0.055595 0.905201
vt 0.040027 0.889780
vt 0.443460 0.539685
vt 0.375863 0.539848
vt 0.111196 0.909547
vt 0.409724 0.978303
vt 0.409815 0.588315
vt 0.400014 0.587699
vt 0.395030 0.978317
vt 0.419600 0.587734
vt 0.424436 0.978299
vt 0.066976 0.503631
vt 0.052225 0.503979
vt 0.081740 0.503223
vt 0.387436 0.978311
vt 0.394866 0.586604
vt 0.424736 0.586666
vt 0.432048 0.978294
vt 0.075583 0.897579
vt 0.067476 0.897719
vt 0.083641 0.896974
vt 0.055535 0.483582
vt 0.048638 0.484385
vt 0.387171 0.998432
vt 0.392732 0.998477
vt 0.398626 0.998426
vt 0.077515 0.482989
vt 0.066544 0.483128
vt 0.066450 0.480862
vt 0.420816 0.998427
vt 0.089850 0.481643
vt 0.084292 0.483094
vt 0.426704 0.998481
vt 0.030155 0.891508
vt 0.390225 0.565427
vt 0.429218 0.565331
vt 0.119806 0.887416
vt 0.110124 0.886084
vt 0.439391 0.978289
vt 0.102097 0.892587
vt 0.146852 0.887280
vt 0.084061 0.479424
vt 0.432269 0.998450
vt 0.077761 0.480466
vt 0.055044 0.481171
vt 0.409715 0.998437
vt 0.048928 0.481085
vt 0.043462 0.482488
vn 0.000000 1.000000 0.000000
vn 0.000000 1.000000 0.000000
vn 0.000000 1.000000 0.000000
vn 0.000000 1.000000 0.000000
vn 0.000000 1.000000 0.000000
vn 0.000000 1.000000 0.000000
vn 0.000000 1.000000 0.000000
vn 0.000000 1.000000 0.000000
vn 0.000000 1.000000 0.000000
vn 0.000000 1.000000 0.000000
vn 0.000000 1.000000 0.000000
vn 0.000000 1.000000 0.000000
vn 0.000000 1.000000 0.000000
vn 0.000000 1.000000 0.000000
vn 0.000000 1.000000 0.000000
vn 0.000000 1.000000 0.000000
vn 0.000000 1.000000 0.000000
vn 0.000000 1.000000 0.000000
vn 0.000000 1.000000 0.000000
vn 0.000000 1.000000 0.000000
vn 0.000000 1.000000 0.000000
vn 0.000000 1.000000 -0.000000
vn 0.000000 1.000000 -0.000000
vn 0.000000 1.000000 0.000000
vn 0.000000 1.000000 -0.000000
vn 0.000000 1.000000 -0.000000
vn 0.000000 1.000000 -0.000000
vn 0.000000 1.000000 -0.000000
vn 0.000000 1.000000 -0.000000
vn 0.000000 1.000000 -0.000000
vn 0.000000 1.000000 0.000000
vn 0.000000 1.000000 -0.000000
vn 0.000000 1.000000 0.000000
vn 0.000000 1.000000 0.000000
vn 0.000000 1.000000 0.000000
vn 0.000000 1.000000 0.000000
vn 0.000000 1.000000 -0.000000
vn 0.000000 1.000000 -0.000000
vn 0.000000 1.000000 -0.000000
vn 0.000000 1.000000 -0.000000
vn 0.000000 1.000000 0.000000
vn 0.000000 1.000000 0.000000
vn 0.000000 1.000000 0.000000
vn 0.000000 1.000000 0.000000
vn 0.000000 1.000000 0.000000
vn 0.000000 1.000000 0.000000
vn 0.000000 1.000000 -0.000000
vn 0.000000 1.000000 -0.000000
vn 0.000000 1.000000 0.000000
vn 0.000000 1.000000 0.000000
vn 0.000000 1.000000 0.000000
vn 0.000000 1.000000 0.000000
vn 0.000000 1.000000 -0.000000
vn 0.000000 1.000000 -0.000000
vn 0.000000 1.000000 -0.000000
vn 0.000000 1.000000 -0.000000
vn 0.000000 1.000000 -0.000000
vn 0.000000 1.000000 -0.000000
vn 0.000000 1.000000 0.000000
vn 0.000000 1.000000 0.000000
vn -0.742592 0.659336 0.117614
vn -0.669902 0.659336 0.341331
vn -0.669902 0.659336 0.341332
vn -0.742592 0.659336 0.117615
vn -0.531637 0.659336 0.531637
vn -0.531637 0.659336 0.531637
vn -0.341332 0.659336 0.669902
vn -0.341332 0.659336 0.669902
vn -0.117615 0.659336 0.742592
vn -0.117615 0.659335 0.742592
vn 0.117615 0.659336 0.742592
vn 0.117615 0.659336 0.742592
vn 0.341332 0.659336 0.669902
vn 0.341332 0.659336 0.669902
vn 0.531637 0.659336 0.531637
vn 0.531637 0.659336 0.531637
vn 0.669902 0.659335 0.341333
vn 0.669902 0.659336 0.341333
vn 0.742593 0.659334 0.117616
vn 0.742593 0.659334 0.117616
vn 0.742593 0.659334 -0.117616
vn 0.742593 0.659334 -0.117616
vn 0.669902 0.659336 -0.341333
vn 0.669902 0.659336 -0.341333
vn 0.531637 0.659336 -0.531637
vn 0.531637 0.659336 -0.531637
vn 0.341332 0.659336 -0.669902
vn 0.341332 0.659336 -0.669902
vn 0.117615 0.659336 -0.742592
vn 0.117615 0.659336 -0.742592
vn -0.117615 0.659336 -0.742592
vn -0.117615 0.659336 -0.742592
vn -0.341332 0.659336 -0.669902
vn -0.341332 0.659336 -0.669902
vn -0.531637 0.659336 -0.531637
vn -0.531637 0.659336 -0.531637
vn -0.669902 0.659336 -0.341332
vn -0.669902 0.659336 -0.341332
vn -0.742592 0.659336 -0.117615
vn -0.742592 0.659336 -0.117616
vn 0.014108 -0.999898 -0.002234
vn 0.012727 -0.999898 -0.006485
vn 0.638747 -0.697194 -0.325458
vn 0.708056 -0.697194 -0.112145
vn 0.506912 -0.697194 -0.506912
vn 0.010100 -0.999898 -0.010100
vn 0.325458 -0.697195 -0.638746
vn 0.006485 -0.999898 -0.012727
vn 0.112145 -0.697194 -0.708056
vn 0.002234 -0.999898 -0.014108
vn -0.112146 -0.697194 -0.708056
vn -0.002234 -0.999898 -0.014108
vn -0.325458 -0.697195 -0.638746
vn -0.006485 -0.999898 -0.012727
vn -0.506912 -0.697194 -0.506913
vn -0.010100 -0.999898 -0.010100
vn -0.638747 -0.697194 -0.325458
vn -0.012727 -0.999898 -0.006485
vn -0.708057 -0.697194 -0.112144
vn -0.014108 -0.999898 -0.002234
vn -0.708057 -0.697194 0.112144
vn -0.014108 -0.999898 0.002234
vn -0.638747 -0.697194 0.325458
vn -0.012727 -0.999898 0.006485
vn -0.506912 -0.697195 0.506912
vn -0.010100 -0.999898 0.010100
vn -0.325458 -0.697194 0.638747
vn -0.006485 -0.999898 0.012727
vn -0.112145 -0.697194 0.708056
vn -0.002234 -0.999898 0.014108
vn 0.112145 -0.697194 0.708056
vn 0.002234 -0.999898 0.014108
vn 0.325457 -0.697195 0.638747
vn 0.006485 -0.999898 0.012727
vn 0.506912 -0.697195 0.506912
vn 0.010100 -0.999898 0.010100
vn 0.638747 -0.697195 0.325458
vn 0.012727 -0.999898 0.006485
vn 0.708056 -0.697194 0.112145
vn 0.014108 -0.999898 0.002234
vn 0.566732 -0.598021 -0.566732
vn 0.714124 -0.598021 -0.363864
vn 0.363865 -0.598021 -0.714124
vn 0.125379 -0.598021 -0.791613
vn -0.125379 -0.598021 -0.791613
vn -0.363864 -0.598022 -0.714124
vn -0.566732 -0.598022 -0.566732
vn -0.714124 -0.598022 -0.363864
vn -0.791612 -0.598023 -0.125378
vn -0.791612 -0.598022 0.125378
vn -0.714124 -0.598022 0.363864
vn -0.566732 -0.598021 0.566732
vn -0.363864 -0.598020 0.714125
vn -0.125379 -0.598020 0.791614
vn 0.125379 -0.598020 0.791613
vn 0.363864 -0.598021 0.714125
vn 0.566732 -0.598021 0.566732
vn 0.714125 -0.598021 0.363864
vn 0.791613 -0.598021 0.125380
vn 0.791613 -0.598021 -0.125379
vn 0.014463 -0.999895 0.000000
vn 0.077305 -0.997007 0.000000
vn 0.096767 -0.985405 0.140046
vn 0.014768 -0.988735 0.148945
vn -0.008700 0.529106 -0.848511
vn -0.012231 0.533739 -0.845561
vn -0.010597 0.554257 -0.832278
vn -0.012996 0.551599 -0.834008
vn 0.004455 0.999090 -0.042428
vn 0.021242 0.998993 -0.039510
vn 0.018918 0.999821 -0.000000
vn 0.003900 0.999992 -0.000000
vn -0.012231 0.533745 0.845557
vn -0.008700 0.529111 0.848508
vn -0.012997 0.551605 0.834004
vn -0.010597 0.554263 0.832274
vn 0.531517 -0.847047 0.000000
vn 0.531517 -0.847047 0.000000
vn 0.111934 -0.987747 -0.108749
vn 0.114640 -0.988836 0.095192
vn 0.096767 -0.985405 -0.140045
vn 0.114639 -0.988836 -0.095192
vn 0.111933 -0.987747 0.108749
vn 0.652499 -0.428681 -0.624882
vn 0.639017 -0.402674 -0.655371
vn 0.077194 0.997016 0.000000
vn 0.077194 0.997016 0.000000
vn 0.030779 0.998377 0.047919
vn 0.021242 0.998993 0.039510
vn 0.030779 0.998377 -0.047918
vn 0.639017 -0.402674 0.655371
vn 0.652499 -0.428681 0.624882
vn 0.462624 -0.886555 0.000000
vn 0.462624 -0.886555 0.000000
vn 0.661184 -0.446306 -0.603031
vn 0.661184 -0.446306 -0.603031
vn 0.661184 -0.446306 -0.603031
vn -0.000007 1.000000 0.000000
vn -0.000007 1.000000 0.000000
vn 0.661184 -0.446306 0.603031
vn 0.661184 -0.446306 0.603031
vn 0.661184 -0.446306 0.603031
vn 1.000000 0.000000 0.000000
vn 1.000000 0.000000 0.000000
vn 1.000000 0.000000 0.000000
vn 1.000000 0.000000 0.000000
vn 1.000000 0.000000 0.000000
vn 0.012329 -0.994772 -0.101377
vn 0.014768 -0.988735 -0.148945
vn 0.012329 -0.994772 0.101378
vn 1.000000 0.000000 0.000000
vn 1.000000 0.000000 0.000000
vn 1.000000 0.000000 0.000000
vn 1.000000 0.000000 0.000000
vn 1.000000 0.000000 0.000000
vn 1.000000 0.000000 0.000000
vn 1.000000 0.000000 0.000000
vn 0.008660 -0.993968 0.109329
vn 0.008660 -0.993968 -0.109329
vn 0.004455 0.999090 0.042428
vn 0.004903 0.998536 0.053877
vn 0.004903 0.998536 -0.053877
vn 0.025643 0.993668 0.109393
vn 0.009573 0.998805 0.047928
vn 0.202483 0.753674 0.625281
vn 0.202483 0.753674 0.625281
vn -0.048474 -0.977517 -0.205209
vn -0.022171 -0.997241 -0.070841
vn -0.022034 -0.993234 -0.114020
vn 0.001535 0.999999 0.000000
vn 0.009573 0.998805 -0.047928
vn -0.022034 -0.993234 0.114020
vn -0.003250 -0.999995 -0.000000
vn 0.202487 0.753666 -0.625289
vn 0.202487 0.753666 -0.625289
vn 0.025643 0.993668 -0.109393
vn -0.048475 -0.977517 0.205211
vn -0.022171 -0.997241 0.070842
vn 0.528576 -0.848886 0.000000
vn 0.528576 -0.848886 0.000000
s off
g pCylinder85
usemtl initialShadingGroup
f 41/41/1 42/42/2 43/43/3 44/44/4 45/45/5 46/46/6 47/47/7 48/48/8 49/49/9 50/50/10 51/51/11 52/52/12 53/53/13 54/54/14 55/55/15 56/56/16 57/57/17 58/58/18 59/59/19 60/60/20
s 1
f 20/20/21 1/19/22 22/22/23 21/21/24
f 1/19/22 2/18/25 23/23/26 22/22/23
f 2/18/25 3/17/27 24/24/28 23/23/26
f 3/17/27 4/16/29 25/25/30 24/24/28
f 4/16/29 5/15/31 26/26/32 25/25/30
f 5/15/31 6/14/33 27/27/34 26/26/32
f 6/14/33 7/13/35 28/28/36 27/27/34
f 7/13/35 8/12/37 29/29/38 28/28/36
f 8/12/37 9/11/39 30/30/40 29/29/38
f 9/11/39 10/10/41 31/31/42 30/30/40
f 10/10/41 11/9/43 32/32/44 31/31/42
f 11/9/43 12/8/45 33/33/46 32/32/44
f 12/8/45 13/7/47 34/34/48 33/33/46
f 13/7/47 14/6/49 35/35/50 34/34/48
f 14/6/49 15/5/51 36/36/52 35/35/50
f 15/5/51 16/4/53 37/37/54 36/36/52
f 16/4/53 17/3/55 38/38/56 37/37/54
f 17/3/55 18/2/57 39/39/58 38/38/56
f 18/2/57 19/1/59 40/40/60 39/39/58
f 19/1/59 20/20/21 21/21/24 40/40/60
s 2
f 21/21/61 22/22/62 42/42/63 41/41/64
f 22/22/62 23/23/65 43/43/66 42/42/63
f 23/23/65 24/24/67 44/44/68 43/43/66
f 24/24/67 25/25/69 45/45/70 44/44/68
f 25/25/69 26/26/71 46/46/72 45/45/70
f 26/26/71 27/27/73 47/47/74 46/46/72
f 27/27/73 28/28/75 48/48/76 47/47/74
f 28/28/75 29/29/77 49/49/78 48/48/76
f 29/29/77 30/30/79 50/50/80 49/49/78
f 30/30/79 31/31/81 51/51/82 50/50/80
f 31/31/81 32/32/83 52/52/84 51/51/82
f 32/32/83 33/33/85 53/53/86 52/52/84
f 33/33/85 34/34/87 54/54/88 53/53/86
f 34/34/87 35/35/89 55/55/90 54/54/88
f 35/35/89 36/36/91 56/56/92 55/55/90
f 36/36/91 37/37/93 57/57/94 56/56/92
f 37/37/93 38/38/95 58/58/96 57/57/94
f 38/38/95 39/39/97 59/59/98 58/58/96
f 39/39/97 40/40/99 60/60/100 59/59/98
f 40/40/99 21/21/61 41/41/64 60/60/100
s 3
f 99/121/101 61/82/102 62/84/103 100/122/104
f 64/86/105 62/83/103 61/82/102 63/85/106
f 66/88/107 64/86/105 63/85/106 65/87/108
f 68/90/109 66/88/107 65/87/108 67/89/110
f 70/92/111 68/90/109 67/89/110 69/91/112
f 72/94/113 70/92/111 69/91/112 71/93/114
f 74/96/115 72/94/113 71/93/114 73/95/116
f 76/98/117 74/96/115 73/95/116 75/97/118
f 78/100/119 76/98/117 75/97/118 77/99/120
f 80/102/121 78/100/119 77/99/120 79/101/122
f 82/104/123 80/102/121 79/101/122 81/103/124
f 84/106/125 82/104/123 81/103/124 83/105/126
f 86/108/127 84/106/125 83/105/126 85/107/128
f 88/110/129 86/108/127 85/107/128 87/109/130
f 90/112/131 88/110/129 87/109/130 89/111/132
f 92/114/133 90/112/131 89/111/132 91/113/134
f 94/116/135 92/114/133 91/113/134 93/115/136
f 96/118/137 94/116/135 93/115/136 95/117/138
f 98/120/139 96/118/137 95/117/138 97/119/140
f 99/121/101 100/122/104 98/120/139 97/119/140
f 62/83/103 64/86/105 2/62/141 1/61/142
f 64/86/105 66/88/107 3/63/143 2/62/141
f 66/88/107 68/90/109 4/64/144 3/63/143
f 68/90/109 70/92/111 5/65/145 4/64/144
f 70/92/111 72/94/113 6/66/146 5/65/145
f 72/94/113 74/96/115 7/67/147 6/66/146
f 74/96/115 76/98/117 8/68/148 7/67/147
f 76/98/117 78/100/119 9/69/149 8/68/148
f 78/100/119 80/102/121 10/70/150 9/69/149
f 80/102/121 82/104/123 11/71/151 10/70/150
f 82/104/123 84/106/125 12/72/152 11/71/151
f 84/106/125 86/108/127 13/73/153 12/72/152
f 86/108/127 88/110/129 14/74/154 13/73/153
f 88/110/129 90/112/131 15/75/155 14/74/154
f 90/112/131 92/114/133 16/76/156 15/75/155
f 92/114/133 94/116/135 17/77/157 16/76/156
f 94/116/135 96/118/137 18/78/158 17/77/157
f 96/118/137 98/120/139 19/79/159 18/78/158
f 98/120/139 100/122/104 20/81/160 19/79/159
f 100/122/104 62/84/103 1/80/142 20/81/160
f 97/119/140 95/117/138 93/115/136 91/113/134 89/111/132 87/109/130 85/107/128 83/105/126 81/103/124 79/101/122 77/99/120 75/97/118 73/95/116 71/93/114 69/91/112 67/89/110 65/87/108 63/85/106 61/82/102 99/121/101
s 4
f 117/143/161 118/144/162 121/147/163 122/148/164
s 5
f 110/177/165 111/129/166 107/130/167 106/127/168
s 6
f 125/151/169 132/158/170 130/156/171 123/149/172
s 7
f 112/131/173 109/133/174 105/134/175 108/132/176
s 4
f 113/135/177 114/136/178 110/126/179 128/154/180 121/147/163 118/144/162 119/145/181 127/153/182 109/125/183
s 5
f 114/175/184 115/137/185 111/129/166 110/177/165
s 6
f 115/137/186 116/138/187 112/131/188 131/157/189 130/156/171 132/158/170 111/129/190
s 7
f 116/138/191 113/139/192 109/133/174 112/131/173
s 4
f 145/172/193 146/173/194 114/136/178 113/135/177
s 5
f 103/142/195 115/137/185 114/175/184 146/174/196 104/178/197
s 6
f 102/124/198 116/138/187 115/137/186 103/142/199
s 7
f 101/123/200 145/171/201 113/139/192 116/138/191 102/124/202
s 8
f 133/182/203 134/159/204 135/160/205 136/185/206 137/184/207
s 4
f 126/152/208 127/153/182 119/145/181 120/146/209
f 120/146/209 119/145/181 118/144/162 117/143/161
f 122/148/164 121/147/163 128/154/180 129/155/210
s 8
f 138/181/211 139/164/212 140/165/213 141/166/214
f 141/166/214 140/165/213 134/159/204 133/182/203
f 142/168/215 143/169/216 139/164/212 138/181/211 144/179/217
s 4
f 109/125/183 127/153/182 126/152/208 105/128/218
f 129/155/210 128/154/180 110/126/179 106/176/219
s 6
f 124/150/220 131/157/189 112/131/188 108/132/221
f 123/149/172 130/156/171 131/157/189 124/150/220
f 111/129/190 132/158/170 125/151/169 107/130/222
f 124/150/220 108/132/221 135/160/223 134/159/224
s 7
f 108/132/176 105/134/175 136/185/225 135/160/226
s 4
f 105/128/218 126/152/208 137/162/227 136/161/228
f 126/152/208 120/146/209 133/163/229 137/162/227
s 6
f 125/151/169 123/149/172 140/165/230 139/164/231
s 4
f 117/143/161 122/148/164 138/167/232 141/183/233
s 6
f 123/149/172 124/150/220 134/159/224 140/165/230
s 4
f 120/146/209 117/143/161 141/183/233 133/163/229
s 5
f 106/127/168 107/130/167 143/169/234 142/168/235
s 6
f 107/130/222 125/151/169 139/164/231 143/169/236
s 4
f 122/148/164 129/155/210 144/170/237 138/167/232
f 129/155/210 106/176/219 142/180/238 144/170/237
f 104/140/239 146/173/194 145/172/193 101/141/240
