# This file uses centimeters as units for non-parametric coordinates.

mtllib Handled Pot Medium.mtl
g default
v 0.688550 0.737632 -0.350834
v 0.546436 0.737632 -0.546436
v 0.350834 0.737632 -0.688550
v 0.120889 0.737632 -0.763263
v -0.120889 0.737632 -0.763263
v -0.350834 0.737632 -0.688550
v -0.546436 0.737632 -0.546436
v -0.688549 0.737632 -0.350833
v -0.763263 0.737632 -0.120889
v -0.763263 0.737632 0.120889
v -0.688549 0.737632 0.350833
v -0.546436 0.737632 0.546436
v -0.350833 0.737632 0.688549
v -0.120889 0.737632 0.763263
v 0.120889 0.737632 0.763263
v 0.350833 0.737632 0.688549
v 0.546436 0.737632 0.546436
v 0.688549 0.737632 0.350833
v 0.763263 0.737632 0.120889
v 0.763263 0.737632 -0.120889
v 0.743379 0.737632 -0.117740
v 0.670612 0.737632 -0.341694
v 0.532201 0.737632 -0.532201
v 0.341694 0.737632 -0.670612
v 0.117740 0.737632 -0.743379
v -0.117740 0.737632 -0.743379
v -0.341694 0.737632 -0.670612
v -0.532201 0.737632 -0.532201
v -0.670612 0.737632 -0.341694
v -0.743379 0.737632 -0.117740
v -0.743379 0.737632 0.117740
v -0.670612 0.737632 0.341694
v -0.532201 0.737632 0.532201
v -0.341694 0.737632 0.670612
v -0.117740 0.737632 0.743379
v 0.117740 0.737632 0.743379
v 0.341694 0.737632 0.670612
v 0.532201 0.737632 0.532201
v 0.670612 0.737632 0.341694
v 0.743379 0.737632 0.117740
v 0.743379 -0.275572 -0.117740
v 0.670612 -0.275572 -0.341694
v 0.532201 -0.275572 -0.532201
v 0.341694 -0.275572 -0.670612
v 0.117740 -0.275572 -0.743379
v -0.117740 -0.275572 -0.743379
v -0.341694 -0.275572 -0.670612
v -0.532201 -0.275572 -0.532201
v -0.670612 -0.275572 -0.341694
v -0.743379 -0.275572 -0.117740
v -0.743379 -0.275572 0.117740
v -0.670612 -0.275572 0.341694
v -0.532201 -0.275572 0.532201
v -0.341694 -0.275572 0.670612
v -0.117740 -0.275572 0.743379
v 0.117740 -0.275572 0.743379
v 0.341694 -0.275572 0.670612
v 0.532201 -0.275572 0.532201
v 0.670612 -0.275572 0.341694
v 0.743379 -0.275572 0.117740
v 0.582147 -0.404289 -0.296619
v 0.688550 -0.322249 -0.350834
v 0.461994 -0.404289 -0.461994
v 0.546436 -0.322249 -0.546436
v 0.296619 -0.404289 -0.582147
v 0.350834 -0.322249 -0.688550
v 0.102208 -0.404289 -0.645315
v 0.120889 -0.322249 -0.763263
v -0.102208 -0.404289 -0.645315
v -0.120889 -0.322249 -0.763263
v -0.296618 -0.404289 -0.582147
v -0.350834 -0.322249 -0.688550
v -0.461994 -0.404289 -0.461994
v -0.546436 -0.322249 -0.546436
v -0.582147 -0.404289 -0.296618
v -0.688549 -0.322249 -0.350833
v -0.645315 -0.404289 -0.102208
v -0.763263 -0.322249 -0.120889
v -0.645315 -0.404289 0.102208
v -0.763263 -0.322249 0.120889
v -0.582147 -0.404289 0.296618
v -0.688549 -0.322249 0.350833
v -0.461994 -0.404289 0.461994
v -0.546436 -0.322249 0.546436
v -0.296618 -0.404289 0.582146
v -0.350833 -0.322249 0.688549
v -0.102208 -0.404289 0.645315
v -0.120889 -0.322249 0.763263
v 0.102208 -0.404289 0.645314
v 0.120889 -0.322249 0.763263
v 0.296618 -0.404289 0.582146
v 0.350833 -0.322249 0.688549
v 0.461994 -0.404289 0.461994
v 0.546436 -0.322249 0.546436
v 0.582146 -0.404289 0.296618
v 0.688549 -0.322249 0.350833
v 0.645314 -0.404289 0.102208
v 0.763263 -0.322249 0.120889
v 0.645314 -0.404289 -0.102208
v 0.763263 -0.322249 -0.120889
v 0.759287 0.433762 0.104385
v 0.759287 0.632294 0.104385
v 0.759287 0.632294 -0.104385
v 0.759287 0.433762 -0.104385
v 2.611308 0.586173 0.104385
v 2.611308 0.586173 -0.104385
v 2.611308 0.607778 -0.084632
v 2.611308 0.607778 0.084632
v 0.815063 0.566029 0.104385
v 0.815063 0.566029 -0.104385
v 0.815063 0.620688 -0.084632
v 0.815063 0.620688 0.084632
v 0.786043 0.518766 0.104385
v 0.786043 0.518766 -0.104385
v 0.786043 0.632294 -0.104385
v 0.786043 0.632294 0.104385
v 2.611308 0.601783 0.000000
v 0.815063 0.572194 0.000000
v 0.815063 0.566029 0.052192
v 2.611308 0.599282 0.052192
v 0.815063 0.566029 -0.052192
v 2.611308 0.599282 -0.052192
v 2.611308 0.613667 0.000000
v 2.611308 0.612485 0.052192
v 2.611308 0.612485 -0.052192
v 2.611308 0.588616 0.078289
v 0.815063 0.555893 0.078289
v 0.815063 0.555893 -0.078289
v 2.611308 0.588616 -0.078289
v 0.815063 0.623601 0.000000
v 0.815063 0.620688 0.042316
v 0.815063 0.620688 -0.042316
vt 0.541268 0.971797
vt 0.549195 0.924245
vt 0.554678 0.876128
vt 0.559101 0.827743
vt 0.562751 0.779181
vt 0.565670 0.730496
vt 0.567857 0.681726
vt 0.569302 0.632899
vt 0.569999 0.584037
vt 0.569941 0.535160
vt 0.569128 0.486284
vt 0.567557 0.437427
vt 0.565229 0.388603
vt 0.562145 0.339829
vt 0.558306 0.291125
vt 0.553715 0.242510
vt 0.548372 0.194010
vt 0.542262 0.145658
vt 0.535304 0.097493
vt 0.527128 0.049568
vt 0.523226 0.050473
vt 0.531368 0.098146
vt 0.538313 0.146200
vt 0.544415 0.194479
vt 0.549751 0.242914
vt 0.554337 0.291466
vt 0.558171 0.340109
vt 0.561251 0.388820
vt 0.563576 0.437582
vt 0.565145 0.486378
vt 0.565957 0.535191
vt 0.566014 0.584006
vt 0.565319 0.632806
vt 0.563876 0.681571
vt 0.561692 0.730279
vt 0.558776 0.778899
vt 0.555132 0.827390
vt 0.550718 0.875673
vt 0.545263 0.923552
vt 0.512548 0.003697
vt 0.683912 0.457433
vt 0.330135 0.126793
vt 0.336635 0.172301
vt 0.342406 0.217793
vt 0.347454 0.263303
vt 0.351781 0.308845
vt 0.355390 0.354423
vt 0.358283 0.400036
vt 0.360461 0.445680
vt 0.361923 0.491349
vt 0.362669 0.537036
vt 0.362698 0.582735
vt 0.362006 0.628439
vt 0.360589 0.674145
vt 0.358440 0.719853
vt 0.355552 0.765572
vt 0.351913 0.811321
vt 0.347525 0.857155
vt 0.342441 0.903226
vt 0.315079 0.035305
vt 0.018444 0.102886
vt 0.013311 0.152685
vt 0.009138 0.202670
vt 0.005926 0.252769
vt 0.003665 0.302938
vt 0.002345 0.353149
vt 0.001959 0.403380
vt 0.002501 0.453609
vt 0.003970 0.503817
vt 0.006363 0.553985
vt 0.009681 0.604091
vt 0.013924 0.654114
vt 0.019095 0.704027
vt 0.025198 0.753800
vt 0.032232 0.803391
vt 0.040185 0.852742
vt 0.048995 0.901761
vt 0.058454 0.950285
vt 0.067869 0.998008
vt 0.024475 0.053410
vt 0.910239 0.096258
vt 0.229954 0.124858
vt 0.871489 0.082798
vt 0.224846 0.171187
vt 0.830476 0.081971
vt 0.220978 0.217496
vt 0.791215 0.093858
vt 0.218088 0.263819
vt 0.757549 0.117296
vt 0.216081 0.310166
vt 0.732774 0.149990
vt 0.214924 0.356532
vt 0.719314 0.188740
vt 0.214607 0.402908
vt 0.718487 0.229753
vt 0.215130 0.449281
vt 0.730374 0.269014
vt 0.216492 0.495639
vt 0.753812 0.302680
vt 0.218692 0.541968
vt 0.786506 0.327455
vt 0.221729 0.588257
vt 0.825256 0.340916
vt 0.225601 0.634495
vt 0.866268 0.341742
vt 0.230307 0.680672
vt 0.905529 0.329855
vt 0.235848 0.726788
vt 0.939195 0.306417
vt 0.242239 0.772846
vt 0.963971 0.273723
vt 0.249535 0.818871
vt 0.977431 0.234973
vt 0.257908 0.864920
vt 0.978258 0.193961
vt 0.267838 0.911111
vt 0.966371 0.154700
vt 0.246748 0.031793
vt 0.264337 0.085210
vt 0.236961 0.078436
vt 0.622437 0.387535
vt 0.652453 0.380177
vt 0.576333 0.031745
vt 0.619758 0.031748
vt 0.685488 0.007111
vt 0.642044 0.003549
vt 0.685999 0.368871
vt 0.679601 0.007636
vt 0.651992 0.370225
vt 0.645226 0.007434
vt 0.640205 0.370779
vt 0.639321 0.007499
vt 0.577038 0.021813
vt 0.705008 0.378798
vt 0.687763 0.374534
vt 0.652255 0.375102
vt 0.632309 0.379456
vt 0.618903 0.003746
vt 0.576970 0.003869
vt 0.686080 0.379573
vt 0.662696 0.005115
vt 0.598055 0.033177
vt 0.587512 0.032502
vt 0.652185 0.005039
vt 0.608586 0.032533
vt 0.673674 0.004798
vt 0.662416 0.007509
vt 0.651852 0.007569
vt 0.672985 0.007435
vt 0.581791 0.393047
vt 0.581961 0.031299
vt 0.614127 0.031355
vt 0.614236 0.393046
vt 0.669255 0.368758
vt 0.660622 0.369320
vt 0.677646 0.368287
vt 0.680140 0.003997
vt 0.619509 0.393034
vt 0.647091 0.003458
vt 0.587460 0.393086
vt 0.608551 0.393090
vt 0.597998 0.393100
vt 0.618934 0.021687
vt 0.697886 0.369310
vt 0.576519 0.393039
vt 0.714934 0.386579
vt 0.308064 0.943651
vt 0.942933 0.121034
vt 0.295528 0.902602
vt 0.286053 0.858763
vt 0.277935 0.813912
vt 0.270781 0.768653
vt 0.264482 0.723202
vt 0.259010 0.677638
vt 0.254357 0.631993
vt 0.250527 0.586282
vt 0.247522 0.540519
vt 0.245344 0.494715
vt 0.243994 0.448883
vt 0.243474 0.403037
vt 0.243782 0.357190
vt 0.244921 0.311361
vt 0.246895 0.265572
vt 0.249723 0.219868
vt 0.253457 0.174344
vt 0.258220 0.129244
vt 0.680066 0.504531
vt 0.322922 0.081194
vt 0.690963 0.550512
vt 0.715535 0.590876
vt 0.751378 0.621671
vt 0.794982 0.639883
vt 0.842080 0.643728
vt 0.888062 0.632832
vt 0.928425 0.608260
vt 0.959220 0.572417
vt 0.977432 0.528812
vt 0.981278 0.481714
vt 0.970381 0.435733
vt 0.945809 0.395369
vt 0.909966 0.364574
vt 0.866362 0.346363
vt 0.819264 0.342517
vt 0.773282 0.353413
vt 0.732918 0.377986
vt 0.702124 0.413828
vt 0.280553 0.957641
vt 0.516231 0.001992
vt 0.031148 0.004507
vt 0.274890 0.044027
vt 0.537508 0.970327
vt 0.336988 0.950058
vn 0.000000 1.000000 0.000000
vn 0.000000 1.000000 0.000000
vn 0.000000 1.000000 0.000000
vn 0.000000 1.000000 0.000000
vn 0.000000 1.000000 0.000000
vn 0.000000 1.000000 0.000000
vn 0.000000 1.000000 0.000000
vn 0.000000 1.000000 0.000000
vn 0.000000 1.000000 0.000000
vn 0.000000 1.000000 0.000000
vn 0.000000 1.000000 0.000000
vn 0.000000 1.000000 0.000000
vn 0.000000 1.000000 0.000000
vn 0.000000 1.000000 0.000000
vn 0.000000 1.000000 0.000000
vn 0.000000 1.000000 0.000000
vn 0.000000 1.000000 0.000000
vn 0.000000 1.000000 0.000000
vn 0.000000 1.000000 0.000000
vn 0.000000 1.000000 0.000000
vn 0.000000 1.000000 0.000000
vn 0.000000 1.000000 0.000001
vn 0.000000 1.000000 0.000001
vn 0.000000 1.000000 0.000000
vn 0.000000 1.000000 0.000000
vn 0.000000 1.000000 0.000000
vn 0.000000 1.000000 -0.000001
vn 0.000000 1.000000 -0.000001
vn 0.000000 1.000000 -0.000001
vn 0.000000 1.000000 -0.000001
vn 0.000000 1.000000 -0.000001
vn 0.000000 1.000000 -0.000001
vn 0.000000 1.000000 -0.000002
vn 0.000000 1.000000 -0.000002
vn 0.000000 1.000000 0.000000
vn 0.000000 1.000000 0.000000
vn 0.000000 1.000000 0.000001
vn 0.000000 1.000000 0.000001
vn 0.000000 1.000000 -0.000000
vn 0.000000 1.000000 -0.000000
vn 0.000000 1.000000 0.000000
vn 0.000000 1.000000 0.000000
vn 0.000000 1.000000 -0.000001
vn 0.000000 1.000000 -0.000001
vn 0.000000 1.000000 -0.000000
vn 0.000000 1.000000 -0.000000
vn 0.000000 1.000000 -0.000002
vn 0.000000 1.000000 -0.000002
vn 0.000000 1.000000 -0.000004
vn 0.000000 1.000000 -0.000004
vn 0.000000 1.000000 -0.000001
vn 0.000000 1.000000 -0.000001
vn 0.000000 1.000000 0.000001
vn 0.000000 1.000000 0.000001
vn 0.000000 1.000000 0.000001
vn 0.000000 1.000000 0.000001
vn 0.000000 1.000000 -0.000000
vn 0.000000 1.000000 -0.000000
vn 0.000000 1.000000 -0.000000
vn 0.000000 1.000000 -0.000000
vn -0.987688 0.000000 0.156433
vn -0.891007 0.000000 0.453990
vn -0.891007 0.000000 0.453990
vn -0.987688 0.000000 0.156433
vn -0.707107 0.000000 0.707107
vn -0.707107 0.000000 0.707107
vn -0.453991 0.000000 0.891006
vn -0.453991 0.000000 0.891006
vn -0.156434 0.000000 0.987688
vn -0.156434 0.000000 0.987688
vn 0.156435 0.000000 0.987688
vn 0.156435 0.000000 0.987688
vn 0.453991 0.000000 0.891006
vn 0.453991 0.000000 0.891006
vn 0.707107 0.000000 0.707107
vn 0.707107 0.000000 0.707107
vn 0.891007 0.000000 0.453990
vn 0.891007 0.000000 0.453990
vn 0.987688 0.000000 0.156434
vn 0.987688 0.000000 0.156434
vn 0.987688 -0.000000 -0.156434
vn 0.987688 -0.000000 -0.156434
vn 0.891007 -0.000000 -0.453991
vn 0.891007 -0.000000 -0.453991
vn 0.707107 0.000000 -0.707107
vn 0.707107 0.000000 -0.707107
vn 0.453990 0.000000 -0.891007
vn 0.453990 0.000000 -0.891007
vn 0.156435 0.000000 -0.987688
vn 0.156435 0.000000 -0.987688
vn -0.156435 0.000000 -0.987688
vn -0.156435 0.000000 -0.987688
vn -0.453990 0.000000 -0.891007
vn -0.453990 0.000000 -0.891007
vn -0.707107 0.000000 -0.707107
vn -0.707107 0.000000 -0.707107
vn -0.891007 0.000000 -0.453990
vn -0.891007 0.000000 -0.453990
vn -0.987688 0.000000 -0.156435
vn -0.987688 0.000000 -0.156435
vn 0.015894 -0.999871 -0.002517
vn 0.014338 -0.999871 -0.007306
vn 0.887456 -0.089183 -0.452181
vn 0.983753 -0.089183 -0.155811
vn 0.704289 -0.089183 -0.704289
vn 0.011379 -0.999871 -0.011379
vn 0.452181 -0.089183 -0.887456
vn 0.007306 -0.999871 -0.014338
vn 0.155810 -0.089183 -0.983753
vn 0.002517 -0.999871 -0.015894
vn -0.155811 -0.089183 -0.983753
vn -0.002517 -0.999871 -0.015894
vn -0.452182 -0.089183 -0.887456
vn -0.007306 -0.999871 -0.014338
vn -0.704289 -0.089183 -0.704289
vn -0.011379 -0.999871 -0.011379
vn -0.887456 -0.089183 -0.452181
vn -0.014338 -0.999871 -0.007306
vn -0.983753 -0.089182 -0.155811
vn -0.015894 -0.999871 -0.002517
vn -0.983753 -0.089182 0.155811
vn -0.015894 -0.999871 0.002517
vn -0.887456 -0.089183 0.452181
vn -0.014338 -0.999871 0.007306
vn -0.704289 -0.089183 0.704289
vn -0.011379 -0.999871 0.011379
vn -0.452181 -0.089183 0.887456
vn -0.007306 -0.999871 0.014338
vn -0.155811 -0.089183 0.983753
vn -0.002517 -0.999871 0.015894
vn 0.155811 -0.089183 0.983753
vn 0.002517 -0.999871 0.015894
vn 0.452181 -0.089183 0.887456
vn 0.007306 -0.999871 0.014338
vn 0.704289 -0.089183 0.704289
vn 0.011379 -0.999871 0.011379
vn 0.887456 -0.089183 0.452181
vn 0.014338 -0.999871 0.007306
vn 0.983753 -0.089183 0.155812
vn 0.015894 -0.999871 0.002517
vn 0.707107 0.000000 -0.707107
vn 0.891007 0.000000 -0.453990
vn 0.453990 0.000000 -0.891007
vn 0.156434 0.000000 -0.987688
vn -0.156434 0.000000 -0.987688
vn -0.453991 0.000000 -0.891006
vn -0.707107 0.000000 -0.707106
vn -0.891007 0.000000 -0.453990
vn -0.987688 0.000000 -0.156434
vn -0.987688 0.000000 0.156434
vn -0.891007 0.000000 0.453990
vn -0.707107 0.000000 0.707107
vn -0.453990 0.000000 0.891007
vn -0.156435 0.000000 0.987688
vn 0.156435 0.000000 0.987688
vn 0.453990 0.000000 0.891007
vn 0.707107 0.000000 0.707107
vn 0.891007 0.000000 0.453990
vn 0.987688 0.000000 0.156435
vn 0.987688 0.000000 -0.156434
vn 0.017490 -0.999847 0.000000
vn 0.105754 -0.994392 0.000000
vn 0.130362 -0.976665 0.170677
vn 0.017474 -0.982661 0.184588
vn 0.012091 0.444588 -0.895653
vn 0.007956 0.449497 -0.893247
vn -0.000926 0.459969 -0.887934
vn -0.000926 0.459969 -0.887934
vn 0.005266 0.998635 -0.051966
vn 0.029750 0.998382 -0.048463
vn 0.026606 0.999646 0.000000
vn 0.004929 0.999988 0.000000
vn 0.007956 0.449497 0.893247
vn 0.012091 0.444588 0.895653
vn -0.000926 0.459969 0.887934
vn -0.000926 0.459969 0.887934
vn 0.920371 -0.391046 0.000000
vn 0.920371 -0.391046 0.000000
vn 0.158979 -0.978589 -0.130727
vn 0.155958 -0.981379 0.112131
vn 0.130362 -0.976665 -0.170677
vn 0.155958 -0.981379 -0.112131
vn 0.158979 -0.978589 0.130727
vn 0.027319 0.011964 -0.999555
vn 0.084850 0.037158 -0.995701
vn 0.144310 0.989533 0.000000
vn 0.144310 0.989533 0.000000
vn 0.042743 0.997485 0.056538
vn 0.029750 0.998382 0.048463
vn 0.042743 0.997485 -0.056538
vn 0.084850 0.037158 0.995701
vn 0.027319 0.011964 0.999555
vn 0.953864 -0.300239 0.000000
vn 0.953864 -0.300239 0.000000
vn 0.000000 0.000000 -1.000000
vn 0.000000 0.000000 -1.000000
vn -0.000004 1.000000 0.000000
vn -0.000004 1.000000 0.000000
vn 0.000000 0.000000 1.000000
vn 0.000000 0.000000 1.000000
vn 1.000000 0.000004 0.000000
vn 1.000000 0.000003 0.000000
vn 1.000000 0.000006 0.000000
vn 1.000000 0.000006 0.000000
vn 1.000000 0.000006 0.000000
vn 0.016413 -0.991980 -0.125323
vn 0.017474 -0.982661 -0.184588
vn 0.016413 -0.991980 0.125323
vn 1.000000 0.000004 0.000000
vn 1.000000 0.000003 0.000000
vn 1.000000 0.000000 0.000000
vn 1.000000 0.000000 0.000000
vn 1.000000 0.000006 0.000000
vn 1.000000 0.000006 0.000000
vn 1.000000 0.000006 0.000000
vn 0.014557 -0.989210 0.145780
vn 0.014557 -0.989210 -0.145780
vn 0.005266 0.998635 0.051966
vn 0.005693 0.998007 0.062847
vn 0.005693 0.998007 -0.062847
s off
g pCylinder84
usemtl initialShadingGroup
f 41/41/1 42/206/2 43/205/3 44/204/4 45/203/5 46/202/6 47/201/7 48/200/8 49/199/9 50/198/10 51/197/11 52/196/12 53/195/13 54/194/14 55/193/15 56/192/16 57/191/17 58/190/18 59/189/19 60/187/20
s 1
f 20/20/21 1/19/22 22/22/23 21/21/24
f 1/19/22 2/18/25 23/23/26 22/22/23
f 2/18/25 3/17/27 24/24/28 23/23/26
f 3/17/27 4/16/29 25/25/30 24/24/28
f 4/16/29 5/15/31 26/26/32 25/25/30
f 5/15/31 6/14/33 27/27/34 26/26/32
f 6/14/33 7/13/35 28/28/36 27/27/34
f 7/13/35 8/12/37 29/29/38 28/28/36
f 8/12/37 9/11/39 30/30/40 29/29/38
f 9/11/39 10/10/41 31/31/42 30/30/40
f 10/10/41 11/9/43 32/32/44 31/31/42
f 11/9/43 12/8/45 33/33/46 32/32/44
f 12/8/45 13/7/47 34/34/48 33/33/46
f 13/7/47 14/6/49 35/35/50 34/34/48
f 14/6/49 15/5/51 36/36/52 35/35/50
f 15/5/51 16/4/53 37/37/54 36/36/52
f 16/4/53 17/3/55 38/38/56 37/37/54
f 17/3/55 18/2/57 39/39/58 38/38/56
f 18/2/57 19/1/59 40/211/60 39/39/58
f 19/208/59 20/20/21 21/21/24 40/40/60
s 2
f 21/21/61 22/22/62 42/42/63 41/188/64
f 22/22/62 23/23/65 43/43/66 42/42/63
f 23/23/65 24/24/67 44/44/68 43/43/66
f 24/24/67 25/25/69 45/45/70 44/44/68
f 25/25/69 26/26/71 46/46/72 45/45/70
f 26/26/71 27/27/73 47/47/74 46/46/72
f 27/27/73 28/28/75 48/48/76 47/47/74
f 28/28/75 29/29/77 49/49/78 48/48/76
f 29/29/77 30/30/79 50/50/80 49/49/78
f 30/30/79 31/31/81 51/51/82 50/50/80
f 31/31/81 32/32/83 52/52/84 51/51/82
f 32/32/83 33/33/85 53/53/86 52/52/84
f 33/33/85 34/34/87 54/54/88 53/53/86
f 34/34/87 35/35/89 55/55/90 54/54/88
f 35/35/89 36/36/91 56/56/92 55/55/90
f 36/36/91 37/37/93 57/57/94 56/56/92
f 37/37/93 38/38/95 58/58/96 57/57/94
f 38/38/95 39/39/97 59/59/98 58/58/96
f 39/39/97 40/211/99 60/212/100 59/59/98
f 40/40/99 21/21/61 41/188/64 60/60/100
s 3
f 99/119/101 61/186/102 62/82/103 100/120/104
f 64/84/105 62/82/103 61/186/102 63/185/106
f 66/86/107 64/84/105 63/185/106 65/184/108
f 68/88/109 66/86/107 65/184/108 67/183/110
f 70/90/111 68/88/109 67/183/110 69/182/112
f 72/92/113 70/90/111 69/182/112 71/181/114
f 74/94/115 72/92/113 71/181/114 73/180/116
f 76/96/117 74/94/115 73/180/116 75/179/118
f 78/98/119 76/96/117 75/179/118 77/178/120
f 80/100/121 78/98/119 77/178/120 79/177/122
f 82/102/123 80/100/121 79/177/122 81/176/124
f 84/104/125 82/102/123 81/176/124 83/175/126
f 86/106/127 84/104/125 83/175/126 85/174/128
f 88/108/129 86/106/127 85/174/128 87/173/130
f 90/110/131 88/108/129 87/173/130 89/172/132
f 92/112/133 90/110/131 89/172/132 91/171/134
f 94/114/135 92/112/133 91/171/134 93/170/136
f 96/116/137 94/114/135 93/170/136 95/169/138
f 98/207/139 96/116/137 95/169/138 97/167/140
f 99/119/101 100/120/104 98/118/139 97/210/140
f 62/82/103 64/84/105 2/62/141 1/61/142
f 64/84/105 66/86/107 3/63/143 2/62/141
f 66/86/107 68/88/109 4/64/144 3/63/143
f 68/88/109 70/90/111 5/65/145 4/64/144
f 70/90/111 72/92/113 6/66/146 5/65/145
f 72/92/113 74/94/115 7/67/147 6/66/146
f 74/94/115 76/96/117 8/68/148 7/67/147
f 76/96/117 78/98/119 9/69/149 8/68/148
f 78/98/119 80/100/121 10/70/150 9/69/149
f 80/100/121 82/102/123 11/71/151 10/70/150
f 82/102/123 84/104/125 12/72/152 11/71/151
f 84/104/125 86/106/127 13/73/153 12/72/152
f 86/106/127 88/108/129 14/74/154 13/73/153
f 88/108/129 90/110/131 15/75/155 14/74/154
f 90/110/131 92/112/133 16/76/156 15/75/155
f 92/112/133 94/114/135 17/77/157 16/76/156
f 94/114/135 96/116/137 18/78/158 17/77/157
f 96/116/137 98/207/139 19/79/159 18/78/158
f 98/118/139 100/120/104 20/80/160 19/209/159
f 100/120/104 62/82/103 1/61/142 20/80/160
f 97/117/140 95/115/138 93/113/136 91/111/134 89/109/132 87/107/130 85/105/128 83/103/126 81/101/124 79/99/122 77/97/120 75/95/118 73/93/116 71/91/114 69/89/112 67/87/110 65/85/108 63/83/106 61/81/102 99/168/101
s 4
f 117/162/161 118/142/162 121/145/163 122/161/164
s 5
f 110/164/165 111/127/166 107/128/167 106/125/168
s 6
f 125/149/169 132/156/170 130/154/171 123/147/172
s 7
f 112/129/173 109/131/174 105/132/175 108/130/176
s 4
f 113/133/177 114/163/178 110/124/179 128/152/180 121/145/163 118/142/162 119/143/181 127/151/182 109/123/183
s 5
f 114/134/184 115/135/185 111/127/166 110/164/165
s 6
f 115/135/186 116/136/187 112/129/188 131/155/189 130/154/171 132/156/170 111/127/190
s 7
f 116/136/191 113/137/192 109/131/174 112/129/173
s 4
f 104/138/193 114/163/178 113/133/177 101/139/194
s 5
f 103/140/195 115/135/185 114/134/184 104/166/196
s 6
f 102/122/197 116/136/187 115/135/186 103/140/198
s 7
f 101/121/199 113/137/192 116/136/191 102/122/200
s 8
f 120/144/201 124/148/202 108/130/203 105/126/204 126/159/205
s 4
f 126/150/206 127/151/182 119/143/181 120/160/207
f 120/160/207 119/143/181 118/142/162 117/162/161
f 122/161/164 121/145/163 128/152/180 129/153/208
s 8
f 122/146/209 125/149/210 123/147/211 117/141/212
f 117/141/212 123/147/211 124/148/202 120/144/201
f 106/125/213 107/128/214 125/149/210 122/146/209 129/157/215
s 4
f 109/123/183 127/151/182 126/150/206 105/165/216
f 129/153/208 128/152/180 110/124/179 106/158/217
s 6
f 124/148/218 131/155/189 112/129/188 108/130/219
f 123/147/172 130/154/171 131/155/189 124/148/218
f 111/127/190 132/156/170 125/149/169 107/128/220
