# This file uses centimeters as units for non-parametric coordinates.

mtllib Handled Pot Large.mtl
g default
v 1.143640 0.843728 -0.582713
v 0.907597 0.843728 -0.907597
v 0.582713 0.843728 -1.143640
v 0.200789 0.843728 -1.267734
v -0.200789 0.843728 -1.267734
v -0.582713 0.843728 -1.143639
v -0.907597 0.843728 -0.907597
v -1.143639 0.843728 -0.582713
v -1.267734 0.843728 -0.200789
v -1.267734 0.843728 0.200789
v -1.143639 0.843728 0.582713
v -0.907597 0.843728 0.907597
v -0.582713 0.843728 1.143639
v -0.200789 0.843728 1.267734
v 0.200789 0.843728 1.267734
v 0.582713 0.843728 1.143639
v 0.907597 0.843728 0.907597
v 1.143639 0.843728 0.582713
v 1.267733 0.843728 0.200789
v 1.267733 0.843728 -0.200789
v 1.234708 0.843728 -0.195558
v 1.113847 0.843728 -0.567533
v 0.883954 0.843728 -0.883954
v 0.567533 0.843728 -1.113847
v 0.195559 0.843728 -1.234708
v -0.195559 0.843728 -1.234708
v -0.567533 0.843728 -1.113846
v -0.883953 0.843728 -0.883953
v -1.113846 0.843728 -0.567533
v -1.234708 0.843728 -0.195559
v -1.234708 0.843728 0.195559
v -1.113846 0.843728 0.567533
v -0.883953 0.843728 0.883953
v -0.567533 0.843728 1.113846
v -0.195559 0.843728 1.234708
v 0.195558 0.843728 1.234708
v 0.567533 0.843728 1.113846
v 0.883953 0.843728 0.883953
v 1.113846 0.843728 0.567533
v 1.234708 0.843728 0.195559
v 1.234708 -0.315209 -0.195558
v 1.113847 -0.315209 -0.567533
v 0.883954 -0.315209 -0.883954
v 0.567533 -0.315209 -1.113847
v 0.195559 -0.315209 -1.234708
v -0.195559 -0.315209 -1.234708
v -0.567533 -0.315209 -1.113846
v -0.883953 -0.315209 -0.883953
v -1.113846 -0.315209 -0.567533
v -1.234708 -0.315209 -0.195559
v -1.234708 -0.315209 0.195559
v -1.113846 -0.315209 0.567533
v -0.883953 -0.315209 0.883953
v -0.567533 -0.315209 1.113846
v -0.195559 -0.315209 1.234708
v 0.195558 -0.315209 1.234708
v 0.567533 -0.315209 1.113846
v 0.883953 -0.315209 0.883953
v 1.113846 -0.315209 0.567533
v 1.234708 -0.315209 0.195559
v 1.091877 -0.405060 -0.556339
v 0.966911 -0.462439 -0.492666
v 1.143640 -0.266533 -0.582713
v 0.866518 -0.405060 -0.866518
v 0.767345 -0.462439 -0.767345
v 0.907597 -0.266533 -0.907597
v 0.556339 -0.405060 -1.091877
v 0.492666 -0.462439 -0.966911
v 0.582713 -0.266533 -1.143640
v 0.191701 -0.405060 -1.210355
v 0.169761 -0.462439 -1.071829
v 0.200789 -0.266533 -1.267734
v -0.191701 -0.405060 -1.210355
v -0.169761 -0.462439 -1.071829
v -0.200789 -0.266533 -1.267734
v -0.556339 -0.405060 -1.091877
v -0.492665 -0.462439 -0.966911
v -0.582713 -0.266533 -1.143639
v -0.866518 -0.405060 -0.866518
v -0.767344 -0.462439 -0.767345
v -0.907597 -0.266533 -0.907597
v -1.091876 -0.405060 -0.556339
v -0.966910 -0.462439 -0.492665
v -1.143639 -0.266533 -0.582713
v -1.210354 -0.405060 -0.191701
v -1.071828 -0.462439 -0.169761
v -1.267734 -0.266533 -0.200789
v -1.210354 -0.405060 0.191701
v -1.071828 -0.462439 0.169761
v -1.267734 -0.266533 0.200789
v -1.091876 -0.405060 0.556339
v -0.966910 -0.462439 0.492665
v -1.143639 -0.266533 0.582713
v -0.866518 -0.405060 0.866518
v -0.767344 -0.462439 0.767344
v -0.907597 -0.266533 0.907597
v -0.556339 -0.405060 1.091876
v -0.492665 -0.462439 0.966910
v -0.582713 -0.266533 1.143639
v -0.191701 -0.405060 1.210354
v -0.169761 -0.462439 1.071828
v -0.200789 -0.266533 1.267734
v 0.191701 -0.405060 1.210354
v 0.169761 -0.462439 1.071828
v 0.200789 -0.266533 1.267734
v 0.556339 -0.405060 1.091876
v 0.492665 -0.462439 0.966910
v 0.582713 -0.266533 1.143639
v 0.866518 -0.405060 0.866518
v 0.767344 -0.462439 0.767344
v 0.907597 -0.266533 0.907597
v 1.091876 -0.405060 0.556339
v 0.966910 -0.462439 0.492665
v 1.143639 -0.266533 0.582713
v 1.210354 -0.405060 0.191701
v 1.071828 -0.462439 0.169761
v 1.267733 -0.266533 0.200789
v 1.210354 -0.405060 -0.191701
v 1.071828 -0.462439 -0.169761
v 1.267733 -0.266533 -0.200789
v 1.261130 0.496151 0.111540
v 1.261130 0.723239 0.111540
v 1.261130 0.723239 -0.111540
v 1.261130 0.496151 -0.111540
v 2.249182 0.647443 0.111540
v 2.249182 0.647443 -0.111540
v 2.249182 0.721643 -0.111540
v 2.249182 0.721643 0.111540
v 2.249182 0.767424 0.157321
v 2.249182 0.601662 0.157321
v 2.249182 0.767424 -0.157321
v 2.249182 0.601662 -0.157321
v 3.682994 0.601662 0.078668
v 3.659957 0.601662 0.134284
v 3.604341 0.601662 0.157321
v 3.682994 0.767424 0.078668
v 3.604341 0.767424 0.157321
v 3.659957 0.767424 0.134284
v 3.659957 0.767424 -0.134284
v 3.604341 0.767424 -0.157321
v 3.682994 0.767424 -0.078668
v 3.682994 0.601662 -0.078668
v 3.604341 0.601662 -0.157321
v 3.659957 0.601662 -0.134284
v 1.353770 0.647443 0.111540
v 1.353770 0.647443 -0.111540
v 1.353770 0.723239 -0.111540
v 1.353770 0.723239 0.111540
v 1.305570 0.593382 0.111540
v 1.305570 0.593382 -0.111540
v 1.305570 0.723239 -0.111540
v 1.305570 0.723239 0.111540
vt 0.888791 0.987237
vt 0.891809 0.936702
vt 0.891947 0.885558
vt 0.890486 0.834177
vt 0.887607 0.782715
vt 0.883304 0.731275
vt 0.877559 0.679936
vt 0.870364 0.628759
vt 0.861717 0.577796
vt 0.851620 0.527094
vt 0.840080 0.476700
vt 0.827107 0.426655
vt 0.812710 0.377002
vt 0.796904 0.327785
vt 0.779702 0.279047
vt 0.761125 0.230835
vt 0.741195 0.183202
vt 0.719933 0.136211
vt 0.697324 0.089958
vt 0.673120 0.044654
vt 0.669544 0.046855
vt 0.693616 0.091894
vt 0.716158 0.138002
vt 0.737367 0.184876
vt 0.757250 0.232398
vt 0.775784 0.280498
vt 0.792946 0.329123
vt 0.808716 0.378227
vt 0.823079 0.427765
vt 0.836022 0.477694
vt 0.847535 0.527972
vt 0.857608 0.578556
vt 0.866236 0.629402
vt 0.873414 0.680461
vt 0.879145 0.731681
vt 0.883438 0.783001
vt 0.886312 0.834339
vt 0.887768 0.885571
vt 0.887632 0.936441
vt 0.642944 0.003906
vt 0.663569 0.470903
vt 0.562285 0.157077
vt 0.583209 0.199909
vt 0.602840 0.243203
vt 0.621191 0.286981
vt 0.638263 0.331234
vt 0.654053 0.375942
vt 0.668553 0.421075
vt 0.681753 0.466600
vt 0.693645 0.512483
vt 0.704219 0.558687
vt 0.713465 0.605177
vt 0.721374 0.651919
vt 0.727936 0.698881
vt 0.733139 0.746035
vt 0.736966 0.793364
vt 0.739399 0.840872
vt 0.740433 0.888607
vt 0.740164 0.936760
vt 0.516596 0.072158
vt 0.323741 0.091404
vt 0.299961 0.137307
vt 0.276804 0.183607
vt 0.254302 0.230269
vt 0.232470 0.277268
vt 0.211319 0.324587
vt 0.190854 0.372212
vt 0.171080 0.420131
vt 0.152004 0.468333
vt 0.133630 0.516807
vt 0.115962 0.565542
vt 0.099006 0.614527
vt 0.082769 0.663751
vt 0.067261 0.713202
vt 0.052495 0.762863
vt 0.038492 0.812712
vt 0.025280 0.862698
vt 0.012854 0.912691
vt 0.000977 0.962259
vt 0.348069 0.045946
vt 0.522409 0.645402
vt 0.465167 0.165355
vt 0.506628 0.656312
vt 0.448400 0.156459
vt 0.488583 0.610019
vt 0.442264 0.209358
vt 0.476946 0.625272
vt 0.425354 0.200748
vt 0.445477 0.586821
vt 0.420061 0.253688
vt 0.439124 0.604925
vt 0.403026 0.245333
vt 0.397315 0.578080
vt 0.398527 0.298319
vt 0.396866 0.597260
vt 0.381371 0.290216
vt 0.348809 0.584648
vt 0.377652 0.343249
vt 0.354308 0.603029
vt 0.360380 0.335396
vt 0.304705 0.605885
vt 0.357434 0.388471
vt 0.315615 0.621666
vt 0.340050 0.380869
vt 0.269322 0.639712
vt 0.337876 0.433978
vt 0.284576 0.651349
vt 0.320383 0.426629
vt 0.246125 0.682817
vt 0.318980 0.479763
vt 0.264228 0.689170
vt 0.301383 0.472668
vt 0.237383 0.730980
vt 0.300751 0.525816
vt 0.256564 0.731429
vt 0.283052 0.518978
vt 0.243953 0.779488
vt 0.283191 0.572128
vt 0.262333 0.773987
vt 0.265395 0.565547
vt 0.265192 0.823591
vt 0.266303 0.618691
vt 0.280972 0.812679
vt 0.248413 0.612368
vt 0.299018 0.858970
vt 0.250089 0.665495
vt 0.310655 0.843717
vt 0.232110 0.659431
vt 0.342119 0.882167
vt 0.234550 0.712532
vt 0.348475 0.864065
vt 0.216487 0.706727
vt 0.390282 0.890911
vt 0.219686 0.759795
vt 0.390732 0.871731
vt 0.201541 0.754248
vt 0.438790 0.884343
vt 0.205492 0.807277
vt 0.433290 0.865962
vt 0.187271 0.801990
vt 0.482894 0.863106
vt 0.191965 0.854980
vt 0.471983 0.847325
vt 0.173672 0.849955
vt 0.518276 0.829279
vt 0.179114 0.902903
vt 0.503023 0.817642
vt 0.160757 0.898180
vt 0.541474 0.786174
vt 0.167065 0.951013
vt 0.523371 0.779821
vt 0.148640 0.946799
vt 0.550216 0.738010
vt 0.156682 0.999023
vt 0.531035 0.737562
vt 0.497601 0.068897
vt 0.488821 0.121849
vt 0.543646 0.689504
vt 0.525266 0.695005
vt 0.472314 0.112473
vt 0.921240 0.193603
vt 0.900407 0.199899
vt 0.902517 0.017720
vt 0.920469 0.027391
vt 0.934860 0.474094
vt 0.960202 0.194756
vt 0.959648 0.026093
vt 0.977912 0.013865
vt 0.895041 0.330298
vt 0.924713 0.330247
vt 0.900835 0.354984
vt 0.929066 0.354984
vt 0.929066 0.468301
vt 0.900835 0.468301
vt 0.953821 0.318604
vt 0.956619 0.200173
vt 0.924841 0.317910
vt 0.923643 0.199874
vt 0.914982 0.317994
vt 0.913491 0.203276
vt 0.895041 0.474094
vt 0.930000 0.017748
vt 0.921829 0.000977
vt 0.924906 0.655547
vt 0.949713 0.017137
vt 0.911201 0.008384
vt 0.923345 0.020147
vt 0.897957 0.652631
vt 0.956194 0.020057
vt 0.966014 0.006032
vt 0.895041 0.645593
vt 0.900835 0.345818
vt 0.970860 0.325649
vt 0.953734 0.324982
vt 0.924773 0.324338
vt 0.907782 0.324380
vt 0.929066 0.332289
vt 0.900835 0.332289
vt 0.953586 0.330879
vt 0.953535 0.001549
vt 0.931945 0.652631
vt 0.904995 0.655547
vt 0.929066 0.345818
vt 0.963894 0.318963
vt 0.966580 0.203643
vt 0.978810 0.201808
vt 0.934860 0.645593
vt 0.983422 0.332032
vt 0.665102 0.421430
vt 0.540060 0.114606
vt 0.651273 0.373905
vt 0.623433 0.332979
vt 0.584310 0.302659
vt 0.537732 0.285913
vt 0.488259 0.284380
vt 0.440733 0.298210
vt 0.399808 0.326049
vt 0.369488 0.365173
vt 0.352742 0.411751
vt 0.351209 0.461224
vt 0.365039 0.508749
vt 0.392878 0.549675
vt 0.432001 0.579995
vt 0.478579 0.596741
vt 0.528052 0.598274
vt 0.575578 0.584444
vt 0.616504 0.556605
vt 0.646823 0.517481
vt 0.137841 0.996283
vt 0.646025 0.000977
vt 0.372722 0.000977
vt 0.513524 0.079597
vt 0.884706 0.986137
vt 0.739208 0.986044
vn 0.000000 1.000000 0.000000
vn 0.000000 1.000000 0.000000
vn 0.000000 1.000000 0.000000
vn 0.000000 1.000000 0.000000
vn 0.000000 1.000000 0.000000
vn 0.000000 1.000000 0.000000
vn 0.000000 1.000000 0.000000
vn 0.000000 1.000000 0.000000
vn 0.000000 1.000000 0.000000
vn 0.000000 1.000000 0.000000
vn 0.000000 1.000000 0.000000
vn 0.000000 1.000000 0.000000
vn 0.000000 1.000000 0.000000
vn 0.000000 1.000000 0.000000
vn 0.000000 1.000000 0.000000
vn 0.000000 1.000000 0.000000
vn 0.000000 1.000000 0.000000
vn 0.000000 1.000000 0.000000
vn 0.000000 1.000000 0.000000
vn 0.000000 1.000000 0.000000
vn 0.000000 1.000000 0.000000
vn 0.000000 1.000000 -0.000000
vn 0.000000 1.000000 -0.000000
vn 0.000000 1.000000 0.000000
vn 0.000000 1.000000 -0.000000
vn 0.000000 1.000000 -0.000000
vn 0.000000 1.000000 -0.000000
vn 0.000000 1.000000 0.000000
vn 0.000000 1.000000 -0.000001
vn 0.000000 1.000000 -0.000001
vn 0.000000 1.000000 -0.000000
vn 0.000000 1.000000 -0.000000
vn 0.000000 1.000000 0.000001
vn 0.000000 1.000000 0.000001
vn 0.000000 1.000000 0.000000
vn 0.000000 1.000000 -0.000000
vn 0.000000 1.000000 -0.000000
vn 0.000000 1.000000 -0.000000
vn 0.000000 1.000000 0.000000
vn 0.000000 1.000000 0.000000
vn 0.000000 1.000000 -0.000000
vn 0.000000 1.000000 -0.000000
vn 0.000000 1.000000 -0.000000
vn 0.000000 1.000000 -0.000000
vn 0.000000 1.000000 -0.000001
vn 0.000000 1.000000 -0.000001
vn 0.000000 1.000000 -0.000002
vn 0.000000 1.000000 -0.000002
vn 0.000000 1.000000 0.000001
vn 0.000000 1.000000 0.000001
vn 0.000000 1.000000 0.000001
vn 0.000000 1.000000 0.000001
vn 0.000000 1.000000 -0.000001
vn 0.000000 1.000000 -0.000001
vn 0.000000 1.000000 -0.000000
vn 0.000000 1.000000 -0.000000
vn 0.000000 1.000000 0.000001
vn 0.000000 1.000000 0.000001
vn 0.000000 1.000000 0.000000
vn 0.000000 1.000000 0.000000
vn -0.987689 0.000000 0.156433
vn -0.891007 0.000000 0.453990
vn -0.891007 0.000000 0.453990
vn -0.987689 0.000000 0.156433
vn -0.707107 0.000000 0.707107
vn -0.707107 0.000000 0.707107
vn -0.453990 0.000000 0.891007
vn -0.453990 0.000000 0.891007
vn -0.156434 0.000000 0.987688
vn -0.156434 0.000000 0.987688
vn 0.156435 0.000000 0.987688
vn 0.156435 0.000000 0.987688
vn 0.453990 0.000000 0.891007
vn 0.453990 0.000000 0.891007
vn 0.707107 0.000000 0.707107
vn 0.707107 0.000000 0.707107
vn 0.891007 0.000000 0.453990
vn 0.891007 0.000000 0.453990
vn 0.987688 0.000000 0.156434
vn 0.987688 0.000000 0.156434
vn 0.987688 0.000000 -0.156434
vn 0.987688 0.000000 -0.156434
vn 0.891007 0.000000 -0.453990
vn 0.891007 0.000000 -0.453990
vn 0.707107 0.000000 -0.707107
vn 0.707107 0.000000 -0.707107
vn 0.453990 0.000000 -0.891007
vn 0.453990 0.000000 -0.891007
vn 0.156434 0.000000 -0.987688
vn 0.156434 0.000000 -0.987688
vn -0.156434 0.000000 -0.987688
vn -0.156434 0.000000 -0.987688
vn -0.453991 0.000000 -0.891006
vn -0.453991 0.000000 -0.891006
vn -0.707107 0.000000 -0.707107
vn -0.707107 0.000000 -0.707107
vn -0.891007 0.000000 -0.453991
vn -0.891007 0.000000 -0.453991
vn -0.987688 0.000000 -0.156434
vn -0.987688 0.000000 -0.156434
vn 0.005988 -0.999977 -0.003051
vn 0.337381 -0.925540 -0.171904
vn 0.373989 -0.925540 -0.059234
vn 0.006638 -0.999977 -0.001051
vn 0.821675 -0.386744 -0.418663
vn 0.890145 -0.043968 -0.453551
vn 0.986733 -0.043968 -0.156282
vn 0.910833 -0.386744 -0.144261
vn 0.652085 -0.386744 -0.652085
vn 0.706423 -0.043968 -0.706423
vn 0.004752 -0.999977 -0.004752
vn 0.267747 -0.925540 -0.267747
vn 0.418664 -0.386744 -0.821675
vn 0.453551 -0.043968 -0.890145
vn 0.003051 -0.999977 -0.005988
vn 0.171904 -0.925540 -0.337380
vn 0.144262 -0.386744 -0.910834
vn 0.156283 -0.043967 -0.986733
vn 0.001051 -0.999977 -0.006638
vn 0.059234 -0.925539 -0.373989
vn -0.144262 -0.386744 -0.910834
vn -0.156283 -0.043968 -0.986733
vn -0.001051 -0.999977 -0.006638
vn -0.059234 -0.925540 -0.373989
vn -0.418664 -0.386744 -0.821675
vn -0.453552 -0.043968 -0.890145
vn -0.003051 -0.999977 -0.005988
vn -0.171904 -0.925540 -0.337380
vn -0.652085 -0.386744 -0.652085
vn -0.706423 -0.043968 -0.706423
vn -0.004752 -0.999977 -0.004752
vn -0.267747 -0.925540 -0.267747
vn -0.821675 -0.386744 -0.418664
vn -0.890145 -0.043968 -0.453551
vn -0.005988 -0.999977 -0.003051
vn -0.337381 -0.925539 -0.171904
vn -0.910834 -0.386743 -0.144262
vn -0.986733 -0.043967 -0.156283
vn -0.006638 -0.999977 -0.001051
vn -0.373989 -0.925539 -0.059234
vn -0.910833 -0.386744 0.144262
vn -0.986733 -0.043968 0.156283
vn -0.006638 -0.999977 0.001051
vn -0.373990 -0.925539 0.059234
vn -0.821675 -0.386744 0.418664
vn -0.890145 -0.043968 0.453552
vn -0.005988 -0.999977 0.003051
vn -0.337381 -0.925539 0.171904
vn -0.652085 -0.386744 0.652085
vn -0.706423 -0.043968 0.706423
vn -0.004752 -0.999977 0.004752
vn -0.267747 -0.925539 0.267747
vn -0.418664 -0.386744 0.821675
vn -0.453551 -0.043968 0.890145
vn -0.003051 -0.999977 0.005988
vn -0.171904 -0.925540 0.337381
vn -0.144262 -0.386744 0.910834
vn -0.156283 -0.043967 0.986733
vn -0.001051 -0.999977 0.006638
vn -0.059234 -0.925539 0.373989
vn 0.144262 -0.386744 0.910834
vn 0.156283 -0.043968 0.986733
vn 0.001051 -0.999977 0.006638
vn 0.059234 -0.925540 0.373989
vn 0.418664 -0.386744 0.821675
vn 0.453552 -0.043968 0.890145
vn 0.003051 -0.999977 0.005988
vn 0.171904 -0.925540 0.337381
vn 0.652085 -0.386744 0.652085
vn 0.706423 -0.043968 0.706423
vn 0.004752 -0.999977 0.004752
vn 0.267747 -0.925539 0.267747
vn 0.821675 -0.386744 0.418664
vn 0.890145 -0.043968 0.453552
vn 0.005988 -0.999977 0.003051
vn 0.337380 -0.925540 0.171904
vn 0.910833 -0.386744 0.144262
vn 0.986733 -0.043968 0.156283
vn 0.006638 -0.999977 0.001051
vn 0.373989 -0.925540 0.059234
vn 0.707107 0.000000 -0.707107
vn 0.891007 0.000000 -0.453990
vn 0.453990 0.000000 -0.891007
vn 0.156434 0.000000 -0.987688
vn -0.156434 0.000000 -0.987688
vn -0.453991 0.000000 -0.891006
vn -0.707107 0.000000 -0.707107
vn -0.891007 0.000000 -0.453990
vn -0.987688 0.000000 -0.156434
vn -0.987688 0.000000 0.156434
vn -0.891007 0.000000 0.453991
vn -0.707107 0.000000 0.707107
vn -0.453990 0.000000 0.891007
vn -0.156434 0.000000 0.987688
vn 0.156434 0.000000 0.987688
vn 0.453991 0.000000 0.891007
vn 0.707107 0.000000 0.707107
vn 0.891007 0.000000 0.453990
vn 0.987688 0.000000 0.156435
vn 0.987688 0.000000 -0.156434
vn 0.000000 0.000000 1.000000
vn 0.000000 0.000000 1.000000
vn 0.016327 0.000000 0.999867
vn 0.016327 0.000000 0.999867
vn 0.000000 0.000000 -1.000000
vn 0.000000 0.000000 -1.000000
vn 0.016327 0.000000 -0.999867
vn 0.016327 0.000000 -0.999867
vn 0.057197 -0.998363 0.000000
vn 0.057197 -0.998363 0.000000
vn 0.000000 -1.000000 0.000000
vn 0.000000 -1.000000 0.000000
vn -0.000000 0.000000 -1.000000
vn -0.000000 0.000000 -1.000000
vn 0.000000 0.000000 -1.000000
vn 0.000000 0.000000 -1.000000
vn 0.001692 0.999999 0.000000
vn 0.001692 0.999999 0.000000
vn 0.001783 0.999998 0.000000
vn 0.001783 0.999998 0.000000
vn -0.000000 0.000000 1.000000
vn -0.000000 0.000000 1.000000
vn -0.000000 0.000000 1.000000
vn -0.000000 0.000000 1.000000
vn -1.000000 -0.000001 0.000000
vn -1.000000 0.000001 0.000000
vn -1.000000 0.000001 0.000000
vn -1.000000 -0.000001 0.000000
vn -1.000000 -0.000001 0.000000
vn -1.000000 -0.000001 0.000000
vn -1.000000 0.000001 0.000000
vn -1.000000 0.000001 0.000000
vn 0.994200 0.000000 0.107551
vn 0.994200 0.000000 0.107551
vn 0.994200 0.000000 -0.107551
vn 0.994200 0.000000 -0.107551
vn 0.382683 0.000000 0.923880
vn 0.382683 0.000000 0.923880
vn 0.923879 0.000000 0.382684
vn 0.923879 0.000000 0.382684
vn 0.382683 0.000000 -0.923880
vn 0.382683 0.000000 -0.923880
vn 0.923879 0.000000 -0.382684
vn 0.923879 0.000000 -0.382684
vn 0.000000 1.000000 0.000000
vn 0.000000 1.000000 0.000000
vn 0.000000 1.000000 0.000000
vn 0.000000 1.000000 0.000000
vn 0.000000 1.000000 0.000000
vn 0.000000 1.000000 0.000000
vn 0.000000 1.000000 0.000000
vn 0.000000 1.000000 0.000000
vn 0.000000 -1.000000 0.000000
vn 0.000000 -1.000000 0.000000
vn 0.000000 -1.000000 0.000000
vn 0.000000 -1.000000 0.000000
vn 0.000000 -1.000000 0.000000
vn 0.000000 -1.000000 0.000000
vn 0.000000 -1.000000 0.000000
vn 0.000000 -1.000000 0.000000
vn 0.852818 -0.522208 0.000000
vn 0.852818 -0.522208 0.000000
vn -0.000000 0.000000 -1.000000
vn -0.000000 0.000000 -1.000000
vn -0.000001 1.000000 0.000000
vn -0.000001 1.000000 0.000000
vn 0.000000 0.000000 1.000000
vn 0.000000 0.000000 1.000000
vn 0.909504 -0.415696 0.000000
vn 0.909504 -0.415696 0.000000
vn 0.000000 0.000000 -1.000000
vn 0.000000 0.000000 -1.000000
vn -0.000002 1.000000 0.000000
vn -0.000002 1.000000 0.000000
vn 0.000000 0.000000 1.000000
vn 0.000000 0.000000 1.000000
s off
g pCylinder99
usemtl initialShadingGroup
f 41/41/1 42/228/2 43/227/3 44/226/4 45/225/5 46/224/6 47/223/7 48/222/8 49/221/9 50/220/10 51/219/11 52/218/12 53/217/13 54/216/14 55/215/15 56/214/16 57/213/17 58/212/18 59/211/19 60/209/20
s 1
f 20/20/21 1/19/22 22/22/23 21/21/24
f 1/19/22 2/18/25 23/23/26 22/22/23
f 2/18/25 3/17/27 24/24/28 23/23/26
f 3/17/27 4/16/29 25/25/30 24/24/28
f 4/16/29 5/15/31 26/26/32 25/25/30
f 5/15/31 6/14/33 27/27/34 26/26/32
f 6/14/33 7/13/35 28/28/36 27/27/34
f 7/13/35 8/12/37 29/29/38 28/28/36
f 8/12/37 9/11/39 30/30/40 29/29/38
f 9/11/39 10/10/41 31/31/42 30/30/40
f 10/10/41 11/9/43 32/32/44 31/31/42
f 11/9/43 12/8/45 33/33/46 32/32/44
f 12/8/45 13/7/47 34/34/48 33/33/46
f 13/7/47 14/6/49 35/35/50 34/34/48
f 14/6/49 15/5/51 36/36/52 35/35/50
f 15/5/51 16/4/53 37/37/54 36/36/52
f 16/4/53 17/3/55 38/38/56 37/37/54
f 17/3/55 18/2/57 39/39/58 38/38/56
f 18/2/57 19/1/59 40/233/60 39/39/58
f 19/230/59 20/20/21 21/21/24 40/40/60
s 2
f 21/21/61 22/22/62 42/42/63 41/210/64
f 22/22/62 23/23/65 43/43/66 42/42/63
f 23/23/65 24/24/67 44/44/68 43/43/66
f 24/24/67 25/25/69 45/45/70 44/44/68
f 25/25/69 26/26/71 46/46/72 45/45/70
f 26/26/71 27/27/73 47/47/74 46/46/72
f 27/27/73 28/28/75 48/48/76 47/47/74
f 28/28/75 29/29/77 49/49/78 48/48/76
f 29/29/77 30/30/79 50/50/80 49/49/78
f 30/30/79 31/31/81 51/51/82 50/50/80
f 31/31/81 32/32/83 52/52/84 51/51/82
f 32/32/83 33/33/85 53/53/86 52/52/84
f 33/33/85 34/34/87 54/54/88 53/53/86
f 34/34/87 35/35/89 55/55/90 54/54/88
f 35/35/89 36/36/91 56/56/92 55/55/90
f 36/36/91 37/37/93 57/57/94 56/56/92
f 37/37/93 38/38/95 58/58/96 57/57/94
f 38/38/95 39/39/97 59/59/98 58/58/96
f 39/39/97 40/233/99 60/234/100 59/59/98
f 40/40/99 21/21/61 41/210/64 60/60/100
s 3
f 62/83/101 61/81/102 118/158/103 119/159/104
s 4
f 61/82/105 63/84/106 120/160/107 118/157/108
f 63/84/106 61/82/105 64/86/109 66/88/110
s 3
f 61/81/102 62/83/101 65/87/111 64/85/112
s 4
f 66/88/110 64/86/109 67/90/113 69/92/114
s 3
f 64/85/112 65/87/111 68/91/115 67/89/116
s 4
f 69/92/114 67/90/113 70/94/117 72/96/118
s 3
f 67/89/116 68/91/115 71/95/119 70/93/120
s 4
f 72/96/118 70/94/117 73/98/121 75/100/122
s 3
f 70/93/120 71/95/119 74/99/123 73/97/124
s 4
f 75/100/122 73/98/121 76/102/125 78/104/126
s 3
f 73/97/124 74/99/123 77/103/127 76/101/128
s 4
f 78/104/126 76/102/125 79/106/129 81/108/130
s 3
f 76/101/128 77/103/127 80/107/131 79/105/132
s 4
f 81/108/130 79/106/129 82/110/133 84/112/134
s 3
f 79/105/132 80/107/131 83/111/135 82/109/136
s 4
f 84/112/134 82/110/133 85/114/137 87/116/138
s 3
f 82/109/136 83/111/135 86/115/139 85/113/140
s 4
f 87/116/138 85/114/137 88/118/141 90/120/142
s 3
f 85/113/140 86/115/139 89/119/143 88/117/144
s 4
f 90/120/142 88/118/141 91/122/145 93/124/146
s 3
f 88/117/144 89/119/143 92/123/147 91/121/148
s 4
f 93/124/146 91/122/145 94/126/149 96/128/150
s 3
f 91/121/148 92/123/147 95/127/151 94/125/152
s 4
f 96/128/150 94/126/149 97/130/153 99/132/154
s 3
f 94/125/152 95/127/151 98/131/155 97/129/156
s 4
f 99/132/154 97/130/153 100/134/157 102/136/158
s 3
f 97/129/156 98/131/155 101/135/159 100/133/160
s 4
f 102/136/158 100/134/157 103/138/161 105/140/162
s 3
f 100/133/160 101/135/159 104/139/163 103/137/164
s 4
f 105/140/162 103/138/161 106/142/165 108/144/166
s 3
f 103/137/164 104/139/163 107/143/167 106/141/168
s 4
f 108/144/166 106/142/165 109/146/169 111/148/170
s 3
f 106/141/168 107/143/167 110/147/171 109/145/172
s 4
f 111/148/170 109/146/169 112/150/173 114/152/174
s 3
f 109/145/172 110/147/171 113/151/175 112/149/176
s 4
f 114/152/174 112/150/173 115/154/177 117/229/178
s 3
f 112/149/176 113/151/175 116/155/179 115/153/180
s 4
f 117/156/178 115/232/177 118/157/108 120/160/107
s 3
f 115/153/180 116/155/179 119/159/104 118/158/103
s 4
f 63/84/106 66/88/110 2/62/181 1/61/182
f 66/88/110 69/92/114 3/63/183 2/62/181
f 69/92/114 72/96/118 4/64/184 3/63/183
f 72/96/118 75/100/122 5/65/185 4/64/184
f 75/100/122 78/104/126 6/66/186 5/65/185
f 78/104/126 81/108/130 7/67/187 6/66/186
f 81/108/130 84/112/134 8/68/188 7/67/187
f 84/112/134 87/116/138 9/69/189 8/68/188
f 87/116/138 90/120/142 10/70/190 9/69/189
f 90/120/142 93/124/146 11/71/191 10/70/190
f 93/124/146 96/128/150 12/72/192 11/71/191
f 96/128/150 99/132/154 13/73/193 12/72/192
f 99/132/154 102/136/158 14/74/194 13/73/193
f 102/136/158 105/140/162 15/75/195 14/74/194
f 105/140/162 108/144/166 16/76/196 15/75/195
f 108/144/166 111/148/170 17/77/197 16/76/196
f 111/148/170 114/152/174 18/78/198 17/77/197
f 114/152/174 117/229/178 19/79/199 18/78/198
f 117/156/178 120/160/107 20/80/200 19/231/199
f 120/160/107 63/84/106 1/61/182 20/80/200
s 3
f 116/155/179 113/151/175 110/147/171 107/143/167 104/139/163 101/135/159 98/131/155 95/127/151 92/123/147 89/119/143 86/115/139 83/111/135 80/107/131 77/103/127 74/99/123 71/95/119 68/91/115 65/87/111 62/83/101 119/159/104
s 5
f 129/161/201 130/162/202 135/163/203 137/164/204
s 6
f 132/206/205 131/166/206 140/167/207 143/168/208
s 7
f 145/171/209 146/172/210 126/173/211 125/174/212
s 8
f 146/204/213 147/175/214 127/176/215 126/205/216
s 9
f 147/175/217 148/177/218 128/178/219 127/176/220
s 10
f 148/177/221 145/179/222 125/180/223 128/178/224
s 11
f 128/178/225 125/180/226 130/162/227 129/161/228
f 127/176/229 128/178/225 129/161/228 131/166/230
f 126/205/231 127/176/229 131/166/230 132/206/232
f 125/174/226 126/173/231 132/165/232 130/181/227
s 12
f 136/182/233 133/183/234 142/200/235 141/185/236
s 5
f 135/163/203 134/186/237 138/187/238 137/164/204
s 12
f 134/186/239 133/183/234 136/182/233 138/187/240
s 6
f 140/167/207 139/189/241 144/190/242 143/168/208
s 12
f 139/189/243 141/185/236 142/200/235 144/190/244
s off
f 139/189/245 140/167/246 131/166/247 129/161/248 137/164/249 138/187/250 136/182/251 141/185/252
f 142/184/253 133/202/254 134/188/255 135/191/256 130/181/257 132/165/258 143/207/259 144/201/260
s 7
f 149/192/261 150/203/262 146/172/210 145/171/209
s 8
f 150/193/263 151/194/264 147/175/214 146/204/213
s 9
f 151/194/265 152/195/266 148/177/218 147/175/217
s 10
f 152/195/267 149/196/268 145/179/222 148/177/221
s 7
f 124/197/269 150/203/262 149/192/261 121/198/270
s 8
f 123/199/271 151/194/264 150/193/263 124/208/272
s 9
f 122/170/273 152/195/266 151/194/265 123/199/274
s 10
f 121/169/275 149/196/268 152/195/267 122/170/276
