# This file uses centimeters as units for non-parametric coordinates.

mtllib Saw.mtl
g default
v 0.227454 -0.081215 2.168721
v 0.227454 -0.042162 2.169435
v -0.789985 0.015493 -0.993304
v 0.756083 0.018826 -1.176118
v -0.789985 -0.023560 -0.994016
v 0.756083 -0.020228 -1.176829
v -0.614776 -0.021935 -1.083177
v -0.614776 0.017118 -1.082463
v 0.756083 -0.079314 2.064427
v 0.741920 -0.080277 2.117276
v 0.703225 -0.080983 2.155967
v 0.650365 -0.081241 2.170129
v 0.756083 -0.040261 2.065141
v 0.650365 -0.042187 2.170840
v 0.703225 -0.041929 2.156678
v 0.741920 -0.041224 2.117988
v 0.574622 -0.081259 2.171107
v 0.574622 -0.042205 2.171819
v 0.756083 -0.077588 1.969728
v 0.756083 -0.038534 1.970439
v 0.623660 -0.039912 2.083562
v 0.624114 -0.041550 2.021634
v 0.685420 -0.037814 2.083150
v 0.685874 -0.039452 2.021224
v 0.622634 -0.079633 2.081485
v 0.623086 -0.081270 2.019557
v 0.684392 -0.077535 2.081073
v 0.684846 -0.079173 2.019145
v 0.697415 -0.077919 2.050025
v 0.698443 -0.038199 2.052102
v 0.653419 -0.078244 2.094111
v 0.654447 -0.038524 2.096189
v 0.610063 -0.080886 2.050607
v 0.611091 -0.041166 2.052682
v 0.654061 -0.080561 2.006518
v 0.655089 -0.040840 2.008595
v -0.843677 -0.004532 -0.966336
v 0.165408 -0.061681 2.168653
v 0.484916 -0.058155 -1.528424
v 0.460586 -0.056340 -1.628007
v 0.389970 -0.054183 -1.746327
v 0.279984 -0.053709 -1.772311
v 0.141398 -0.054035 -1.754426
v -0.012227 -0.054259 -1.742154
v -0.165854 -0.054035 -1.754426
v -0.304442 -0.053709 -1.772311
v -0.414428 -0.054183 -1.746327
v -0.485042 -0.056340 -1.628007
v -0.509372 -0.058155 -1.528424
v -0.485042 -0.059970 -1.428842
v -0.414428 -0.062538 -1.287972
v -0.304442 -0.062538 -1.287972
v -0.165854 -0.062538 -1.287972
v -0.012227 -0.062538 -1.287972
v 0.141398 -0.062538 -1.287972
v 0.279986 -0.062538 -1.287972
v 0.389972 -0.061608 -1.339005
v 0.460586 -0.059970 -1.428842
v 0.484916 0.069542 -1.526097
v 0.460586 0.071357 -1.625678
v 0.389970 0.073514 -1.743999
v 0.279984 0.073988 -1.769984
v 0.141398 0.073662 -1.752097
v -0.012227 0.073438 -1.739827
v -0.165854 0.073662 -1.752097
v -0.304442 0.073988 -1.769984
v -0.414428 0.073514 -1.743999
v -0.485042 0.071357 -1.625678
v -0.509372 0.069542 -1.526097
v -0.485042 0.067726 -1.426513
v -0.414428 0.065159 -1.285645
v -0.012227 0.065159 -1.285644
v 0.279986 0.065159 -1.285644
v 0.389972 0.066089 -1.336679
v 0.460586 0.067726 -1.426513
v 0.273927 0.080890 -2.148631
v -0.379458 0.079854 -2.091777
v -0.502118 0.079316 -2.062282
v -0.593434 0.078727 -2.029971
v -0.668885 0.077398 -1.957038
v -0.678174 0.076128 -1.887393
v -0.698026 0.069542 -1.526097
v -0.698026 0.065911 -1.326930
v -0.698024 0.062636 -1.147260
v -0.698022 0.060037 -1.004674
v -0.364570 0.052996 -0.618478
v -0.024909 0.050010 -0.454684
v 0.776792 0.058666 -0.929475
v 0.841849 0.060037 -1.004674
v 0.273927 -0.046807 -2.150958
v -0.379458 -0.047843 -2.094106
v -0.502118 -0.048381 -2.064609
v -0.593434 -0.048970 -2.032298
v -0.668885 -0.050299 -1.959365
v -0.678174 -0.051568 -1.889722
v -0.698026 -0.058155 -1.528424
v -0.698026 -0.061785 -1.329259
v -0.698024 -0.065061 -1.149587
v -0.698022 -0.067660 -1.007001
v -0.364570 -0.074700 -0.620805
v -0.024909 -0.077686 -0.457011
v 0.776792 -0.069031 -0.931802
v 0.841849 -0.067660 -1.007001
v 0.841851 0.075899 -1.874835
v 0.841851 -0.051798 -1.877162
v 0.481095 0.076281 -1.895774
v 0.599076 0.079393 -2.066491
v 0.517331 0.079554 -2.075313
v 0.441215 0.076877 -1.928470
v 0.553119 -0.048966 -2.032504
v 0.517331 -0.048143 -2.077640
v 0.599076 -0.048304 -2.068818
v 0.843677 0.080415 -2.122529
v 0.834159 0.080621 -2.133874
v 0.823163 0.080802 -2.143794
v 0.810897 0.080953 -2.152095
v 0.797603 0.081072 -2.158618
v 0.783530 0.081156 -2.163238
v 0.843677 -0.047282 -2.124856
v 0.783530 -0.046540 -2.165566
v 0.797603 -0.046624 -2.160945
v 0.810897 -0.046744 -2.154422
v 0.823163 -0.046895 -2.146121
v 0.834159 -0.047076 -2.136203
v 0.675866 0.079346 -2.063899
v 0.675866 -0.048351 -2.066226
v 0.728610 0.079812 -2.089488
v 0.728610 -0.047885 -2.091815
v 0.767949 0.081073 -2.158650
v 0.767949 -0.046624 -2.160977
v 0.050862 -0.054259 -1.742154
v 0.050862 0.073438 -1.739827
v -0.073844 0.081270 -2.169490
v -0.073844 -0.046426 -2.171819
vt 0.010357 0.174626
vt 0.001529 0.112816
vt 0.007549 0.111951
vt 0.016215 0.162446
vt 0.501830 0.210427
vt 0.497647 0.210569
vt 0.495794 0.006685
vt 0.502515 0.006323
vt 0.019958 0.083220
vt 0.018444 0.077664
vt 0.031919 0.075099
vt 0.033122 0.080759
vt 0.494908 0.238487
vt 0.506853 0.238467
vt 0.000977 0.098919
vt 0.003544 0.089196
vt 0.008193 0.092010
vt 0.006297 0.099959
vt 0.009911 0.081479
vt 0.013078 0.086015
vt 0.977901 0.179288
vt 0.995392 0.132747
vt 0.978811 0.124072
vt 0.974858 0.121330
vt 0.984058 0.123743
vt 0.997876 0.125230
vt 0.987383 0.120603
vt 0.974891 0.116820
vt 0.987452 0.116337
vt 0.999023 0.118472
vt 0.983729 0.112842
vt 0.978304 0.112907
vt 0.996223 0.111471
vt 0.989736 0.106258
vt 0.974756 0.101582
vt 0.494851 0.000977
vt 0.023964 0.103904
vt 0.028173 0.101286
vt 0.019184 0.102762
vt 0.017100 0.098394
vt 0.029695 0.096421
vt 0.018726 0.093662
vt 0.022757 0.091241
vt 0.027432 0.092183
vt 0.406162 0.508322
vt 0.405965 0.514132
vt 0.401100 0.514433
vt 0.401296 0.508623
vt 0.396437 0.508873
vt 0.396240 0.514683
vt 0.391329 0.514638
vt 0.391526 0.508828
vt 0.386623 0.508418
vt 0.386427 0.514228
vt 0.381593 0.513598
vt 0.381790 0.507788
vt 0.415984 0.508532
vt 0.415787 0.514342
vt 0.410884 0.514054
vt 0.411081 0.508244
vt 0.420619 0.514921
vt 0.420815 0.509110
vt 0.493360 0.254980
vt 0.019340 0.170277
vt 0.489224 0.246265
vt 0.379008 0.527382
vt 0.364028 0.527345
vt 0.364074 0.508685
vt 0.379054 0.508722
vt 0.021111 0.526499
vt 0.000977 0.526449
vt 0.001023 0.507788
vt 0.021157 0.507838
vt 0.037623 0.526540
vt 0.037670 0.507879
vt 0.058040 0.526590
vt 0.058086 0.507929
vt 0.080607 0.526646
vt 0.071389 0.526623
vt 0.071435 0.507962
vt 0.080653 0.507985
vt 0.103125 0.526701
vt 0.103171 0.508041
vt 0.123542 0.526752
vt 0.123588 0.508091
vt 0.140054 0.526792
vt 0.140100 0.508132
vt 0.160189 0.526842
vt 0.160235 0.508181
vt 0.175169 0.526879
vt 0.175215 0.508218
vt 0.190149 0.526916
vt 0.190195 0.508255
vt 0.213175 0.526973
vt 0.213221 0.508312
vt 0.314681 0.508563
vt 0.314635 0.527223
vt 0.294386 0.527173
vt 0.271940 0.527118
vt 0.249494 0.527063
vt 0.229245 0.527013
vt 0.271986 0.508457
vt 0.332351 0.527267
vt 0.332397 0.508606
vt 0.349048 0.527308
vt 0.349094 0.508648
vt 0.130627 0.287976
vt 0.111218 0.326004
vt 0.002218 0.272452
vt 0.117266 0.199662
vt 0.131376 0.196190
vt 0.144575 0.277053
vt 0.186882 0.287062
vt 0.175536 0.277280
vt 0.160958 0.273831
vt 0.244636 0.253997
vt 0.276997 0.270214
vt 0.277842 0.272206
vt 0.278402 0.274297
vt 0.278668 0.276444
vt 0.278634 0.278608
vt 0.278301 0.280746
vt 0.276669 0.282469
vt 0.265054 0.282994
vt 0.258220 0.288158
vt 0.253457 0.298323
vt 0.223400 0.302336
vt 0.197592 0.304112
vt 0.182136 0.336999
vt 0.193669 0.320152
vt 0.225007 0.309698
vt 0.249175 0.309548
vt 0.242551 0.346095
vt 0.170335 0.356177
vt 0.174525 0.347966
vt 0.222167 0.392739
vt 0.191753 0.427348
vt 0.161728 0.376985
vt 0.179766 0.441352
vt 0.154851 0.396208
vt 0.169495 0.451089
vt 0.144163 0.408795
vt 0.154991 0.456063
vt 0.124072 0.410125
vt 0.145309 0.452645
vt 0.109494 0.406676
vt 0.096964 0.431227
vt 0.098149 0.396894
vt 0.071040 0.417996
vt 0.084504 0.378346
vt 0.047655 0.406060
vt 0.000977 0.327536
vt 0.029096 0.396587
vt 0.495247 0.506363
vt 0.368088 0.506363
vt 0.368088 0.487702
vt 0.495247 0.487702
vt 0.287279 0.506363
vt 0.287279 0.487702
vt 0.298505 0.487702
vt 0.298505 0.506363
vt 0.238123 0.487702
vt 0.275265 0.487702
vt 0.275265 0.506363
vt 0.238123 0.506363
vt 0.141145 0.487702
vt 0.187220 0.487702
vt 0.187220 0.506363
vt 0.141145 0.506363
vt 0.122712 0.487702
vt 0.122712 0.506363
vt 0.108559 0.487702
vt 0.108559 0.506363
vt 0.093226 0.487702
vt 0.093226 0.506363
vt 0.082958 0.487702
vt 0.082958 0.506363
vt 0.030081 0.487702
vt 0.030081 0.506363
vt 0.000977 0.487702
vt 0.000977 0.506363
vt 0.796410 0.487702
vt 0.822666 0.487702
vt 0.822666 0.506363
vt 0.796410 0.506363
vt 0.775574 0.487702
vt 0.775574 0.506363
vt 0.701017 0.487702
vt 0.701017 0.506363
vt 0.645919 0.487702
vt 0.645919 0.506363
vt 0.509777 0.487702
vt 0.509777 0.506363
vt 0.450004 0.432797
vt 0.553704 0.359090
vt 0.575126 0.484674
vt 0.566336 0.377630
vt 0.577730 0.394354
vt 0.589562 0.486277
vt 0.593001 0.403283
vt 0.634109 0.387131
vt 0.623936 0.398592
vt 0.609774 0.404152
vt 0.678973 0.322855
vt 0.692824 0.356899
vt 0.690587 0.364966
vt 0.635120 0.354476
vt 0.619512 0.341061
vt 0.611989 0.253810
vt 0.649317 0.281506
vt 0.609161 0.332587
vt 0.603047 0.325834
vt 0.597332 0.242431
vt 0.590224 0.307802
vt 0.585362 0.234622
vt 0.579509 0.290897
vt 0.570020 0.231989
vt 0.566085 0.281126
vt 0.560721 0.237172
vt 0.545098 0.284337
vt 0.514376 0.268252
vt 0.530523 0.291090
vt 0.488969 0.285995
vt 0.520118 0.303796
vt 0.464798 0.300365
vt 0.508536 0.326335
vt 0.449167 0.312734
vt 0.520887 0.335292
vt 0.438614 0.381351
vt 0.536451 0.346579
vt 0.726343 0.391022
vt 0.725739 0.393128
vt 0.695485 0.413357
vt 0.642929 0.368155
vt 0.698836 0.367646
vt 0.704878 0.377339
vt 0.712321 0.381719
vt 0.723975 0.380868
vt 0.725803 0.382400
vt 0.726378 0.384500
vt 0.726656 0.386660
vt 0.726651 0.388852
vt 0.331890 0.506363
vt 0.331890 0.487702
vt 0.321071 0.487702
vt 0.323235 0.487702
vt 0.323235 0.506363
vt 0.321071 0.506363
vt 0.325399 0.487702
vt 0.325399 0.506363
vt 0.327563 0.487702
vt 0.327563 0.506363
vt 0.329726 0.487702
vt 0.329726 0.506363
vt 0.307070 0.487702
vt 0.307070 0.506363
vt 0.318698 0.487702
vt 0.318698 0.506363
vn -0.006868 -0.018239 0.999810
vn -0.003330 -0.018234 0.999828
vn -0.003330 -0.018234 0.999828
vn -0.006868 -0.018239 0.999810
vn -0.117444 0.018111 -0.992914
vn -0.117445 0.018111 -0.992914
vn -0.068170 0.018196 -0.997508
vn -0.068170 0.018196 -0.997508
vn 0.995425 -0.001748 0.095527
vn 0.995426 -0.001748 0.095521
vn 1.000000 0.000000 0.000000
vn 1.000000 0.000000 0.000000
vn -0.453589 0.016249 -0.891063
vn -0.453589 0.016249 -0.891063
vn 0.116950 -0.018088 0.992973
vn 0.258872 -0.017590 0.965751
vn 0.258872 -0.017590 0.965751
vn 0.116950 -0.018088 0.992973
vn 0.707104 -0.012874 0.706992
vn 0.866021 -0.009115 0.499924
vn 0.866023 -0.009115 0.499920
vn 0.707104 -0.012874 0.706992
vn -0.103782 -0.994483 0.015268
vn -0.000000 -0.999834 -0.018226
vn -0.038506 -0.999241 -0.005825
vn 0.000007 -0.999834 -0.018227
vn -0.000725 -0.999833 -0.018257
vn -0.063116 -0.997776 -0.021423
vn -0.032790 -0.999253 -0.020446
vn 0.036948 -0.999297 -0.006338
vn 0.001848 -0.999615 -0.027678
vn 0.033046 -0.998730 -0.038037
vn 0.033469 -0.999280 -0.017867
vn -0.041288 -0.998579 -0.033703
vn -0.010307 -0.999215 -0.038257
vn -0.009610 -0.999874 -0.012613
vn 0.025208 -0.999534 -0.017240
vn -0.012256 -0.999562 -0.026947
vn -0.018814 -0.999619 -0.020208
vn 0.009454 -0.999791 -0.018143
vn 1.000000 0.000000 0.000000
vn 1.000000 0.000000 0.000000
vn -0.103783 0.993266 0.051502
vn -0.038506 0.998790 0.030598
vn -0.000000 0.999834 0.018226
vn -0.000003 0.999834 0.018227
vn 0.000462 0.999833 0.018272
vn 0.039032 0.999035 0.020153
vn 0.032424 0.999270 0.020204
vn -0.040522 0.999106 0.012058
vn -0.001222 0.999351 0.035996
vn -0.032649 0.998351 0.047218
vn -0.033490 0.999283 0.017660
vn 0.050450 0.997844 0.041968
vn 0.014526 0.998806 0.046636
vn 0.019952 0.999703 0.014025
vn 0.020171 0.999266 0.032572
vn -0.019404 0.999665 0.017103
vn 0.030897 0.999293 0.021423
vn 0.000273 0.999835 0.018141
vn 0.999253 -0.027284 0.027368
vn 0.999621 -0.025297 -0.010828
vn 0.926239 -0.004263 -0.376914
vn 0.926239 -0.004263 -0.376914
vn 0.005831 0.052070 -0.998626
vn -0.023230 0.052806 -0.998335
vn -0.388461 0.058133 -0.919630
vn -0.388461 0.058133 -0.919630
vn -0.999621 0.025310 0.010811
vn -0.999252 0.027298 -0.027407
vn -0.926255 0.004285 0.376873
vn -0.926255 0.004285 0.376873
vn 0.023211 -0.052820 0.998334
vn -0.005849 -0.052084 0.998626
vn 0.388422 -0.058142 0.919646
vn 0.388422 -0.058142 0.919646
vn -0.921070 0.044056 -0.386896
vn -0.921070 0.044056 -0.386896
vn 0.377727 0.038611 -0.925112
vn 0.377727 0.038611 -0.925112
vn 0.921087 -0.044052 0.386858
vn 0.921087 -0.044052 0.386858
vn -0.377744 -0.038627 0.925104
vn -0.377744 -0.038627 0.925104
vn -0.298198 -0.951261 0.078614
vn -0.298198 -0.951261 0.078614
vn -0.006837 -0.018263 0.999810
vn -0.298202 0.947763 0.113232
vn -0.298202 0.947763 0.113232
vn -0.453597 0.016236 -0.891059
vn -0.916777 -0.007278 0.399333
vn -1.000000 0.000007 -0.000001
vn -1.000000 0.000007 0.000001
vn -0.916778 -0.007278 0.399332
vn -0.624288 -0.014242 0.781065
vn -0.624290 -0.014242 0.781063
vn -0.032576 -0.018218 0.999303
vn -0.032576 -0.018218 0.999303
vn 0.130505 -0.018071 0.991283
vn 0.130505 -0.018071 0.991283
vn -0.056537 -0.018196 0.998235
vn 0.079630 -0.018166 0.996659
vn 0.079630 -0.018166 0.996659
vn -0.056537 -0.018196 0.998235
vn -0.102664 -0.018131 0.994551
vn -0.102664 -0.018131 0.994551
vn 0.032576 -0.018217 0.999303
vn 0.032576 -0.018217 0.999303
vn 0.624292 -0.014242 0.781061
vn 0.624294 -0.014242 0.781060
vn 0.916780 -0.007283 0.399326
vn 0.916781 -0.007283 0.399324
vn 1.000000 -0.000002 -0.000001
vn 1.000000 -0.000002 0.000001
vn 0.930138 0.006693 -0.367150
vn 0.930137 0.006693 -0.367151
vn 0.181119 0.017929 -0.983298
vn 0.181120 0.017929 -0.983298
vn -0.063325 0.018193 -0.997827
vn -0.063325 0.018193 -0.997827
vn 0.000000 0.018230 -0.999834
vn 0.000000 0.018230 -0.999834
vn 0.000000 0.018230 -0.999834
vn 0.000000 0.018230 -0.999834
vn 0.000000 0.018230 -0.999834
vn -0.615097 0.014371 -0.788320
vn -0.615098 0.014371 -0.788320
vn -0.894013 0.008168 -0.447968
vn -0.894012 0.008168 -0.447969
vn -0.000000 0.999834 0.018227
vn -0.000000 0.999834 0.018227
vn -0.000000 0.999834 0.018227
vn -0.000000 0.999834 0.018227
vn -0.000001 0.999834 0.018225
vn -0.000000 0.999834 0.018224
vn -0.000001 0.999834 0.018224
vn -0.000001 0.999834 0.018224
vn -0.000001 0.999834 0.018224
vn -0.000001 0.999834 0.018224
vn -0.000001 0.999834 0.018224
vn -0.000001 0.999834 0.018224
vn -0.000001 0.999834 0.018224
vn -0.000001 0.999834 0.018224
vn -0.000001 0.999834 0.018224
vn -0.000001 0.999834 0.018224
vn -0.000001 0.999834 0.018224
vn -0.000001 0.999834 0.018224
vn -0.000001 0.999834 0.018224
vn -0.000001 0.999834 0.018225
vn -0.000001 0.999834 0.018225
vn -0.000001 0.999834 0.018225
vn 0.000000 0.999834 0.018227
vn -0.000001 0.999834 0.018229
vn -0.000001 0.999834 0.018229
vn -0.000000 0.999834 0.018229
vn -0.000000 0.999834 0.018227
vn 0.000000 0.999834 0.018227
vn 0.000000 0.999834 0.018227
vn 0.000000 0.999834 0.018227
vn 0.000000 0.999834 0.018223
vn 0.000001 0.999834 0.018220
vn -0.000000 0.999834 0.018223
vn -0.000001 0.999834 0.018226
vn -0.000000 0.999834 0.018225
vn 0.000000 0.999834 0.018226
vn 0.000000 0.999834 0.018226
vn 0.000000 0.999834 0.018227
vn -0.000000 0.999834 0.018228
vn 0.000000 0.999834 0.018227
vn -0.000000 0.999834 0.018227
vn -0.000000 0.999834 0.018226
vn -0.000000 0.999834 0.018225
vn 0.000000 0.999834 0.018226
vn 0.000000 0.999834 0.018226
vn 0.000000 0.999834 0.018227
vn 0.000000 0.999834 0.018227
vn 0.997641 -0.001254 0.068635
vn 1.000000 -0.000003 0.000002
vn 1.000000 -0.000003 0.000002
vn 0.997641 -0.001254 0.068634
vn 0.071824 0.018173 -0.997252
vn 0.071824 0.018173 -0.997252
vn -0.174833 0.017939 -0.984435
vn -0.174833 0.017939 -0.984435
vn 0.157349 0.017997 -0.987379
vn 0.244967 0.017664 -0.969370
vn 0.244967 0.017664 -0.969371
vn 0.157349 0.017997 -0.987379
vn -0.242872 0.017686 -0.969897
vn -0.086699 0.018162 -0.996069
vn -0.086699 0.018162 -0.996069
vn -0.242872 0.017686 -0.969897
vn -0.277543 0.017507 -0.960554
vn -0.277543 0.017507 -0.960554
vn -0.533756 0.015407 -0.845498
vn -0.533757 0.015407 -0.845498
vn -0.859664 0.009307 -0.510775
vn -0.859665 0.009307 -0.510774
vn -0.997722 0.001229 -0.067444
vn -0.997722 0.001229 -0.067444
vn -0.999373 0.000644 -0.035386
vn -0.999373 0.000644 -0.035386
vn -1.000000 -0.000002 0.000005
vn -1.000000 -0.000002 0.000005
vn -1.000000 -0.000003 0.000012
vn -1.000000 -0.000003 0.000012
vn -0.845901 -0.009719 0.533252
vn -0.845900 -0.009719 0.533253
vn -0.632792 -0.014109 0.774193
vn -0.632792 -0.014109 0.774194
vn 0.262937 -0.017580 0.964653
vn 0.262937 -0.017580 0.964653
vn 0.535841 -0.015384 0.844179
vn 0.535840 -0.015384 0.844179
vn -0.000000 -0.999834 -0.018226
vn -0.000000 -0.999834 -0.018226
vn -0.000000 -0.999834 -0.018227
vn 0.000000 -0.999834 -0.018229
vn -0.000001 -0.999834 -0.018231
vn -0.000000 -0.999834 -0.018226
vn -0.000001 -0.999834 -0.018222
vn -0.000000 -0.999834 -0.018226
vn -0.000001 -0.999834 -0.018233
vn 0.000001 -0.999834 -0.018229
vn -0.000000 -0.999834 -0.018226
vn -0.000000 -0.999834 -0.018226
vn -0.000000 -0.999834 -0.018226
vn -0.000000 -0.999834 -0.018226
vn -0.000001 -0.999834 -0.018226
vn 0.000000 -0.999834 -0.018227
vn -0.000000 -0.999834 -0.018226
vn -0.000000 -0.999834 -0.018226
vn 0.000000 -0.999834 -0.018226
vn 0.000001 -0.999834 -0.018227
vn 0.000001 -0.999834 -0.018228
vn -0.000000 -0.999834 -0.018225
vn 0.000000 -0.999834 -0.018226
vn -0.000002 -0.999834 -0.018226
vn -0.000002 -0.999834 -0.018226
vn -0.000002 -0.999834 -0.018227
vn -0.000001 -0.999834 -0.018225
vn -0.000000 -0.999834 -0.018225
vn -0.000000 -0.999834 -0.018225
vn 0.000000 -0.999834 -0.018223
vn 0.000000 -0.999834 -0.018224
vn 0.000001 -0.999834 -0.018223
vn 0.000001 -0.999834 -0.018223
vn 0.000000 -0.999834 -0.018227
vn 0.000000 -0.999834 -0.018227
vn 0.000000 -0.999834 -0.018226
vn 0.000000 -0.999834 -0.018226
vn -0.000000 -0.999834 -0.018226
vn -0.000000 -0.999834 -0.018226
vn -0.000000 -0.999834 -0.018226
vn -0.000000 -0.999834 -0.018226
vn -0.000000 -0.999834 -0.018226
vn -0.000000 -0.999834 -0.018226
vn -0.000000 -0.999834 -0.018226
vn -0.000000 -0.999834 -0.018226
vn -0.000000 -0.999834 -0.018226
vn -0.000000 -0.999834 -0.018226
vn -0.000000 -0.999834 -0.018226
vn -0.000000 -0.999834 -0.018226
vn 0.999560 0.000540 -0.029673
vn 0.999560 0.000540 -0.029674
vn 0.999973 -0.000136 0.007367
vn 0.999973 -0.000136 0.007367
vn 0.001105 0.018227 -0.999833
vn 0.377157 0.016877 -0.925996
vn 0.377157 0.016877 -0.925996
vn 0.001106 0.018227 -0.999833
vn 0.501785 0.015759 -0.864849
vn 0.501785 0.015759 -0.864849
vn 0.616690 0.014345 -0.787075
vn 0.616690 0.014345 -0.787075
vn 0.719761 0.012654 -0.694106
vn 0.719761 0.012654 -0.694107
vn -0.717193 0.012694 -0.696759
vn -0.717192 0.012694 -0.696760
vn -0.802091 0.010878 -0.597102
vn -0.802091 0.010878 -0.597102
s 1
g polySurface358
usemtl initialShadingGroup
f 1/1/1 17/2/2 18/3/3 2/4/4
s 2
f 7/5/5 8/6/6 4/7/7 6/8/8
s 3
f 13/9/9 9/10/10 19/11/11 20/12/12
s 2
f 3/13/13 8/6/6 7/5/5 5/14/14
s 1
f 12/15/15 11/16/16 15/17/17 14/18/18
s 3
f 11/16/19 10/19/20 16/20/21 15/17/22
f 10/19/20 9/10/10 13/9/9 16/20/21
s 4
f 5/14/23 7/5/24 1/21/25
f 7/5/24 6/8/26 1/21/25
f 1/21/25 6/8/26 17/22/27
f 17/22/27 6/8/26 33/23/28
f 33/23/28 6/8/26 26/24/29
f 33/23/28 25/25/30 17/22/27
f 17/22/27 25/25/30 12/26/31
f 25/25/30 31/27/32 12/26/31
f 26/24/29 6/8/26 35/28/33
f 31/27/32 27/29/34 12/26/31
f 12/26/31 27/29/34 11/30/35
f 27/29/34 29/31/36 11/30/35
f 35/28/33 6/8/26 28/32/37
f 11/30/35 29/31/36 10/33/38
f 10/33/38 29/31/36 9/34/39
f 9/34/39 29/31/36 19/35/40
f 29/31/36 28/32/37 19/35/40
f 28/32/37 6/8/26 19/35/40
s 1
f 18/3/3 17/2/2 12/15/15 14/18/18
s 3
f 20/12/12 19/11/11 6/36/41 4/7/42
s 5
f 3/13/43 2/4/44 8/6/45
f 8/6/45 2/4/44 4/7/46
f 2/4/44 18/3/47 4/7/46
f 18/3/47 34/37/48 4/7/46
f 34/37/48 22/38/49 4/7/46
f 34/37/48 18/3/47 21/39/50
f 18/3/47 14/18/51 21/39/50
f 21/39/50 14/18/51 32/40/52
f 22/38/49 36/41/53 4/7/46
f 32/40/52 14/18/51 23/42/54
f 14/18/51 15/17/55 23/42/54
f 23/42/54 15/17/55 30/43/56
f 15/17/55 16/20/57 30/43/56
f 36/41/53 24/44/58 4/7/46
f 16/20/57 13/9/59 30/43/56
f 13/9/59 20/12/60 30/43/56
f 30/43/56 20/12/60 24/44/58
f 20/12/60 4/7/46 24/44/58
s 6
f 33/45/61 34/46/62 21/47/63 25/48/64
s 7
f 31/49/65 32/50/66 23/51/67 27/52/68
s 8
f 29/53/69 30/54/70 24/55/71 28/56/72
s 9
f 35/57/73 36/58/74 22/59/75 26/60/76
s 8
f 27/52/77 23/51/78 30/54/70 29/53/69
s 7
f 25/48/79 21/47/80 32/50/66 31/49/65
s 6
f 26/60/81 22/59/82 34/46/62 33/45/61
s 9
f 24/61/83 36/58/74 35/57/73 28/62/84
s 4
f 5/63/23 1/1/25 38/64/85 37/65/86
s 1
f 1/1/1 2/4/4 38/64/87
s 5
f 2/4/44 3/13/43 37/65/88 38/64/89
s 2
f 3/13/13 5/63/14 37/65/90
s 10
f 40/66/91 39/67/92 59/68/93 60/69/94
f 41/70/95 40/71/91 60/72/94 61/73/96
f 42/74/97 41/70/95 61/73/96 62/75/98
f 43/76/99 42/74/97 62/75/98 63/77/100
f 44/78/101 131/79/102 132/80/103 64/81/104
f 45/82/105 44/78/101 64/81/104 65/83/106
f 46/84/107 45/82/105 65/83/106 66/85/108
f 47/86/109 46/84/107 66/85/108 67/87/110
f 48/88/111 47/86/109 67/87/110 68/89/112
f 49/90/113 48/88/111 68/89/112 69/91/114
f 50/92/115 49/90/113 69/91/114 70/93/116
f 51/94/117 50/92/115 70/93/116 71/95/118
f 73/96/119 56/97/120 55/98/121 54/99/122 53/100/123 52/101/124 51/94/117 71/95/118 72/102/125
f 57/103/126 56/97/120 73/96/119 74/104/127
f 58/105/128 57/103/126 74/104/127 75/106/129
f 39/67/92 58/105/128 75/106/129 59/68/93
s 11
f 73/107/130 72/108/131 87/109/132 88/110/133
f 88/110/133 89/111/134 73/107/130
f 73/107/130 89/111/134 74/112/135
f 60/113/136 59/114/137 75/115/138 74/112/135 89/111/134 104/116/139 113/117/140 114/118/141 115/119/142 116/120/143 117/121/144 118/122/145 129/123/146 127/124/147 125/125/148 107/126/149 106/127/150 61/128/151
f 63/129/152 62/130/153 109/131/154 108/132/155 76/133/156
f 64/134/157 132/135/158 133/136/159 77/137/160
f 65/138/161 64/134/157 77/137/160 78/139/162
f 66/140/163 65/138/161 78/139/162 79/141/164
f 67/142/165 66/140/163 79/141/164 80/143/166
f 68/144/167 67/142/165 80/143/166 81/145/168
f 69/146/169 68/144/167 81/145/168 82/147/170
f 70/148/171 69/146/169 82/147/170 83/149/172
f 71/150/173 70/148/171 83/149/172 84/151/174
f 86/152/175 87/109/132 72/108/131 71/150/173 84/151/174 85/153/176
s 12
f 103/154/177 105/155/178 104/156/179 89/157/180
f 112/158/181 107/159/182 125/160/183 126/161/184
f 76/162/185 108/163/186 111/164/187 90/165/188
f 77/166/189 133/167/190 134/168/191 91/169/192
f 78/170/193 77/166/189 91/169/192 92/171/194
f 79/172/195 78/170/193 92/171/194 93/173/196
f 80/174/197 79/172/195 93/173/196 94/175/198
f 81/176/199 80/174/197 94/175/198 95/177/200
f 82/178/201 81/176/199 95/177/200 96/179/202
f 83/180/203 82/178/201 96/179/202 97/181/204
f 84/182/205 83/183/203 97/184/204 98/185/206
f 85/186/207 84/182/205 98/185/206 99/187/208
f 86/188/209 85/186/207 99/187/208 100/189/210
f 87/190/211 86/188/209 100/189/210 101/191/212
f 88/192/213 87/190/211 101/191/212 102/193/214
f 89/157/180 88/192/213 102/193/214 103/154/177
s 14
f 101/194/215 54/195/216 102/196/217
f 54/195/216 55/197/218 102/196/217
f 55/197/218 56/198/219 102/196/217
f 102/196/217 56/198/219 103/199/220
f 56/198/219 57/200/221 103/199/220
f 40/201/222 103/199/220 39/202/223
f 39/202/223 103/199/220 58/203/224
f 58/203/224 103/199/220 57/200/221
f 90/204/225 111/205/226 110/206/227 42/207/228 43/208/229
f 91/209/230 134/210/231 131/211/232 44/212/233
f 92/213/234 91/209/230 44/212/233 45/214/235
f 93/215/236 92/213/234 45/214/235 46/216/237
f 94/217/238 93/215/236 46/216/237 47/218/239
f 95/219/240 94/217/238 47/218/239 48/220/241
f 96/221/242 95/219/240 48/220/241 49/222/243
f 97/223/244 96/221/242 49/222/243 50/224/245
f 98/225/246 97/223/244 50/224/245 51/226/247
f 99/227/248 98/225/246 51/226/247 52/228/249
f 100/229/250 99/227/248 52/228/249 53/230/251
f 101/194/215 100/229/250 53/230/251 54/195/216
s 11
f 106/127/150 109/131/154 62/130/153 61/128/151
s 14
f 124/231/252 119/232/253 105/233/254 103/199/220 40/201/222 41/234/255 42/207/228 110/206/227 112/235/256 126/236/257 128/237/258 130/238/259 120/239/260 121/240/261 122/241/262 123/242/263
s 12
f 119/243/264 113/244/265 104/156/266 105/155/267
f 108/163/186 107/159/182 112/158/181 111/164/187
s 11
f 106/127/150 107/126/149 108/132/155 109/131/154
s 14
f 110/206/227 111/205/226 112/235/256
s 12
f 118/245/268 117/246/269 121/247/270 120/248/271
f 117/246/269 116/249/272 122/250/273 121/247/270
f 116/249/272 115/251/274 123/252/275 122/250/273
f 115/251/274 114/253/276 124/254/277 123/252/275
f 114/253/276 113/244/265 119/243/264 124/254/277
f 126/161/184 125/160/183 127/255/278 128/256/279
f 128/256/279 127/255/278 129/257/280 130/258/281
f 130/258/281 129/257/280 118/245/268 120/248/271
s 10
f 132/80/103 131/79/102 43/76/99 63/77/100
s 11
f 133/136/159 132/135/158 63/129/152 76/133/156
s 12
f 134/168/191 133/167/190 76/162/185 90/165/188
s 14
f 131/211/232 134/210/231 90/204/225 43/208/229
