# This file uses centimeters as units for non-parametric coordinates.

mtllib Screwdriver LowPo.mtl
g default
v 0.122152 0.058983 0.062455
v 0.000000 0.109300 0.057145
v -0.122150 0.058983 0.062455
v -0.172747 -0.062494 0.075271
v -0.122150 -0.183970 0.088088
v 0.000000 -0.234288 0.093396
v 0.122152 -0.183971 0.088088
v 0.172747 -0.062494 0.075271
v 0.122152 0.070874 0.175162
v 0.000000 0.121192 0.169854
v -0.122150 0.070874 0.175162
v -0.172747 -0.050602 0.187980
v -0.122150 -0.172079 0.200795
v 0.000000 -0.222396 0.206103
v 0.122152 -0.172079 0.200795
v 0.172747 -0.050602 0.187980
v 0.121246 -0.049522 0.198218
v 0.085735 0.035739 0.189223
v 0.000000 0.071055 0.185496
v -0.085733 0.035739 0.189223
v -0.121246 -0.049522 0.198218
v -0.085733 -0.134783 0.207213
v 0.000000 -0.170100 0.210940
v 0.085735 -0.134783 0.207213
v 0.121246 -0.033550 0.349607
v 0.085735 0.051711 0.340611
v 0.000000 0.087027 0.336884
v -0.085733 0.051711 0.340611
v -0.121246 -0.033550 0.349607
v -0.085733 -0.118811 0.358602
v 0.000000 -0.154128 0.362329
v 0.085735 -0.118811 0.358602
v 0.133064 -0.013934 0.535537
v 0.094091 0.079637 0.525664
v 0.000000 0.118396 0.521575
v -0.094090 0.079637 0.525664
v -0.133064 -0.013934 0.535537
v -0.094090 -0.107505 0.545409
v 0.000000 -0.146263 0.549497
v 0.094091 -0.107505 0.545409
v 0.165270 -0.004387 0.626018
v 0.116865 0.111832 0.613755
v 0.000000 0.159971 0.608676
v -0.116863 0.111832 0.613755
v -0.165270 -0.004387 0.626018
v -0.116863 -0.120606 0.638278
v 0.000000 -0.168746 0.643357
v 0.116865 -0.120606 0.638278
v 0.165270 0.069929 1.330405
v 0.116865 0.186148 1.318143
v 0.000000 0.234288 1.313066
v -0.116863 0.186148 1.318143
v -0.165270 0.069929 1.330405
v -0.116863 -0.046290 1.342668
v 0.000000 -0.094429 1.347747
v 0.116865 -0.046290 1.342668
v 0.092552 0.078158 1.408406
v 0.065443 0.143241 1.401540
v 0.000000 0.170199 1.398696
v -0.065443 0.143241 1.401540
v -0.092552 0.078158 1.408406
v -0.065443 0.013076 1.415273
v 0.000000 -0.013882 1.418117
v 0.065443 0.013076 1.415273
v 0.016954 -0.195730 -1.308276
v 0.006182 -0.188734 -1.316564
v -0.000479 -0.187685 -1.316674
v -0.013144 -0.190989 -1.308776
v -0.020969 -0.202491 -1.315112
v -0.022024 -0.209112 -1.314414
v -0.017910 -0.220919 -1.305619
v -0.007137 -0.229490 -1.312264
v -0.000479 -0.230539 -1.312154
v 0.012186 -0.225659 -1.305118
v 0.020014 -0.215734 -1.313716
v 0.021067 -0.209112 -1.314414
v 0.016954 -0.044356 0.126481
v 0.006182 -0.036572 0.125659
v -0.000479 -0.035523 0.125550
v -0.013144 -0.039616 0.125981
v -0.020969 -0.050329 0.127110
v -0.022024 -0.056951 0.127810
v -0.017910 -0.069545 0.129140
v -0.007137 -0.077329 0.129960
v -0.000479 -0.078378 0.130071
v 0.012186 -0.074286 0.129640
v 0.020014 -0.063572 0.128509
v 0.021067 -0.056951 0.127810
v 0.012714 -0.222738 -1.402709
v 0.003006 -0.224090 -1.410668
v -0.000479 -0.232270 -1.401704
v -0.004765 -0.231595 -1.401774
v -0.005274 -0.222786 -1.410806
v -0.014349 -0.218475 -1.403159
v -0.013670 -0.214213 -1.403607
v -0.003963 -0.214551 -1.411675
v -0.000479 -0.204680 -1.404614
v 0.003809 -0.205356 -1.404542
v 0.004318 -0.215856 -1.411538
v 0.013393 -0.218475 -1.403159
v -0.000479 -0.220054 -1.418117
vt 0.320891 0.814861
vt 0.246445 0.801540
vt 0.251392 0.733855
vt 0.318245 0.743677
vt 0.168265 0.789453
vt 0.177939 0.725236
vt 0.090085 0.777367
vt 0.105234 0.713679
vt 0.011906 0.765280
vt 0.034372 0.693269
vt 0.627320 0.753403
vt 0.549780 0.769076
vt 0.533886 0.706850
vt 0.606646 0.678595
vt 0.472239 0.784749
vt 0.458885 0.722395
vt 0.394699 0.800422
vt 0.384185 0.733483
vt 0.798030 0.497933
vt 0.724943 0.528207
vt 0.651856 0.497933
vt 0.621582 0.424846
vt 0.651856 0.351759
vt 0.724943 0.321486
vt 0.798030 0.351759
vt 0.828303 0.424846
vt 0.742043 0.704510
vt 0.715308 0.673853
vt 0.718073 0.633282
vt 0.748759 0.606570
vt 0.789322 0.609295
vt 0.816061 0.639950
vt 0.813299 0.680522
vt 0.782613 0.707240
vt 0.318336 0.705394
vt 0.386457 0.703338
vt 0.250850 0.704158
vt 0.185115 0.699598
vt 0.122920 0.690137
vt 0.069753 0.670259
vt 0.518231 0.682473
vt 0.571945 0.654149
vt 0.453950 0.696745
vt 0.317178 0.609428
vt 0.379833 0.607475
vt 0.254580 0.608892
vt 0.193346 0.606068
vt 0.134476 0.601126
vt 0.077429 0.595574
vt 0.499553 0.594655
vt 0.554633 0.583414
vt 0.441094 0.602724
vt 0.313683 0.490544
vt 0.379365 0.489123
vt 0.247827 0.490836
vt 0.182012 0.490475
vt 0.116626 0.490810
vt 0.052881 0.494989
vt 0.509018 0.483711
vt 0.571248 0.483302
vt 0.444633 0.486607
vt 0.312709 0.430735
vt 0.381158 0.429478
vt 0.244068 0.431495
vt 0.174427 0.432158
vt 0.102793 0.433875
vt 0.027870 0.439189
vt 0.521066 0.427216
vt 0.595170 0.429594
vt 0.450246 0.427958
vt 0.305069 -0.000313
vt 0.380364 -0.001369
vt 0.229747 0.001063
vt 0.154098 0.002817
vt 0.077977 0.004971
vt 0.001600 0.007138
vt 0.532173 -0.002390
vt 0.609041 -0.002185
vt 0.455973 -0.002092
vt 0.654849 0.690106
vt 0.710797 0.758759
vt 0.663862 0.601993
vt 0.732467 0.546108
vt 0.820561 0.555041
vt 0.876516 0.623681
vt 0.867517 0.711799
vt 0.798906 0.767699
vt 0.893978 0.870096
vt 0.886013 0.870309
vt 0.862899 0.007393
vt 0.870744 0.002689
vt 0.874775 0.002581
vt 0.898010 0.869988
vt 0.905975 0.869774
vt 0.882860 0.006858
vt 0.913939 0.869561
vt 0.890705 0.002154
vt 0.894737 0.002046
vt 0.917971 0.869453
vt 0.925936 0.869240
vt 0.902822 0.006323
vt 0.933900 0.869026
vt 0.910666 0.001619
vt 0.914698 0.001511
vt 0.937932 0.868918
vt 0.945897 0.868705
vt 0.922783 0.005789
vt 0.953861 0.868492
vt 0.930627 0.001085
vt 0.934659 0.000977
vt 0.957893 0.868384
vt 0.965858 0.868170
vt 0.942744 0.005254
vt 0.524412 0.874965
vt 0.512736 0.929791
vt 0.502606 0.932007
vt 0.521290 0.867015
vt 0.495366 0.923238
vt 0.516379 0.874162
vt 0.490606 0.921553
vt 0.515500 0.872615
vt 0.479991 0.921768
vt 0.515872 0.864788
vt 0.475106 0.911897
vt 0.509191 0.869461
vt 0.471730 0.908286
vt 0.507941 0.868316
vt 0.461106 0.906265
vt 0.511228 0.860683
vt 0.458391 0.896039
vt 0.502736 0.862168
vt 0.457277 0.891314
vt 0.500410 0.861564
vt 0.446799 0.887519
vt 0.508025 0.854164
vt 0.527972 0.865239
vt 0.526877 0.936603
vt 0.517818 0.929549
vt 0.526283 0.876230
vt 0.519764 0.856867
vn 0.382675 0.918783 -0.096937
vn 0.382675 0.918783 -0.096937
vn 0.382675 0.918783 -0.096937
vn 0.382675 0.918783 -0.096937
vn -0.382678 0.918782 -0.096938
vn -0.382678 0.918782 -0.096938
vn -0.382678 0.918782 -0.096938
vn -0.382678 0.918782 -0.096938
vn -0.923883 0.380564 -0.040151
vn -0.923883 0.380564 -0.040151
vn -0.923882 0.380564 -0.040151
vn -0.923882 0.380564 -0.040151
vn -0.923881 -0.380568 0.040153
vn -0.923881 -0.380568 0.040154
vn -0.923881 -0.380568 0.040154
vn -0.923881 -0.380568 0.040154
vn -0.382673 -0.918784 0.096940
vn -0.382673 -0.918784 0.096940
vn -0.382673 -0.918784 0.096940
vn -0.382673 -0.918784 0.096940
vn 0.382671 -0.918786 0.096934
vn 0.382671 -0.918786 0.096934
vn 0.382671 -0.918786 0.096934
vn 0.382671 -0.918786 0.096934
vn 0.923887 -0.380554 0.040152
vn 0.923886 -0.380554 0.040152
vn 0.923886 -0.380554 0.040152
vn 0.923887 -0.380554 0.040152
vn 0.923888 0.380551 -0.040149
vn 0.923888 0.380551 -0.040149
vn 0.923888 0.380551 -0.040149
vn 0.923888 0.380551 -0.040149
vn 0.000000 -0.104924 -0.994480
vn 0.000000 -0.104924 -0.994480
vn 0.000000 -0.104924 -0.994480
vn 0.000000 -0.104924 -0.994480
vn 0.000000 -0.104924 -0.994480
vn 0.000000 -0.104924 -0.994480
vn 0.000000 -0.104924 -0.994480
vn 0.000000 -0.104924 -0.994480
vn 0.306654 0.099869 0.946567
vn 0.216832 0.315504 0.923819
vn 0.000001 0.404826 0.914394
vn -0.216834 0.315505 0.923818
vn -0.306653 0.099868 0.946568
vn -0.216832 -0.115770 0.969320
vn 0.000002 -0.205092 0.978743
vn 0.216836 -0.115769 0.969319
vn 0.195382 0.183040 0.963495
vn 0.195382 0.183040 0.963495
vn 0.195382 0.183040 0.963495
vn 0.195381 0.183040 0.963495
vn 0.080944 0.296868 0.951482
vn 0.080944 0.296868 0.951482
vn 0.080944 0.296868 0.951482
vn 0.080944 0.296868 0.951482
vn -0.080945 0.296868 0.951482
vn -0.080945 0.296868 0.951482
vn -0.080945 0.296868 0.951482
vn -0.080945 0.296868 0.951482
vn -0.195399 0.183042 0.963491
vn -0.195399 0.183042 0.963491
vn -0.195399 0.183042 0.963491
vn -0.195399 0.183042 0.963491
vn -0.195398 0.022058 0.980476
vn -0.195398 0.022058 0.980476
vn -0.195398 0.022058 0.980476
vn -0.195398 0.022058 0.980476
vn -0.080946 -0.091781 0.992484
vn -0.080946 -0.091781 0.992484
vn -0.080946 -0.091781 0.992484
vn -0.080946 -0.091781 0.992484
vn 0.080943 -0.091781 0.992484
vn 0.080943 -0.091781 0.992484
vn 0.080943 -0.091781 0.992484
vn 0.080943 -0.091781 0.992484
vn 0.195389 0.022061 0.980478
vn 0.195389 0.022061 0.980478
vn 0.195389 0.022061 0.980478
vn 0.195389 0.022061 0.980478
vn 0.923883 0.380562 -0.040150
vn 0.923883 0.380562 -0.040150
vn 0.923379 0.376882 -0.073022
vn 0.923379 0.376882 -0.073022
vn 0.382681 0.918781 -0.096935
vn 0.382681 0.918781 -0.096935
vn 0.382473 0.914808 -0.129773
vn 0.382473 0.914808 -0.129773
vn -0.382683 0.918781 -0.096935
vn -0.382682 0.918781 -0.096935
vn -0.382480 0.914805 -0.129774
vn -0.382480 0.914805 -0.129773
vn -0.923874 0.380585 -0.040152
vn -0.923874 0.380585 -0.040152
vn -0.923370 0.376903 -0.073023
vn -0.923370 0.376903 -0.073023
vn -0.923874 -0.380585 0.040153
vn -0.923874 -0.380585 0.040153
vn -0.923370 -0.383844 0.007238
vn -0.923370 -0.383844 0.007238
vn -0.382696 -0.918775 0.096937
vn -0.382696 -0.918775 0.096937
vn -0.382478 -0.921746 0.063992
vn -0.382478 -0.921746 0.063993
vn 0.382687 -0.918779 0.096934
vn 0.382687 -0.918779 0.096934
vn 0.382472 -0.921749 0.063992
vn 0.382471 -0.921749 0.063992
vn 0.923884 -0.380561 0.040150
vn 0.923884 -0.380561 0.040150
vn 0.923377 -0.383828 0.007235
vn 0.923376 -0.383828 0.007235
vn 0.922313 0.373795 -0.098059
vn 0.922313 0.373795 -0.098059
vn 0.382032 0.911101 -0.154744
vn 0.382032 0.911101 -0.154744
vn -0.382044 0.911096 -0.154745
vn -0.382044 0.911096 -0.154745
vn -0.922305 0.373816 -0.098060
vn -0.922305 0.373816 -0.098060
vn -0.922305 -0.386050 -0.017893
vn -0.922305 -0.386050 -0.017893
vn -0.382031 -0.923335 0.038798
vn -0.382031 -0.923335 0.038798
vn 0.382026 -0.923337 0.038798
vn 0.382026 -0.923337 0.038798
vn 0.922309 -0.386038 -0.017895
vn 0.922309 -0.386038 -0.017895
vn 0.878119 0.329091 -0.347283
vn 0.878119 0.329091 -0.347283
vn 0.923428 0.377069 -0.071415
vn 0.923428 0.377069 -0.071415
vn 0.363720 0.840652 -0.401262
vn 0.363720 0.840652 -0.401262
vn 0.382488 0.915027 -0.128173
vn 0.382488 0.915027 -0.128173
vn -0.363731 0.840644 -0.401271
vn -0.363731 0.840644 -0.401271
vn -0.382493 0.915025 -0.128173
vn -0.382493 0.915025 -0.128173
vn -0.878111 0.329112 -0.347285
vn -0.878111 0.329112 -0.347285
vn -0.923420 0.377088 -0.071416
vn -0.923420 0.377088 -0.071417
vn -0.878119 -0.394322 -0.270956
vn -0.878119 -0.394322 -0.270956
vn -0.923421 -0.383687 0.008848
vn -0.923421 -0.383687 0.008848
vn -0.363732 -0.905878 -0.216992
vn -0.363732 -0.905877 -0.216992
vn -0.382494 -0.921626 0.065603
vn -0.382494 -0.921626 0.065603
vn 0.363726 -0.905878 -0.216996
vn 0.363726 -0.905879 -0.216996
vn 0.382491 -0.921627 0.065604
vn 0.382491 -0.921627 0.065604
vn 0.878120 -0.394320 -0.270956
vn 0.878120 -0.394320 -0.270956
vn 0.923431 -0.383663 0.008848
vn 0.923431 -0.383663 0.008847
vn 0.923885 0.380558 -0.040151
vn 0.923885 0.380558 -0.040151
vn 0.382678 0.918782 -0.096936
vn 0.382678 0.918782 -0.096936
vn -0.382682 0.918781 -0.096935
vn -0.382682 0.918781 -0.096935
vn -0.923878 0.380576 -0.040152
vn -0.923878 0.380576 -0.040152
vn -0.923877 -0.380577 0.040152
vn -0.923877 -0.380577 0.040152
vn -0.382683 -0.918780 0.096936
vn -0.382683 -0.918780 0.096936
vn 0.382680 -0.918781 0.096937
vn 0.382680 -0.918781 0.096937
vn 0.923889 -0.380550 0.040151
vn 0.923889 -0.380550 0.040151
vn 0.518534 0.587007 0.621728
vn 0.733317 0.071346 0.676133
vn 0.000003 0.800603 0.599195
vn -0.518533 0.587010 0.621726
vn -0.733313 0.071342 0.676137
vn -0.518533 -0.444335 0.730541
vn 0.000006 -0.657934 0.753076
vn 0.518544 -0.444329 0.730537
vn 0.453698 0.886237 -0.093501
vn 0.809074 0.584463 -0.061664
vn 0.809070 0.584469 -0.061664
vn 0.413524 0.905468 -0.095531
vn -0.111946 0.988229 -0.104263
vn -0.156153 0.982281 -0.103634
vn -0.587783 0.804553 -0.084883
vn -0.587796 0.804544 -0.084882
vn -0.891173 0.451160 -0.047604
vn -0.910513 0.411199 -0.043389
vn -0.993710 -0.111368 0.011744
vn -0.987729 -0.155317 0.016382
vn -0.809047 -0.584500 0.061670
vn -0.809043 -0.584505 0.061671
vn -0.453767 -0.886202 0.093502
vn -0.413574 -0.905445 0.095531
vn 0.111929 -0.988232 0.104259
vn 0.156135 -0.982284 0.103631
vn 0.587746 -0.804580 0.084882
vn 0.587746 -0.804580 0.084882
vn 0.891142 -0.451220 0.047603
vn 0.910500 -0.411228 0.043385
vn 0.993715 0.111320 -0.011746
vn 0.987742 0.155236 -0.016380
vn 0.699954 -0.712334 -0.051433
vn 0.540182 -0.841254 -0.022249
vn 0.540182 -0.841254 -0.022249
vn 0.579547 -0.810789 -0.082143
vn 0.626499 -0.778889 -0.028833
vn 0.626499 -0.778889 -0.028833
vn 0.452340 -0.891251 -0.032559
vn -0.155891 -0.987590 0.019095
vn -0.155891 -0.987590 0.019095
vn -0.702973 -0.709330 -0.051761
vn -0.834215 -0.548875 -0.053119
vn -0.834215 -0.548875 -0.053119
vn -0.797696 -0.593846 -0.105020
vn -0.771624 -0.634550 -0.044068
vn -0.771624 -0.634550 -0.044068
vn -0.882964 -0.462956 -0.077755
vn -0.984116 0.146316 -0.100532
vn -0.984116 0.146316 -0.100532
vn -0.700052 0.685814 -0.198965
vn -0.540371 0.817957 -0.197346
vn -0.540371 0.817957 -0.197346
vn -0.579640 0.775720 -0.249551
vn -0.626481 0.755735 -0.190753
vn -0.626481 0.755735 -0.190753
vn -0.452288 0.864856 -0.217854
vn 0.155874 0.969829 -0.187442
vn 0.155874 0.969829 -0.187442
vn 0.702959 0.682926 -0.198647
vn 0.834242 0.525669 -0.166472
vn 0.834242 0.525669 -0.166472
vn 0.797699 0.558840 -0.226662
vn 0.771636 0.611372 -0.175508
vn 0.771636 0.611372 -0.175508
vn 0.882942 0.436588 -0.172640
vn 0.984190 -0.163616 -0.067828
vn 0.984190 -0.163616 -0.067828
vn -0.000055 -0.104890 -0.994484
s off
g polySurface353
usemtl initialShadingGroup
f 1/1/1 2/2/2 10/3/3 9/4/4
f 2/2/5 3/5/6 11/6/7 10/3/8
f 3/5/9 4/7/10 12/8/11 11/6/12
f 4/7/13 5/9/14 13/10/15 12/8/16
f 5/11/17 6/12/18 14/13/19 13/14/20
f 6/12/21 7/15/22 15/16/23 14/13/24
f 7/15/25 8/17/26 16/18/27 15/16/28
f 8/17/29 1/1/30 9/4/31 16/18/32
f 7/19/33 6/20/34 5/21/35 4/22/36 3/23/37 2/24/38 1/25/39 8/26/40
s 1
f 57/27/41 58/28/42 59/29/43 60/30/44 61/31/45 62/32/46 63/33/47 64/34/48
s off
f 16/18/49 9/4/50 18/35/51 17/36/52
f 9/4/53 10/3/54 19/37/55 18/35/56
f 10/3/57 11/6/58 20/38/59 19/37/60
f 11/6/61 12/8/62 21/39/63 20/38/64
f 12/8/65 13/10/66 22/40/67 21/39/68
f 13/14/69 14/13/70 23/41/71 22/42/72
f 14/13/73 15/16/74 24/43/75 23/41/76
f 15/16/77 16/18/78 17/36/79 24/43/80
s 2
f 17/36/81 18/35/82 26/44/83 25/45/84
s 3
f 18/35/85 19/37/86 27/46/87 26/44/88
s 4
f 19/37/89 20/38/90 28/47/91 27/46/92
s 5
f 20/38/93 21/39/94 29/48/95 28/47/96
s 6
f 21/39/97 22/40/98 30/49/99 29/48/100
s 7
f 22/42/101 23/41/102 31/50/103 30/51/104
s 8
f 23/41/105 24/43/106 32/52/107 31/50/108
s 9
f 24/43/109 17/36/110 25/45/111 32/52/112
s 2
f 25/45/84 26/44/83 34/53/113 33/54/114
s 3
f 26/44/88 27/46/87 35/55/115 34/53/116
s 4
f 27/46/92 28/47/91 36/56/117 35/55/118
s 5
f 28/47/96 29/48/95 37/57/119 36/56/120
s 6
f 29/48/100 30/49/99 38/58/121 37/57/122
s 7
f 30/51/104 31/50/103 39/59/123 38/60/124
s 8
f 31/50/108 32/52/107 40/61/125 39/59/126
s 9
f 32/52/112 25/45/111 33/54/127 40/61/128
s 10
f 33/54/129 34/53/130 42/62/131 41/63/132
s 11
f 34/53/133 35/55/134 43/64/135 42/62/136
s 12
f 35/55/137 36/56/138 44/65/139 43/64/140
s 13
f 36/56/141 37/57/142 45/66/143 44/65/144
s 14
f 37/57/145 38/58/146 46/67/147 45/66/148
s 15
f 38/60/149 39/59/150 47/68/151 46/69/152
s 16
f 39/59/153 40/61/154 48/70/155 47/68/156
s 17
f 40/61/157 33/54/158 41/63/159 48/70/160
s 10
f 41/63/132 42/62/131 50/71/161 49/72/162
s 11
f 42/62/136 43/64/135 51/73/163 50/71/164
s 12
f 43/64/140 44/65/139 52/74/165 51/73/166
s 13
f 44/65/144 45/66/143 53/75/167 52/74/168
s 14
f 45/66/148 46/67/147 54/76/169 53/75/170
s 15
f 46/69/152 47/68/151 55/77/171 54/78/172
s 16
f 47/68/156 48/70/155 56/79/173 55/77/174
s 17
f 48/70/160 41/63/159 49/72/175 56/79/176
s 1
f 50/80/177 58/28/42 57/27/41 49/81/178
f 51/82/179 59/29/43 58/28/42 50/80/177
f 52/83/180 60/30/44 59/29/43 51/82/179
f 53/84/181 61/31/45 60/30/44 52/83/180
f 54/85/182 62/32/46 61/31/45 53/84/181
f 55/86/183 63/33/47 62/32/46 54/85/182
f 56/87/184 64/34/48 63/33/47 55/86/183
f 49/81/178 57/27/41 64/34/48 56/87/184
s 18
f 78/88/185 77/89/186 65/90/187 66/91/188
f 66/91/188 67/92/189 79/93/190 78/88/185
f 80/94/191 79/93/190 67/92/189 68/95/192
f 81/96/193 80/94/191 68/95/192 69/97/194
f 69/97/194 70/98/195 82/99/196 81/96/193
f 83/100/197 82/99/196 70/98/195 71/101/198
f 84/102/199 83/100/197 71/101/198 72/103/200
f 72/103/200 73/104/201 85/105/202 84/102/199
f 86/106/203 85/105/202 73/104/201 74/107/204
f 87/108/205 86/106/203 74/107/204 75/109/206
f 75/109/206 76/110/207 88/111/208 87/108/205
f 77/112/186 88/111/208 76/110/207 65/113/187
s 19
f 89/114/209 75/115/210 74/116/211 90/117/212
f 90/117/212 74/116/213 73/118/214 91/119/215
f 73/118/216 72/120/217 92/121/218 91/119/215
f 92/121/218 72/120/219 71/122/220 93/123/221
f 93/123/221 71/122/222 70/124/223 94/125/224
f 70/124/225 69/126/226 95/127/227 94/125/224
f 95/127/227 69/126/228 68/128/229 96/129/230
f 96/129/230 68/128/231 67/130/232 97/131/233
f 67/130/234 66/132/235 98/133/236 97/131/233
f 98/133/236 66/132/237 65/134/238 99/135/239
f 99/136/239 65/137/240 76/138/241 100/139/242
f 76/138/243 75/115/244 89/114/209 100/139/242
f 101/140/245 89/114/209 90/117/212
f 101/140/245 90/117/212 91/119/215
f 91/119/215 92/121/218 101/140/245
f 101/140/245 92/121/218 93/123/221
f 101/140/245 93/123/221 94/125/224
f 94/125/224 95/127/227 101/140/245
f 101/140/245 95/127/227 96/129/230
f 101/140/245 96/129/230 97/131/233
f 97/131/233 98/133/236 101/140/245
f 101/140/245 98/133/236 99/135/239
f 101/140/245 99/136/239 100/139/242
f 100/139/242 89/114/209 101/140/245
