# This file uses centimeters as units for non-parametric coordinates.

mtllib Screwdriver LowPo.mtl
g default
v -0.095177 0.062593 0.047957
v 0.005581 0.112911 -0.021302
v 0.099949 0.062593 -0.099042
v 0.132650 -0.058883 -0.139724
v 0.084526 -0.180360 -0.119515
v -0.016232 -0.230677 -0.050256
v -0.110601 -0.180361 0.027484
v -0.143301 -0.058883 0.068166
v -0.162996 0.074485 -0.042066
v -0.062237 0.124802 -0.111323
v 0.032133 0.074485 -0.189063
v 0.064833 -0.046992 -0.229743
v 0.016708 -0.168469 -0.209535
v -0.084047 -0.218786 -0.140277
v -0.178419 -0.168469 -0.062537
v -0.211119 -0.046992 -0.021857
v -0.176146 -0.045912 -0.061023
v -0.142370 0.039349 -0.075208
v -0.071650 0.074665 -0.123816
v -0.005413 0.039349 -0.178380
v 0.017536 -0.045912 -0.206933
v -0.016239 -0.131173 -0.192750
v -0.086958 -0.166489 -0.144139
v -0.153193 -0.131173 -0.089576
v -0.267237 -0.029940 -0.181939
v -0.233461 0.055321 -0.196122
v -0.162743 0.090637 -0.244733
v -0.096506 0.055321 -0.299296
v -0.073555 -0.029940 -0.327849
v -0.107330 -0.115201 -0.313666
v -0.178051 -0.150517 -0.265056
v -0.244286 -0.115201 -0.210492
v -0.388552 -0.010323 -0.323333
v -0.351482 0.083247 -0.338899
v -0.273870 0.122006 -0.392249
v -0.201180 0.083247 -0.452128
v -0.175993 -0.010323 -0.483464
v -0.213060 -0.103894 -0.467900
v -0.290672 -0.142652 -0.414550
v -0.363363 -0.103894 -0.354671
v -0.895554 0.078694 -0.997739
v -0.858719 0.171669 -1.013206
v -0.781603 0.210181 -1.066215
v -0.709373 0.171669 -1.125714
v -0.684345 0.078694 -1.156852
v -0.721178 -0.014282 -1.141385
v -0.798296 -0.052793 -1.088376
v -0.870523 -0.014282 -1.028874
v -0.881409 0.081769 -1.044885
v -0.855625 0.146851 -1.055713
v -0.801643 0.173810 -1.092818
v -0.751083 0.146851 -1.134467
v -0.733564 0.081769 -1.156262
v -0.759348 0.016686 -1.145436
v -0.813328 -0.010272 -1.108331
v -0.863890 0.016686 -1.066680
v -0.464027 -0.018208 -0.382060
v -0.454161 -0.002511 -0.366618
v -0.461815 0.016654 -0.379123
v -0.893442 0.075065 -0.956267
v -0.887863 0.056108 -0.944667
v -0.885653 0.090970 -0.941728
v -0.429583 0.098011 -0.392655
v -0.409748 0.109595 -0.385266
v -0.408220 0.122662 -0.405494
v -0.850128 0.184404 -0.974456
v -0.853420 0.172327 -0.955262
v -0.832058 0.196979 -0.968101
v -0.340740 0.156361 -0.451880
v -0.316763 0.156031 -0.449183
v -0.312740 0.156361 -0.472972
v -0.759439 0.229693 -1.036796
v -0.764578 0.230677 -1.014485
v -0.736578 0.230677 -1.035579
v -0.249538 0.122662 -0.525039
v -0.229673 0.109595 -0.520926
v -0.231304 0.098011 -0.542029
v -0.674500 0.184404 -1.106765
v -0.673376 0.196979 -1.087644
v -0.655142 0.172327 -1.104636
v -0.209402 0.016654 -0.569276
v -0.199495 -0.002511 -0.558469
v -0.211617 -0.018208 -0.572213
v -0.645065 0.075065 -1.143382
v -0.633240 0.090970 -1.131881
v -0.635454 0.056108 -1.134820
v -0.243845 -0.099565 -0.558681
v -0.243906 -0.114617 -0.539821
v -0.265209 -0.124216 -0.545842
v -0.688381 -0.034273 -1.125194
v -0.667683 -0.025249 -1.121285
v -0.689047 -0.049900 -1.108447
v -0.332691 -0.157915 -0.499457
v -0.336893 -0.161052 -0.475904
v -0.360691 -0.157915 -0.478364
v -0.779070 -0.079562 -1.062856
v -0.756529 -0.083599 -1.062062
v -0.784529 -0.083599 -1.040969
v -0.423893 -0.124216 -0.426299
v -0.423983 -0.114617 -0.404160
v -0.442127 -0.099565 -0.409305
v -0.864010 -0.034273 -0.992883
v -0.847731 -0.049900 -0.988904
v -0.865965 -0.025249 -0.971911
v 0.813459 -0.192120 1.079610
v 0.827049 -0.185124 1.079747
v 0.832436 -0.184075 1.075828
v 0.837797 -0.187379 1.061898
v 0.847860 -0.198881 1.062251
v 0.848284 -0.205502 1.061057
v 0.839705 -0.217309 1.056508
v 0.835098 -0.225880 1.068299
v 0.829714 -0.226929 1.072217
v 0.815367 -0.222049 1.074218
v 0.814287 -0.212123 1.085795
v 0.813864 -0.205502 1.086987
v -0.049849 -0.040746 -0.066354
v -0.040751 -0.032962 -0.072179
v -0.035366 -0.031913 -0.076098
v -0.025511 -0.036006 -0.084064
v -0.019939 -0.046719 -0.089675
v -0.019516 -0.053340 -0.090867
v -0.023603 -0.065934 -0.089454
v -0.032701 -0.073719 -0.083627
v -0.038086 -0.074767 -0.079709
v -0.047941 -0.070675 -0.071744
v -0.053513 -0.059962 -0.066131
v -0.053936 -0.053340 -0.064939
v 0.873665 -0.219128 1.152482
v 0.886208 -0.220480 1.153001
v 0.883596 -0.228660 1.143743
v 0.887064 -0.227985 1.141219
v 0.892904 -0.219176 1.148128
v 0.895554 -0.214865 1.136558
v 0.895281 -0.210603 1.137324
v 0.892382 -0.210941 1.149610
v 0.885347 -0.201070 1.146068
v 0.881884 -0.201745 1.148589
v 0.885685 -0.212245 1.154483
v 0.873394 -0.214865 1.153251
v 0.893473 -0.216443 1.156852
vt 0.267389 0.900354
vt 0.196676 0.887310
vt 0.211131 0.820124
vt 0.279959 0.832612
vt 0.117684 0.866807
vt 0.137217 0.802664
vt 0.038692 0.846305
vt 0.065797 0.776099
vt 0.675322 0.849207
vt 0.591750 0.877493
vt 0.578705 0.811357
vt 0.654771 0.786812
vt 0.510689 0.886942
vt 0.500715 0.822940
vt 0.429628 0.896391
vt 0.423094 0.829990
vt 0.350109 0.905839
vt 0.352692 0.834584
vt 0.807410 0.757172
vt 0.732012 0.788403
vt 0.656614 0.757172
vt 0.625384 0.681775
vt 0.656614 0.606377
vt 0.732012 0.575147
vt 0.807410 0.606377
vt 0.838640 0.681775
vt 0.731609 0.332779
vt 0.772586 0.346889
vt 0.791583 0.385844
vt 0.777460 0.426812
vt 0.738513 0.445823
vt 0.697536 0.431713
vt 0.678539 0.392758
vt 0.692662 0.351790
vt 0.285067 0.799188
vt 0.354701 0.802779
vt 0.217383 0.791881
vt 0.153704 0.779345
vt 0.100068 0.756326
vt 0.561233 0.784930
vt 0.617259 0.757606
vt 0.494744 0.797758
vt 0.425053 0.802653
vt 0.292860 0.702151
vt 0.357352 0.704672
vt 0.229853 0.696874
vt 0.169438 0.689053
vt 0.111109 0.680276
vt 0.545279 0.693832
vt 0.602050 0.683813
vt 0.485045 0.700833
vt 0.421904 0.704360
vt 0.290640 0.581959
vt 0.358184 0.583534
vt 0.223124 0.579033
vt 0.155985 0.575979
vt 0.090303 0.575895
vt 0.558457 0.579094
vt 0.622097 0.579372
vt 0.492477 0.581596
vt 0.425554 0.583380
vt 0.358812 0.533726
vt 0.289193 0.532579
vt 0.298666 0.521853
vt 0.348872 0.522656
vt 0.218759 0.530438
vt 0.227857 0.520039
vt 0.278725 0.521486
vt 0.146777 0.528172
vt 0.155403 0.518103
vt 0.207510 0.519537
vt 0.072033 0.528329
vt 0.080468 0.517622
vt 0.134373 0.517774
vt 0.642650 0.533300
vt 0.569243 0.531057
vt 0.581778 0.520675
vt 0.635767 0.522017
vt 0.498099 0.532366
vt 0.509251 0.521360
vt 0.560980 0.520680
vt 0.428236 0.533584
vt 0.438571 0.522461
vt 0.489089 0.521706
vt 0.368652 0.522738
vt 0.418727 0.522674
vt 0.347611 0.082411
vt 0.295284 0.083262
vt 0.274706 0.082524
vt 0.222140 0.082837
vt 0.201422 0.081814
vt 0.148267 0.080883
vt 0.127266 0.079175
vt 0.073047 0.074906
vt 0.642948 0.069598
vt 0.589139 0.076017
vt 0.567921 0.076916
vt 0.514709 0.080084
vt 0.493852 0.080111
vt 0.441175 0.082009
vt 0.420535 0.081672
vt 0.368164 0.082960
vt 0.729063 0.302255
vt 0.792386 0.323513
vt 0.822113 0.383322
vt 0.800831 0.446617
vt 0.741058 0.476347
vt 0.677737 0.455089
vt 0.648009 0.395281
vt 0.669290 0.331985
vt 0.357852 0.072790
vt 0.285087 0.073008
vt 0.285447 0.047308
vt 0.357930 0.047062
vt 0.212125 0.072518
vt 0.213074 0.046956
vt 0.138797 0.070509
vt 0.141532 0.045450
vt 0.064686 0.063298
vt 0.074741 0.038517
vt 0.649699 0.056637
vt 0.577389 0.067118
vt 0.573371 0.041523
vt 0.638333 0.031659
vt 0.503808 0.070371
vt 0.502611 0.044700
vt 0.430678 0.071980
vt 0.430397 0.046258
vt 0.058613 0.517686
vt 0.051490 0.072585
vt 0.865200 0.001069
vt 0.873421 0.001021
vt 0.875780 0.891848
vt 0.867576 0.896200
vt 0.863414 0.896187
vt 0.861039 0.001101
vt 0.852820 0.001176
vt 0.855181 0.891771
vt 0.844598 0.001269
vt 0.846979 0.896063
vt 0.842817 0.896023
vt 0.840436 0.001323
vt 0.914622 0.001043
vt 0.922840 0.001100
vt 0.925210 0.895809
vt 0.916982 0.891570
vt 0.906402 0.001003
vt 0.908774 0.896039
vt 0.904612 0.896080
vt 0.902240 0.000990
vt 0.894022 0.000977
vt 0.896382 0.891782
vt 0.885801 0.000981
vt 0.888175 0.896192
vt 0.884012 0.896206
vt 0.881640 0.000990
vt 0.445751 0.942884
vt 0.493403 0.966775
vt 0.493502 0.977456
vt 0.437524 0.942100
vt 0.483764 0.982441
vt 0.440786 0.949265
vt 0.480178 0.985803
vt 0.439982 0.951226
vt 0.478198 0.996196
vt 0.431227 0.945751
vt 0.468806 0.999023
vt 0.430139 0.954186
vt 0.503614 0.917040
vt 0.503494 0.921548
vt 0.443273 0.922891
vt 0.442519 0.920114
vt 0.508227 0.930436
vt 0.437990 0.929315
vt 0.501921 0.939598
vt 0.447889 0.931474
vt 0.501275 0.944531
vt 0.447277 0.933406
vt 0.503998 0.954782
vt 0.439949 0.936148
vt 0.495647 0.962259
vt 0.446315 0.941236
vt 0.430857 0.935811
vn -0.247329 0.918779 0.307691
vn -0.247329 0.918779 0.307691
vn -0.247329 0.918779 0.307691
vn -0.247329 0.918779 0.307691
vn 0.363993 0.918776 -0.152840
vn 0.363993 0.918776 -0.152840
vn 0.363993 0.918776 -0.152840
vn 0.363993 0.918776 -0.152840
vn 0.762076 0.380571 -0.523838
vn 0.762076 0.380571 -0.523838
vn 0.762076 0.380571 -0.523838
vn 0.762076 0.380571 -0.523838
vn 0.713748 -0.380576 -0.587984
vn 0.713748 -0.380576 -0.587984
vn 0.713748 -0.380576 -0.587984
vn 0.713748 -0.380576 -0.587984
vn 0.247323 -0.918780 -0.307691
vn 0.247323 -0.918780 -0.307692
vn 0.247323 -0.918780 -0.307691
vn 0.247323 -0.918780 -0.307692
vn -0.363975 -0.918784 0.152834
vn -0.363975 -0.918784 0.152834
vn -0.363975 -0.918784 0.152834
vn -0.363975 -0.918784 0.152834
vn -0.762075 -0.380568 0.523842
vn -0.762074 -0.380568 0.523842
vn -0.762074 -0.380568 0.523842
vn -0.762075 -0.380568 0.523842
vn -0.713751 0.380574 0.587981
vn -0.713752 0.380574 0.587981
vn -0.713751 0.380574 0.587981
vn -0.713751 0.380574 0.587981
vn 0.598392 -0.104924 0.794303
vn 0.598392 -0.104924 0.794303
vn 0.598392 -0.104924 0.794303
vn 0.598392 -0.104924 0.794303
vn 0.598392 -0.104924 0.794304
vn 0.598392 -0.104924 0.794303
vn 0.598392 -0.104924 0.794303
vn 0.598392 -0.104924 0.794303
vn -0.694418 0.104084 -0.712004
vn -0.659253 0.192841 -0.726773
vn -0.585634 0.229604 -0.777377
vn -0.516688 0.192839 -0.834174
vn -0.492793 0.104084 -0.863899
vn -0.527951 0.015331 -0.849136
vn -0.601575 -0.021436 -0.798529
vn -0.670529 0.015324 -0.741725
vn -0.735834 0.183016 -0.651961
vn -0.735834 0.183016 -0.651961
vn -0.735834 0.183016 -0.651961
vn -0.735834 0.183016 -0.651961
vn -0.637133 0.296877 -0.711285
vn -0.637132 0.296877 -0.711285
vn -0.637132 0.296877 -0.711285
vn -0.637132 0.296877 -0.711285
vn -0.507870 0.296845 -0.808672
vn -0.507870 0.296845 -0.808672
vn -0.507870 0.296845 -0.808672
vn -0.507870 0.296845 -0.808672
vn -0.423699 0.183036 -0.887117
vn -0.423699 0.183036 -0.887117
vn -0.423699 0.183036 -0.887117
vn -0.423699 0.183036 -0.887117
vn -0.433891 0.022051 -0.900695
vn -0.433891 0.022051 -0.900696
vn -0.433891 0.022051 -0.900695
vn -0.433891 0.022051 -0.900696
vn -0.532514 -0.091792 -0.841429
vn -0.532514 -0.091792 -0.841429
vn -0.532514 -0.091792 -0.841429
vn -0.532514 -0.091792 -0.841429
vn -0.661828 -0.091764 -0.744018
vn -0.661828 -0.091764 -0.744018
vn -0.661828 -0.091764 -0.744018
vn -0.661828 -0.091764 -0.744018
vn -0.746016 0.022059 -0.665563
vn -0.746016 0.022059 -0.665563
vn -0.746016 0.022059 -0.665563
vn -0.746016 0.022059 -0.665563
vn -0.713752 0.380573 0.587982
vn -0.713752 0.380573 0.587982
vn -0.693579 0.376891 0.613922
vn -0.693580 0.376891 0.613922
vn -0.247334 0.918779 0.307687
vn -0.247334 0.918779 0.307687
vn -0.227406 0.914807 0.333789
vn -0.227406 0.914807 0.333789
vn 0.363979 0.918782 -0.152838
vn 0.363979 0.918782 -0.152838
vn 0.383569 0.914810 -0.126484
vn 0.383569 0.914810 -0.126484
vn 0.762079 0.380558 -0.523843
vn 0.762079 0.380558 -0.523843
vn 0.781456 0.376878 -0.497282
vn 0.781456 0.376878 -0.497282
vn 0.713768 -0.380562 -0.587969
vn 0.713768 -0.380562 -0.587969
vn 0.733165 -0.383819 -0.561384
vn 0.733165 -0.383819 -0.561384
vn 0.247331 -0.918778 -0.307691
vn 0.247331 -0.918778 -0.307691
vn 0.266981 -0.921749 -0.281248
vn 0.266981 -0.921749 -0.281249
vn -0.363991 -0.918776 0.152845
vn -0.363991 -0.918776 0.152845
vn -0.343997 -0.921745 0.179030
vn -0.343997 -0.921745 0.179030
vn -0.762076 -0.380576 0.523835
vn -0.762076 -0.380576 0.523835
vn -0.741865 -0.383836 0.549824
vn -0.741865 -0.383836 0.549824
vn -0.677672 0.373803 0.633271
vn -0.677672 0.373803 0.633271
vn -0.212027 0.911101 0.353468
vn -0.212027 0.911101 0.353468
vn 0.398241 0.911104 -0.106273
vn 0.398241 0.911104 -0.106273
vn 0.795672 0.373791 -0.476641
vn 0.795672 0.373791 -0.476641
vn 0.747431 -0.386023 -0.540678
vn 0.747431 -0.386023 -0.540678
vn 0.281783 -0.923337 -0.260857
vn 0.281783 -0.923338 -0.260857
vn -0.328481 -0.923333 0.198886
vn -0.328481 -0.923333 0.198886
vn -0.725891 -0.386041 0.569257
vn -0.725891 -0.386041 0.569257
vn -0.492384 0.329108 0.805758
vn -0.492384 0.329108 0.805758
vn -0.664844 0.476129 0.575573
vn -0.743098 0.278598 0.608431
vn -0.049066 0.840648 0.539355
vn -0.049066 0.840648 0.539355
vn -0.158347 0.953339 0.257044
vn -0.322185 0.871520 0.369662
vn 0.531959 0.840649 0.101631
vn 0.531959 0.840649 0.101631
vn 0.444196 0.871523 -0.207696
vn 0.290752 0.953339 -0.081289
vn 0.910333 0.329097 -0.250977
vn 0.910333 0.329097 -0.250977
vn 0.789832 0.278605 -0.546393
vn 0.736658 0.476132 -0.480244
vn 0.864409 -0.394320 -0.311944
vn 0.864409 -0.394320 -0.311944
vn 0.676084 -0.478091 -0.560660
vn 0.754332 -0.280569 -0.593519
vn 0.421084 -0.905878 -0.045527
vn 0.421085 -0.905878 -0.045527
vn 0.169583 -0.955310 -0.242126
vn 0.333412 -0.873497 -0.354739
vn -0.159947 -0.905878 0.392175
vn -0.159947 -0.905878 0.392175
vn -0.432962 -0.873494 0.222603
vn -0.279515 -0.955310 0.096197
vn -0.538303 -0.394339 0.744800
vn -0.538303 -0.394339 0.744800
vn -0.778595 -0.280576 0.561309
vn -0.725425 -0.478090 0.495165
vn -0.749779 0.276622 0.601092
vn -0.669249 0.479896 0.567279
vn -0.330246 0.871067 0.363566
vn -0.161648 0.955262 0.247677
vn 0.282658 0.955263 -0.087043
vn 0.440564 0.871069 -0.217124
vn 0.729900 0.479902 -0.486764
vn 0.784621 0.276628 -0.554839
vn 0.749502 -0.276577 -0.601458
vn 0.668980 -0.479838 -0.567645
vn 0.329965 -0.871025 -0.363922
vn 0.161372 -0.955216 -0.248035
vn -0.282930 -0.955216 0.086677
vn -0.440836 -0.871023 0.216756
vn -0.730179 -0.479841 0.486408
vn -0.784896 -0.276581 0.554474
vn -0.996352 0.067639 -0.052030
vn -0.783376 0.605236 -0.141462
vn -0.337476 0.827906 -0.447974
vn 0.080163 0.605227 -0.792006
vn 0.224872 0.067641 -0.972038
vn 0.011904 -0.469956 -0.882610
vn -0.434016 -0.692633 -0.576098
vn -0.851639 -0.469955 -0.232063
vn -0.996721 0.058583 0.055818
vn -0.922086 0.378620 0.080025
vn -0.922086 0.378620 0.080025
vn -0.765588 0.642008 -0.041243
vn -0.525970 0.835692 -0.158033
vn -0.525970 0.835692 -0.158033
vn -0.281664 0.883666 -0.373899
vn -0.006784 0.835690 -0.549160
vn -0.006784 0.835690 -0.549160
vn 0.171585 0.642010 -0.747249
vn 0.331333 0.378616 -0.864216
vn 0.331333 0.378616 -0.864216
vn 0.328638 0.058582 -0.942638
vn 0.290258 -0.267824 -0.918706
vn 0.290258 -0.267824 -0.918706
vn 0.097487 -0.524872 -0.845580
vn -0.105860 -0.724922 -0.680649
vn -0.105860 -0.724922 -0.680649
vn -0.386426 -0.766525 -0.512946
vn -0.625047 -0.724901 -0.289541
vn -0.625047 -0.724901 -0.289541
vn -0.839668 -0.524859 -0.139575
vn -0.963129 -0.267825 0.025550
vn -0.963129 -0.267825 0.025550
vn -0.846656 0.008935 0.532066
vn -0.889382 0.017910 0.456813
vn -0.569226 0.709533 0.415385
vn -0.614749 0.710818 0.341793
vn 0.011970 0.999802 0.015892
vn -0.040122 0.997774 -0.053276
vn 0.556164 0.709663 -0.432504
vn 0.498110 0.710778 -0.496670
vn 0.744856 0.008883 -0.667166
vn 0.684543 0.017943 -0.728752
vn 0.467311 -0.691739 -0.550561
vn 0.410081 -0.674905 -0.613463
vn -0.113829 -0.981939 -0.151123
vn -0.164591 -0.961856 -0.218504
vn -0.658030 -0.691813 0.297308
vn -0.702699 -0.674990 0.224951
vn 0.421089 -0.905876 -0.045527
vn 0.421089 -0.905876 -0.045527
vn -0.159942 -0.905878 0.392179
vn -0.159942 -0.905878 0.392179
vn -0.538303 -0.394342 0.744798
vn -0.538303 -0.394342 0.744798
vn -0.492396 0.329108 0.805751
vn -0.492396 0.329108 0.805751
vn -0.049071 0.840647 0.539356
vn -0.049071 0.840647 0.539356
vn 0.531965 0.840645 0.101633
vn 0.531965 0.840645 0.101633
vn 0.910330 0.329099 -0.250983
vn 0.910330 0.329099 -0.250983
vn 0.864411 -0.394316 -0.311942
vn 0.864411 -0.394316 -0.311942
vn -0.306123 0.886237 0.347668
vn -0.609062 0.584542 0.536054
vn -0.609055 0.584553 0.536050
vn -0.272811 0.905473 0.325105
vn 0.152150 0.988230 0.015899
vn 0.187095 0.982278 -0.011204
vn 0.520569 0.804531 -0.285897
vn 0.520571 0.804530 -0.285899
vn 0.740391 0.451260 -0.498183
vn 0.753307 0.411296 -0.513191
vn 0.786627 -0.111295 -0.607315
vn 0.779060 -0.155260 -0.607421
vn 0.609058 -0.584552 -0.536048
vn 0.609061 -0.584548 -0.536049
vn 0.306166 -0.886212 -0.347693
vn 0.272847 -0.905452 -0.325131
vn -0.152169 -0.988227 -0.015899
vn -0.187099 -0.982277 0.011196
vn -0.520563 -0.804545 0.285870
vn -0.520566 -0.804542 0.285873
vn -0.740378 -0.451319 0.498149
vn -0.753281 -0.411396 0.513148
vn -0.786621 0.111317 0.607319
vn -0.779049 0.155309 0.607422
vn -0.528119 -0.712332 0.462248
vn -0.418104 -0.841229 0.342817
vn -0.418104 -0.841229 0.342817
vn -0.413505 -0.810754 0.414356
vn -0.483059 -0.778873 0.400013
vn -0.483059 -0.778873 0.400013
vn -0.341668 -0.891264 0.298179
vn 0.113008 -0.987598 -0.108992
vn 0.113008 -0.987598 -0.108992
vn 0.592623 -0.709328 -0.381642
vn 0.698282 -0.548820 -0.459564
vn 0.698282 -0.548820 -0.459564
vn 0.700302 -0.593887 -0.396075
vn 0.642779 -0.634625 -0.429052
vn 0.642779 -0.634625 -0.429052
vn 0.752003 -0.463006 -0.469165
vn 0.846498 0.146434 -0.511857
vn 0.846498 0.146434 -0.511857
vn 0.678773 0.685906 -0.262299
vn 0.550257 0.818019 -0.167520
vn 0.550257 0.818019 -0.167520
vn 0.613072 0.775771 -0.149409
vn 0.615097 0.755794 -0.224568
vn 0.615097 0.755794 -0.224568
vn 0.492282 0.864887 -0.098129
vn -0.011651 0.969836 0.243480
vn -0.011651 0.969836 0.243480
vn -0.442029 0.682839 0.581672
vn -0.566211 0.525608 0.634934
vn -0.566211 0.525608 0.634934
vn -0.500756 0.558876 0.660984
vn -0.510605 0.611518 0.604424
vn -0.510605 0.611518 0.604424
vn -0.601270 0.436683 0.669165
vn -0.745199 -0.163965 0.646370
vn -0.745199 -0.163965 0.646370
vn 0.598442 -0.105011 0.794254
s off
g polySurface351
usemtl initialShadingGroup
f 1/1/1 2/2/2 10/3/3 9/4/4
f 2/2/5 3/5/6 11/6/7 10/3/8
f 3/5/9 4/7/10 12/8/11 11/6/12
f 4/9/13 5/10/14 13/11/15 12/12/16
f 5/10/17 6/13/18 14/14/19 13/11/20
f 6/13/21 7/15/22 15/16/23 14/14/24
f 7/15/25 8/17/26 16/18/27 15/16/28
f 8/17/29 1/1/30 9/4/31 16/18/32
f 7/19/33 6/20/34 5/21/35 4/22/36 3/23/37 2/24/38 1/25/39 8/26/40
s 1
f 49/27/41 50/28/42 51/29/43 52/30/44 53/31/45 54/32/46 55/33/47 56/34/48
s off
f 16/18/49 9/4/50 18/35/51 17/36/52
f 9/4/53 10/3/54 19/37/55 18/35/56
f 10/3/57 11/6/58 20/38/59 19/37/60
f 11/6/61 12/8/62 21/39/63 20/38/64
f 12/12/65 13/11/66 22/40/67 21/41/68
f 13/11/69 14/14/70 23/42/71 22/40/72
f 14/14/73 15/16/74 24/43/75 23/42/76
f 15/16/77 16/18/78 17/36/79 24/43/80
s 2
f 17/36/81 18/35/82 26/44/83 25/45/84
s 3
f 18/35/85 19/37/86 27/46/87 26/44/88
s 4
f 19/37/89 20/38/90 28/47/91 27/46/92
s 5
f 20/38/93 21/39/94 29/48/95 28/47/96
s 6
f 21/41/97 22/40/98 30/49/99 29/50/100
s 7
f 22/40/101 23/42/102 31/51/103 30/49/104
s 8
f 23/42/105 24/43/106 32/52/107 31/51/108
s 9
f 24/43/109 17/36/110 25/45/111 32/52/112
s 2
f 25/45/84 26/44/83 34/53/113 33/54/114
s 3
f 26/44/88 27/46/87 35/55/115 34/53/116
s 4
f 27/46/92 28/47/91 36/56/117 35/55/118
s 5
f 28/47/96 29/48/95 37/57/119 36/56/120
s 6
f 29/50/100 30/49/99 38/58/121 37/59/122
s 7
f 30/49/104 31/51/103 39/60/123 38/58/124
s 8
f 31/51/108 32/52/107 40/61/125 39/60/126
s 9
f 32/52/112 25/45/111 33/54/127 40/61/128
s 10
f 58/62/129 64/63/130 63/64/131 59/65/132
f 64/63/133 70/66/134 69/67/135 65/68/136
f 70/66/137 76/69/138 75/70/139 71/71/140
f 76/69/141 82/72/142 81/73/143 77/74/144
f 82/75/145 88/76/146 87/77/147 83/78/148
f 88/76/149 94/79/150 93/80/151 89/81/152
f 94/79/153 100/82/154 99/83/155 95/84/156
f 100/82/157 58/62/158 57/85/159 101/86/160
f 62/87/161 59/65/132 63/64/131 67/88/162
f 68/89/163 65/68/136 69/67/135 73/90/164
f 74/91/165 71/71/140 75/70/139 79/92/166
f 80/93/167 77/74/144 81/73/143 85/94/168
f 86/95/169 83/78/148 87/77/147 91/96/170
f 92/97/171 89/81/152 93/80/151 97/98/172
f 98/99/173 95/84/156 99/83/155 103/100/174
f 104/101/175 101/86/160 57/85/159 61/102/176
s 1
f 41/103/177 42/104/178 50/28/42 49/27/41
f 42/104/178 43/105/179 51/29/43 50/28/42
f 43/105/179 44/106/180 52/30/44 51/29/43
f 44/106/180 45/107/181 53/31/45 52/30/44
f 45/107/181 46/108/182 54/32/46 53/31/45
f 46/108/182 47/109/183 55/33/47 54/32/46
f 47/109/183 48/110/184 56/34/48 55/33/47
f 48/110/184 41/103/177 49/27/41 56/34/48
f 60/111/185 62/87/186 67/88/187 66/112/188 42/113/178 41/114/177
f 66/112/188 68/89/189 73/90/190 72/115/191 43/116/179 42/113/178
f 72/115/191 74/91/192 79/92/193 78/117/194 44/118/180 43/116/179
f 78/117/194 80/93/195 85/94/196 84/119/197 45/120/181 44/118/180
f 84/121/197 86/95/198 91/96/199 90/122/200 46/123/182 45/124/181
f 90/122/200 92/97/201 97/98/202 96/125/203 47/126/183 46/123/182
f 96/125/203 98/99/204 103/100/205 102/127/206 48/128/184 47/126/183
f 102/127/206 104/101/207 61/102/208 60/111/185 41/114/177 48/128/184
s 10
f 57/85/159 59/65/132 62/87/161 61/102/176
f 63/64/131 65/68/136 68/89/163 67/88/162
f 69/67/135 71/71/140 74/91/165 73/90/164
f 75/70/139 77/74/144 80/93/167 79/92/166
f 81/73/143 83/129/148 86/130/169 85/94/168
f 87/77/147 89/81/152 92/97/171 91/96/170
f 93/80/151 95/84/156 98/99/173 97/98/172
f 99/83/155 101/86/160 104/101/175 103/100/174
f 57/85/159 58/62/209 59/65/132
f 60/111/210 61/102/176 62/87/161
f 63/64/131 64/63/211 65/68/136
f 66/112/212 67/88/162 68/89/163
f 69/67/135 70/66/213 71/71/140
f 72/115/214 73/90/164 74/91/165
f 75/70/139 76/69/215 77/74/144
f 78/117/216 79/92/166 80/93/167
f 81/73/143 82/72/217 83/129/148
f 84/119/218 85/94/168 86/130/169
f 87/77/147 88/76/219 89/81/152
f 90/122/220 91/96/170 92/97/171
f 93/80/151 94/79/221 95/84/156
f 96/125/222 97/98/172 98/99/173
f 99/83/155 100/82/223 101/86/160
f 102/127/224 103/100/174 104/101/175
f 38/58/225 39/60/226 94/79/150 88/76/149
f 39/60/227 40/61/228 100/82/154 94/79/153
f 40/61/229 33/54/230 58/62/158 100/82/157
f 33/54/231 34/53/232 64/63/130 58/62/129
f 34/53/233 35/55/234 70/66/134 64/63/133
f 35/55/235 36/56/236 76/69/138 70/66/137
f 36/56/237 37/57/238 82/72/142 76/69/141
f 37/59/239 38/58/240 88/76/146 82/75/145
s 18
f 118/131/241 117/132/242 105/133/243 106/134/244
f 106/134/244 107/135/245 119/136/246 118/131/241
f 120/137/247 119/136/246 107/135/245 108/138/248
f 121/139/249 120/137/247 108/138/248 109/140/250
f 109/140/250 110/141/251 122/142/252 121/139/249
f 123/143/253 122/144/252 110/145/251 111/146/254
f 124/147/255 123/143/253 111/146/254 112/148/256
f 112/148/256 113/149/257 125/150/258 124/147/255
f 126/151/259 125/150/258 113/149/257 114/152/260
f 127/153/261 126/151/259 114/152/260 115/154/262
f 115/154/262 116/155/263 128/156/264 127/153/261
f 117/132/242 128/156/264 116/155/263 105/133/243
s 19
f 129/157/265 115/158/266 114/159/267 130/160/268
f 130/160/268 114/159/269 113/161/270 131/162/271
f 113/161/272 112/163/273 132/164/274 131/162/271
f 132/164/274 112/163/275 111/165/276 133/166/277
f 133/166/277 111/165/278 110/167/279 134/168/280
f 110/169/281 109/170/282 135/171/283 134/172/280
f 135/171/283 109/170/284 108/173/285 136/174/286
f 136/174/286 108/173/287 107/175/288 137/176/289
f 107/175/290 106/177/291 138/178/292 137/176/289
f 138/178/292 106/177/293 105/179/294 139/180/295
f 139/180/295 105/179/296 116/181/297 140/182/298
f 116/181/299 115/158/300 129/157/265 140/182/298
f 141/183/301 129/157/265 130/160/268
f 141/183/301 130/160/268 131/162/271
f 131/162/271 132/164/274 141/183/301
f 141/183/301 132/164/274 133/166/277
f 141/183/301 133/166/277 134/168/280
f 134/172/280 135/171/283 141/183/301
f 141/183/301 135/171/283 136/174/286
f 141/183/301 136/174/286 137/176/289
f 137/176/289 138/178/292 141/183/301
f 141/183/301 138/178/292 139/180/295
f 141/183/301 139/180/295 140/182/298
f 140/182/298 129/157/265 141/183/301
