# This file uses centimeters as units for non-parametric coordinates.

mtllib Workbench.mtl
g default
v 3.851141 -0.057794 5.529533
v 4.531046 -0.057794 5.529533
v 3.851141 5.935734 5.529533
v 4.531046 5.935734 5.529533
v 3.851141 5.935734 4.849628
v 4.531046 5.935734 4.849628
v 3.851141 -0.057794 4.849628
v 4.531046 -0.057794 4.849628
v 3.935248 4.351925 5.452245
v 3.935252 4.890935 5.452245
v 2.210222 5.873769 5.452245
v 2.796771 5.873771 5.452245
v 2.210222 5.873769 4.926918
v 2.796771 5.873771 4.926918
v 3.935248 4.351925 4.926918
v 3.935252 4.890935 4.926918
v 3.851141 -0.057794 -5.567515
v 4.531046 -0.057794 -5.567515
v 3.851141 5.935734 -5.567515
v 4.531046 5.935734 -5.567515
v 3.851141 5.935734 -6.247422
v 4.531046 5.935734 -6.247422
v 3.851141 -0.057794 -6.247422
v 4.531046 -0.057794 -6.247422
v 3.935248 4.351925 -5.644804
v 3.935252 4.890935 -5.644804
v 2.210222 5.873769 -5.644804
v 2.796771 5.873771 -5.644804
v 2.210222 5.873769 -6.170132
v 2.796771 5.873771 -6.170132
v 3.935248 4.351925 -6.170132
v 3.935252 4.890935 -6.170132
v -2.838757 -0.057794 -6.247420
v -3.518662 -0.057794 -6.247420
v -2.838757 5.935734 -6.247420
v -3.518662 5.935734 -6.247420
v -2.838757 5.935734 -5.567515
v -3.518662 5.935734 -5.567515
v -2.838757 -0.057794 -5.567515
v -3.518662 -0.057794 -5.567515
v -2.922864 4.351925 -6.170132
v -2.922867 4.890935 -6.170132
v -1.197838 5.873769 -6.170132
v -1.784386 5.873771 -6.170132
v -1.197838 5.873769 -5.644804
v -1.784386 5.873771 -5.644804
v -2.922864 4.351925 -5.644804
v -2.922867 4.890935 -5.644804
v -2.838757 -0.057794 4.849630
v -3.518662 -0.057794 4.849630
v -2.838757 5.935734 4.849630
v -3.518662 5.935734 4.849630
v -2.838757 5.935734 5.529535
v -3.518662 5.935734 5.529535
v -2.838757 -0.057794 5.529535
v -3.518662 -0.057794 5.529535
v -2.922864 4.351925 4.926918
v -2.922867 4.890935 4.926918
v -1.197838 5.873769 4.926918
v -1.784386 5.873771 4.926918
v -1.197838 5.873769 5.452245
v -1.784386 5.873771 5.452245
v -2.922864 4.351925 5.452245
v -2.922867 4.890935 5.452245
v -4.223410 5.820145 6.543447
v 5.253649 5.820145 6.543447
v -4.223410 6.080657 6.543447
v 5.253649 6.080657 6.543447
v -4.223410 6.080657 -7.192209
v 5.253649 6.080657 -7.192209
v -4.223410 5.820145 -7.192209
v 5.253649 5.820145 -7.192209
vt 0.079408 0.952263
vt 0.079431 0.916669
vt 0.393203 0.916879
vt 0.393179 0.952474
vt 0.393289 0.845691
vt 0.393227 0.881285
vt 0.079455 0.881074
vt 0.079517 0.845480
vt 0.484900 0.865543
vt 0.484524 0.901135
vt 0.448932 0.900760
vt 0.449307 0.865167
vt 0.079384 0.987857
vt 0.393155 0.988068
vt 0.641776 0.855130
vt 0.623158 0.876335
vt 0.544423 0.875676
vt 0.521348 0.855417
vt 0.520782 0.923048
vt 0.544193 0.903177
vt 0.622928 0.903836
vt 0.641189 0.925349
vt 0.641711 0.827628
vt 0.521282 0.827915
vt 0.079408 0.952263
vt 0.079431 0.916669
vt 0.393203 0.916879
vt 0.393179 0.952474
vt 0.393289 0.845691
vt 0.393227 0.881285
vt 0.079455 0.881074
vt 0.079517 0.845480
vt 0.484900 0.865543
vt 0.484524 0.901135
vt 0.448932 0.900760
vt 0.449307 0.865167
vt 0.079384 0.987857
vt 0.393155 0.988068
vt 0.641776 0.855130
vt 0.623158 0.876335
vt 0.544423 0.875676
vt 0.521348 0.855417
vt 0.520782 0.923048
vt 0.544193 0.903177
vt 0.622928 0.903836
vt 0.641189 0.925349
vt 0.641711 0.827628
vt 0.521282 0.827915
vt 0.079408 0.952263
vt 0.079431 0.916669
vt 0.393203 0.916879
vt 0.393179 0.952474
vt 0.393289 0.845691
vt 0.393227 0.881285
vt 0.079455 0.881074
vt 0.079517 0.845480
vt 0.484900 0.865543
vt 0.484524 0.901135
vt 0.448932 0.900760
vt 0.449307 0.865167
vt 0.079384 0.987857
vt 0.393155 0.988068
vt 0.641776 0.855130
vt 0.623158 0.876335
vt 0.544423 0.875676
vt 0.521348 0.855417
vt 0.520782 0.923048
vt 0.544193 0.903177
vt 0.622928 0.903836
vt 0.641189 0.925349
vt 0.641711 0.827628
vt 0.521282 0.827915
vt 0.079408 0.952263
vt 0.079431 0.916669
vt 0.393203 0.916879
vt 0.393179 0.952474
vt 0.393289 0.845691
vt 0.393227 0.881285
vt 0.079455 0.881074
vt 0.079517 0.845480
vt 0.484900 0.865543
vt 0.484524 0.901135
vt 0.448932 0.900760
vt 0.449307 0.865167
vt 0.079384 0.987857
vt 0.393155 0.988068
vt 0.641776 0.855130
vt 0.623158 0.876335
vt 0.544423 0.875676
vt 0.521348 0.855417
vt 0.520782 0.923048
vt 0.544193 0.903177
vt 0.622928 0.903836
vt 0.641189 0.925349
vt 0.641711 0.827628
vt 0.521282 0.827915
vt 0.000729 0.769889
vt 0.496862 0.767282
vt 0.496933 0.780920
vt 0.000800 0.783527
vt 0.005290 0.044236
vt 0.501431 0.044566
vt 0.500953 0.763651
vt 0.004813 0.763322
vt 0.496369 0.843101
vt 0.000229 0.843041
vt 0.000231 0.829403
vt 0.496371 0.829463
vt 0.501488 0.044457
vt 0.997628 0.044786
vt 0.997151 0.763871
vt 0.501011 0.763542
vt 0.722338 0.821605
vt 0.003254 0.822196
vt 0.003242 0.808557
vt 0.722327 0.807967
vt 0.003511 0.792275
vt 0.722591 0.792255
vt 0.722588 0.806011
vt 0.003506 0.805796
vn 0.000000 0.000000 1.000000
vn 0.000000 0.000000 1.000000
vn 0.000000 0.000000 1.000000
vn 0.000000 0.000000 1.000000
vn 0.000000 0.000000 -1.000000
vn 0.000000 0.000000 -1.000000
vn 0.000000 0.000000 -1.000000
vn 0.000000 0.000000 -1.000000
vn 0.000000 -1.000000 0.000000
vn 0.000000 -1.000000 0.000000
vn 0.000000 -1.000000 0.000000
vn 0.000000 -1.000000 0.000000
vn 1.000000 0.000000 0.000000
vn 1.000000 0.000000 0.000000
vn 1.000000 0.000000 0.000000
vn 1.000000 0.000000 0.000000
vn -1.000000 0.000000 0.000000
vn -1.000000 0.000000 0.000000
vn -1.000000 0.000000 0.000000
vn -1.000000 0.000000 0.000000
vn 0.000000 0.000000 1.000000
vn 0.000000 0.000000 1.000000
vn 0.000000 0.000000 1.000000
vn 0.000000 0.000000 1.000000
vn -0.000005 0.000000 -1.000000
vn -0.000005 0.000000 -1.000000
vn -0.000005 0.000000 -1.000000
vn -0.000005 0.000000 -1.000000
vn 0.653467 0.756955 0.000000
vn 0.653467 0.756955 0.000000
vn 0.653467 0.756955 0.000000
vn 0.653467 0.756955 0.000000
vn -0.661563 -0.749890 0.000000
vn -0.661563 -0.749890 0.000000
vn -0.661563 -0.749890 0.000000
vn -0.661563 -0.749890 0.000000
vn 0.000000 0.000000 1.000000
vn 0.000000 0.000000 1.000000
vn 0.000000 0.000000 1.000000
vn 0.000000 0.000000 1.000000
vn 0.000000 0.000000 -1.000000
vn 0.000000 0.000000 -1.000000
vn 0.000000 0.000000 -1.000000
vn 0.000000 0.000000 -1.000000
vn 0.000000 -1.000000 0.000000
vn 0.000000 -1.000000 0.000000
vn 0.000000 -1.000000 0.000000
vn 0.000000 -1.000000 0.000000
vn 1.000000 0.000000 0.000000
vn 1.000000 0.000000 0.000000
vn 1.000000 0.000000 0.000000
vn 1.000000 0.000000 0.000000
vn -1.000000 0.000000 0.000000
vn -1.000000 0.000000 0.000000
vn -1.000000 0.000000 0.000000
vn -1.000000 0.000000 0.000000
vn -0.000003 0.000000 1.000000
vn -0.000003 0.000000 1.000000
vn -0.000003 0.000000 1.000000
vn -0.000003 0.000000 1.000000
vn -0.000003 0.000000 -1.000000
vn -0.000003 0.000000 -1.000000
vn -0.000003 0.000000 -1.000000
vn -0.000003 0.000000 -1.000000
vn 0.653468 0.756954 0.000000
vn 0.653468 0.756954 0.000000
vn 0.653468 0.756954 0.000000
vn 0.653468 0.756954 0.000000
vn -0.661563 -0.749890 0.000000
vn -0.661563 -0.749890 0.000000
vn -0.661563 -0.749890 0.000000
vn -0.661563 -0.749890 0.000000
vn 0.000000 0.000000 -1.000000
vn 0.000000 0.000000 -1.000000
vn 0.000000 0.000000 -1.000000
vn 0.000000 0.000000 -1.000000
vn 0.000000 0.000000 1.000000
vn 0.000000 0.000000 1.000000
vn 0.000000 0.000000 1.000000
vn 0.000000 0.000000 1.000000
vn 0.000000 -1.000000 0.000000
vn 0.000000 -1.000000 0.000000
vn 0.000000 -1.000000 0.000000
vn 0.000000 -1.000000 0.000000
vn -1.000000 0.000000 0.000000
vn -1.000000 0.000000 0.000000
vn -1.000000 0.000000 0.000000
vn -1.000000 0.000000 0.000000
vn 1.000000 0.000000 0.000000
vn 1.000000 0.000000 0.000000
vn 1.000000 0.000000 0.000000
vn 1.000000 0.000000 0.000000
vn 0.000000 0.000000 -1.000000
vn 0.000000 0.000000 -1.000000
vn 0.000000 0.000000 -1.000000
vn 0.000000 0.000000 -1.000000
vn 0.000003 0.000000 1.000000
vn 0.000003 0.000000 1.000000
vn 0.000003 0.000000 1.000000
vn 0.000003 0.000000 1.000000
vn -0.653468 0.756954 0.000000
vn -0.653468 0.756954 0.000000
vn -0.653468 0.756954 0.000000
vn -0.653468 0.756954 0.000000
vn 0.661563 -0.749890 0.000000
vn 0.661563 -0.749890 0.000000
vn 0.661563 -0.749890 0.000000
vn 0.661563 -0.749890 0.000000
vn 0.000000 0.000000 -1.000000
vn 0.000000 0.000000 -1.000000
vn 0.000000 0.000000 -1.000000
vn 0.000000 0.000000 -1.000000
vn 0.000000 0.000000 1.000000
vn 0.000000 0.000000 1.000000
vn 0.000000 0.000000 1.000000
vn 0.000000 0.000000 1.000000
vn 0.000000 -1.000000 0.000000
vn 0.000000 -1.000000 0.000000
vn 0.000000 -1.000000 0.000000
vn 0.000000 -1.000000 0.000000
vn -1.000000 0.000000 0.000000
vn -1.000000 0.000000 0.000000
vn -1.000000 0.000000 0.000000
vn -1.000000 0.000000 0.000000
vn 1.000000 0.000000 0.000000
vn 1.000000 0.000000 0.000000
vn 1.000000 0.000000 0.000000
vn 1.000000 0.000000 0.000000
vn 0.000005 0.000000 -1.000000
vn 0.000005 0.000000 -1.000000
vn 0.000005 0.000000 -1.000000
vn 0.000005 0.000000 -1.000000
vn 0.000000 0.000000 1.000000
vn 0.000000 0.000000 1.000000
vn 0.000000 0.000000 1.000000
vn 0.000000 0.000000 1.000000
vn -0.653467 0.756955 0.000000
vn -0.653467 0.756955 0.000000
vn -0.653467 0.756955 0.000000
vn -0.653467 0.756955 0.000000
vn 0.661563 -0.749890 0.000000
vn 0.661563 -0.749890 0.000000
vn 0.661563 -0.749890 0.000000
vn 0.661563 -0.749890 0.000000
vn 0.000000 0.000000 1.000000
vn 0.000000 0.000000 1.000000
vn 0.000000 0.000000 1.000000
vn 0.000000 0.000000 1.000000
vn 0.000000 1.000000 0.000000
vn 0.000000 1.000000 0.000000
vn 0.000000 1.000000 0.000000
vn 0.000000 1.000000 0.000000
vn 0.000000 0.000000 -1.000000
vn 0.000000 0.000000 -1.000000
vn 0.000000 0.000000 -1.000000
vn 0.000000 0.000000 -1.000000
vn 0.000000 -1.000000 0.000000
vn 0.000000 -1.000000 0.000000
vn 0.000000 -1.000000 0.000000
vn 0.000000 -1.000000 0.000000
vn 1.000000 0.000000 0.000000
vn 1.000000 0.000000 0.000000
vn 1.000000 0.000000 0.000000
vn 1.000000 0.000000 0.000000
vn -1.000000 0.000000 0.000000
vn -1.000000 0.000000 0.000000
vn -1.000000 0.000000 0.000000
vn -1.000000 0.000000 0.000000
s off
g polySurface343
usemtl initialShadingGroup
f 1/1/1 2/2/2 4/3/3 3/4/4
f 5/5/5 6/6/6 8/7/7 7/8/8
f 7/9/9 8/10/10 2/11/11 1/12/12
f 2/2/13 8/7/14 6/6/15 4/3/16
f 7/13/17 1/1/18 3/4/19 5/14/20
f 9/15/21 10/16/22 12/17/23 11/18/24
f 13/19/25 14/20/26 16/21/27 15/22/28
f 10/16/29 16/21/30 14/20/31 12/17/32
f 15/23/33 9/15/34 11/18/35 13/24/36
f 17/25/37 18/26/38 20/27/39 19/28/40
f 21/29/41 22/30/42 24/31/43 23/32/44
f 23/33/45 24/34/46 18/35/47 17/36/48
f 18/26/49 24/31/50 22/30/51 20/27/52
f 23/37/53 17/25/54 19/28/55 21/38/56
f 25/39/57 26/40/58 28/41/59 27/42/60
f 29/43/61 30/44/62 32/45/63 31/46/64
f 26/40/65 32/45/66 30/44/67 28/41/68
f 31/47/69 25/39/70 27/42/71 29/48/72
f 33/49/73 34/50/74 36/51/75 35/52/76
f 37/53/77 38/54/78 40/55/79 39/56/80
f 39/57/81 40/58/82 34/59/83 33/60/84
f 34/50/85 40/55/86 38/54/87 36/51/88
f 39/61/89 33/49/90 35/52/91 37/62/92
f 41/63/93 42/64/94 44/65/95 43/66/96
f 45/67/97 46/68/98 48/69/99 47/70/100
f 42/64/101 48/69/102 46/68/103 44/65/104
f 47/71/105 41/63/106 43/66/107 45/72/108
f 49/73/109 50/74/110 52/75/111 51/76/112
f 53/77/113 54/78/114 56/79/115 55/80/116
f 55/81/117 56/82/118 50/83/119 49/84/120
f 50/74/121 56/79/122 54/78/123 52/75/124
f 55/85/125 49/73/126 51/76/127 53/86/128
f 57/87/129 58/88/130 60/89/131 59/90/132
f 61/91/133 62/92/134 64/93/135 63/94/136
f 58/88/137 64/93/138 62/92/139 60/89/140
f 63/95/141 57/87/142 59/90/143 61/96/144
f 65/97/145 66/98/146 68/99/147 67/100/148
f 67/101/149 68/102/150 70/103/151 69/104/152
f 69/105/153 70/106/154 72/107/155 71/108/156
f 71/109/157 72/110/158 66/111/159 65/112/160
f 66/113/161 72/114/162 70/115/163 68/116/164
f 71/117/165 65/118/166 67/119/167 69/120/168
