# This file uses centimeters as units for non-parametric coordinates.

mtllib Counter No Ends.mtl
g default
v 1.939009 3.587208 -3.771329
v 1.939009 -0.006518 -3.771329
v 2.174994 3.595603 -3.535347
v -1.953533 -0.006517 -3.771329
v 1.931463 3.587208 0.026379
v 1.931476 -0.006517 0.019798
v 2.167914 3.595603 0.026394
v 2.175518 3.699385 -3.534820
v -2.017520 3.587208 -3.827720
v 1.931449 -0.006517 3.924708
v -1.961081 -0.006518 3.924708
v 2.168439 3.699385 0.026585
v 2.167904 3.595603 3.924708
v 1.931449 3.587208 3.924708
v 2.091653 3.742743 -3.698171
v -1.955894 0.158383 -3.418191
v -1.956291 0.158383 -3.662713
v -2.014602 3.437897 -3.662713
v -2.008931 3.437897 -0.154072
v -1.977720 1.682589 -0.154072
v -1.980289 1.861852 0.229831
v -2.008311 3.437897 0.229831
v -2.002858 3.437897 3.604953
v -2.004996 3.587208 3.924708
v -2.002988 3.437897 3.738473
v -1.962914 0.158383 3.738473
v -1.959470 0.158383 0.229831
v -1.959094 0.158383 -0.154072
v 2.091653 3.742742 0.026665
v 2.168431 3.699385 3.924708
v -2.145771 3.595603 -3.692619
v 2.056940 3.806717 -3.732885
v 2.091653 3.742743 3.924708
v 2.056940 3.806717 0.026780
v -2.170578 3.595603 3.924708
v -2.064515 3.885323 -3.773876
v 2.044795 3.885323 -3.745028
v 2.056940 3.806717 3.924708
v 2.044794 3.885323 0.026925
v -2.146141 3.699386 -3.692251
v -2.073098 3.806717 -3.765289
v -2.127498 3.885323 3.924708
v 2.044794 3.885323 3.924708
v -2.170780 3.699385 3.924708
v -2.144816 3.742743 3.924708
v -2.097648 3.742743 -3.740746
v -2.131954 3.806717 3.924708
vt 0.625000 0.750000
vt 0.500000 0.750000
vt 0.625000 0.519192
vt 0.625000 0.519192
vt 0.625000 0.750000
vt 0.625000 0.501700
vt 0.625000 0.501700
vt 0.500000 0.519192
vt 0.625000 0.750000
vt 0.500000 0.750000
vt 0.625000 0.519192
vt 0.625000 0.500649
vt 0.625000 0.500649
vt 0.625000 0.501700
vt 0.500000 0.739409
vt 0.500000 0.739409
vt 0.500000 0.528781
vt 0.500000 0.528781
vt 0.500000 0.641517
vt 0.500000 0.630003
vt 0.500000 0.528781
vt 0.500000 0.528781
vt 0.500000 0.519192
vt 0.500000 0.528781
vt 0.500000 0.739409
vt 0.500000 0.739409
vt 0.500000 0.739409
vt 0.625000 0.500494
vt 0.625000 0.500494
vt 0.625000 0.500649
vt 0.500000 0.501700
vt 0.500000 0.501700
vt 0.625000 0.500494
vt 0.625000 0.500346
vt 0.625000 0.500346
vt 0.500000 0.500000
vt 0.625000 0.500000
vt 0.625000 0.500346
vt 0.625000 0.500000
vt 0.500000 0.500649
vt 0.500000 0.500649
vt 0.500000 0.500346
vt 0.500000 0.500000
vt 0.625000 0.500000
vt 0.500000 0.500346
vt 0.500000 0.500494
vt 0.500000 0.500494
vn 0.999998 0.000000 0.001987
vn 1.000000 0.000001 0.000981
vn 1.000000 0.000001 0.000983
vn 0.999998 0.000000 0.001987
vn 0.035483 -0.999370 0.000071
vn 0.035482 -0.999370 0.000034
vn 0.035482 -0.999370 0.000034
vn 0.035483 -0.999370 0.000071
vn 0.000000 -1.000000 0.000000
vn 0.000000 -1.000000 0.000000
vn 0.000000 -1.000000 0.000000
vn 0.000000 -1.000000 0.000000
vn 0.000000 -1.000000 0.000000
vn 1.000000 0.000002 0.000005
vn 1.000000 0.000002 0.000005
vn 0.999985 -0.005059 0.001988
vn 0.999987 -0.005059 0.000949
vn 0.999987 -0.005059 0.000951
vn 0.999985 -0.005059 0.001988
vn 0.035482 -0.999370 0.000000
vn 0.035482 -0.999370 0.000000
vn -0.999870 -0.016129 0.000843
vn -0.999916 -0.012927 -0.000651
vn -0.999841 -0.017774 0.001611
vn -0.999841 -0.017774 0.001611
vn -0.999841 -0.017774 0.001611
vn -0.999901 -0.014096 -0.000106
vn -0.999878 -0.015637 0.000613
vn -0.999841 -0.017774 0.001611
vn -0.999856 -0.016931 0.001218
vn -0.999907 -0.013654 -0.000312
vn -0.999841 -0.017774 0.001611
vn -0.999925 -0.012221 -0.000981
vn -0.999925 -0.012221 -0.000981
vn -0.999925 -0.012221 -0.000981
vn -0.999925 -0.012221 -0.000981
vn -0.999925 -0.012221 -0.000981
vn 0.689270 0.724504 0.000130
vn 0.483316 0.875446 0.000227
vn 0.474630 0.880186 0.000461
vn 0.805887 0.592069 0.000115
vn 0.999987 -0.005059 0.000002
vn 0.999987 -0.005059 0.000002
vn -0.057071 -0.998370 -0.000046
vn -0.057071 -0.998370 -0.000046
vn -0.057071 -0.998370 -0.000046
vn -0.057071 -0.998370 -0.000046
vn 0.693526 0.720432 0.000000
vn 0.491700 0.870764 0.000001
vn 0.960757 0.277390 0.000000
vn 0.950093 0.311967 0.000000
vn 0.950010 0.312220 0.000000
vn 0.988274 0.152689 0.000000
vn 0.988273 0.152696 0.000000
vn -0.953608 0.301031 -0.003609
vn -0.999991 -0.002751 -0.003246
vn -0.999991 -0.002751 -0.003246
vn -0.969983 0.243147 -0.003564
vn 0.000000 1.000000 0.000000
vn 0.000000 1.000000 0.000000
vn 0.000000 1.000000 0.000000
vn 0.000000 1.000000 0.000000
vn 0.000000 1.000000 0.000000
vn 0.988272 0.152703 0.000000
vn -0.996581 0.082239 -0.007890
vn -0.996581 0.082239 -0.007890
vn -0.987404 0.158041 -0.007446
vn -0.984828 0.173377 -0.007350
vn -0.887563 0.460655 -0.005338
vn -0.918700 0.394913 -0.005845
s 1
g polySurface1248 pCube669
usemtl initialShadingGroup
f 1/3/1 5/4/2 6/5/3 2/1/4
s 2
f 3/6/5 7/7/6 5/4/7 1/3/8
s off
f 4/2/9 2/1/10 6/5/11 10/9/12 11/10/13
s 1
f 10/9/14 6/5/3 5/4/2 14/11/15
s 3
f 8/12/16 12/13/17 7/7/18 3/6/19
s 2
f 7/7/6 13/14/20 14/11/21 5/4/7
s 4
f 4/2/22 16/15/23 17/16/24 18/17/25 19/18/26 20/19/27 21/20/28 22/21/29 23/22/30 24/23/31 9/8/32
f 11/10/33 24/23/31 23/22/30 25/24/34 26/25/35 27/26/36 21/20/28 20/19/27 28/27/37 16/15/23 4/2/22
s 5
f 29/28/38 12/13/39 8/12/40 15/29/41
s 3
f 12/13/17 30/30/42 13/14/43 7/7/18
s off
f 31/31/44 9/8/45 24/23/46 35/32/47
s 5
f 12/13/39 29/28/38 33/33/48 30/30/49
f 32/34/50 34/35/51 29/28/38 15/29/41
f 34/35/51 38/38/52 33/33/48 29/28/38
f 37/37/53 39/39/54 34/35/51 32/34/50
s 6
f 40/40/55 31/31/56 35/32/57 44/41/58
s off
f 36/36/59 42/43/60 43/44/61 39/39/62 37/37/63
s 5
f 39/39/54 43/44/64 38/38/52 34/35/51
s 6
f 42/43/65 36/36/66 41/42/67 47/45/68
f 40/40/55 44/41/58 45/46/69 46/47/70
f 47/45/68 41/42/67 46/47/70 45/46/69
g default
v -2.145191 2.489876 -0.520583
v -2.088361 2.306879 -0.520583
v -2.044961 2.144308 -0.503102
v -2.044961 3.064171 -0.503080
v -2.088361 2.901606 -0.520583
v -2.145191 2.718608 -0.520583
v -2.152786 2.604207 -0.520583
v -2.162517 2.476334 -0.531304
v -2.099204 2.271176 -0.531300
v -2.044961 2.090555 -0.517145
v -2.044961 3.117919 -0.517149
v -2.099204 2.937297 -0.531296
v -2.162517 2.732086 -0.531304
v -2.171199 2.604207 -0.531304
v -2.174782 2.467484 -0.576541
v -2.106752 2.246473 -0.576526
v -2.044961 2.053438 -0.576526
v -2.044961 3.155047 -0.576511
v -2.106752 2.961952 -0.576530
v -2.174782 2.740936 -0.576533
v -2.183866 2.604266 -0.576526
v -2.169063 2.471939 -0.609498
v -2.103218 2.257634 -0.609498
v -2.044961 2.071134 -0.619788
v -2.044961 3.137347 -0.619684
v -2.103218 2.950780 -0.609494
v -2.169063 2.736486 -0.609494
v -2.178007 2.604266 -0.609491
v -2.145191 2.489876 -0.632525
v -2.088361 2.306879 -0.632525
v -2.044961 2.144308 -0.650013
v -2.044961 3.064171 -0.650013
v -2.088361 2.901606 -0.632525
v -2.145191 2.718608 -0.632525
v -2.152786 2.604266 -0.632525
vt 0.100000 0.750000
vt 0.000000 0.750000
vt 0.000000 0.650000
vt 0.100000 0.650000
vt 0.150000 0.650000
vt 0.150000 0.750000
vt 0.800000 0.750000
vt 0.750000 0.750000
vt 0.750000 0.650000
vt 0.800000 0.650000
vt 0.900000 0.750000
vt 0.900000 0.650000
vt 0.950000 0.750000
vt 0.950000 0.650000
vt 1.000000 0.750000
vt 1.000000 0.650000
vt 0.000000 0.500000
vt 0.100000 0.500000
vt 0.150000 0.500000
vt 0.750000 0.500000
vt 0.800000 0.500000
vt 0.900000 0.500000
vt 0.950000 0.500000
vt 1.000000 0.500000
vt 0.100000 0.400000
vt 0.000000 0.400000
vt 0.150000 0.400000
vt 0.750000 0.400000
vt 0.800000 0.400000
vt 0.900000 0.400000
vt 0.950000 0.400000
vt 1.000000 0.400000
vt 0.000000 0.250000
vt 0.100000 0.250000
vt 0.150000 0.250000
vt 0.750000 0.250000
vt 0.800000 0.250000
vt 0.900000 0.250000
vt 0.950000 0.250000
vt 1.000000 0.250000
vn -0.486080 -0.133960 0.863586
vn -0.471134 -0.087299 0.877731
vn -0.843024 -0.179928 0.506889
vn -0.866894 -0.246272 0.433411
vn -0.922105 -0.271328 0.275867
vn -0.667790 -0.122293 0.734235
vn -0.486290 0.133995 0.863463
vn -0.668087 0.122380 0.733951
vn -0.922142 0.271286 0.275787
vn -0.866988 0.246267 0.433225
vn -0.471190 0.087363 0.877695
vn -0.843109 0.179929 0.506748
vn -0.505003 -0.000000 0.863118
vn -0.884872 -0.000044 0.465834
vn -0.971563 -0.218053 0.092299
vn -0.953132 -0.292000 0.079218
vn -0.954644 -0.292119 0.057631
vn -0.954660 0.292067 0.057625
vn -0.953148 0.291964 0.079159
vn -0.971557 0.218081 0.092290
vn -0.996408 0.000028 0.084680
vn -0.871850 -0.245885 -0.423577
vn -0.841168 -0.186480 -0.507604
vn -0.926681 -0.275259 -0.255918
vn -0.926643 0.275224 -0.256096
vn -0.871882 0.245939 -0.423480
vn -0.841272 0.186528 -0.507413
vn -0.884463 0.000004 -0.466610
vn -0.637492 -0.121210 -0.760863
vn -0.642248 -0.184129 -0.744052
vn -0.768190 -0.174695 -0.615927
vn -0.768616 0.175014 -0.615305
vn -0.642655 0.184275 -0.743665
vn -0.637641 0.121353 -0.760715
vn -0.675401 0.000007 -0.737450
vn 0.977325 0.211746 0.000007
vn 0.961001 0.276544 0.000000
vn 0.961001 0.276544 0.000000
vn 0.977325 0.211746 0.000007
vn 0.966166 0.257922 0.000000
vn 0.966166 0.257922 0.000000
vn 0.961000 -0.276549 0.000000
vn 0.961000 -0.276549 0.000000
vn 0.966163 -0.257933 0.000000
vn 0.966163 -0.257933 0.000000
vn 0.977326 -0.211739 -0.000007
vn 0.977326 -0.211739 -0.000007
vn 1.000000 0.000022 -0.000000
vn 1.000000 -0.000022 -0.000000
s 1
g pCube669 polySurface1253
usemtl initialShadingGroup
f 49/48/71 48/49/72 55/50/73 56/51/74
f 57/52/75 50/53/76 49/48/71 56/51/74
f 52/54/77 51/55/78 58/56/79 59/57/80
f 53/58/81 52/54/77 59/57/80 60/59/82
f 54/60/83 53/58/81 60/59/82 61/61/84
f 48/62/72 54/60/83 61/61/84 55/63/73
f 56/51/74 55/50/73 62/64/85 63/65/86
f 64/66/87 57/52/75 56/51/74 63/65/86
f 59/57/80 58/56/79 65/67/88 66/68/89
f 60/59/82 59/57/80 66/68/89 67/69/90
f 61/61/84 60/59/82 67/69/90 68/70/91
f 55/63/73 61/61/84 68/70/91 62/71/85
f 70/72/92 63/65/86 62/64/85 69/73/93
f 71/74/94 64/66/87 63/65/86 70/72/92
f 66/68/89 65/67/88 72/75/95 73/76/96
f 74/77/97 67/69/90 66/68/89 73/76/96
f 68/70/91 67/69/90 74/77/97 75/78/98
f 62/71/85 68/70/91 75/78/98 69/79/93
f 70/72/92 69/73/93 76/80/99 77/81/100
f 78/82/101 71/74/94 70/72/92 77/81/100
f 73/76/96 72/75/95 79/83/102 80/84/103
f 74/77/97 73/76/96 80/84/103 81/85/104
f 75/78/98 74/77/97 81/85/104 82/86/105
f 69/79/93 75/78/98 82/86/105 76/87/99
s 3
f 48/49/106 49/48/107 77/81/108 76/80/109
f 50/53/110 78/82/111 77/81/108 49/48/107
f 52/54/112 80/84/113 79/83/114 51/55/115
f 52/54/112 53/58/116 81/85/117 80/84/113
f 54/60/118 82/86/119 81/85/117 53/58/116
f 48/62/106 76/87/109 82/86/119 54/60/118
g default
v -2.057144 0.106763 -0.098851
v -1.833385 0.106763 -0.098851
v -2.057144 3.489512 -0.098851
v -1.833385 3.489512 -0.098851
v -2.057144 3.489512 -3.717934
v -1.833385 3.489512 -3.717934
v -2.057144 0.106763 -3.717934
v -1.833385 0.106763 -3.717934
vt 0.375000 0.000000
vt 0.625000 0.000000
vt 0.625000 0.250000
vt 0.375000 0.250000
vt 0.625000 0.500000
vt 0.375000 0.500000
vt 0.625000 0.750000
vt 0.375000 0.750000
vt 0.625000 1.000000
vt 0.375000 1.000000
vt 0.875000 0.000000
vt 0.875000 0.250000
vt 0.125000 0.000000
vt 0.125000 0.250000
vn 0.000000 0.000000 1.000000
vn 0.000000 0.000000 1.000000
vn 0.000000 0.000000 1.000000
vn 0.000000 0.000000 1.000000
vn 0.000000 1.000000 0.000000
vn 0.000000 1.000000 0.000000
vn 0.000000 1.000000 0.000000
vn 0.000000 1.000000 0.000000
vn 0.000000 0.000000 -1.000000
vn 0.000000 0.000000 -1.000000
vn 0.000000 0.000000 -1.000000
vn 0.000000 0.000000 -1.000000
vn 0.000000 -1.000000 0.000000
vn 0.000000 -1.000000 0.000000
vn 0.000000 -1.000000 0.000000
vn 0.000000 -1.000000 0.000000
vn 1.000000 0.000000 0.000000
vn 1.000000 0.000000 0.000000
vn 1.000000 0.000000 0.000000
vn 1.000000 0.000000 0.000000
vn -1.000000 0.000000 0.000000
vn -1.000000 0.000000 0.000000
vn -1.000000 0.000000 0.000000
vn -1.000000 0.000000 0.000000
s off
g pCube669 polySurface1254
usemtl initialShadingGroup
f 83/88/120 84/89/121 86/90/122 85/91/123
f 85/91/124 86/90/125 88/92/126 87/93/127
f 87/93/128 88/92/129 90/94/130 89/95/131
f 89/95/132 90/94/133 84/96/134 83/97/135
f 84/89/136 90/98/137 88/99/138 86/90/139
f 89/100/140 83/88/141 85/91/142 87/101/143
g default
v -2.057144 0.106763 3.793694
v -1.833385 0.106763 3.793694
v -2.057144 3.489512 3.793694
v -1.833385 3.489512 3.793694
v -2.057144 3.489512 0.174610
v -1.833385 3.489512 0.174610
v -2.057144 0.106763 0.174610
v -1.833385 0.106763 0.174610
vt 0.375000 0.000000
vt 0.625000 0.000000
vt 0.625000 0.250000
vt 0.375000 0.250000
vt 0.625000 0.500000
vt 0.375000 0.500000
vt 0.625000 0.750000
vt 0.375000 0.750000
vt 0.625000 1.000000
vt 0.375000 1.000000
vt 0.875000 0.000000
vt 0.875000 0.250000
vt 0.125000 0.000000
vt 0.125000 0.250000
vn 0.000000 0.000000 1.000000
vn 0.000000 0.000000 1.000000
vn 0.000000 0.000000 1.000000
vn 0.000000 0.000000 1.000000
vn 0.000000 1.000000 0.000000
vn 0.000000 1.000000 0.000000
vn 0.000000 1.000000 0.000000
vn 0.000000 1.000000 0.000000
vn 0.000000 0.000000 -1.000000
vn 0.000000 0.000000 -1.000000
vn 0.000000 0.000000 -1.000000
vn 0.000000 0.000000 -1.000000
vn 0.000000 -1.000000 0.000000
vn 0.000000 -1.000000 0.000000
vn 0.000000 -1.000000 0.000000
vn 0.000000 -1.000000 0.000000
vn 1.000000 0.000000 0.000000
vn 1.000000 0.000000 0.000000
vn 1.000000 0.000000 0.000000
vn 1.000000 0.000000 0.000000
vn -1.000000 0.000000 0.000000
vn -1.000000 0.000000 0.000000
vn -1.000000 0.000000 0.000000
vn -1.000000 0.000000 0.000000
s off
g pCube669 polySurface1255
usemtl initialShadingGroup
f 91/102/144 92/103/145 94/104/146 93/105/147
f 93/105/148 94/104/149 96/106/150 95/107/151
f 95/107/152 96/106/153 98/108/154 97/109/155
f 97/109/156 98/108/157 92/110/158 91/111/159
f 92/103/160 98/112/161 96/113/162 94/104/163
f 97/114/164 91/102/165 93/105/166 95/115/167
g default
v -2.145191 2.489876 3.371962
v -2.088361 2.306879 3.371962
v -2.044961 2.144308 3.389442
v -2.044961 3.064171 3.389465
v -2.088361 2.901606 3.371962
v -2.145191 2.718608 3.371962
v -2.152786 2.604207 3.371962
v -2.162517 2.476334 3.361241
v -2.099204 2.271176 3.361243
v -2.044961 2.090555 3.375399
v -2.044961 3.117919 3.375395
v -2.099204 2.937297 3.361248
v -2.162517 2.732086 3.361241
v -2.171199 2.604207 3.361241
v -2.174782 2.467484 3.316004
v -2.106752 2.246473 3.316018
v -2.044961 2.053438 3.316018
v -2.044961 3.155047 3.316033
v -2.106752 2.961952 3.316015
v -2.174782 2.740936 3.316011
v -2.183866 2.604266 3.316018
v -2.169063 2.471939 3.283047
v -2.103218 2.257634 3.283047
v -2.044961 2.071134 3.272756
v -2.044961 3.137347 3.272860
v -2.103218 2.950780 3.283050
v -2.169063 2.736486 3.283050
v -2.178007 2.604266 3.283054
v -2.145191 2.489876 3.260020
v -2.088361 2.306879 3.260020
v -2.044961 2.144308 3.242531
v -2.044961 3.064171 3.242531
v -2.088361 2.901606 3.260020
v -2.145191 2.718608 3.260020
v -2.152786 2.604266 3.260020
vt 0.100000 0.750000
vt 0.000000 0.750000
vt 0.000000 0.650000
vt 0.100000 0.650000
vt 0.150000 0.650000
vt 0.150000 0.750000
vt 0.800000 0.750000
vt 0.750000 0.750000
vt 0.750000 0.650000
vt 0.800000 0.650000
vt 0.900000 0.750000
vt 0.900000 0.650000
vt 0.950000 0.750000
vt 0.950000 0.650000
vt 1.000000 0.750000
vt 1.000000 0.650000
vt 0.000000 0.500000
vt 0.100000 0.500000
vt 0.150000 0.500000
vt 0.750000 0.500000
vt 0.800000 0.500000
vt 0.900000 0.500000
vt 0.950000 0.500000
vt 1.000000 0.500000
vt 0.100000 0.400000
vt 0.000000 0.400000
vt 0.150000 0.400000
vt 0.750000 0.400000
vt 0.800000 0.400000
vt 0.900000 0.400000
vt 0.950000 0.400000
vt 1.000000 0.400000
vt 0.000000 0.250000
vt 0.100000 0.250000
vt 0.150000 0.250000
vt 0.750000 0.250000
vt 0.800000 0.250000
vt 0.900000 0.250000
vt 0.950000 0.250000
vt 1.000000 0.250000
vn -0.486080 -0.133974 0.863584
vn -0.471134 -0.087307 0.877730
vn -0.843024 -0.179928 0.506888
vn -0.866894 -0.246272 0.433411
vn -0.922106 -0.271324 0.275869
vn -0.667789 -0.122302 0.734234
vn -0.486290 0.133995 0.863463
vn -0.668087 0.122380 0.733951
vn -0.922142 0.271286 0.275787
vn -0.866989 0.246267 0.433225
vn -0.471190 0.087363 0.877695
vn -0.843108 0.179929 0.506749
vn -0.505003 -0.000001 0.863118
vn -0.884872 -0.000044 0.465833
vn -0.971563 -0.218052 0.092300
vn -0.953133 -0.291997 0.079218
vn -0.954645 -0.292116 0.057631
vn -0.954660 0.292067 0.057625
vn -0.953148 0.291964 0.079159
vn -0.971557 0.218080 0.092289
vn -0.996408 0.000028 0.084680
vn -0.871854 -0.245883 -0.423571
vn -0.841166 -0.186480 -0.507606
vn -0.926683 -0.275258 -0.255914
vn -0.926642 0.275225 -0.256098
vn -0.871881 0.245940 -0.423483
vn -0.841274 0.186527 -0.507411
vn -0.884464 0.000005 -0.466608
vn -0.637500 -0.121209 -0.760856
vn -0.642252 -0.184128 -0.744050
vn -0.768202 -0.174690 -0.615912
vn -0.768609 0.175016 -0.615312
vn -0.642654 0.184276 -0.743665
vn -0.637642 0.121352 -0.760715
vn -0.675409 0.000007 -0.737443
vn 0.977325 0.211746 0.000007
vn 0.961001 0.276544 0.000000
vn 0.961001 0.276544 0.000000
vn 0.977325 0.211746 0.000007
vn 0.966166 0.257922 0.000000
vn 0.966166 0.257922 0.000000
vn 0.961000 -0.276549 0.000000
vn 0.961000 -0.276549 0.000000
vn 0.966163 -0.257933 0.000000
vn 0.966163 -0.257933 0.000000
vn 0.977326 -0.211739 -0.000007
vn 0.977326 -0.211739 -0.000007
vn 1.000000 0.000022 -0.000000
vn 1.000000 -0.000022 -0.000000
s 1
g pCube669 polySurface1256
usemtl initialShadingGroup
f 100/116/168 99/117/169 106/118/170 107/119/171
f 108/120/172 101/121/173 100/116/168 107/119/171
f 103/122/174 102/123/175 109/124/176 110/125/177
f 104/126/178 103/122/174 110/125/177 111/127/179
f 105/128/180 104/126/178 111/127/179 112/129/181
f 99/130/169 105/128/180 112/129/181 106/131/170
f 107/119/171 106/118/170 113/132/182 114/133/183
f 115/134/184 108/120/172 107/119/171 114/133/183
f 110/125/177 109/124/176 116/135/185 117/136/186
f 111/127/179 110/125/177 117/136/186 118/137/187
f 112/129/181 111/127/179 118/137/187 119/138/188
f 106/131/170 112/129/181 119/138/188 113/139/182
f 121/140/189 114/133/183 113/132/182 120/141/190
f 122/142/191 115/134/184 114/133/183 121/140/189
f 117/136/186 116/135/185 123/143/192 124/144/193
f 125/145/194 118/137/187 117/136/186 124/144/193
f 119/138/188 118/137/187 125/145/194 126/146/195
f 113/139/182 119/138/188 126/146/195 120/147/190
f 121/140/189 120/141/190 127/148/196 128/149/197
f 129/150/198 122/142/191 121/140/189 128/149/197
f 124/144/193 123/143/192 130/151/199 131/152/200
f 125/145/194 124/144/193 131/152/200 132/153/201
f 126/146/195 125/145/194 132/153/201 133/154/202
f 120/147/190 126/146/195 133/154/202 127/155/196
s 3
f 99/117/203 100/116/204 128/149/205 127/148/206
f 101/121/207 129/150/208 128/149/205 100/116/204
f 103/122/209 131/152/210 130/151/211 102/123/212
f 103/122/209 104/126/213 132/153/214 131/152/210
f 105/128/215 133/154/216 132/153/214 104/126/213
f 99/130/203 127/155/206 133/154/216 105/128/215
g default
v -1.950410 1.319939 -3.832669
v -1.950410 1.130951 -3.832669
v -1.953750 1.319939 3.928023
v 1.818204 1.319943 3.902158
v 1.818205 1.130955 3.900943
v -1.953750 1.130951 3.928023
v 1.820707 1.319943 -3.783640
v 1.820707 1.130955 -3.784248
vt 0.000000 0.802316
vt 0.000000 0.802316
vt 0.000000 0.401158
vt 1.000000 0.398557
vt 1.000000 0.398620
vt 0.000000 0.401158
vt 1.000000 0.699278
vt 1.000000 0.699310
vn -1.000000 0.000000 -0.000430
vn -1.000000 0.000000 -0.000430
vn -1.000000 0.000000 -0.000430
vn -1.000000 0.000000 -0.000430
vn 1.000000 0.000000 0.000326
vn 1.000000 0.000000 0.000326
vn 1.000000 0.000000 0.000326
vn 1.000000 0.000000 0.000326
vn -0.000001 1.000000 0.000000
vn -0.000001 1.000000 0.000000
vn -0.000001 1.000000 0.000000
vn -0.000001 1.000000 0.000000
vn 0.000001 -1.000000 0.000000
vn 0.000001 -1.000000 0.000000
vn 0.000001 -1.000000 0.000000
vn 0.000001 -1.000000 0.000000
s off
g pPlane24
usemtl initialShadingGroup
f 135/157/217 139/161/218 136/158/219 134/156/220
f 137/159/221 138/160/222 141/163/223 140/162/224
f 136/158/225 137/159/226 140/162/227 134/156/228
f 138/160/229 139/161/230 135/157/231 141/163/232
g default
v -1.950410 3.487652 -3.826767
v -1.950410 0.151959 -3.773300
v 1.821540 3.487652 -3.824124
v 1.821540 0.151959 -3.824124
v -1.953774 3.487652 3.958199
v 1.818189 3.487652 3.937682
v 1.818189 0.151959 3.937682
v -1.953774 0.151959 3.984736
vt 0.000000 0.802316
vt 0.000000 0.802316
vt 1.000000 0.799315
vt 1.000000 0.799315
vt 0.000000 0.398204
vt 1.000000 0.396714
vt 1.000000 0.396714
vt 0.000000 0.398204
vn 0.006386 0.008014 0.999948
vn 0.006386 0.008014 0.999947
vn 0.006386 0.008014 0.999947
vn 0.006386 0.008014 0.999947
vn 0.000000 -1.000000 0.000000
vn 0.000000 -1.000000 0.000000
vn 0.000000 -1.000000 0.000000
vn 0.000000 -1.000000 0.000000
vn -1.000000 0.000000 -0.000432
vn -1.000000 0.000000 -0.000432
vn -1.000000 0.000000 -0.000432
vn -1.000000 0.000000 -0.000432
vn 0.000000 1.000000 -0.000000
vn 0.000000 1.000000 -0.000000
vn 0.000000 1.000000 -0.000000
vn 0.000000 1.000000 -0.000000
s off
g pPlane25
usemtl initialShadingGroup
f 142/164/233 143/165/234 145/167/235 144/166/236
f 147/169/237 146/168/238 142/164/239 144/166/240
f 148/170/241 147/169/242 144/166/243 145/167/244
f 149/171/245 148/170/246 145/167/247 143/165/248
