# This file uses centimeters as units for non-parametric coordinates.

mtllib Stair Invis Ramp.mtl
g default
v -1.235007 -8.987562 8.726704
v 6.472142 -8.987562 8.726704
v -1.219687 0.038319 -2.327803
v 6.487462 0.038319 -2.327803
v -1.566085 1.101434 -4.150562
v 6.778058 1.185428 -3.732768
v -0.977679 1.921908 -7.582990
v 7.169797 2.438825 -4.655382
v 1.193410 3.258938 -12.776309
v 7.130519 3.290610 -6.344085
v 4.338334 4.198062 -14.812573
v 8.588365 4.216929 -7.118162
v 8.125207 5.187196 -16.611894
v 9.251981 4.981710 -8.303140
v 11.628927 5.907849 -16.574693
v 10.519105 5.848143 -8.331856
v -1.235007 -10.760077 8.726706
v 6.472142 -10.760077 8.726706
v 6.472142 -1.734197 -2.327801
v -1.235007 -1.734197 -2.327801
v 6.762738 -0.587088 -3.732766
v -1.581404 -0.671081 -4.150560
v 7.169797 0.666310 -4.655380
v -0.977679 0.149393 -7.582988
v 7.130519 1.518094 -6.344083
v 1.193410 1.486422 -12.776307
v 8.588365 2.444414 -7.118160
v 4.338334 2.425546 -14.812572
v 9.251981 3.209194 -8.303138
v 8.125207 3.414680 -16.611893
v 10.519105 4.075628 -8.331854
v 11.628927 4.135333 -16.574692
vt 0.000000 0.000000
vt 1.000000 0.000000
vt 0.000000 1.000000
vt 1.000000 1.000000
vt 0.000000 0.000000
vt 1.000000 0.000000
vt 1.000000 1.000000
vt 0.000000 1.000000
vt 0.000000 0.000000
vt 1.000000 0.000000
vt 1.000000 1.000000
vt 0.000000 1.000000
vt 0.000000 0.000000
vt 1.000000 0.000000
vt 1.000000 1.000000
vt 0.000000 1.000000
vt 0.000000 0.000000
vt 1.000000 0.000000
vt 1.000000 1.000000
vt 0.000000 1.000000
vt 0.000000 0.000000
vt 1.000000 0.000000
vt 1.000000 1.000000
vt 0.000000 1.000000
vt 0.000000 0.000000
vt 1.000000 0.000000
vt 1.000000 1.000000
vt 0.000000 1.000000
vt 0.000000 0.000000
vt 1.000000 0.000000
vt 1.000000 1.000000
vt 0.000000 1.000000
vt 0.000000 0.000000
vt 1.000000 0.000000
vt 1.000000 1.000000
vt 0.000000 1.000000
vt 0.000000 0.000000
vt 1.000000 0.000000
vt 1.000000 1.000000
vt 0.000000 1.000000
vt 0.000000 0.000000
vt 1.000000 0.000000
vt 1.000000 1.000000
vt 0.000000 1.000000
vt 0.000000 0.000000
vt 1.000000 0.000000
vt 1.000000 1.000000
vt 0.000000 1.000000
vt 0.000000 0.000000
vt 1.000000 0.000000
vt 1.000000 1.000000
vt 0.000000 1.000000
vt 0.000000 0.000000
vt 1.000000 0.000000
vt 1.000000 1.000000
vt 0.000000 1.000000
vt 0.000000 0.000000
vt 1.000000 0.000000
vt 1.000000 1.000000
vt 0.000000 1.000000
vt 1.000000 0.000000
vt 1.000000 1.000000
vt 0.000000 1.000000
vt 0.000000 0.000000
vt 1.000000 0.000000
vt 1.000000 1.000000
vt 0.000000 1.000000
vt 0.000000 0.000000
vt 1.000000 0.000000
vt 1.000000 1.000000
vt 0.000000 1.000000
vt 0.000000 0.000000
vt 1.000000 0.000000
vt 1.000000 1.000000
vt 0.000000 1.000000
vt 0.000000 0.000000
vt 1.000000 0.000000
vt 1.000000 1.000000
vt 0.000000 1.000000
vt 0.000000 0.000000
vt 1.000000 0.000000
vt 1.000000 1.000000
vt 0.000000 1.000000
vt 0.000000 0.000000
vn 0.000000 -0.774600 -0.632451
vn 0.002590 -0.781770 -0.623562
vn 0.002585 -0.781756 -0.623579
vn 0.000000 -0.774600 -0.632451
vn 0.075455 -0.877106 -0.474334
vn 0.079319 -0.880266 -0.467805
vn 0.166115 -0.937400 -0.306082
vn 0.161911 -0.935316 -0.314592
vn 0.232139 -0.948461 -0.215714
vn 0.224486 -0.949005 -0.221348
vn 0.267296 -0.944823 -0.189375
vn 0.267296 -0.944823 -0.189374
vn 0.298793 -0.947789 -0.111443
vn 0.298793 -0.947789 -0.111443
vn 0.298793 -0.947789 -0.111443
vn 0.298793 -0.947789 -0.111443
vn 0.315642 -0.948752 -0.015523
vn 0.315642 -0.948752 -0.015523
vn 0.315642 -0.948751 -0.015523
vn 0.315642 -0.948752 -0.015523
vn 0.000000 0.774599 0.632452
vn 0.000000 0.774599 0.632452
vn -0.002586 0.781760 0.623574
vn -0.002588 0.781765 0.623567
vn -0.079250 0.879941 0.468426
vn -0.075565 0.876942 0.474619
vn -0.161869 0.935158 0.315084
vn -0.166243 0.937345 0.306183
vn -0.224488 0.949005 0.221350
vn -0.232140 0.948461 0.215715
vn -0.267297 0.944822 0.189377
vn -0.267297 0.944822 0.189377
vn -0.298789 0.947790 0.111440
vn -0.298789 0.947790 0.111440
vn -0.298789 0.947790 0.111440
vn -0.298789 0.947790 0.111440
vn -0.315642 0.948751 0.015523
vn -0.315642 0.948751 0.015523
vn -0.315642 0.948751 0.015523
vn -0.315642 0.948751 0.015523
vn 0.000000 0.000001 1.000000
vn 0.000000 0.000001 1.000000
vn 0.000000 0.000001 1.000000
vn 0.000000 0.000001 1.000000
vn 0.999987 -0.004322 -0.002836
vn 0.999987 -0.004322 -0.002836
vn 0.999987 -0.004322 -0.002836
vn 0.999987 -0.004322 -0.002836
vn -0.999987 0.004321 0.002835
vn -0.999987 0.004321 0.002835
vn -0.999987 0.004321 0.002835
vn -0.999987 0.004321 0.002835
vn 0.980586 -0.008475 0.195904
vn 0.980586 -0.008475 0.195904
vn 0.980586 -0.008475 0.195904
vn 0.980586 -0.008475 0.195904
vn -0.981463 0.008483 0.191466
vn -0.981463 0.008483 0.191466
vn -0.981463 0.008483 0.191466
vn -0.981463 0.008483 0.191466
vn 0.919650 -0.003973 0.392719
vn 0.919650 -0.003973 0.392719
vn 0.919650 -0.003973 0.392719
vn 0.919650 -0.003973 0.392719
vn -0.985417 0.004258 -0.170105
vn -0.985417 0.004258 -0.170105
vn -0.985417 0.004258 -0.170105
vn -0.985417 0.004258 -0.170105
vn 0.999730 -0.000000 -0.023253
vn 0.999730 -0.000000 -0.023253
vn 0.999730 -0.000000 -0.023253
vn 0.999730 -0.000000 -0.023253
vn -0.922621 0.000000 -0.385708
vn -0.922621 0.000000 -0.385708
vn -0.922621 0.000000 -0.385708
vn -0.922621 0.000000 -0.385708
vn 0.468960 0.000001 0.883220
vn 0.468960 0.000001 0.883220
vn 0.468960 0.000001 0.883220
vn 0.468960 0.000001 0.883220
vn -0.543498 -0.000001 -0.839410
vn -0.543498 -0.000001 -0.839410
vn -0.543498 -0.000001 -0.839410
vn -0.543498 -0.000001 -0.839410
vn 0.872497 0.000001 0.488620
vn 0.872497 0.000001 0.488620
vn 0.872497 0.000001 0.488620
vn 0.872497 0.000001 0.488620
vn -0.429164 -0.000002 -0.903227
vn -0.429164 -0.000002 -0.903227
vn -0.429164 -0.000002 -0.903227
vn -0.429164 -0.000002 -0.903227
vn 0.022658 -0.000001 0.999743
vn 0.022658 -0.000001 0.999743
vn 0.022658 -0.000001 0.999743
vn 0.022658 -0.000001 0.999743
vn 0.991057 0.000000 0.133437
vn 0.991057 0.000000 0.133437
vn 0.991057 0.000000 0.133437
vn 0.991057 0.000000 0.133437
vn 0.010613 0.000001 -0.999944
vn 0.010613 0.000001 -0.999944
vn 0.010613 0.000001 -0.999944
vn 0.010613 0.000001 -0.999944
s 1
g pPlane23
usemtl initialShadingGroup
f 17/57/1 20/60/2 19/59/3 18/58/4
f 20/64/2 22/63/5 21/62/6 19/61/3
f 22/68/5 24/67/7 23/66/8 21/65/6
f 24/72/7 26/71/9 25/70/10 23/69/8
f 26/76/9 28/75/11 27/74/12 25/73/10
s off
f 28/80/13 30/79/14 29/78/15 27/77/16
f 30/84/17 32/83/18 31/82/19 29/81/20
s 2
f 1/29/21 2/30/22 4/31/23 3/32/24
f 3/33/24 4/34/23 6/35/25 5/36/26
f 5/37/26 6/38/25 8/39/27 7/40/28
f 7/41/28 8/42/27 10/43/29 9/44/30
f 9/45/30 10/46/29 12/47/31 11/48/32
s off
f 11/49/33 12/50/34 14/51/35 13/52/36
f 13/53/37 14/54/38 16/55/39 15/56/40
f 1/1/41 17/57/42 18/58/43 2/2/44
f 2/2/45 18/58/46 19/59/47 4/4/48
f 3/3/49 20/60/50 17/57/51 1/1/52
f 4/6/53 19/61/54 21/62/55 6/7/56
f 5/8/57 22/63/58 20/64/59 3/5/60
f 6/10/61 21/65/62 23/66/63 8/11/64
f 7/12/65 24/67/66 22/68/67 5/9/68
f 8/14/69 23/69/70 25/70/71 10/15/72
f 9/16/73 26/71/74 24/72/75 7/13/76
f 10/18/77 25/73/78 27/74/79 12/19/80
f 11/20/81 28/75/82 26/76/83 9/17/84
f 12/22/85 27/77/86 29/78/87 14/23/88
f 13/24/89 30/79/90 28/80/91 11/21/92
f 14/26/93 29/81/94 31/82/95 16/27/96
f 16/27/97 31/82/98 32/83/99 15/28/100
f 15/28/101 32/83/102 30/84/103 13/25/104
