# This file uses centimeters as units for non-parametric coordinates.

mtllib Weapon Closet Door.mtl
g default
v -0.086266 4.537073 1.447293
v -0.168272 4.571041 1.447293
v -0.250278 4.537073 1.447293
v -0.284246 4.455067 1.447293
v -0.250278 4.373061 1.447293
v -0.168272 4.339093 1.447293
v -0.086266 4.373061 1.447293
v -0.052298 4.455067 1.447293
v -0.086266 4.537073 1.508930
v -0.168272 4.571041 1.508930
v -0.250278 4.537073 1.508930
v -0.284246 4.455067 1.508930
v -0.250278 4.373061 1.508930
v -0.168272 4.339093 1.508930
v -0.086266 4.373061 1.508930
v -0.052298 4.455067 1.508930
v -0.168272 4.455067 1.508930
v -0.168464 4.718893 1.445076
v -0.168464 4.718893 1.715428
v -0.168464 4.864804 1.881536
v -0.168464 5.637059 1.881536
v -0.168464 5.778147 1.715428
v -0.168464 5.778147 1.445076
v -0.216774 4.718893 1.847811
v -0.216774 4.754162 1.881536
v -0.246003 4.754162 1.847811
v -0.168464 4.718893 1.847811
v -0.168464 4.754162 1.881536
v -0.216774 5.742878 1.881536
v -0.216774 5.778147 1.847811
v -0.246003 5.742878 1.847811
v -0.168464 5.742878 1.881536
v -0.168464 5.778147 1.847811
v -0.246003 4.864804 1.847811
v -0.216774 4.864804 1.881536
v -0.116402 4.718893 1.847811
v -0.087172 4.754162 1.847811
v -0.116402 4.754162 1.881536
v -0.116402 4.864804 1.881536
v -0.087172 4.864804 1.847811
v -0.246003 5.742878 1.715428
v -0.216774 5.778147 1.715428
v -0.116402 5.742878 1.881536
v -0.087172 5.742878 1.847811
v -0.116402 5.778147 1.847811
v -0.087172 5.742878 1.715428
v -0.116402 5.778147 1.715428
v -0.216774 4.718893 1.715428
v -0.246003 4.754162 1.715428
v -0.087172 4.754162 1.715428
v -0.116402 4.718893 1.715428
v -0.087172 5.637059 1.847811
v -0.116402 5.637059 1.881536
v -0.246003 5.637059 1.847811
v -0.216774 5.637059 1.881536
v -0.216774 5.637059 1.715428
v -0.246003 5.672328 1.749155
v -0.246003 4.829535 1.749155
v -0.216774 4.864804 1.715428
v -0.087172 5.672328 1.749155
v -0.116402 5.637059 1.715428
v -0.116402 4.864804 1.715428
v -0.087172 4.829535 1.749155
v -0.246003 4.829535 1.445076
v -0.216774 4.864804 1.445076
v -0.116402 4.864804 1.445076
v -0.087172 4.829535 1.445076
v -0.087172 4.754162 1.445076
v -0.116402 4.718893 1.445076
v -0.216774 4.718893 1.445076
v -0.246003 4.754162 1.445076
v -0.246003 5.742878 1.445076
v -0.216774 5.778147 1.445076
v -0.116402 5.778147 1.445076
v -0.087172 5.742878 1.445076
v -0.087172 5.672328 1.445076
v -0.116402 5.637059 1.445076
v -0.216774 5.637059 1.445076
v -0.246003 5.672328 1.445076
v -0.110953 4.512386 1.507079
v -0.168272 4.536129 1.507079
v -0.225592 4.512386 1.507079
v -0.249334 4.455067 1.507079
v -0.225592 4.397747 1.507079
v -0.168272 4.374005 1.507079
v -0.110953 4.397747 1.507079
v -0.087210 4.455067 1.507079
v -0.110953 4.512386 1.528437
v -0.168272 4.536129 1.528437
v -0.225592 4.512386 1.528437
v -0.249334 4.455067 1.528437
v -0.225592 4.397747 1.528437
v -0.168272 4.374005 1.528437
v -0.110953 4.397747 1.528437
v -0.087210 4.455067 1.528437
v -0.168272 4.455067 1.528437
v -2.905046 1.185382 1.466119
v 0.024017 1.185382 1.466119
v -2.905046 10.538180 1.466119
v 0.024017 10.538180 1.466119
v -2.905046 10.538180 1.298976
v 0.024017 10.538180 1.298976
v -2.905046 1.185382 1.298976
v 0.024017 1.185382 1.298976
vt 0.375000 0.312500
vt 0.406250 0.312500
vt 0.406250 0.688440
vt 0.375000 0.688440
vt 0.437500 0.312500
vt 0.437500 0.688440
vt 0.468750 0.312500
vt 0.468750 0.688440
vt 0.500000 0.312500
vt 0.500000 0.688440
vt 0.531250 0.312500
vt 0.531250 0.688440
vt 0.562500 0.312500
vt 0.562500 0.688440
vt 0.593750 0.312500
vt 0.593750 0.688440
vt 0.625000 0.312500
vt 0.625000 0.688440
vt 0.610485 0.954235
vt 0.500000 1.000000
vt 0.500000 0.837500
vt 0.389515 0.954235
vt 0.343750 0.843750
vt 0.389515 0.733265
vt 0.500000 0.687500
vt 0.610485 0.733265
vt 0.656250 0.843750
vt 0.421007 0.949243
vt 0.375000 0.949243
vt 0.375000 0.750000
vt 0.421007 0.750000
vt 0.421007 0.008324
vt 0.421007 0.000000
vt 0.497046 0.000000
vt 0.497046 0.008324
vt 0.324243 0.008324
vt 0.421007 0.034437
vt 0.324243 0.034437
vt 0.497046 1.000000
vt 0.497046 0.949243
vt 0.578993 0.949243
vt 0.578992 1.000000
vt 0.421007 0.241676
vt 0.324243 0.241676
vt 0.324243 0.216701
vt 0.421007 0.216701
vt 0.421007 0.300757
vt 0.497046 0.241676
vt 0.497046 0.300757
vt 0.375000 0.300757
vt 0.421007 0.500000
vt 0.375000 0.508324
vt 0.578993 0.241676
vt 0.578993 0.300757
vt 0.675757 0.008324
vt 0.675757 -0.000000
vt 0.875000 0.000000
vt 0.875000 0.008324
vt 0.578993 0.008324
vt 0.675757 0.034437
vt 0.578993 0.034437
vt 0.675757 0.216701
vt 0.578993 0.216701
vt 0.421007 0.500000
vt 0.375000 0.508324
vt 0.675757 0.241676
vt 0.675757 0.250000
vt 0.875000 0.241676
vt 0.875000 0.250000
vt 0.578993 0.500000
vt 0.625000 0.508324
vt 0.625000 0.508324
vt 0.578993 0.500000
vt 0.375000 0.741676
vt 0.375000 0.741676
vt 0.421007 0.750000
vt 0.625000 0.741676
vt 0.578993 0.750000
vt 0.578993 0.750000
vt 0.625000 0.741676
vt 0.421007 0.533299
vt 0.375000 0.533299
vt 0.375000 0.524975
vt 0.421007 0.533299
vt 0.175759 0.225025
vt 0.125000 0.216701
vt 0.125000 0.034437
vt 0.175759 0.026113
vt 0.375000 0.715563
vt 0.421007 0.715563
vt 0.421007 0.715563
vt 0.375000 0.723887
vt 0.625000 0.522205
vt 0.578993 0.533299
vt 0.578993 0.533299
vt 0.625000 0.524975
vt 0.625000 0.533299
vt 0.625000 0.715563
vt 0.578993 0.715563
vt 0.625000 0.723887
vt 0.578993 0.715563
vt 0.497046 0.034437
vt 0.497046 0.500000
vt 0.497046 0.750000
vt 0.824241 0.026113
vt 0.125000 0.008324
vt 0.497046 0.216701
vt 0.125000 0.241676
vt 0.824241 0.225025
vt 0.625000 0.722963
vt 0.497046 0.750000
vt 0.375000 0.726783
vt 0.497046 0.500000
vt 0.375000 0.525898
vt 0.375000 0.312500
vt 0.406250 0.312500
vt 0.406250 0.688440
vt 0.375000 0.688440
vt 0.437500 0.312500
vt 0.437500 0.688440
vt 0.468750 0.312500
vt 0.468750 0.688440
vt 0.500000 0.312500
vt 0.500000 0.688440
vt 0.531250 0.312500
vt 0.531250 0.688440
vt 0.562500 0.312500
vt 0.562500 0.688440
vt 0.593750 0.312500
vt 0.593750 0.688440
vt 0.625000 0.312500
vt 0.625000 0.688440
vt 0.610485 0.954235
vt 0.500000 1.000000
vt 0.500000 0.837500
vt 0.389515 0.954235
vt 0.343750 0.843750
vt 0.389515 0.733265
vt 0.500000 0.687500
vt 0.610485 0.733265
vt 0.656250 0.843750
vt 0.375000 0.000000
vt 0.625000 0.000000
vt 0.625000 0.250000
vt 0.375000 0.250000
vt 0.625000 0.500000
vt 0.375000 0.500000
vt 0.625000 0.750000
vt 0.375000 0.750000
vt 0.625000 1.000000
vt 0.375000 1.000000
vt 0.875000 0.000000
vt 0.875000 0.250000
vt 0.125000 0.000000
vt 0.125000 0.250000
vn 0.382684 0.923880 0.000000
vn 0.382684 0.923880 0.000000
vn 0.382684 0.923880 0.000000
vn 0.382684 0.923880 0.000000
vn -0.382684 0.923880 0.000000
vn -0.382684 0.923880 0.000000
vn -0.382684 0.923880 0.000000
vn -0.382684 0.923880 0.000000
vn -0.923880 0.382683 0.000000
vn -0.923880 0.382683 0.000000
vn -0.923880 0.382683 0.000000
vn -0.923880 0.382683 0.000000
vn -0.923880 -0.382683 0.000000
vn -0.923880 -0.382683 0.000000
vn -0.923880 -0.382683 0.000000
vn -0.923880 -0.382683 0.000000
vn -0.382684 -0.923880 0.000000
vn -0.382684 -0.923880 0.000000
vn -0.382684 -0.923880 0.000000
vn -0.382684 -0.923880 0.000000
vn 0.382684 -0.923880 0.000000
vn 0.382684 -0.923880 0.000000
vn 0.382684 -0.923880 0.000000
vn 0.382684 -0.923880 0.000000
vn 0.923880 -0.382684 0.000000
vn 0.923880 -0.382684 0.000000
vn 0.923880 -0.382684 0.000000
vn 0.923880 -0.382684 0.000000
vn 0.923880 0.382684 0.000000
vn 0.923880 0.382684 0.000000
vn 0.923880 0.382684 0.000000
vn 0.923880 0.382684 0.000000
vn 0.000000 0.000000 1.000000
vn 0.000000 0.000000 1.000000
vn 0.000000 0.000000 1.000000
vn 0.000000 0.000000 1.000000
vn 0.000000 0.000000 1.000000
vn 0.000000 0.000000 1.000000
vn 0.000000 0.000000 1.000000
vn 0.000000 0.000000 1.000000
vn 0.000000 0.000000 1.000000
vn -0.769947 -0.638108 0.000000
vn -0.769947 -0.638108 0.000000
vn -0.769947 -0.638108 0.000000
vn -0.769947 -0.638108 0.000000
vn 0.000000 -0.691115 0.722745
vn 0.000000 -0.691115 0.722745
vn 0.000000 -0.691115 0.722745
vn 0.000000 -0.691115 0.722745
vn -0.755680 0.000000 0.654942
vn -0.755680 0.000000 0.654942
vn -0.755678 0.000000 0.654943
vn -0.755678 0.000000 0.654943
vn 0.000000 -0.691115 0.722745
vn 0.000000 -0.691115 0.722745
vn -0.755677 0.000000 0.654945
vn -0.755677 0.000000 0.654945
vn -0.755678 0.000000 0.654943
vn -0.755678 0.000000 0.654943
vn 0.000000 0.691112 0.722748
vn 0.000000 0.691112 0.722748
vn 0.000000 0.691115 0.722745
vn 0.000000 0.691115 0.722745
vn -0.769947 0.638108 0.000000
vn -0.769947 0.638108 0.000000
vn -0.769947 0.638108 0.000000
vn -0.769947 0.638108 0.000000
vn 0.000000 0.691118 0.722742
vn 0.000000 0.691118 0.722742
vn 0.769947 -0.638107 0.000000
vn 0.769947 -0.638107 0.000000
vn 0.769947 -0.638107 0.000000
vn 0.769947 -0.638107 0.000000
vn 0.755678 0.000000 0.654943
vn 0.755678 0.000000 0.654943
vn 0.755678 0.000000 0.654943
vn 0.755678 0.000000 0.654943
vn 0.755678 0.000000 0.654943
vn 0.755678 0.000000 0.654943
vn -0.769947 0.638108 0.000000
vn -0.769947 0.638108 0.000000
vn 0.755677 0.000000 0.654945
vn 0.755677 0.000000 0.654945
vn 0.769947 0.638107 0.000000
vn 0.769947 0.638107 0.000000
vn 0.769947 0.638107 0.000000
vn 0.769947 0.638107 0.000000
vn 0.769947 0.638108 0.000000
vn 0.769947 0.638108 0.000000
vn -0.769947 -0.638108 0.000000
vn -0.769947 -0.638108 0.000000
vn 0.769947 -0.638108 0.000000
vn 0.769947 -0.638108 0.000000
vn -0.769943 -0.638113 0.000000
vn -0.769943 -0.638113 0.000000
vn -0.769943 -0.638113 0.000000
vn -0.769943 -0.638113 0.000000
vn -0.755690 0.000000 -0.654930
vn -0.755690 0.000000 -0.654930
vn -0.755690 0.000000 -0.654930
vn -0.755690 0.000000 -0.654930
vn -0.769943 0.638113 0.000000
vn -0.769943 0.638113 0.000000
vn -0.769943 0.638113 0.000000
vn -0.769943 0.638113 0.000000
vn 0.769943 -0.638113 0.000000
vn 0.769943 -0.638113 0.000000
vn 0.769943 -0.638113 0.000000
vn 0.769943 -0.638113 0.000000
vn 0.755690 0.000000 -0.654929
vn 0.755690 0.000000 -0.654929
vn 0.755690 0.000000 -0.654929
vn 0.755690 0.000000 -0.654929
vn 0.769943 0.638113 0.000000
vn 0.769943 0.638113 0.000000
vn 0.769943 0.638113 0.000000
vn 0.769943 0.638113 0.000000
vn 0.000000 0.000000 1.000000
vn 0.000000 0.000000 1.000000
vn 0.000000 0.000000 1.000000
vn 0.000000 0.000000 1.000000
vn 0.000000 1.000000 0.000000
vn 0.000000 1.000000 0.000000
vn 0.000000 1.000000 0.000000
vn 0.000000 1.000000 0.000000
vn 0.000000 -1.000000 0.000000
vn 0.000000 -1.000000 0.000000
vn 0.000000 -1.000000 0.000000
vn 0.000000 -1.000000 0.000000
vn 1.000000 0.000000 0.000000
vn 1.000000 0.000000 0.000000
vn 1.000000 0.000000 0.000000
vn 1.000000 0.000000 0.000000
vn -1.000000 0.000000 0.000000
vn -1.000000 0.000000 0.000000
vn -1.000000 0.000000 0.000000
vn -1.000000 0.000000 0.000000
vn 0.000000 0.000000 1.000000
vn 0.000000 0.000000 1.000000
vn 0.000000 0.000000 1.000000
vn 0.000000 0.000000 1.000000
vn -1.000000 -0.000000 0.000000
vn -1.000000 -0.000000 0.000000
vn -1.000000 -0.000000 0.000000
vn -1.000000 -0.000000 0.000000
vn 1.000000 0.000000 0.000000
vn 1.000000 0.000000 0.000000
vn 1.000000 0.000000 0.000000
vn 1.000000 0.000000 0.000000
vn 0.000000 0.000000 -1.000000
vn 0.000000 0.000000 -1.000000
vn 0.000000 0.000000 -1.000000
vn 0.000000 0.000000 -1.000000
vn 0.000000 1.000000 0.000000
vn 0.000000 1.000000 0.000000
vn 0.000000 1.000000 0.000000
vn 0.000000 1.000000 0.000000
vn 1.000000 0.000000 0.000000
vn 1.000000 0.000000 0.000000
vn 0.000000 -1.000000 0.000000
vn 0.000000 -1.000000 0.000000
vn -1.000000 0.000000 0.000000
vn -1.000000 0.000000 0.000000
vn 0.000000 1.000000 0.000000
vn 0.000000 1.000000 0.000000
vn 1.000000 0.000000 0.000000
vn 1.000000 0.000000 0.000000
vn 0.000000 -1.000000 0.000000
vn 0.000000 -1.000000 0.000000
vn 0.000000 -1.000000 0.000000
vn 0.000000 -1.000000 0.000000
vn -1.000000 0.000000 0.000000
vn -1.000000 0.000000 0.000000
vn 0.000000 -1.000000 0.000000
vn 0.000000 -1.000000 0.000000
vn 0.000000 -1.000000 0.000000
vn 0.000000 0.000000 1.000000
vn 0.000000 0.000000 1.000000
vn 0.000000 0.000000 1.000000
vn 0.000000 0.000000 1.000000
vn 0.000000 1.000000 0.000000
vn 0.000000 1.000000 0.000000
vn 0.000000 1.000000 0.000000
vn -0.640446 -0.530780 0.555069
vn -0.640446 -0.530780 0.555069
vn -0.640446 -0.530780 0.555070
vn -0.640446 0.530780 0.555069
vn -0.640446 0.530780 0.555069
vn -0.640446 0.530780 0.555070
vn 0.640446 -0.530780 0.555070
vn 0.640446 -0.530780 0.555069
vn 0.640446 -0.530780 0.555069
vn 0.640446 0.530780 0.555069
vn 0.640446 0.530780 0.555069
vn 0.640446 0.530780 0.555070
vn 0.382679 0.923882 0.000000
vn 0.382679 0.923882 0.000000
vn 0.382679 0.923882 0.000000
vn 0.382679 0.923882 0.000000
vn -0.382679 0.923882 0.000000
vn -0.382679 0.923882 0.000000
vn -0.382679 0.923882 0.000000
vn -0.382679 0.923882 0.000000
vn -0.923880 0.382683 0.000000
vn -0.923880 0.382683 0.000000
vn -0.923880 0.382683 0.000000
vn -0.923880 0.382683 0.000000
vn -0.923880 -0.382683 0.000000
vn -0.923880 -0.382683 0.000000
vn -0.923880 -0.382683 0.000000
vn -0.923880 -0.382683 0.000000
vn -0.382679 -0.923882 0.000000
vn -0.382679 -0.923882 0.000000
vn -0.382679 -0.923882 0.000000
vn -0.382679 -0.923882 0.000000
vn 0.382679 -0.923882 0.000000
vn 0.382679 -0.923882 0.000000
vn 0.382679 -0.923882 0.000000
vn 0.382679 -0.923882 0.000000
vn 0.923880 -0.382683 0.000000
vn 0.923880 -0.382683 0.000000
vn 0.923880 -0.382683 0.000000
vn 0.923880 -0.382683 0.000000
vn 0.923880 0.382683 0.000000
vn 0.923880 0.382683 0.000000
vn 0.923880 0.382683 0.000000
vn 0.923880 0.382683 0.000000
vn 0.000000 0.000000 1.000000
vn 0.000000 0.000000 1.000000
vn 0.000000 0.000000 1.000000
vn 0.000000 0.000000 1.000000
vn 0.000000 0.000000 1.000000
vn 0.000000 0.000000 1.000000
vn 0.000000 0.000000 1.000000
vn 0.000000 0.000000 1.000000
vn 0.000000 0.000000 1.000000
vn 0.000000 0.000000 1.000000
vn 0.000000 0.000000 1.000000
vn 0.000000 0.000000 1.000000
vn 0.000000 0.000000 1.000000
vn 0.000000 1.000000 0.000000
vn 0.000000 1.000000 0.000000
vn 0.000000 1.000000 0.000000
vn 0.000000 1.000000 0.000000
vn 0.000000 0.000000 -1.000000
vn 0.000000 0.000000 -1.000000
vn 0.000000 0.000000 -1.000000
vn 0.000000 0.000000 -1.000000
vn 0.000000 -1.000000 0.000000
vn 0.000000 -1.000000 0.000000
vn 0.000000 -1.000000 0.000000
vn 0.000000 -1.000000 0.000000
vn 1.000000 0.000000 0.000000
vn 1.000000 0.000000 0.000000
vn 1.000000 0.000000 0.000000
vn 1.000000 0.000000 0.000000
vn -1.000000 0.000000 0.000000
vn -1.000000 0.000000 0.000000
vn -1.000000 0.000000 0.000000
vn -1.000000 0.000000 0.000000
s off
g polySurface7
usemtl initialShadingGroup
f 1/1/1 2/2/2 10/3/3 9/4/4
f 2/2/5 3/5/6 11/6/7 10/3/8
f 3/5/9 4/7/10 12/8/11 11/6/12
f 4/7/13 5/9/14 13/10/15 12/8/16
f 5/9/17 6/11/18 14/12/19 13/10/20
f 6/11/21 7/13/22 15/14/23 14/12/24
f 7/13/25 8/15/26 16/16/27 15/14/28
f 8/15/29 1/17/30 9/18/31 16/16/32
s 1
f 9/19/33 10/20/34 17/21/35
f 10/20/34 11/22/36 17/21/35
f 11/22/36 12/23/37 17/21/35
f 12/23/37 13/24/38 17/21/35
f 13/24/38 14/25/39 17/21/35
f 14/25/39 15/26/40 17/21/35
f 15/26/40 16/27/41 17/21/35
f 16/27/41 9/19/33 17/21/35
s 2
f 24/28/42 26/29/43 49/30/44 48/31/45
s 3
f 25/32/46 24/33/47 27/34/48 28/35/49
s 4
f 26/36/50 25/32/51 35/37/52 34/38/53
s 3
f 28/39/49 27/40/48 36/41/54 38/42/55
s 4
f 29/43/56 31/44/57 54/45/58 55/46/59
s 5
f 30/47/60 29/43/61 32/48/62 33/49/63
s 6
f 31/50/64 30/47/65 42/51/66 41/52/67
s 5
f 33/49/63 32/48/62 43/53/68 45/54/69
s 4
f 34/38/53 35/37/52 55/46/59 54/45/58
s 7
f 37/55/70 36/56/71 51/57/72 50/58/73
s 8
f 38/59/74 37/55/75 40/60/76 39/61/77
f 39/61/77 40/60/76 52/62/78 53/63/79
s 6
f 41/52/67 42/51/66 73/64/80 72/65/81
s 8
f 44/66/82 43/53/83 53/63/79 52/62/78
s 9
f 45/67/84 44/66/85 46/68/86 47/69/87
f 47/70/87 46/71/86 75/72/88 74/73/89
s 2
f 48/31/45 49/74/44 71/75/90 70/76/91
s 7
f 50/77/73 51/78/72 69/79/92 68/80/93
s off
f 56/81/94 57/82/95 79/83/96 78/84/97
f 57/85/98 56/86/99 59/87/100 58/88/101
f 58/89/102 59/90/103 65/91/104 64/92/105
f 60/93/106 61/94/107 77/95/108 76/96/109
f 61/94/110 60/97/111 63/98/112 62/99/113
f 62/99/114 63/98/115 67/100/116 66/101/117
s 10
f 25/32/118 28/35/119 20/102/120 35/37/121
s 11
f 30/47/122 33/49/123 22/103/124 42/51/125
s 12
f 48/31/126 19/104/127 27/40/128 24/28/129
s 13
f 37/55/130 50/58/131 63/105/132 40/60/133
s 14
f 49/106/134 26/36/135 34/38/136 58/88/137
s 10
f 55/46/138 21/107/139 32/48/140 29/43/141
s 14
f 57/85/142 54/45/143 31/44/144 41/108/145
s 13
f 52/62/146 60/109/147 46/68/148 44/66/149
s 10
f 35/37/121 20/102/120 21/107/139 55/46/138
s 14
f 58/88/137 34/38/136 54/45/143 57/85/142
s off
f 56/81/150 61/94/151 62/99/152 59/90/153
s 13
f 40/60/133 63/105/132 60/109/147 52/62/146
s off
f 59/90/154 62/99/155 66/101/156 65/91/157
s 13
f 63/110/132 50/77/131 68/80/158 67/100/159
s 12
f 19/104/127 48/31/126 70/76/160 18/111/161
s 14
f 49/74/134 58/112/137 64/92/162 71/75/163
s 11
f 42/51/125 22/103/124 23/113/164 73/64/165
s 13
f 46/71/148 60/93/147 76/96/166 75/72/167
s off
f 61/94/168 56/81/169 78/84/170 77/95/171
s 14
f 57/114/142 41/52/145 72/65/172 79/83/173
s 12
f 51/78/174 19/104/127 18/111/161 69/79/175
f 27/40/128 19/104/127 51/78/174 36/41/176
s 10
f 20/102/120 28/35/119 38/59/177 39/61/178
f 21/107/139 20/102/120 39/61/178 53/63/179
f 32/48/140 21/107/139 53/63/179 43/53/180
s 11
f 22/103/124 33/49/123 45/54/181 47/70/182
f 23/113/164 22/103/124 47/70/182 74/73/183
s off
f 24/33/184 25/32/185 26/36/186
f 29/43/187 30/47/188 31/50/189
f 36/56/190 37/55/191 38/59/192
f 43/53/193 44/66/194 45/67/195
f 80/115/196 81/116/197 89/117/198 88/118/199
f 81/116/200 82/119/201 90/120/202 89/117/203
f 82/119/204 83/121/205 91/122/206 90/120/207
f 83/121/208 84/123/209 92/124/210 91/122/211
f 84/123/212 85/125/213 93/126/214 92/124/215
f 85/125/216 86/127/217 94/128/218 93/126/219
f 86/127/220 87/129/221 95/130/222 94/128/223
f 87/129/224 80/131/225 88/132/226 95/130/227
s 15
f 88/133/228 89/134/229 96/135/230
f 89/134/229 90/136/231 96/135/230
f 90/136/231 91/137/232 96/135/230
f 91/137/232 92/138/233 96/135/230
f 92/138/233 93/139/234 96/135/230
f 93/139/234 94/140/235 96/135/230
f 94/140/235 95/141/236 96/135/230
f 95/141/236 88/133/228 96/135/230
s off
f 97/142/237 98/143/238 100/144/239 99/145/240
f 99/145/241 100/144/242 102/146/243 101/147/244
f 101/147/245 102/146/246 104/148/247 103/149/248
f 103/149/249 104/148/250 98/150/251 97/151/252
f 98/143/253 104/152/254 102/153/255 100/144/256
f 103/154/257 97/142/258 99/145/259 101/155/260
